<?xml version="1.0" standalone="no"?>
<!DOCTYPE svg PUBLIC "-//W3C//DTD SVG 1.1//EN" "http://www.w3.org/Graphics/SVG/1.1/DTD/svg11.dtd" >
<svg xmlns="http://www.w3.org/2000/svg">
    <metadata>
        Created by FontPrep 20130207 at Wed Sep 7 00:39:01 2016
        By Georgi Chelev
        Copyright (c) 2014 by Hannes von Doehren, Livius Dietzel. All rights reserved.
    </metadata>
    <defs>
        <font id="b4eb99ec2887cbd413d26947c4dbe115" horiz-adv-x='1024'>
            <font-face
                    font-family="BrixSansBold"
                    font-weight="700"
                    font-stretch="normal"
                    units-per-em="2048"
                    panose-1="2 0 0 0 0 0 0 0 0 0"
                    ascent="1475"
                    descent="-573"
                    x-height="934"
                    cap-height="1384"
                    bbox="-313 -465 2374 2032"
                    underline-thickness="102"
                    underline-position="-102"
                    unicode-range="U+0020-FB02"
            />
            <missing-glyph horiz-adv-x="1050"
                           d="M180 78h690v1188h-690v-1188zM102 0v1343h846v-1343h-846z"/>
            <glyph glyph-name="fi" unicode="fi" horiz-adv-x="1181"
                   d="M944 1110q-152 0 -151 143q0 74 42 111t106 37q63 0 107 -38t44 -111q0 -74 -42 -108t-106 -34zM823 0v723h-389v-723h-248v723h-147v190l147 21v139q0 340 340 340h131v-211h-116q-106 0 -107 -131v-137h637v-934h-248z"/>
            <glyph glyph-name="fl" unicode="fl" horiz-adv-x="1222"
                   d="M809 1413h248v-1110q0 -45 17 -64t63 -20h45v-229h-127q-246 0 -246 276v1147zM657 1413v-211h-116q-106 0 -107 -131v-137h242v-211h-242v-723h-248v723h-147v190l147 21v139q0 340 340 340h131z"/>
            <glyph glyph-name="f_f" unicode="ff" horiz-adv-x="1333"
                   d="M1286 1413v-211h-117q-106 0 -106 -131v-137h242v-211h-242v-723h-248v723h-381v-723h-248v723h-147v190l147 21v139q0 340 340 340h131v-211h-116q-106 0 -107 -131v-137h381v139q0 340 340 340h131z"/>
            <glyph glyph-name=".notdef" horiz-adv-x="1050"
                   d="M180 78h690v1188h-690v-1188zM102 0v1343h846v-1343h-846z"/>
            <glyph glyph-name=".null" horiz-adv-x="0"
            />
            <glyph glyph-name=".null" horiz-adv-x="0"
            />
            <glyph glyph-name="nonmarkingreturn" horiz-adv-x="681"
            />
            <glyph glyph-name="space" unicode=" " horiz-adv-x="395"
            />
            <glyph glyph-name="exclam" unicode="!" horiz-adv-x="509"
                   d="M418 142q0 -66 -46 -110t-117 -44t-118 44t-47 110t47 112q47 45 118 45t117 -45t46 -112zM358 461h-208l-44 923h300z"/>
            <glyph glyph-name="quotedbl" unicode="&#x22;" horiz-adv-x="784"
                   d="M119 885l-25 499h236l-25 -499h-186zM479 885l-18 499h229l-24 -499h-187z"/>
            <glyph glyph-name="numbersign" unicode="#" horiz-adv-x="1320"
                   d="M571 831l-36 -260h206l39 260h-209zM262 352h-201l35 219h203l37 260h-199l33 220h201l49 333h239l-53 -333h207l51 333h238l-49 -333h207l-35 -220h-207l-39 -260h207l-33 -219h-211l-53 -352h-240l58 352h-205l-56 -352h-241z"/>
            <glyph glyph-name="dollar" unicode="$" horiz-adv-x="1126"
                   d="M391 1008q0 -116 113 -162v317q-113 -39 -113 -155zM780 372q0 118 -125 167v-320q125 35 125 153zM655 -211h-151v191q-326 16 -445 251l185 152q82 -160 260 -174v375l-60 18q-326 102 -325 383q0 160 95 277t290 139v153h151v-151q258 -18 385 -203l-184 -147
q-70 100 -201 121v-375l60 -17q340 -106 340 -381q0 -177 -109 -285t-291 -132v-195z"/>
            <glyph glyph-name="percent" unicode="%" horiz-adv-x="1728"
                   d="M381 1397q319 0 319 -386t-319 -386t-319 386t319 386zM382 1251q-72 0 -102 -57t-30 -183q0 -125 30 -183t102 -58q74 0 102 57t28 183t-29 184q-29 57 -101 57zM1346 760q319 0 319 -386t-319 -386t-319 386t319 386zM1214 374q0 -126 30 -184t103 -57q73 0 101 57
q28 58 29 184q0 126 -29 183q-30 57 -102 57t-102 -57t-30 -183zM1372 1384l-825 -1384h-195l819 1384h201z"/>
            <glyph glyph-name="ampersand" unicode="&#x26;" horiz-adv-x="1327"
                   d="M401 1061q0 -82 111 -197l20 -22l33 22q84 62 121 104t37 95t-43 94t-115 41t-118 -41t-46 -96zM455 186q145 0 274 133l-223 244l-29 -20q-137 -103 -154 -140q-5 -10 -15 -28t-9 -65q0 -48 45 -86t111 -38zM1300 0h-278l-143 158q-184 -180 -424 -181q-179 -1 -285 93
t-107 241q0 90 50 172q49 82 114 138t135 100l-22 27l-21 20q-59 65 -66 77q-7 11 -23 31t-21 34q-7 13 -25 51t-18 100q0 147 109 247q110 99 287 99t287 -100t109 -246q0 -98 -64 -180t-192 -179l-24 -16l186 -201l191 258l174 -131l-211 -290l282 -304v-18z"/>
            <glyph glyph-name="quotesingle" unicode="'" horiz-adv-x="419"
                   d="M117 885l-21 499h230l-23 -499h-186z"/>
            <glyph glyph-name="parenleft" unicode="(" horiz-adv-x="593"
                   d="M74 494q0 280 76 496t225 452l190 -74q-231 -469 -231 -874q0 -236 54 -442t173 -433l-186 -74q-301 438 -301 949z"/>
            <glyph glyph-name="parenright" unicode=")" horiz-adv-x="593"
                   d="M260 494q0 410 -229 874l186 74q151 -236 227 -453t76 -495q0 -512 -303 -949l-182 74q117 227 171 432t54 443z"/>
            <glyph glyph-name="asterisk" unicode="*" horiz-adv-x="948"
                   d="M276 621l-145 133l188 217l-251 37l55 219l254 -86l-19 284h232l-17 -282l267 71l43 -217l-254 -30l170 -217l-183 -129l-155 241z"/>
            <glyph glyph-name="plus" unicode="+"
                   d="M72 446v211h381v402h235v-402h387v-211h-387v-399h-235v399h-381z"/>
            <glyph glyph-name="comma" unicode="," horiz-adv-x="481"
                   d="M391 301l-133 -524h-186l51 524h268z"/>
            <glyph glyph-name="hyphen" unicode="-" horiz-adv-x="802"
                   d="M106 659h590v-210h-590v210z"/>
            <glyph glyph-name="period" unicode="." horiz-adv-x="507"
                   d="M254 -12q-74 0 -124 47t-50 119t50 120t125 48t124 -48t49 -120t-50 -119t-124 -47z"/>
            <glyph glyph-name="slash" unicode="/" horiz-adv-x="784"
                   d="M735 1384l-430 -1384h-256l426 1384h260z"/>
            <glyph glyph-name="zero" unicode="0" horiz-adv-x="1230"
                   d="M616 1407q270 0 398 -187q128 -186 129 -526q0 -340 -128 -528t-399 -189q-528 0 -528 715q0 338 129 526t399 189zM615 201q138 0 198 121q59 120 59 370t-59 371t-197 121t-198 -121t-60 -371t60 -370t197 -121z"/>
            <glyph glyph-name="one" unicode="1" horiz-adv-x="831"
                   d="M686 0h-262v1135l-352 -142l-66 205l453 186h227v-1384z"/>
            <glyph glyph-name="two" unicode="2" horiz-adv-x="1071"
                   d="M516 1407q211 0 334 -118t123 -304q0 -133 -72 -249t-207 -259l-245 -262h536v-215h-889v184l422 451q184 195 184 350q0 90 -46 144t-132 55q-184 0 -184 -226h-264q0 205 114 327q115 122 326 122z"/>
            <glyph glyph-name="three" unicode="3" horiz-adv-x="1122"
                   d="M1034 371q0 -176 -133 -285t-361 -109q-228 -1 -344 105q-118 106 -118 283h264q0 -78 54 -121t152 -43t157 50t59 142q0 93 -68 149t-192 56h-133v215h133q238 0 237 193q0 82 -51 130t-141 48t-139 -44t-50 -116h-264q0 168 114 276t333 107q219 0 345 -109t126 -280
q0 -116 -68 -202t-172 -109q112 -25 186 -116t74 -220z"/>
            <glyph glyph-name="four" unicode="4" horiz-adv-x="1173"
                   d="M682 487v549l-358 -549h358zM1106 487v-215h-162v-272h-262v272h-633v191l619 921h276v-897h162z"/>
            <glyph glyph-name="five" unicode="5" horiz-adv-x="1085"
                   d="M1014 454q0 -216 -128 -346t-360 -130t-349 109q-118 110 -118 288h263q0 -80 53 -127t155 -47q102 1 157 67q54 66 54 173t-55 167t-162 62q-107 0 -192 -68l-209 33l88 749h745v-215h-532l-39 -325q94 49 197 49q184 0 308 -112t124 -327z"/>
            <glyph glyph-name="six" unicode="6" horiz-adv-x="1161"
                   d="M795 1024q1 74 -49 117t-136 43q-129 0 -190 -111t-62 -301q45 45 127 81t179 36q194 0 308 -120t114 -322q0 -201 -128 -335q-127 -134 -364 -135q-172 -1 -288 89q-218 168 -218 577q0 352 128 558t394 206q221 -1 334 -107t113 -276h-262zM590 201q110 0 167 64
q56 65 56 175t-56 173q-55 63 -149 63q-169 1 -248 -144q0 -145 60 -238t170 -93z"/>
            <glyph glyph-name="seven" unicode="7" horiz-adv-x="993"
                   d="M55 1169v215h899v-184l-505 -1200h-285l495 1169h-604z"/>
            <glyph glyph-name="eight" unicode="8" horiz-adv-x="1181"
                   d="M592 201q108 0 169 51q62 51 62 148t-64 150q-65 52 -168 52t-168 -52t-65 -148t63 -149q63 -52 171 -52zM591 1184q-95 0 -151 -47t-55 -137q0 -90 57 -136q56 -47 148 -47t149 47t57 136q0 88 -54 136q-56 48 -151 48zM592 -23q-232 -1 -368 105t-136 297q0 129 71 215
t183 117q-104 33 -166 110q-61 78 -61 193q0 182 127 288t350 105q223 0 349 -105t126 -288q0 -115 -61 -193t-164 -110q112 -31 182 -116t70 -216q0 -190 -136 -296t-366 -106z"/>
            <glyph glyph-name="nine" unicode="9" horiz-adv-x="1163"
                   d="M106 360h265q0 -74 48 -116t132 -43q254 0 254 413q-47 -47 -128 -83t-177 -35q-194 0 -308 120t-114 321q0 202 128 336t374 134t370 -182q125 -182 125 -509t-127 -533t-397 -206q-221 -1 -333 107t-112 276zM574 1184q-112 0 -168 -65t-56 -175t58 -173
q58 -62 163 -62q152 0 232 141q-1 146 -59 240t-170 94z"/>
            <glyph glyph-name="colon" unicode=":" horiz-adv-x="526"
                   d="M263 643q-71 0 -117 44t-46 112q0 67 46 111t117 44t117 -44t46 -112t-46 -111q-46 -44 -117 -44zM426 142q0 -66 -46 -110t-117 -44t-117 44t-46 110t46 112q46 45 117 45t117 -45t46 -112z"/>
            <glyph glyph-name="semicolon" unicode=";" horiz-adv-x="516"
                   d="M403 301l-131 -524h-186l51 524h266zM264 643q-70 0 -116 44t-46 112q0 67 46 111t116 44t116 -44t46 -112t-46 -111q-46 -44 -116 -44z"/>
            <glyph glyph-name="less" unicode="&#x3c;"
                   d="M121 426v254l874 326v-226l-665 -229l665 -227v-226z"/>
            <glyph glyph-name="equal" unicode="="
                   d="M135 418h875v-213h-875v213zM135 901h875v-211h-875v211z"/>
            <glyph glyph-name="greater" unicode="&#x3e;"
                   d="M1024 680v-254l-872 -328v226l665 227l-665 229v226z"/>
            <glyph glyph-name="question" unicode="?" horiz-adv-x="925"
                   d="M446 1405q194 0 308 -102q113 -102 112 -261q0 -96 -48 -178t-105 -132t-105 -122t-49 -149h-254q0 161 109 282q45 51 91 97q111 110 109 196q0 62 -41 102t-117 40t-116 -38q-41 -38 -41 -93l-240 24q1 143 97 239t290 95zM432 -12q-70 0 -116 44t-46 110t46 112
q46 45 116 45t117 -45t47 -112q0 -66 -47 -110t-117 -44z"/>
            <glyph glyph-name="at" unicode="@" horiz-adv-x="1859"
                   d="M901 909q139 0 223 -88l15 70h207l-91 -524q-38 -187 60 -187q106 0 185 132t79 364t-133 361q-133 130 -416 130q-182 -1 -330 -67q-273 -123 -381 -427q-49 -140 -49 -296q0 -561 551 -561q217 0 377 73l41 -168q-199 -90 -418 -90q-375 0 -561 199t-186 549
q0 264 111 483q112 218 333 354t512 136q369 0 557 -186q189 -186 189 -484t-142 -490t-336 -192q-192 0 -227 145q-69 -57 -133 -89t-154 -31q-139 0 -215 87t-75 257q0 215 116 377t291 163zM928 721q-94 0 -156 -100t-63 -234q0 -168 131 -168q115 0 190 70l70 373
q-78 59 -172 59z"/>
            <glyph glyph-name="A" unicode="A" horiz-adv-x="1271"
                   d="M637 1108l-184 -573h368zM987 0l-100 313h-502l-100 -313h-287l483 1384h310l485 -1384h-289z"/>
            <glyph glyph-name="B" unicode="B" horiz-adv-x="1216"
                   d="M408 825h176q211 0 211 172q0 166 -213 166h-174v-338zM408 221h206q133 0 192 47q58 47 58 144q0 193 -250 192h-206v-383zM137 0v1384h479q457 0 457 -364q0 -221 -196 -289q115 -27 191 -113t77 -225q0 -393 -522 -393h-486z"/>
            <glyph glyph-name="C" unicode="C" horiz-adv-x="1208"
                   d="M360 692q0 -483 336 -483q168 0 260 164l205 -129q-147 -264 -475 -264q-299 0 -452 186q-152 186 -152 527t152 527q153 185 452 185q328 0 475 -264l-205 -129q-92 164 -260 164q-336 -1 -336 -484z"/>
            <glyph glyph-name="D" unicode="D" horiz-adv-x="1339"
                   d="M408 221h149q238 1 330 103t92 365t-93 369t-329 105h-149v-942zM137 0v1384h436q354 0 520 -165q165 -165 165 -525t-166 -527q-164 -167 -519 -167h-436z"/>
            <glyph glyph-name="E" unicode="E" horiz-adv-x="1116"
                   d="M408 221h630v-221h-901v1384h895v-221h-624v-356h538v-221h-538v-365z"/>
            <glyph glyph-name="F" unicode="F" horiz-adv-x="1067"
                   d="M137 0v1384h862v-221h-591v-393h497v-219h-497v-551h-271z"/>
            <glyph glyph-name="G" unicode="G" horiz-adv-x="1327"
                   d="M698 532v222h557q10 -78 11 -133q0 -385 -242 -551q-131 -90 -326 -90q-296 0 -456 180t-160 535t165 533t480 177q158 0 279 -68t182 -184l-201 -131q-98 154 -276 154q-179 0 -265 -119t-86 -371t82 -366t244 -113q162 0 235 90t72 235h-295z"/>
            <glyph glyph-name="H" unicode="H" horiz-adv-x="1396"
                   d="M991 827v557h269v-1384h-269v606h-583v-606h-271v1384h271v-557h583z"/>
            <glyph glyph-name="I" unicode="I" horiz-adv-x="544"
                   d="M137 0v1384h271v-1384h-271z"/>
            <glyph glyph-name="J" unicode="J" horiz-adv-x="991"
                   d="M406 209q102 0 151 62t49 204v909h256v-925q0 -233 -120 -357t-336 -122q-277 0 -379 229l192 123q57 -123 187 -123z"/>
            <glyph glyph-name="K" unicode="K" horiz-adv-x="1263"
                   d="M408 0h-271v1384h271v-606l526 606h321l-493 -571l491 -813h-313l-360 621l-172 -183v-438z"/>
            <glyph glyph-name="L" unicode="L" horiz-adv-x="985"
                   d="M408 221h548v-221h-819v1384h271v-1163z"/>
            <glyph glyph-name="M" unicode="M" horiz-adv-x="1753"
                   d="M879 330l292 1054h357l145 -1384h-252l-100 1071l-301 -1071h-293l-283 1061l-114 -1061h-256l166 1384h360z"/>
            <glyph glyph-name="N" unicode="N" horiz-adv-x="1390"
                   d="M985 1384h268v-1384h-276l-569 956l2 -956h-275l2 1384h287l561 -942v942z"/>
            <glyph glyph-name="O" unicode="O" horiz-adv-x="1345"
                   d="M82 691q0 329 141 521t455 193q314 0 455 -206q131 -191 131 -513t-144 -514t-449 -192q-306 0 -448 191q-141 191 -141 520zM985 690q0 234 -70 360q-69 126 -241 126t-243 -126t-71 -362q0 -234 68 -356t243 -123q175 0 245 124t69 357z"/>
            <glyph glyph-name="P" unicode="P" horiz-adv-x="1181"
                   d="M408 1163v-438h194q240 0 240 219t-240 219h-194zM623 506h-215v-506h-271v1384h486q241 0 369 -114t128 -325t-128 -325t-369 -114z"/>
            <glyph glyph-name="Q" unicode="Q" horiz-adv-x="1345"
                   d="M985 690q0 234 -70 360q-69 126 -241 126t-243 -126t-71 -362q0 -234 68 -356t244 -123q125 0 196 65l-307 291l139 154l267 -246q18 94 18 217zM1264 690q0 -246 -82 -416l147 -135l-145 -162l-131 123q-143 -121 -381 -120q-307 0 -449 191q-141 191 -141 520t141 521
t455 193q314 0 455 -206q131 -191 131 -509z"/>
            <glyph glyph-name="R" unicode="R" horiz-adv-x="1234"
                   d="M633 784q139 0 195 48t55 142q-1 95 -57 142t-193 47h-225v-379h225zM137 0v1384h525q242 0 370 -108t129 -299q0 -145 -83 -247t-238 -142l348 -588h-303l-316 563h-161l2 -563h-273z"/>
            <glyph glyph-name="S" unicode="S" horiz-adv-x="1114"
                   d="M580 1176q-92 0 -144 -48t-53 -127q0 -121 143 -165l176 -54q180 -57 260 -150t78 -231q0 -197 -138 -311t-359 -113q-360 0 -496 254l184 152q45 -84 114 -130t185 -46t175 47q57 47 57 127q0 119 -156 168l-174 53q-328 102 -328 383q0 178 118 299t358 121
q307 0 448 -205l-184 -149q-84 125 -264 125z"/>
            <glyph glyph-name="T" unicode="T" horiz-adv-x="1120"
                   d="M55 1384h1010v-221h-371v-1163h-270v1163h-369v221z"/>
            <glyph glyph-name="U" unicode="U" horiz-adv-x="1318"
                   d="M659 -20q-248 0 -391 135t-143 413v856h270v-849q-1 -168 63 -247t201 -79t201 79q63 79 64 247v849h270v-856q0 -280 -144 -414t-391 -134z"/>
            <glyph glyph-name="V" unicode="V" horiz-adv-x="1239"
                   d="M946 1384h283l-438 -1384h-345l-436 1384h281l330 -1108z"/>
            <glyph glyph-name="W" unicode="W" horiz-adv-x="1984"
                   d="M838 1384h307l280 -1083l258 1083h279l-360 -1384h-332l-277 1018l-278 -1018h-330l-362 1384h278l260 -1083z"/>
            <glyph glyph-name="X" unicode="X" horiz-adv-x="1214"
                   d="M25 1384h303l278 -495l283 495h301l-406 -671l418 -713h-305l-291 520l-289 -520h-303l416 713z"/>
            <glyph glyph-name="Y" unicode="Y" horiz-adv-x="1210"
                   d="M739 0h-270v539l-467 845h297l309 -604l301 604h299l-469 -845v-539z"/>
            <glyph glyph-name="Z" unicode="Z" horiz-adv-x="1069"
                   d="M981 1384v-194l-602 -969h625v-221h-943v190l607 973h-576v221h889z"/>
            <glyph glyph-name="bracketleft" unicode="[" horiz-adv-x="671"
                   d="M117 1413h508v-209h-248v-1437h248v-209h-508v1855z"/>
            <glyph glyph-name="backslash" unicode="\" horiz-adv-x="784"
                   d="M481 0l-432 1384h260l426 -1384h-254z"/>
            <glyph glyph-name="bracketright" unicode="]" horiz-adv-x="671"
                   d="M47 1413h508v-1855h-508v209h248v1437h-248v209z"/>
            <glyph glyph-name="asciicircum" unicode="^"
                   d="M41 901l532 533l531 -533l-166 -166l-363 365l-366 -363z"/>
            <glyph glyph-name="underscore" unicode="_" horiz-adv-x="985"
                   d="M84 -63h819v-162h-819v162z"/>
            <glyph glyph-name="grave" unicode="`" horiz-adv-x="1228"
                   d="M414 1425h252l149 -338h-223z"/>
            <glyph glyph-name="a" unicode="a" horiz-adv-x="968"
                   d="M313 266q-1 -100 111 -100t192 80v176l-100 -14q-203 -29 -203 -142zM616 631q0 129 -143 129q-76 0 -113 -25t-36 -65v-37h-215q-6 31 -7 63q0 117 104 188q104 70 280 70q177 0 279 -78q101 -79 101 -243v-633h-233v109q-113 -131 -297 -132q-123 0 -199 74t-76 199
q0 283 453 313l102 8v60z"/>
            <glyph glyph-name="b" unicode="b" horiz-adv-x="1060"
                   d="M737 469q0 258 -207 258q-109 0 -172 -63v-383q66 -74 176 -74q110 1 157 69q46 68 46 193zM358 1413v-549q82 90 234 90q197 0 297 -126t100 -355t-103 -362q-104 -133 -290 -133t-287 100l-78 -78h-120v1413h247z"/>
            <glyph glyph-name="c" unicode="c" horiz-adv-x="917"
                   d="M502 -23q-220 -1 -326 137t-106 352t106 351t326 137q276 0 375 -209l-172 -122q-68 113 -183 112q-200 0 -200 -269t200 -269q117 0 183 114l172 -125q-98 -209 -375 -209z"/>
            <glyph glyph-name="d" unicode="d" horiz-adv-x="1062"
                   d="M528 727q-202 0 -202 -260t202 -260q113 0 177 63v394q-72 63 -177 63zM705 1413h247v-1413h-235v76q-102 -98 -272 -98t-271 128q-100 130 -100 362t100 359t272 127t259 -90v549z"/>
            <glyph glyph-name="e" unicode="e" horiz-adv-x="966"
                   d="M670 594q0 78 -47 120t-127 42t-125 -54t-49 -139h344q4 25 4 31zM501 954q204 0 301 -118t97 -287q0 -100 -16 -162h-564q7 -199 223 -199q112 0 218 86l117 -161q-135 -135 -357 -135t-337 132q-113 132 -113 349t113 356q114 139 318 139z"/>
            <glyph glyph-name="f" unicode="f" horiz-adv-x="704"
                   d="M657 1413v-211h-116q-106 0 -107 -131v-137h242v-211h-242v-723h-248v723h-147v190l147 21v139q0 340 340 340h131z"/>
            <glyph glyph-name="g" unicode="g" horiz-adv-x="1058"
                   d="M526 727q-202 0 -202 -260t202 -260q111 0 174 63v398q-63 59 -174 59zM715 934h235v-991q0 -164 -114 -266q-116 -101 -306 -101t-290 85t-101 224h213q0 -45 46 -79t129 -34t128 42q45 41 45 114v150q-94 -100 -231 -101q-193 0 -294 126q-101 127 -101 363t102 362
t291 126q152 0 248 -96v76z"/>
            <glyph glyph-name="h" unicode="h" horiz-adv-x="1060"
                   d="M111 0v1413h247v-567q109 109 281 108q319 0 319 -370v-584h-247v555q0 88 -39 130q-40 42 -140 42t-174 -70v-657h-247z"/>
            <glyph glyph-name="i" unicode="i" horiz-adv-x="473"
                   d="M233 1110q-152 0 -151 143q0 74 42 111t106 37t108 -38t43 -111q-1 -74 -43 -108t-105 -34zM113 0v934h247v-934h-247z"/>
            <glyph glyph-name="j" unicode="j" horiz-adv-x="475"
                   d="M236 1110q-152 0 -152 143q0 74 42 111t106 37t109 -38q44 -38 44 -111q0 -74 -43 -108t-106 -34zM113 -33v967h249v-918q0 -327 -268 -479l-147 158q166 113 166 272z"/>
            <glyph glyph-name="k" unicode="k" horiz-adv-x="1009"
                   d="M358 0h-247v1413h247v-827l347 348h303l-357 -348l344 -586h-276l-240 414l-121 -119v-295z"/>
            <glyph glyph-name="l" unicode="l" horiz-adv-x="520"
                   d="M104 1413h248v-1110q0 -45 18 -64t62 -20h45v-229h-127q-246 0 -246 276v1147z"/>
            <glyph glyph-name="m" unicode="m" horiz-adv-x="1656"
                   d="M111 0v934h239v-107q106 127 277 127t270 -137q45 57 128 97t196 40q174 0 254 -88t79 -262v-604h-249v584q0 143 -156 143q-115 0 -188 -70v-657h-248v637q-53 90 -159 90t-196 -70v-657h-247z"/>
            <glyph glyph-name="n" unicode="n" horiz-adv-x="1058"
                   d="M111 0v934h239v-107q90 127 289 127q319 0 319 -370v-584h-249v555q0 88 -39 130q-38 42 -138 42t-174 -70v-657h-247z"/>
            <glyph glyph-name="o" unicode="o" horiz-adv-x="1021"
                   d="M510 201q188 0 188 265t-188 265t-188 -265t188 -265zM510 954q217 0 330 -133q112 -133 112 -355t-112 -355t-330 -133q-217 0 -329 134q-111 136 -111 356t111 353q112 133 329 133z"/>
            <glyph glyph-name="p" unicode="p" horiz-adv-x="1069"
                   d="M537 207q206 0 206 260t-204 260q-115 0 -181 -65v-394q74 -61 179 -61zM358 -442h-247v1376h235v-78q102 98 275 98t275 -129t101 -361q0 -232 -101 -360q-100 -128 -274 -126q-174 0 -264 90v-510z"/>
            <glyph glyph-name="q" unicode="q" horiz-adv-x="1050"
                   d="M324 463q0 -256 200 -256q106 0 168 61v383q-68 76 -174 76q-106 1 -150 -69t-44 -195zM692 -442v510q-82 -90 -227 -91q-195 0 -294 126q-99 125 -99 355t102 363t284 133t283 -100l78 80h121v-1376h-248z"/>
            <glyph glyph-name="r" unicode="r" horiz-adv-x="731"
                   d="M348 786h2q94 168 250 168q59 0 107 -12l-19 -262q-78 18 -149 18q-121 0 -181 -110v-588h-247v934h237v-148z"/>
            <glyph glyph-name="s" unicode="s" horiz-adv-x="892"
                   d="M453 768q-61 0 -95 -26t-32 -64q0 -70 86 -88l155 -37q266 -59 267 -277q0 -127 -98 -213t-308 -86q-254 0 -381 158l141 148q113 -121 250 -121q66 0 105 24t39 68q0 68 -95 88l-161 39q-246 61 -246 272q0 119 94 210t305 91t336 -137l-137 -145q-96 96 -225 96z"/>
            <glyph glyph-name="t" unicode="t" horiz-adv-x="720"
                   d="M451 725v-418q0 -100 102 -100q55 0 111 16l4 -215q-78 -31 -207 -31t-194 80t-64 215v453h-170v188l170 21v227l248 39v-266h208v-209h-208z"/>
            <glyph glyph-name="u" unicode="u" horiz-adv-x="1058"
                   d="M948 934v-934h-239v106q-90 -127 -289 -126q-319 0 -320 370v584h250v-555q0 -88 39 -130t139 -42t172 69v658h248z"/>
            <glyph glyph-name="v" unicode="v" horiz-adv-x="1011"
                   d="M727 934h266l-336 -934h-299l-342 934h269l223 -692z"/>
            <glyph glyph-name="w" unicode="w" horiz-adv-x="1572"
                   d="M670 934h233l201 -672l188 672h256l-286 -934h-271l-205 618l-202 -618h-273l-286 934h254l192 -672z"/>
            <glyph glyph-name="x" unicode="x" horiz-adv-x="987"
                   d="M651 467l310 -467h-285l-180 301l-187 -301h-284l313 469l-313 465h284l185 -301l184 301h283z"/>
            <glyph glyph-name="y" unicode="y" horiz-adv-x="1001"
                   d="M287 934l227 -608l209 608h266l-547 -1376h-252l201 483l-383 893h279z"/>
            <glyph glyph-name="z" unicode="z" horiz-adv-x="856"
                   d="M780 934v-162l-401 -561h399v-211h-710v162l405 561h-387v211h694z"/>
            <glyph glyph-name="braceleft" unicode="{" horiz-adv-x="651"
                   d="M467 1122v-395q0 -217 -174 -242q174 -20 174 -237v-400q0 -58 28 -80t87 -22v-188q-197 0 -285 66t-88 224v375q0 168 -193 168v189q96 0 145 38q48 39 48 136v368q0 158 89 225t284 66v-188q-59 0 -87 -23t-28 -80z"/>
            <glyph glyph-name="bar" unicode="|" horiz-adv-x="397"
                   d="M281 -442h-164v1855h164v-1855z"/>
            <glyph glyph-name="braceright" unicode="}" horiz-adv-x="651"
                   d="M184 727v395q0 57 -27 80q-28 23 -87 23v188q196 -1 284 -67t88 -224v-368q0 -96 48 -136t145 -38v-189q-193 0 -193 -168v-375q0 -160 -88 -226t-284 -64v188q59 0 87 23t27 79v400q0 217 174 237q-174 25 -174 242z"/>
            <glyph glyph-name="asciitilde" unicode="~"
                   d="M952 680l-4 -242q-98 64 -170 64t-199 -65q-128 -65 -216 -65t-168 54v244q84 -64 153 -64q68 0 194 65q234 121 410 9z"/>
            <glyph glyph-name="uni00A0" unicode="&#xa0;" horiz-adv-x="395"
            />
            <glyph glyph-name="exclamdown" unicode="&#xa1;" horiz-adv-x="489"
                   d="M246 954q70 0 116 -44t46 -112t-46 -111q-46 -44 -116 -44t-116 44t-46 112q0 67 46 111t116 44zM143 479h207l43 -921h-299z"/>
            <glyph glyph-name="cent" unicode="&#xa2;" horiz-adv-x="970"
                   d="M334 467q0 -154 67 -223l119 491q-186 -8 -186 -268zM514 -23q-27 0 -45 3l-31 -127l-123 28l29 123q-133 49 -198 173q-64 124 -64 290q0 213 106 350t326 137q18 0 59 -4l37 156l125 -29l-39 -155q131 -51 193 -177l-174 -122q-35 57 -72 79l-123 -505h12
q119 0 185 114l172 -125q-98 -209 -375 -209z"/>
            <glyph glyph-name="sterling" unicode="&#xa3;" horiz-adv-x="1155"
                   d="M68 690h129v215q0 219 108 360q109 140 346 140q150 0 252 -52t195 -155l-162 -168q-125 139 -274 139q-209 0 -209 -262v-217h342v-162h-342v-319h546v-209h-804l2 528h-129v162z"/>
            <glyph glyph-name="currency" unicode="&#xa4;" horiz-adv-x="1142"
                   d="M571 418q131 0 131 137t-131 137t-131 -137t131 -137zM225 552q0 83 19 150l-162 172l172 168l156 -157q66 31 162 31t167 -33l154 155l160 -159l-160 -166q46 -153 0 -307l168 -175l-170 -170l-164 162q-70 -27 -163 -27t-158 31l-154 -155l-160 159l156 164
q-23 74 -23 157z"/>
            <glyph glyph-name="yen" unicode="&#xa5;" horiz-adv-x="1245"
                   d="M119 629h325l-57 114h-268v162h182l-246 479h291l272 -587l277 587h293l-252 -479h190v-162h-278l-60 -114h338v-162h-381v-467h-258v467h-368v162z"/>
            <glyph glyph-name="brokenbar" unicode="&#xa6;" horiz-adv-x="413"
                   d="M125 348h164v-790h-164v790zM289 627h-164v786h164v-786z"/>
            <glyph glyph-name="section" unicode="&#xa7;" horiz-adv-x="1138"
                   d="M367 644q0 -60 47 -97t155 -74l162 -57q57 49 57 109q0 59 -45 99t-137 70l-182 58q-57 -48 -57 -108zM1049 571q0 -147 -123 -239q121 -82 121 -224t-120 -242t-368 -99q-166 0 -295 52t-190 144l141 156q133 -156 347 -156t214 105q0 74 -172 129l-190 65
q-154 53 -230 131t-75 193q0 154 120 250q-121 84 -121 220t120 242t352 107q299 0 452 -178l-153 -156q-127 133 -322 133q-76 0 -128 -30t-52 -77q0 -46 40 -72t138 -58l170 -58q324 -107 324 -338z"/>
            <glyph glyph-name="dieresis" unicode="&#xa8;" horiz-adv-x="1228"
                   d="M815 1090q-150 0 -149 143q0 75 41 111t105 36t108 -38t43 -110q0 -72 -42 -108q-43 -34 -106 -34zM412 1090q-147 0 -148 143q0 75 40 111t104 36t109 -38q44 -38 44 -110t-43 -108q-43 -34 -106 -34z"/>
            <glyph glyph-name="copyright" unicode="&#xa9;" horiz-adv-x="1691"
                   d="M664 684q0 -219 186 -219q115 0 182 96l139 -139q-133 -143 -315 -143q-182 -1 -295 109t-113 295t113 294t290 109t318 -146l-137 -131q-37 35 -51 46t-52 27t-79 17q-90 -1 -138 -57t-48 -158zM266 685q0 -261 162 -421t419 -160t419 160t162 421t-162 421t-419 160
t-419 -160t-162 -421zM80 686q0 328 218 542t549 214t548 -213t217 -542t-217 -545t-548 -216t-549 216t-218 544z"/>
            <glyph glyph-name="ordfeminine" unicode="&#xaa;" horiz-adv-x="716"
                   d="M248 883q0 -57 72 -57t120 48v103l-63 -10q-129 -18 -129 -84zM608 717h-157v65q-72 -80 -193 -80q-84 0 -132 46t-48 122q0 182 297 199l65 4v35q0 74 -92 74t-92 -52v-20h-147q-2 12 -3 41q0 70 68 114t180 44q254 0 254 -201v-391z"/>
            <glyph glyph-name="guillemotleft" unicode="&#xab;" horiz-adv-x="1128"
                   d="M489 553l408 471l158 -111l-273 -362l273 -363l-158 -108zM41 553l408 471l157 -111l-272 -362l272 -363l-157 -108z"/>
            <glyph glyph-name="logicalnot" unicode="&#xac;"
                   d="M57 629v211h1002v-600h-236v389h-766z"/>
            <glyph glyph-name="uni00AD" unicode="&#xad;" horiz-adv-x="802"
                   d="M106 659h590v-210h-590v210z"/>
            <glyph glyph-name="registered" unicode="&#xae;" horiz-adv-x="1691"
                   d="M266 685q0 -261 162 -421t419 -160t419 160t162 421t-162 421t-419 160t-419 -160t-162 -421zM80 686q0 328 218 542t549 214t548 -213t217 -542t-217 -545t-548 -216t-549 216t-218 544zM535 283v794h309q317 0 317 -231q0 -78 -49 -137t-137 -82l201 -344h-195
l-180 323h-90v-323h-176zM985 840q0 40 -32 70t-101 30h-141v-199h133q74 0 108 30t33 69z"/>
            <glyph glyph-name="macron" unicode="&#xaf;" horiz-adv-x="1228"
                   d="M307 1337h613v-198h-613v198z"/>
            <glyph glyph-name="degree" unicode="&#xb0;" horiz-adv-x="692"
                   d="M344 973q68 0 104 42t35 103q0 62 -36 106q-35 44 -103 44t-102 -46t-35 -105q0 -60 35 -102q34 -42 102 -42zM629 1119q0 -119 -76 -201t-208 -82q-131 0 -205 82t-74 200q0 117 72 202q73 85 206 85t209 -84t76 -202z"/>
            <glyph glyph-name="plusminus" unicode="&#xb1;"
                   d="M72 55v211h1001v-211h-1001zM72 729v213h381v397h233v-397h387v-213h-387v-297h-233v297h-381z"/>
            <glyph glyph-name="twosuperior" unicode="&#xb2;" horiz-adv-x="663"
                   d="M51 1372q0 118 70 186t199 68q128 0 204 -66t76 -169q0 -69 -44 -133t-124 -142l-121 -110h291v-140h-532v119l241 236q100 94 101 170q0 41 -23 65t-63 25q-92 0 -93 -109h-182z"/>
            <glyph glyph-name="threesuperior" unicode="&#xb3;" horiz-adv-x="688"
                   d="M629 1067q0 -95 -81 -155t-219 -60t-208 58t-70 159h182q0 -72 101 -72q47 1 77 21t29 59q0 96 -135 97h-80v139h80q123 0 123 88q0 37 -26 57t-68 20t-66 -18q-25 -18 -24 -49h-183q0 93 69 153t201 60t209 -59t76 -154q0 -59 -37 -105t-96 -63q63 -16 105 -64t41 -112z
"/>
            <glyph glyph-name="acute" unicode="&#xb4;" horiz-adv-x="1228"
                   d="M563 1425h252l-178 -338h-223z"/>
            <glyph glyph-name="mu" unicode="&#xb5;" horiz-adv-x="1069"
                   d="M360 362q8 -155 152 -155q130 0 199 69v658h247v-934h-239v106q-90 -127 -287 -126q-39 0 -72 6v-428h-247v1376h247v-572z"/>
            <glyph glyph-name="paragraph" unicode="&#xb6;" horiz-adv-x="1093"
                   d="M770 -57v991h219v-942q0 -152 -50 -266t-187 -191l-140 152q158 106 158 256zM424 934h242v-952h-222v323q-389 0 -389 309q0 152 92 236q93 84 277 84z"/>
            <glyph glyph-name="periodcentered" unicode="&#xb7;" horiz-adv-x="522"
                   d="M262 395q-74 0 -124 47t-50 119t50 120t125 48t124 -48t49 -120t-50 -119t-124 -47z"/>
            <glyph glyph-name="cedilla" unicode="&#xb8;" horiz-adv-x="1228"
                   d="M852 -262q0 -84 -65 -132t-173 -48t-198 47v153q84 -63 180 -63q66 0 66 45t-89 45h-90l-12 14l80 219l143 -18l-39 -96q197 0 197 -166z"/>
            <glyph glyph-name="onesuperior" unicode="&#xb9;" horiz-adv-x="522"
                   d="M430 864h-184v584l-199 -72l-43 133l268 103h158v-748z"/>
            <glyph glyph-name="ordmasculine" unicode="&#xba;" horiz-adv-x="718"
                   d="M245 1006q0 -158 113 -158t113 158t-113 157q-113 1 -113 -157zM358 1309q146 0 217 -83q70 -83 70 -221q0 -139 -70 -221t-217 -82t-216 82q-68 82 -68 222t69 221q69 82 215 82z"/>
            <glyph glyph-name="guillemotright" unicode="&#xbb;" horiz-adv-x="1128"
                   d="M233 1024l408 -471l-408 -473l-159 108l272 363l-270 362zM682 1024l408 -471l-408 -473l-160 108l273 363l-271 362z"/>
            <glyph glyph-name="onequarter" unicode="&#xbc;" horiz-adv-x="1527"
                   d="M479 637h-184v584l-199 -72l-43 133l269 102h157v-747zM1286 1384l-825 -1384h-195l819 1384h201zM1194 276v246l-176 -246h176zM1458 276v-139h-84v-137h-180v137h-365v121l353 490h192v-472h84z"/>
            <glyph glyph-name="onehalf" unicode="&#xbd;" horiz-adv-x="1607"
                   d="M479 637h-184v584l-199 -72l-43 133l269 102h157v-747zM977 506q-1 118 69 186t199 68t205 -66t76 -170q0 -70 -44 -133t-124 -141l-121 -111h291v-139h-533v119l242 235q100 94 100 170q0 41 -22 66q-23 25 -64 24q-92 0 -92 -108h-182zM1286 1384l-825 -1384h-195
l819 1384h201z"/>
            <glyph glyph-name="threequarters" unicode="&#xbe;" horiz-adv-x="1583"
                   d="M1255 276v246l-176 -246h176zM1520 276v-139h-84v-137h-181v137h-364v121l352 490h193v-472h84zM1348 1384l-826 -1384h-194l819 1384h201zM647 840q0 -96 -81 -156t-219 -59q-138 0 -208 58t-69 159h182q0 -72 100 -72q47 0 77 20t30 60q0 96 -135 96h-80v139h80
q123 0 122 89q0 37 -25 57q-26 20 -68 20q-43 0 -67 -18t-24 -49h-182q0 94 68 153q69 59 201 59t209 -58q77 -60 77 -154q0 -60 -37 -106t-96 -62q63 -16 104 -64t41 -112z"/>
            <glyph glyph-name="questiondown" unicode="&#xbf;" horiz-adv-x="913"
                   d="M474 -463q-194 1 -306 103t-113 260q0 96 48 178t106 132q57 50 105 122t48 149h254q0 -160 -108 -282q-45 -51 -91 -97q-110 -109 -110 -196q0 -62 41 -102t117 -40t117 38t41 94l239 -25q0 -143 -96 -239q-98 -95 -292 -95zM489 954q70 0 116 -44t46 -110t-46 -112
q-46 -45 -116 -45q-71 0 -117 45t-46 112q0 66 46 110t117 44z"/>
            <glyph glyph-name="Agrave" unicode="&#xc0;" horiz-adv-x="1271"
                   d="M346 1845h252l150 -338h-224zM637 1108l-184 -573h368zM987 0l-100 313h-502l-100 -313h-287l483 1384h310l485 -1384h-289z"/>
            <glyph glyph-name="Aacute" unicode="&#xc1;" horiz-adv-x="1271"
                   d="M670 1845h252l-179 -338h-223zM637 1108l-184 -573h368zM987 0l-100 313h-502l-100 -313h-287l483 1384h310l485 -1384h-289z"/>
            <glyph glyph-name="Acircumflex" unicode="&#xc2;" horiz-adv-x="1271"
                   d="M514 1845h246l207 -338h-222l-108 183l-109 -183h-221zM637 1108l-184 -573h368zM987 0l-100 313h-502l-100 -313h-287l483 1384h310l485 -1384h-289z"/>
            <glyph glyph-name="Atilde" unicode="&#xc3;" horiz-adv-x="1271"
                   d="M796 1626q-62 0 -160 -43q-99 -43 -173 -43t-133 45l4 182q51 -49 139 -49q49 0 144 41t174 41t153 -43l-4 -184q-82 53 -144 53zM637 1108l-184 -573h368zM987 0l-100 313h-502l-100 -313h-287l483 1384h310l485 -1384h-289z"/>
            <glyph glyph-name="Adieresis" unicode="&#xc4;" horiz-adv-x="1271"
                   d="M840 1509q-150 0 -150 144q0 75 41 111t105 36t108 -38q43 -38 43 -110t-42 -108q-42 -35 -105 -35zM436 1509q-147 0 -147 144q0 75 40 111t104 36q65 0 109 -38t44 -110t-44 -108q-44 -35 -106 -35zM637 1108l-184 -573h368zM987 0l-100 313h-502l-100 -313h-287
l483 1384h310l485 -1384h-289z"/>
            <glyph glyph-name="Aring" unicode="&#xc5;" horiz-adv-x="1271"
                   d="M551 1664q-1 -32 21 -56t63 -23q41 0 63 23q22 22 23 56q0 34 -23 58q-24 24 -64 23t-62 -25t-21 -56zM414 1666q0 83 57 143q57 61 164 61t167 -60t60 -144q0 -83 -60 -144q-60 -62 -166 -62t-164 62t-58 144zM637 1108l-184 -573h368zM987 0l-100 313h-502l-100 -313
h-287l483 1384h310l485 -1384h-289z"/>
            <glyph glyph-name="AE" unicode="&#xc6;" horiz-adv-x="1935"
                   d="M1851 1384v-221h-624v-356h538v-221h-538v-377h631v-209h-902v317h-489l-199 -317h-286l895 1384h974zM956 530v596l-358 -596h358z"/>
            <glyph glyph-name="Ccedilla" unicode="&#xc7;" horiz-adv-x="1208"
                   d="M360 692q0 -483 336 -483q168 0 260 164l205 -129q-135 -242 -428 -262l-31 -78q197 0 197 -166q-1 -84 -65 -132t-172 -48t-199 47v153q84 -63 180 -63q66 0 66 45t-88 45h-91l-12 14l68 187q-248 31 -376 214q-128 182 -128 508t152 512q153 185 452 185
q328 0 475 -264l-205 -129q-92 164 -260 164q-336 -1 -336 -484z"/>
            <glyph glyph-name="Egrave" unicode="&#xc8;" horiz-adv-x="1118"
                   d="M315 1845h252l150 -338h-223zM408 221h630v-221h-901v1384h895v-221h-624v-356h538v-221h-538v-365z"/>
            <glyph glyph-name="Eacute" unicode="&#xc9;" horiz-adv-x="1118"
                   d="M621 1845h251l-178 -338h-223zM408 221h630v-221h-901v1384h895v-221h-624v-356h538v-221h-538v-365z"/>
            <glyph glyph-name="Ecircumflex" unicode="&#xca;" horiz-adv-x="1118"
                   d="M465 1845h246l207 -338h-222l-108 183l-109 -183h-221zM408 221h630v-221h-901v1384h895v-221h-624v-356h538v-221h-538v-365z"/>
            <glyph glyph-name="Edieresis" unicode="&#xcb;" horiz-adv-x="1118"
                   d="M788 1509q-150 0 -149 144q0 75 41 111t105 36q63 0 107 -38t44 -110t-42 -108q-42 -35 -106 -35zM385 1509q-147 0 -147 144q0 75 40 111t104 36t108 -38t44 -110t-42 -108q-44 -35 -107 -35zM408 221h630v-221h-901v1384h895v-221h-624v-356h538v-221h-538v-365z"/>
            <glyph glyph-name="Igrave" unicode="&#xcc;" horiz-adv-x="544"
                   d="M-14 1845h252l149 -338h-223zM137 0v1384h271v-1384h-271z"/>
            <glyph glyph-name="Iacute" unicode="&#xcd;" horiz-adv-x="544"
                   d="M313 1845h252l-178 -338h-223zM137 0v1384h271v-1384h-271z"/>
            <glyph glyph-name="Icircumflex" unicode="&#xce;" horiz-adv-x="544"
                   d="M147 1845h246l207 -338h-221l-109 183l-108 -183h-221zM137 0v1384h271v-1384h-271z"/>
            <glyph glyph-name="Idieresis" unicode="&#xcf;" horiz-adv-x="544"
                   d="M475 1509q-150 0 -149 144q0 75 41 111t105 36t108 -38t43 -110t-43 -108q-42 -35 -105 -35zM72 1509q-147 0 -148 144q0 75 40 111t104 36t109 -38q44 -38 44 -110t-43 -108q-43 -35 -106 -35zM137 0v1384h271v-1384h-271z"/>
            <glyph glyph-name="Eth" unicode="&#xd0;" horiz-adv-x="1357"
                   d="M424 221h149q238 1 330 103t92 365t-93 369t-329 105h-149v-372h231v-170h-231v-400zM29 791h125v593h436q354 0 519 -166t165 -524q0 -360 -165 -527t-519 -167h-436v621h-125v170z"/>
            <glyph glyph-name="Ntilde" unicode="&#xd1;" horiz-adv-x="1390"
                   d="M858 1626q-60 0 -160 -43t-174 -43t-133 45l4 182q51 -49 140 -49q49 0 144 41t174 41t153 -43l-5 -184q-82 53 -143 53zM985 1384h268v-1384h-276l-569 956l2 -956h-275l2 1384h287l561 -942v942z"/>
            <glyph glyph-name="Ograve" unicode="&#xd2;" horiz-adv-x="1345"
                   d="M397 1845h252l150 -338h-224zM82 691q0 329 141 521t455 193q314 0 455 -206q131 -191 131 -513t-144 -514t-449 -192q-306 0 -448 191q-141 191 -141 520zM985 690q0 234 -70 360q-69 126 -241 126t-243 -126t-71 -362q0 -234 68 -356t243 -123q175 0 245 124t69 357z
"/>
            <glyph glyph-name="Oacute" unicode="&#xd3;" horiz-adv-x="1345"
                   d="M709 1845h252l-179 -338h-223zM82 691q0 329 141 521t455 193q314 0 455 -206q131 -191 131 -513t-144 -514t-449 -192q-306 0 -448 191q-141 191 -141 520zM985 690q0 234 -70 360q-69 126 -241 126t-243 -126t-71 -362q0 -234 68 -356t243 -123q175 0 245 124t69 357z
"/>
            <glyph glyph-name="Ocircumflex" unicode="&#xd4;" horiz-adv-x="1345"
                   d="M551 1845h246l207 -338h-222l-108 183l-109 -183h-221zM82 691q0 329 141 521t455 193q314 0 455 -206q131 -191 131 -513t-144 -514t-449 -192q-306 0 -448 191q-141 191 -141 520zM985 690q0 234 -70 360q-69 126 -241 126t-243 -126t-71 -362q0 -234 68 -356t243 -123
q175 0 245 124t69 357z"/>
            <glyph glyph-name="Otilde" unicode="&#xd5;" horiz-adv-x="1345"
                   d="M834 1626q-62 0 -161 -43t-173 -43t-133 45l4 182q51 -49 139 -49q49 0 144 41t174 41t153 -43l-4 -184q-81 53 -143 53zM82 691q0 329 141 521t455 193q314 0 455 -206q131 -191 131 -513t-144 -514t-449 -192q-306 0 -448 191q-141 191 -141 520zM985 690
q0 234 -70 360q-69 126 -241 126t-243 -126t-71 -362q0 -234 68 -356t243 -123q175 0 245 124t69 357z"/>
            <glyph glyph-name="Odieresis" unicode="&#xd6;" horiz-adv-x="1345"
                   d="M874 1509q-150 0 -149 144q0 75 41 111t105 36q63 0 107 -38t44 -110t-42 -108q-42 -35 -106 -35zM471 1509q-147 0 -147 144q0 75 40 111t104 36t108 -38t45 -110t-43 -108q-44 -35 -107 -35zM82 691q0 329 141 521t455 193q314 0 455 -206q131 -191 131 -513t-144 -514
t-449 -192q-306 0 -448 191q-141 191 -141 520zM985 690q0 234 -70 360q-69 126 -241 126t-243 -126t-71 -362q0 -234 68 -356t243 -123q175 0 245 124t69 357z"/>
            <glyph glyph-name="multiply" unicode="&#xd7;"
                   d="M252 78l-152 153l312 316l-322 321l162 166l326 -323l317 317l154 -156l-320 -317l326 -324l-164 -165l-324 325z"/>
            <glyph glyph-name="Oslash" unicode="&#xd8;" horiz-adv-x="1351"
                   d="M987 690q0 139 -22 230l-492 -644q74 -68 201 -67q174 0 244 124q69 124 69 357zM362 690q0 -145 23 -241l496 649q-74 78 -205 78q-172 0 -243 -126t-71 -360zM1266 676q0 -312 -144 -504t-448 -192q-215 0 -352 98l-60 -78h-219l156 205q-115 175 -115 495t141 512
t451 193q215 0 358 -105l64 84h223l-166 -217q111 -179 111 -491z"/>
            <glyph glyph-name="Ugrave" unicode="&#xd9;" horiz-adv-x="1318"
                   d="M373 1845h252l149 -338h-223zM659 -20q-248 0 -391 135t-143 413v856h270v-849q-1 -168 63 -247t201 -79t201 79q63 79 64 247v849h270v-856q0 -280 -144 -414t-391 -134z"/>
            <glyph glyph-name="Uacute" unicode="&#xda;" horiz-adv-x="1318"
                   d="M696 1845h252l-178 -338h-223zM659 -20q-248 0 -391 135t-143 413v856h270v-849q-1 -168 63 -247t201 -79t201 79q63 79 64 247v849h270v-856q0 -280 -144 -414t-391 -134z"/>
            <glyph glyph-name="Ucircumflex" unicode="&#xdb;" horiz-adv-x="1318"
                   d="M537 1845h245l207 -338h-221l-109 183l-108 -183h-221zM659 -20q-248 0 -391 135t-143 413v856h270v-849q-1 -168 63 -247t201 -79t201 79q63 79 64 247v849h270v-856q0 -280 -144 -414t-391 -134z"/>
            <glyph glyph-name="Udieresis" unicode="&#xdc;" horiz-adv-x="1318"
                   d="M862 1509q-150 0 -149 144q0 75 41 111t105 36q63 0 107 -38t44 -110t-42 -108q-42 -35 -106 -35zM459 1509q-147 0 -148 144q0 75 40 111q41 36 105 36t108 -38t44 -110t-43 -108q-43 -35 -106 -35zM659 -20q-248 0 -391 135t-143 413v856h270v-849q-1 -168 63 -247
t201 -79t201 79q63 79 64 247v849h270v-856q0 -280 -144 -414t-391 -134z"/>
            <glyph glyph-name="Yacute" unicode="&#xdd;" horiz-adv-x="1210"
                   d="M637 1845h252l-178 -338h-224zM739 0h-270v539l-467 845h297l309 -604l301 604h299l-469 -845v-539z"/>
            <glyph glyph-name="Thorn" unicode="&#xde;" horiz-adv-x="1173"
                   d="M408 913v-438h194q240 0 240 219t-240 219h-194zM623 256h-215v-256h-271v1386h271v-251h215q241 0 369 -114t128 -326q0 -211 -128 -325t-369 -114z"/>
            <glyph glyph-name="germandbls" unicode="&#xdf;" horiz-adv-x="1144"
                   d="M111 0v985q0 215 105 332t308 117q204 0 310 -104t106 -257q0 -113 -117 -269q-39 -52 -39 -77q0 -47 80 -104l70 -52q84 -63 127 -130t43 -162q0 -135 -94 -219t-240 -83q-146 0 -274 62l73 194q85 -57 151 -57t99 30t33 73q0 76 -92 143l-80 59q-82 57 -116 101
t-34 114t77 178t77 181t-45 117t-133 44t-122 -54t-34 -165v-997h-239z"/>
            <glyph glyph-name="agrave" unicode="&#xe0;" horiz-adv-x="968"
                   d="M225 1425h252l150 -338h-224zM313 266q-1 -100 111 -100t192 80v176l-100 -14q-203 -29 -203 -142zM616 631q0 129 -143 129q-76 0 -113 -25t-36 -65v-37h-215q-6 31 -7 63q0 117 104 188q104 70 280 70q177 0 279 -78q101 -79 101 -243v-633h-233v109
q-113 -131 -297 -132q-123 0 -199 74t-76 199q0 283 453 313l102 8v60z"/>
            <glyph glyph-name="aacute" unicode="&#xe1;" horiz-adv-x="968"
                   d="M535 1425h251l-178 -338h-223zM313 266q-1 -100 111 -100t192 80v176l-100 -14q-203 -29 -203 -142zM616 631q0 129 -143 129q-76 0 -113 -25t-36 -65v-37h-215q-6 31 -7 63q0 117 104 188q104 70 280 70q177 0 279 -78q101 -79 101 -243v-633h-233v109
q-113 -131 -297 -132q-123 0 -199 74t-76 199q0 283 453 313l102 8v60z"/>
            <glyph glyph-name="acircumflex" unicode="&#xe2;" horiz-adv-x="966"
                   d="M375 1425h246l206 -338h-221l-108 183l-109 -183h-221zM313 266q-1 -100 111 -100t192 80v176l-100 -14q-203 -29 -203 -142zM616 631q0 129 -143 129q-76 0 -113 -25t-36 -65v-37h-215q-6 31 -7 63q0 117 104 188q104 70 280 70q177 0 279 -78q101 -79 101 -243v-633
h-233v109q-113 -131 -297 -132q-123 0 -199 74t-76 199q0 283 453 313l102 8v60z"/>
            <glyph glyph-name="atilde" unicode="&#xe3;" horiz-adv-x="968"
                   d="M660 1206q-62 0 -161 -43t-173 -43t-133 45l4 183q51 -50 119 -50t164 41q95 41 174 41t153 -43l-4 -184q-81 53 -143 53zM313 266q-1 -100 111 -100t192 80v176l-100 -14q-203 -29 -203 -142zM616 631q0 129 -143 129q-76 0 -113 -25t-36 -65v-37h-215q-6 31 -7 63
q0 117 104 188q104 70 280 70q177 0 279 -78q101 -79 101 -243v-633h-233v109q-113 -131 -297 -132q-123 0 -199 74t-76 199q0 283 453 313l102 8v60z"/>
            <glyph glyph-name="adieresis" unicode="&#xe4;" horiz-adv-x="968"
                   d="M698 1090q-150 0 -149 143q0 75 41 111t105 36q63 0 107 -38t44 -110t-42 -108q-43 -34 -106 -34zM295 1090q-147 0 -148 143q0 75 40 111q41 36 105 36t108 -38t44 -110t-43 -108q-43 -34 -106 -34zM313 266q-1 -100 111 -100t192 80v176l-100 -14q-203 -29 -203 -142z
M616 631q0 129 -143 129q-76 0 -113 -25t-36 -65v-37h-215q-6 31 -7 63q0 117 104 188q104 70 280 70q177 0 279 -78q101 -79 101 -243v-633h-233v109q-113 -131 -297 -132q-123 0 -199 74t-76 199q0 283 453 313l102 8v60z"/>
            <glyph glyph-name="aring" unicode="&#xe5;" horiz-adv-x="968"
                   d="M414 1269q0 -32 22 -56q22 -23 63 -23t63 22t22 57q0 33 -23 57t-63 24t-62 -24t-22 -57zM276 1271q0 83 58 143t165 60q108 0 167 -58q59 -60 59 -144t-60 -146q-59 -62 -165 -61q-106 -1 -165 61t-59 145zM313 266q-1 -100 111 -100t192 80v176l-100 -14
q-203 -29 -203 -142zM616 631q0 129 -143 129q-76 0 -113 -25t-36 -65v-37h-215q-6 31 -7 63q0 117 104 188q104 70 280 70q177 0 279 -78q101 -79 101 -243v-633h-233v109q-113 -131 -297 -132q-123 0 -199 74t-76 199q0 283 453 313l102 8v60z"/>
            <glyph glyph-name="ae" unicode="&#xe6;" horiz-adv-x="1515"
                   d="M1219 594q1 80 -47 121t-126 41t-124 -54t-52 -139h347q2 12 2 31zM311 266q1 -100 111 -100t194 80v176l-102 -14q-203 -29 -203 -142zM1081 188q125 0 230 86l116 -161q-139 -135 -359 -135t-339 141q-137 -141 -358 -142q-150 0 -231 73t-81 200q0 283 453 313l104 8
v60q0 129 -151 129q-70 0 -107 -25t-36 -65v-37h-216q-4 41 -4 63q0 117 102 188q102 70 292 70t282 -104q104 104 290 104t283 -118t97 -287q0 -94 -14 -162h-564q10 -199 211 -199z"/>
            <glyph glyph-name="ccedilla" unicode="&#xe7;" horiz-adv-x="919"
                   d="M70 477q0 203 106 340t326 137q276 0 375 -209l-172 -122q-68 113 -183 112q-200 0 -200 -269t200 -269q117 0 183 114l172 -125q-84 -182 -316 -204l-31 -78q197 0 197 -166q-1 -84 -65 -132t-172 -48t-199 47v153q84 -63 180 -63q66 0 66 45t-88 45h-91l-12 14l68 185
q-174 30 -259 160t-85 333z"/>
            <glyph glyph-name="egrave" unicode="&#xe8;" horiz-adv-x="966"
                   d="M240 1425h252l149 -338h-223zM670 594q0 78 -47 120t-127 42t-125 -54t-49 -139h344q4 25 4 31zM501 954q204 0 301 -118t97 -287q0 -100 -16 -162h-564q7 -199 223 -199q112 0 218 86l117 -161q-135 -135 -357 -135t-337 132q-113 132 -113 349t113 356q114 139 318 139
z"/>
            <glyph glyph-name="eacute" unicode="&#xe9;" horiz-adv-x="966"
                   d="M532 1425h252l-178 -338h-223zM670 594q0 78 -47 120t-127 42t-125 -54t-49 -139h344q4 25 4 31zM501 954q204 0 301 -118t97 -287q0 -100 -16 -162h-564q7 -199 223 -199q112 0 218 86l117 -161q-135 -135 -357 -135t-337 132q-113 132 -113 349t113 356
q114 139 318 139z"/>
            <glyph glyph-name="ecircumflex" unicode="&#xea;" horiz-adv-x="966"
                   d="M387 1425h246l207 -338h-222l-108 183l-109 -183h-221zM670 594q0 78 -47 120t-127 42t-125 -54t-49 -139h344q4 25 4 31zM501 954q204 0 301 -118t97 -287q0 -100 -16 -162h-564q7 -199 223 -199q112 0 218 86l117 -161q-135 -135 -357 -135t-337 132q-113 132 -113 349
t113 356q114 139 318 139z"/>
            <glyph glyph-name="edieresis" unicode="&#xeb;" horiz-adv-x="966"
                   d="M715 1090q-150 0 -150 143q0 75 41 111q42 36 106 36t107 -38t43 -110t-42 -108q-42 -34 -105 -34zM311 1090q-147 0 -147 143q0 75 40 111t104 36t108 -38t45 -110q0 -72 -43 -108q-44 -34 -107 -34zM670 594q0 78 -47 120t-127 42t-125 -54t-49 -139h344q4 25 4 31z
M501 954q204 0 301 -118t97 -287q0 -100 -16 -162h-564q7 -199 223 -199q112 0 218 86l117 -161q-135 -135 -357 -135t-337 132q-113 132 -113 349t113 356q114 139 318 139z"/>
            <glyph glyph-name="igrave" unicode="&#xec;" horiz-adv-x="471"
                   d="M-39 1425h252l149 -338h-223zM113 0v934h247v-934h-247z"/>
            <glyph glyph-name="iacute" unicode="&#xed;" horiz-adv-x="471"
                   d="M258 1425h252l-178 -338h-223zM111 0v934h247v-934h-247z"/>
            <glyph glyph-name="icircumflex" unicode="&#xee;" horiz-adv-x="473"
                   d="M115 1425h245l207 -338h-221l-108 183l-109 -183h-221zM113 0v934h247v-934h-247z"/>
            <glyph glyph-name="idieresis" unicode="&#xef;" horiz-adv-x="473"
                   d="M436 1090q-150 0 -149 143q0 75 41 111t105 36q63 0 107 -38t44 -110t-42 -108q-43 -34 -106 -34zM33 1090q-147 0 -148 143q0 75 40 111q41 36 105 36t108 -38t44 -110t-43 -108q-43 -34 -106 -34zM113 0v934h247v-934h-247z"/>
            <glyph glyph-name="eth" unicode="&#xf0;" horiz-adv-x="1077"
                   d="M524 193q108 0 164 97q55 97 55 245q-74 147 -229 147q-98 0 -149 -65t-51 -177t50 -179q52 -68 160 -68zM476 915q190 0 282 -147q-6 137 -84 291l-144 -62l-63 156l121 49q-78 111 -180 211h294q53 -49 105 -121l127 51l61 -147l-106 -45q111 -236 111 -505t-105 -459
q-53 -97 -149 -153t-224 -57q-223 0 -338 128q-114 129 -114 343t108 340t298 127z"/>
            <glyph glyph-name="ntilde" unicode="&#xf1;" horiz-adv-x="1058"
                   d="M698 1206q-62 0 -160 -43q-99 -43 -173 -43t-134 45l5 183q52 -50 120 -50t163 41t174 41t153 -43l-4 -184q-82 53 -144 53zM111 0v934h239v-107q90 127 289 127q319 0 319 -370v-584h-249v555q0 88 -39 130q-38 42 -138 42t-174 -70v-657h-247z"/>
            <glyph glyph-name="ograve" unicode="&#xf2;" horiz-adv-x="1021"
                   d="M246 1425h252l149 -338h-223zM510 201q188 0 188 265t-188 265t-188 -265t188 -265zM510 954q217 0 330 -133q112 -133 112 -355t-112 -355t-330 -133q-217 0 -329 134q-111 136 -111 356t111 353q112 133 329 133z"/>
            <glyph glyph-name="oacute" unicode="&#xf3;" horiz-adv-x="1021"
                   d="M539 1425h252l-179 -338h-223zM510 201q188 0 188 265t-188 265t-188 -265t188 -265zM510 954q217 0 330 -133q112 -133 112 -355t-112 -355t-330 -133q-217 0 -329 134q-111 136 -111 356t111 353q112 133 329 133z"/>
            <glyph glyph-name="ocircumflex" unicode="&#xf4;" horiz-adv-x="1021"
                   d="M389 1425h246l207 -338h-221l-109 183l-109 -183h-221zM510 201q188 0 188 265t-188 265t-188 -265t188 -265zM510 954q217 0 330 -133q112 -133 112 -355t-112 -355t-330 -133q-217 0 -329 134q-111 136 -111 356t111 353q112 133 329 133z"/>
            <glyph glyph-name="otilde" unicode="&#xf5;" horiz-adv-x="1021"
                   d="M676 1206q-60 0 -160 -43t-174 -43t-133 45l4 183q51 -50 119 -50t164 41t174 41t153 -43l-4 -184q-82 53 -143 53zM510 201q188 0 188 265t-188 265t-188 -265t188 -265zM510 954q217 0 330 -133q112 -133 112 -355t-112 -355t-330 -133q-217 0 -329 134
q-111 136 -111 356t111 353q112 133 329 133z"/>
            <glyph glyph-name="odieresis" unicode="&#xf6;" horiz-adv-x="1021"
                   d="M715 1090q-150 0 -150 143q0 75 41 111q42 36 106 36t107 -38t43 -110t-42 -108q-42 -34 -105 -34zM311 1090q-147 0 -147 143q0 75 40 111t104 36t108 -38t45 -110q0 -72 -43 -108q-44 -34 -107 -34zM510 201q188 0 188 265t-188 265t-188 -265t188 -265zM510 954
q217 0 330 -133q112 -133 112 -355t-112 -355t-330 -133q-217 0 -329 134q-111 136 -111 356t111 353q112 133 329 133z"/>
            <glyph glyph-name="divide" unicode="&#xf7;"
                   d="M414 933q0 69 46 111t117 43q71 0 117 -44q46 -43 45 -111q1 -68 -45 -112t-117 -44t-117 44t-46 113zM578 18q-70 0 -117 45t-47 112t46 110t117 43t117 -43t45 -110q1 -67 -45 -112t-116 -45zM72 446v213h1001v-213h-1001z"/>
            <glyph glyph-name="oslash" unicode="&#xf8;" horiz-adv-x="1021"
                   d="M510 201q188 0 188 264q0 53 -10 104l-270 -348q39 -20 92 -20zM322 469q0 -61 10 -117l274 355q-41 25 -98 24q-186 0 -186 -262zM514 954q139 0 236 -59l30 39h191l-109 -141q90 -127 90 -338t-112 -344t-334 -134q-135 0 -232 58l-26 -35h-187l103 133
q-94 127 -94 341t111 347q112 133 333 133z"/>
            <glyph glyph-name="ugrave" unicode="&#xf9;" horiz-adv-x="1058"
                   d="M948 934v-934h-239v106q-90 -127 -289 -126q-319 0 -320 370v584h250v-555q0 -88 39 -130t139 -42t172 69v658h248zM252 1425h252l149 -338h-223z"/>
            <glyph glyph-name="uacute" unicode="&#xfa;" horiz-adv-x="1058"
                   d="M948 934v-934h-239v106q-90 -127 -289 -126q-319 0 -320 370v584h250v-555q0 -88 39 -130t139 -42t172 69v658h248zM555 1425h252l-178 -338h-223z"/>
            <glyph glyph-name="ucircumflex" unicode="&#xfb;" horiz-adv-x="1058"
                   d="M948 934v-934h-239v106q-90 -127 -289 -126q-319 0 -320 370v584h250v-555q0 -88 39 -130t139 -42t172 69v658h248zM399 1425h246l207 -338h-221l-109 183l-108 -183h-221z"/>
            <glyph glyph-name="udieresis" unicode="&#xfc;" horiz-adv-x="1058"
                   d="M948 934v-934h-239v106q-90 -127 -289 -126q-319 0 -320 370v584h250v-555q0 -88 39 -130t139 -42t172 69v658h248zM729 1090q-150 0 -149 143q0 75 41 111t105 36t108 -38t43 -110q0 -72 -42 -108q-43 -34 -106 -34zM326 1090q-147 0 -148 143q0 75 40 111t104 36
t109 -38q44 -38 44 -110t-43 -108q-43 -34 -106 -34z"/>
            <glyph glyph-name="yacute" unicode="&#xfd;" horiz-adv-x="1001"
                   d="M551 1425h252l-178 -338h-224zM287 934l227 -608l209 608h266l-547 -1376h-252l201 483l-383 893h279z"/>
            <glyph glyph-name="thorn" unicode="&#xfe;" horiz-adv-x="1071"
                   d="M539 207q206 0 206 260t-206 260q-115 0 -181 -65v-394q74 -61 181 -61zM358 -442h-247v1824h247v-518q94 90 265 90t273 -129t101 -361q0 -232 -101 -360q-100 -128 -274 -126q-174 0 -264 90v-510z"/>
            <glyph glyph-name="ydieresis" unicode="&#xff;" horiz-adv-x="1001"
                   d="M713 1090q-150 0 -150 143q0 75 41 111q42 36 106 36t107 -38t43 -110t-42 -108q-42 -34 -105 -34zM309 1090q-147 0 -147 143q0 75 40 111t104 36t108 -38t45 -110q0 -72 -43 -108q-44 -34 -107 -34zM287 934l227 -608l209 608h266l-547 -1376h-252l201 483l-383 893
h279z"/>
            <glyph glyph-name="Amacron" unicode="&#x100;" horiz-adv-x="1271"
                   d="M332 1757h612v-198h-612v198zM637 1108l-184 -573h368zM987 0l-100 313h-502l-100 -313h-287l483 1384h310l485 -1384h-289z"/>
            <glyph glyph-name="amacron" unicode="&#x101;" horiz-adv-x="968"
                   d="M193 1337h612v-198h-612v198zM313 266q-1 -100 111 -100t192 80v176l-100 -14q-203 -29 -203 -142zM616 631q0 129 -143 129q-76 0 -113 -25t-36 -65v-37h-215q-6 31 -7 63q0 117 104 188q104 70 280 70q177 0 279 -78q101 -79 101 -243v-633h-233v109
q-113 -131 -297 -132q-123 0 -199 74t-76 199q0 283 453 313l102 8v60z"/>
            <glyph glyph-name="Abreve" unicode="&#x102;" horiz-adv-x="1271"
                   d="M952 1829q0 -137 -83 -224t-233 -87t-232 88q-81 88 -80 223h157q11 -59 53 -96t102 -37t102 37t53 96h161zM637 1108l-184 -573h368zM987 0l-100 313h-502l-100 -313h-287l483 1384h310l485 -1384h-289z"/>
            <glyph glyph-name="abreve" unicode="&#x103;" horiz-adv-x="968"
                   d="M811 1409q0 -137 -83 -224t-233 -87t-232 88q-81 88 -81 223h158q10 -59 52 -96t102 -37t103 37q42 37 52 96h162zM313 266q-1 -100 111 -100t192 80v176l-100 -14q-203 -29 -203 -142zM616 631q0 129 -143 129q-76 0 -113 -25t-36 -65v-37h-215q-6 31 -7 63
q0 117 104 188q104 70 280 70q177 0 279 -78q101 -79 101 -243v-633h-233v109q-113 -131 -297 -132q-123 0 -199 74t-76 199q0 283 453 313l102 8v60z"/>
            <glyph glyph-name="Aogonek" unicode="&#x104;" horiz-adv-x="1269"
                   d="M635 1108l-184 -573h368zM1060 -442q-112 0 -178 51t-65 155q0 104 129 209l37 31l-98 309h-502l-100 -313h-287l483 1384h309l486 -1384l-141 -102q-63 -47 -63 -81q-1 -65 65 -67q63 0 139 55v-200q-102 -47 -214 -47z"/>
            <glyph glyph-name="aogonek" unicode="&#x105;" horiz-adv-x="966"
                   d="M311 266q-1 -100 111 -100t192 80v176l-100 -14q-203 -29 -203 -142zM614 631q0 129 -143 129q-76 0 -113 -25t-36 -65v-37h-216q-6 31 -6 63q0 117 104 188q104 70 280 70q177 0 279 -78q101 -79 101 -243v-633l-172 -106q-55 -33 -55 -80t59 -47t121 30l6 -164
q-91 -41 -184 -34q-233 6 -233 170q0 113 112 174l113 61v105q-113 -131 -297 -132q-123 0 -199 74t-76 199q0 283 453 313l102 8v60z"/>
            <glyph glyph-name="Cacute" unicode="&#x106;" horiz-adv-x="1206"
                   d="M707 1845h251l-178 -338h-223zM360 692q0 -483 336 -483q168 0 260 164l205 -129q-147 -264 -475 -264q-299 0 -452 186q-152 186 -152 527t152 527q153 185 452 185q328 0 475 -264l-205 -129q-92 164 -260 164q-336 -1 -336 -484z"/>
            <glyph glyph-name="cacute" unicode="&#x107;" horiz-adv-x="917"
                   d="M541 1425h252l-179 -338h-223zM502 -23q-220 -1 -326 137t-106 352t106 351t326 137q276 0 375 -209l-172 -122q-68 113 -183 112q-200 0 -200 -269t200 -269q117 0 183 114l172 -125q-98 -209 -375 -209z"/>
            <glyph glyph-name="Ccircumflex" unicode="&#x108;" horiz-adv-x="1206"
                   d="M555 1845h246l207 -338h-222l-108 183l-109 -183h-221zM360 692q0 -483 336 -483q168 0 260 164l205 -129q-147 -264 -475 -264q-299 0 -452 186q-152 186 -152 527t152 527q153 185 452 185q328 0 475 -264l-205 -129q-92 164 -260 164q-336 -1 -336 -484z"/>
            <glyph glyph-name="ccircumflex" unicode="&#x109;" horiz-adv-x="917"
                   d="M391 1425h246l207 -338h-221l-109 183l-108 -183h-222zM502 -23q-220 -1 -326 137t-106 352t106 351t326 137q276 0 375 -209l-172 -122q-68 113 -183 112q-200 0 -200 -269t200 -269q117 0 183 114l172 -125q-98 -209 -375 -209z"/>
            <glyph glyph-name="Cdotaccent" unicode="&#x10a;" horiz-adv-x="1206"
                   d="M680 1509q-150 0 -150 144q0 75 41 111t105 36t109 -38q44 -38 44 -110t-43 -108q-43 -35 -106 -35zM360 692q0 -483 336 -483q168 0 260 164l205 -129q-147 -264 -475 -264q-299 0 -452 186q-152 186 -152 527t152 527q153 185 452 185q328 0 475 -264l-205 -129
q-92 164 -260 164q-336 -1 -336 -484z"/>
            <glyph glyph-name="cdotaccent" unicode="&#x10b;" horiz-adv-x="917"
                   d="M526 1090q-150 0 -149 143q0 75 41 111t105 36q65 0 109 -38t44 -110t-43 -108q-44 -34 -107 -34zM502 -23q-220 -1 -326 137t-106 352t106 351t326 137q276 0 375 -209l-172 -122q-68 113 -183 112q-200 0 -200 -269t200 -269q117 0 183 114l172 -125
q-98 -209 -375 -209z"/>
            <glyph glyph-name="Ccaron" unicode="&#x10c;" horiz-adv-x="1206"
                   d="M801 1507h-246l-207 338h221l109 -182l108 182h222zM360 692q0 -483 336 -483q168 0 260 164l205 -129q-147 -264 -475 -264q-299 0 -452 186q-152 186 -152 527t152 527q153 185 452 185q328 0 475 -264l-205 -129q-92 164 -260 164q-336 -1 -336 -484z"/>
            <glyph glyph-name="ccaron" unicode="&#x10d;" horiz-adv-x="917"
                   d="M641 1087h-246l-207 338h222l108 -182l109 182h221zM502 -23q-220 -1 -326 137t-106 352t106 351t326 137q276 0 375 -209l-172 -122q-68 113 -183 112q-200 0 -200 -269t200 -269q117 0 183 114l172 -125q-98 -209 -375 -209z"/>
            <glyph glyph-name="Dcaron" unicode="&#x10e;" horiz-adv-x="1339"
                   d="M727 1507h-246l-207 338h222l108 -182l109 182h221zM408 221h149q238 1 330 103t92 365t-93 369t-329 105h-149v-942zM137 0v1384h436q354 0 520 -165q165 -165 165 -525t-166 -527q-164 -167 -519 -167h-436z"/>
            <glyph glyph-name="dcaron" unicode="&#x10f;" horiz-adv-x="1064"
                   d="M1343 1413l-131 -313h-186l53 313h264zM528 727q-202 0 -202 -260t202 -260q113 0 177 63v394q-72 63 -177 63zM705 1413h247v-1413h-235v76q-102 -98 -272 -98t-271 128q-100 130 -100 362t100 359t272 127t259 -90v549z"/>
            <glyph glyph-name="Dcroat" unicode="&#x110;" horiz-adv-x="1357"
                   d="M424 221h149q238 1 330 103t92 365t-93 369t-329 105h-149v-372h231v-170h-231v-400zM29 791h125v593h436q354 0 519 -166t165 -524q0 -360 -165 -527t-519 -167h-436v621h-125v170z"/>
            <glyph glyph-name="dcroat" unicode="&#x111;" horiz-adv-x="1064"
                   d="M528 727q-202 0 -202 -260t202 -260q113 0 177 63v394q-72 63 -177 63zM522 1241h183v172h247v-172h121v-170h-121v-1071h-235v76q-102 -98 -272 -98t-271 128q-100 130 -100 362t100 359t272 127t259 -90v207h-183v170z"/>
            <glyph glyph-name="Emacron" unicode="&#x112;" horiz-adv-x="1118"
                   d="M281 1757h612v-198h-612v198zM408 221h630v-221h-901v1384h895v-221h-624v-356h538v-221h-538v-365z"/>
            <glyph glyph-name="emacron" unicode="&#x113;" horiz-adv-x="966"
                   d="M205 1337h612v-198h-612v198zM670 594q0 78 -47 120t-127 42t-125 -54t-49 -139h344q4 25 4 31zM501 954q204 0 301 -118t97 -287q0 -100 -16 -162h-564q7 -199 223 -199q112 0 218 86l117 -161q-135 -135 -357 -135t-337 132q-113 132 -113 349t113 356q114 139 318 139
z"/>
            <glyph glyph-name="Ebreve" unicode="&#x114;" horiz-adv-x="1118"
                   d="M903 1829q0 -137 -83 -224t-233 -87t-232 88q-81 88 -81 223h158q10 -59 52 -96t102 -37t103 37q42 37 52 96h162zM408 221h630v-221h-901v1384h895v-221h-624v-356h538v-221h-538v-365z"/>
            <glyph glyph-name="ebreve" unicode="&#x115;" horiz-adv-x="966"
                   d="M819 1409q0 -137 -83 -224t-233 -87t-232 88q-81 88 -81 223h158q10 -59 52 -96t102 -37t103 37q42 37 52 96h162zM670 594q0 78 -47 120t-127 42t-125 -54t-49 -139h344q4 25 4 31zM501 954q204 0 301 -118t97 -287q0 -100 -16 -162h-564q7 -199 223 -199q112 0 218 86
l117 -161q-135 -135 -357 -135t-337 132q-113 132 -113 349t113 356q114 139 318 139z"/>
            <glyph glyph-name="Edotaccent" unicode="&#x116;" horiz-adv-x="1118"
                   d="M588 1509q-150 0 -150 144q0 75 41 111t105 36t109 -38q44 -38 44 -110t-43 -108q-43 -35 -106 -35zM408 221h630v-221h-901v1384h895v-221h-624v-356h538v-221h-538v-365z"/>
            <glyph glyph-name="edotaccent" unicode="&#x117;" horiz-adv-x="966"
                   d="M524 1090q-150 0 -149 143q0 75 41 111t105 36q65 0 109 -38t44 -110t-43 -108q-44 -34 -107 -34zM670 594q0 78 -47 120t-127 42t-125 -54t-49 -139h344q4 25 4 31zM501 954q204 0 301 -118t97 -287q0 -100 -16 -162h-564q7 -199 223 -199q112 0 218 86l117 -161
q-135 -135 -357 -135t-337 132q-113 132 -113 349t113 356q114 139 318 139z"/>
            <glyph glyph-name="Eogonek" unicode="&#x118;" horiz-adv-x="1114"
                   d="M834 -183q0 -65 65 -67q63 0 139 55v-200q-102 -47 -214 -47t-178 51t-64 145q0 115 129 219l32 27h-608v1384h895v-221h-624v-356h538v-221h-538v-365h630v-221h2l-141 -102q-63 -47 -63 -81z"/>
            <glyph glyph-name="eogonek" unicode="&#x119;" horiz-adv-x="966"
                   d="M670 594q0 78 -47 120t-127 42t-125 -54t-49 -139h344q4 25 4 31zM645 -190q0 -60 83 -60q46 0 122 55v-200q-102 -47 -214 -47t-178 51t-65 149q0 98 115 219q-221 7 -330 139q-108 132 -108 346t113 353q114 139 318 139t301 -118t97 -287q0 -100 -16 -162h-564
q7 -199 223 -199q112 0 218 86l117 -161h2l-136 -140q-98 -100 -98 -163z"/>
            <glyph glyph-name="Ecaron" unicode="&#x11a;" horiz-adv-x="1118"
                   d="M711 1507h-246l-207 338h221l109 -182l108 182h222zM408 221h630v-221h-901v1384h895v-221h-624v-356h538v-221h-538v-365z"/>
            <glyph glyph-name="ecaron" unicode="&#x11b;" horiz-adv-x="966"
                   d="M637 1087h-246l-207 338h222l108 -182l109 182h221zM670 594q0 78 -47 120t-127 42t-125 -54t-49 -139h344q4 25 4 31zM501 954q204 0 301 -118t97 -287q0 -100 -16 -162h-564q7 -199 223 -199q112 0 218 86l117 -161q-135 -135 -357 -135t-337 132q-113 132 -113 349
t113 356q114 139 318 139z"/>
            <glyph glyph-name="Gcircumflex" unicode="&#x11c;" horiz-adv-x="1327"
                   d="M584 1845h245l207 -338h-221l-108 183l-109 -183h-221zM698 532v222h557q10 -78 11 -133q0 -385 -242 -551q-131 -90 -326 -90q-296 0 -456 180t-160 535t165 533t480 177q158 0 279 -68t182 -184l-201 -131q-98 154 -276 154q-179 0 -265 -119t-86 -371t82 -366
t244 -113q162 0 235 90t72 235h-295z"/>
            <glyph glyph-name="gcircumflex" unicode="&#x11d;" horiz-adv-x="1058"
                   d="M428 1425h246l207 -338h-222l-108 183l-109 -183h-221zM526 727q-202 0 -202 -260t202 -260q111 0 174 63v398q-63 59 -174 59zM715 934h235v-991q0 -164 -114 -266q-116 -101 -306 -101t-290 85t-101 224h213q0 -45 46 -79t129 -34t128 42q45 41 45 114v150
q-94 -100 -231 -101q-193 0 -294 126q-101 127 -101 363t102 362t291 126q152 0 248 -96v76z"/>
            <glyph glyph-name="Gbreve" unicode="&#x11e;" horiz-adv-x="1327"
                   d="M1022 1829q0 -137 -83 -224t-233 -87t-232 88q-81 88 -81 223h158q10 -59 52 -96t102 -37t103 37q42 37 52 96h162zM698 532v222h557q10 -78 11 -133q0 -385 -242 -551q-131 -90 -326 -90q-296 0 -456 180t-160 535t165 533t480 177q158 0 279 -68t182 -184l-201 -131
q-98 154 -276 154q-179 0 -265 -119t-86 -371t82 -366t244 -113q162 0 235 90t72 235h-295z"/>
            <glyph glyph-name="gbreve" unicode="&#x11f;" horiz-adv-x="1058"
                   d="M862 1409q0 -137 -83 -224t-233 -87t-232 88q-81 88 -81 223h158q10 -59 52 -96q43 -37 103 -37t102 37t52 96h162zM526 727q-202 0 -202 -260t202 -260q111 0 174 63v398q-63 59 -174 59zM715 934h235v-991q0 -164 -114 -266q-116 -101 -306 -101t-290 85t-101 224h213
q0 -45 46 -79t129 -34t128 42q45 41 45 114v150q-94 -100 -231 -101q-193 0 -294 126q-101 127 -101 363t102 362t291 126q152 0 248 -96v76z"/>
            <glyph glyph-name="Gdotaccent" unicode="&#x120;" horiz-adv-x="1327"
                   d="M709 1509q-150 0 -150 144q0 75 41 111q42 36 106 36t108 -38t44 -110t-43 -108q-43 -35 -106 -35zM698 532v222h557q10 -78 11 -133q0 -385 -242 -551q-131 -90 -326 -90q-296 0 -456 180t-160 535t165 533t480 177q158 0 279 -68t182 -184l-201 -131q-98 154 -276 154
q-179 0 -265 -119t-86 -371t82 -366t244 -113q162 0 235 90t72 235h-295z"/>
            <glyph glyph-name="gdotaccent" unicode="&#x121;" horiz-adv-x="1058"
                   d="M551 1090q-150 0 -150 143q0 75 41 111q42 36 106 36t108 -38t44 -110t-43 -108q-43 -34 -106 -34zM526 727q-202 0 -202 -260t202 -260q111 0 174 63v398q-63 59 -174 59zM715 934h235v-991q0 -164 -114 -266q-116 -101 -306 -101t-290 85t-101 224h213q0 -45 46 -79
t129 -34t128 42q45 41 45 114v150q-94 -100 -231 -101q-193 0 -294 126q-101 127 -101 363t102 362t291 126q152 0 248 -96v76z"/>
            <glyph glyph-name="Gcommaaccent" unicode="&#x122;" horiz-adv-x="1327"
                   d="M854 -129l-131 -313h-186l53 313h264zM698 532v222h557q10 -78 11 -133q0 -385 -242 -551q-131 -90 -326 -90q-296 0 -456 180t-160 535t165 533t480 177q158 0 279 -68t182 -184l-201 -131q-98 154 -276 154q-179 0 -265 -119t-86 -371t82 -366t244 -113q162 0 235 90
t72 235h-295z"/>
            <glyph glyph-name="gcommaaccent" unicode="&#x123;" horiz-adv-x="1058"
                   d="M414 1126l135 377h190l-51 -377h-274zM526 727q-202 0 -202 -260t202 -260q111 0 174 63v398q-63 59 -174 59zM715 934h235v-991q0 -164 -114 -266q-116 -101 -306 -101t-290 85t-101 224h213q0 -45 46 -79t129 -34t128 42q45 41 45 114v150q-94 -100 -231 -101
q-193 0 -294 126q-101 127 -101 363t102 362t291 126q152 0 248 -96v76z"/>
            <glyph glyph-name="Hcircumflex" unicode="&#x124;" horiz-adv-x="1396"
                   d="M580 1845h245l207 -338h-221l-109 183l-108 -183h-221zM991 827v557h269v-1384h-269v606h-583v-606h-271v1384h271v-557h583z"/>
            <glyph glyph-name="hcircumflex" unicode="&#x125;" horiz-adv-x="1060"
                   d="M426 1831h246l207 -338h-222l-108 182l-109 -182h-221zM111 0v1413h247v-567q109 109 281 108q319 0 319 -370v-584h-247v555q0 88 -39 130q-40 42 -140 42t-174 -70v-657h-247z"/>
            <glyph glyph-name="Hbar" unicode="&#x126;" horiz-adv-x="1402"
                   d="M993 827v203h-583v-203h583zM47 1196h92v188h271v-188h583v188h269v-188h100v-166h-100v-1030h-269v606h-583v-606h-271v1030h-92v166z"/>
            <glyph glyph-name="hbar" unicode="&#x127;" horiz-adv-x="1060"
                   d="M10 1241h103v172h247v-172h201v-170h-201v-225q109 109 281 108q319 0 320 -370v-584h-248v555q0 88 -39 130q-40 42 -140 42t-174 -70v-657h-247v1071h-103v170z"/>
            <glyph glyph-name="Itilde" unicode="&#x128;" horiz-adv-x="544"
                   d="M430 1626q-60 0 -160 -43t-174 -43t-133 45l4 182q51 -49 139 -49q48 0 144 41t175 41t153 -43l-5 -184q-82 53 -143 53zM137 0v1384h271v-1384h-271z"/>
            <glyph glyph-name="itilde" unicode="&#x129;" horiz-adv-x="473"
                   d="M389 1206q-61 0 -161 -43t-172 -43q-74 0 -134 45l4 183q94 -91 284 -9q95 41 174 41t153 -43l-5 -184q-82 53 -143 53zM113 0v934h247v-934h-247z"/>
            <glyph glyph-name="Imacron" unicode="&#x12a;" horiz-adv-x="544"
                   d="M-35 1757h613v-198h-613v198zM137 0v1384h271v-1384h-271z"/>
            <glyph glyph-name="imacron" unicode="&#x12b;" horiz-adv-x="473"
                   d="M-74 1337h613v-198h-613v198zM113 0v934h247v-934h-247z"/>
            <glyph glyph-name="Ibreve" unicode="&#x12c;" horiz-adv-x="544"
                   d="M588 1829q0 -137 -83 -224t-233 -87t-232 88q-81 88 -81 223h158q10 -59 52 -96t102 -37t103 37q42 37 52 96h162zM137 0v1384h271v-1384h-271z"/>
            <glyph glyph-name="ibreve" unicode="&#x12d;" horiz-adv-x="473"
                   d="M549 1409q0 -137 -83 -224q-84 -87 -234 -87t-231 88t-81 223h158q10 -59 52 -96t102 -37t103 37q42 37 52 96h162zM113 0v934h247v-934h-247z"/>
            <glyph glyph-name="Iogonek" unicode="&#x12e;" horiz-adv-x="544"
                   d="M205 -183q0 -65 65 -67q63 0 140 55v-200q-102 -47 -214 -47t-178 51t-65 145q0 115 129 219l55 43v1368h271v-1384h2l-142 -102q-63 -47 -63 -81z"/>
            <glyph glyph-name="iogonek" unicode="&#x12f;" horiz-adv-x="473"
                   d="M236 1110q-152 0 -152 143q0 74 42 111t106 37t108 -38q43 -38 43 -111q0 -74 -42 -108t-105 -34zM158 -183q0 -65 65 -67q63 0 139 55v-200q-102 -47 -214 -47t-177 51q-66 51 -65 145q0 115 129 219l80 64v897h247v-934l-141 -102q-63 -47 -63 -81z"/>
            <glyph glyph-name="Idotaccent" unicode="&#x130;" horiz-adv-x="544"
                   d="M272 1509q-150 0 -149 144q0 75 41 111t105 36q65 0 109 -38t44 -110t-44 -108q-44 -35 -106 -35zM137 0v1384h271v-1384h-271z"/>
            <glyph glyph-name="dotlessi" unicode="&#x131;" horiz-adv-x="468"
                   d="M111 0v934h247v-934h-247z"/>
            <glyph glyph-name="IJ" unicode="&#x132;" horiz-adv-x="1544"
                   d="M958 209q102 0 152 62q49 62 49 204v909h256v-925q0 -233 -120 -357t-337 -122q-276 0 -378 229l192 123q57 -123 186 -123zM135 0v1384h271v-1384h-271z"/>
            <glyph glyph-name="ij" unicode="&#x133;" horiz-adv-x="937"
                   d="M698 1110q-152 0 -151 143q0 74 42 111t106 37q65 0 109 -38t44 -111q0 -74 -44 -108t-106 -34zM575 934h250v-918q0 -327 -268 -479l-147 158q166 113 165 272v967zM231 1110q-152 0 -151 143q0 74 42 111t106 37t108 -38t43 -111q-1 -74 -43 -108t-105 -34zM111 0v934
h247v-934h-247z"/>
            <glyph glyph-name="Jcircumflex" unicode="&#x134;" horiz-adv-x="991"
                   d="M614 1845h246l207 -338h-221l-109 183l-108 -183h-221zM406 209q102 0 151 62t49 204v909h256v-925q0 -233 -120 -357t-336 -122q-277 0 -379 229l192 123q57 -123 187 -123z"/>
            <glyph glyph-name="jcircumflex" unicode="&#x135;" horiz-adv-x="475"
                   d="M113 -33v967h249v-918q0 -327 -266 -479l-149 158q166 111 166 272zM115 1425h245l207 -338h-221l-108 183l-109 -183h-221z"/>
            <glyph glyph-name="Kcommaaccent" unicode="&#x136;" horiz-adv-x="1263"
                   d="M733 -129l-131 -313h-186l53 313h264zM408 0h-271v1384h271v-606l526 606h321l-493 -571l491 -813h-313l-360 621l-172 -183v-438z"/>
            <glyph glyph-name="kcommaaccent" unicode="&#x137;" horiz-adv-x="1005"
                   d="M666 -129l-131 -313h-187l53 313h265zM358 0h-247v1413h247v-827l347 348h303l-357 -348l344 -586h-276l-240 414l-121 -119v-295z"/>
            <glyph glyph-name="kgreenlandic" unicode="&#x138;" horiz-adv-x="1007"
                   d="M358 0h-247v934h247v-348l347 348h303l-357 -348l344 -586h-276l-240 414l-121 -119v-295z"/>
            <glyph glyph-name="Lacute" unicode="&#x139;" horiz-adv-x="985"
                   d="M317 1845h252l-178 -338h-223zM408 221h548v-221h-819v1384h271v-1163z"/>
            <glyph glyph-name="lacute" unicode="&#x13a;" horiz-adv-x="518"
                   d="M262 1831h252l-178 -338h-223zM104 1413h248v-1110q0 -45 18 -64t62 -20h45v-229h-127q-246 0 -246 276v1147z"/>
            <glyph glyph-name="Lcommaaccent" unicode="&#x13b;" horiz-adv-x="985"
                   d="M678 -129l-131 -313h-187l54 313h264zM408 221h548v-221h-819v1384h271v-1163z"/>
            <glyph glyph-name="lcommaaccent" unicode="&#x13c;" horiz-adv-x="518"
                   d="M438 -129l-131 -313h-186l53 313h264zM104 1413h248v-1110q0 -45 18 -64t62 -20h45v-229h-127q-246 0 -246 276v1147z"/>
            <glyph glyph-name="Lcaron" unicode="&#x13d;" horiz-adv-x="1093"
                   d="M1081 1384l-131 -313h-186l53 313h264zM408 221h548v-221h-819v1384h271v-1163z"/>
            <glyph glyph-name="lcaron" unicode="&#x13e;" horiz-adv-x="518"
                   d="M764 1413l-131 -313h-187l54 313h264zM104 1413h248v-1110q0 -45 18 -64t62 -20h45v-229h-127q-246 0 -246 276v1147z"/>
            <glyph glyph-name="Ldot" unicode="&#x13f;" horiz-adv-x="1058"
                   d="M795 629q-74 0 -124 47t-50 119q0 71 50 119t125 48t124 -48t49 -120t-50 -118q-50 -47 -124 -47zM408 221h548v-221h-819v1384h271v-1163z"/>
            <glyph glyph-name="ldot" unicode="&#x140;" horiz-adv-x="831"
                   d="M643 594q-74 0 -124 47t-50 119t50 120t125 48t124 -48t49 -120t-50 -119t-124 -47zM104 1413h248v-1110q0 -45 18 -64t62 -20h45v-229h-127q-246 0 -246 276v1147z"/>
            <glyph glyph-name="Lslash" unicode="&#x141;" horiz-adv-x="1038"
                   d="M461 221h549v-221h-820v506l-155 -68v193l155 67v686h271v-567l178 80v-192l-178 -80v-404z"/>
            <glyph glyph-name="lslash" unicode="&#x142;" horiz-adv-x="565"
                   d="M393 303q-1 -45 17 -64t63 -20h45v-229h-127q-246 0 -246 276v316l-106 -50v191l106 49v641h248v-526l133 61v-192l-133 -62v-391z"/>
            <glyph glyph-name="Nacute" unicode="&#x143;" horiz-adv-x="1390"
                   d="M727 1845h252l-178 -338h-223zM985 1384h268v-1384h-276l-569 956l2 -956h-275l2 1384h287l561 -942v942z"/>
            <glyph glyph-name="nacute" unicode="&#x144;" horiz-adv-x="1058"
                   d="M586 1425h252l-179 -338h-223zM111 0v934h239v-107q90 127 289 127q319 0 319 -370v-584h-249v555q0 88 -39 130q-38 42 -138 42t-174 -70v-657h-247z"/>
            <glyph glyph-name="Ncommaaccent" unicode="&#x145;" horiz-adv-x="1390"
                   d="M844 -129l-131 -313h-187l54 313h264zM985 1384h268v-1384h-276l-569 956l2 -956h-275l2 1384h287l561 -942v942z"/>
            <glyph glyph-name="ncommaaccent" unicode="&#x146;" horiz-adv-x="1058"
                   d="M670 -129l-131 -313h-187l54 313h264zM111 0v934h239v-107q90 127 289 127q319 0 319 -370v-584h-249v555q0 88 -39 130q-38 42 -138 42t-174 -70v-657h-247z"/>
            <glyph glyph-name="Ncaron" unicode="&#x147;" horiz-adv-x="1390"
                   d="M821 1507h-246l-206 338h221l108 -182l109 182h221zM985 1384h268v-1384h-276l-569 956l2 -956h-275l2 1384h287l561 -942v942z"/>
            <glyph glyph-name="ncaron" unicode="&#x148;" horiz-adv-x="1058"
                   d="M655 1087h-245l-207 338h221l108 -182l109 182h221zM111 0v934h239v-107q90 127 289 127q319 0 319 -370v-584h-249v555q0 88 -39 130q-38 42 -138 42t-174 -70v-657h-247z"/>
            <glyph glyph-name="napostrophe" unicode="&#x149;" horiz-adv-x="1060"
                   d="M229 1425l-131 -313h-186l53 313h264zM113 0v934h239v-107q90 127 289 127q319 0 320 -370v-584h-250v555q0 88 -39 130q-38 42 -138 42t-174 -70v-657h-247z"/>
            <glyph glyph-name="Eng" unicode="&#x14a;" horiz-adv-x="1388"
                   d="M983 -33v19l-577 970l2 -956h-275l2 1384h287l561 -942v942h268v-1368q0 -325 -268 -479l-158 168q86 53 122 113t36 149z"/>
            <glyph glyph-name="eng" unicode="&#x14b;" horiz-adv-x="1058"
                   d="M109 0v934h239v-107q90 127 289 127q319 0 319 -370v-568q0 -330 -266 -479l-147 158q166 113 166 272v588q0 88 -39 130q-40 42 -140 42t-174 -70v-657h-247z"/>
            <glyph glyph-name="Omacron" unicode="&#x14c;" horiz-adv-x="1345"
                   d="M369 1757h612v-198h-612v198zM82 691q0 329 141 521t455 193q314 0 455 -206q131 -191 131 -513t-144 -514t-449 -192q-306 0 -448 191q-141 191 -141 520zM985 690q0 234 -70 360q-69 126 -241 126t-243 -126t-71 -362q0 -234 68 -356t243 -123q175 0 245 124t69 357z
"/>
            <glyph glyph-name="omacron" unicode="&#x14d;" horiz-adv-x="1021"
                   d="M205 1337h612v-198h-612v198zM510 201q188 0 188 265t-188 265t-188 -265t188 -265zM510 954q217 0 330 -133q112 -133 112 -355t-112 -355t-330 -133q-217 0 -329 134q-111 136 -111 356t111 353q112 133 329 133z"/>
            <glyph glyph-name="Obreve" unicode="&#x14e;" horiz-adv-x="1345"
                   d="M989 1829q0 -137 -83 -224t-233 -87t-232 88q-81 88 -81 223h158q10 -59 52 -96t102 -37t103 37q42 37 52 96h162zM82 691q0 329 141 521t455 193q314 0 455 -206q131 -191 131 -513t-144 -514t-449 -192q-306 0 -448 191q-141 191 -141 520zM985 690q0 234 -70 360
q-69 126 -241 126t-243 -126t-71 -362q0 -234 68 -356t243 -123q175 0 245 124t69 357z"/>
            <glyph glyph-name="obreve" unicode="&#x14f;" horiz-adv-x="1021"
                   d="M825 1409q0 -137 -83 -224t-233 -87t-231 88t-81 223h157q10 -59 52 -96t103 -37t103 37t52 96h161zM510 201q188 0 188 265t-188 265t-188 -265t188 -265zM510 954q217 0 330 -133q112 -133 112 -355t-112 -355t-330 -133q-217 0 -329 134q-111 136 -111 356t111 353
q112 133 329 133z"/>
            <glyph glyph-name="Ohungarumlaut" unicode="&#x150;" horiz-adv-x="1345"
                   d="M895 1845h252l-178 -338h-221zM522 1845h250l-178 -338h-221zM82 691q0 329 141 521t455 193q314 0 455 -206q131 -191 131 -513t-144 -514t-449 -192q-306 0 -448 191q-141 191 -141 520zM985 690q0 234 -70 360q-69 126 -241 126t-243 -126t-71 -362q0 -234 68 -356
t243 -123q175 0 245 124t69 357z"/>
            <glyph glyph-name="ohungarumlaut" unicode="&#x151;" horiz-adv-x="1021"
                   d="M717 1425h252l-178 -338h-222zM344 1425h250l-178 -338h-221zM510 201q188 0 188 265t-188 265t-188 -265t188 -265zM510 954q217 0 330 -133q112 -133 112 -355t-112 -355t-330 -133q-217 0 -329 134q-111 136 -111 356t111 353q112 133 329 133z"/>
            <glyph glyph-name="OE" unicode="&#x152;" horiz-adv-x="1818"
                   d="M672 209q98 0 168 35v895q-74 37 -166 37q-170 0 -241 -126t-71 -361t67 -357t243 -123zM1110 221h631v-221h-901q-82 -20 -168 -20q-307 0 -449 191q-141 191 -141 520t141 521t451 193q86 0 168 -21h893v-221h-625v-356h539v-221h-539v-365z"/>
            <glyph glyph-name="oe" unicode="&#x153;" horiz-adv-x="1613"
                   d="M1317 594q0 80 -47 121t-126 41t-124 -54t-51 -139h346q2 12 2 31zM510 201q188 0 188 265t-188 265t-188 -265t188 -265zM510 954q217 0 328 -143q114 143 314 143t297 -118t97 -287q0 -94 -14 -162h-563q7 -199 223 -199q112 0 217 86l115 -161q-135 -135 -355 -135
t-335 141q-106 -141 -324 -141t-329 134q-111 136 -111 356t111 353q112 133 329 133z"/>
            <glyph glyph-name="Racute" unicode="&#x154;" horiz-adv-x="1234"
                   d="M616 1845h252l-178 -338h-223zM633 784q139 0 195 48t55 142q-1 95 -57 142t-193 47h-225v-379h225zM137 0v1384h525q242 0 370 -108t129 -299q0 -145 -83 -247t-238 -142l348 -588h-303l-316 563h-161l2 -563h-273z"/>
            <glyph glyph-name="racute" unicode="&#x155;" horiz-adv-x="731"
                   d="M418 1425h252l-178 -338h-224zM348 786h2q94 168 250 168q59 0 107 -12l-19 -262q-78 18 -149 18q-121 0 -181 -110v-588h-247v934h237v-148z"/>
            <glyph glyph-name="Rcommaaccent" unicode="&#x156;" horiz-adv-x="1234"
                   d="M741 -129l-131 -313h-186l53 313h264zM633 784q139 0 195 48t55 142q-1 95 -57 142t-193 47h-225v-379h225zM137 0v1384h525q242 0 370 -108t129 -299q0 -145 -83 -247t-238 -142l348 -588h-303l-316 563h-161l2 -563h-273z"/>
            <glyph glyph-name="rcommaaccent" unicode="&#x157;" horiz-adv-x="731"
                   d="M371 -129l-131 -313h-187l53 313h265zM348 786h2q94 168 250 168q59 0 107 -12l-19 -262q-78 18 -149 18q-121 0 -181 -110v-588h-247v934h237v-148z"/>
            <glyph glyph-name="Rcaron" unicode="&#x158;" horiz-adv-x="1234"
                   d="M713 1507h-246l-207 338h221l109 -182l108 182h222zM633 784q139 0 195 48t55 142q-1 95 -57 142t-193 47h-225v-379h225zM137 0v1384h525q242 0 370 -108t129 -299q0 -145 -83 -247t-238 -142l348 -588h-303l-316 563h-161l2 -563h-273z"/>
            <glyph glyph-name="rcaron" unicode="&#x159;" horiz-adv-x="733"
                   d="M522 1087h-246l-206 338h221l108 -182l109 182h221zM350 786h2q94 168 250 168q61 0 107 -12l-19 -262q-78 18 -149 18q-121 0 -181 -110v-588h-247v934h237v-148z"/>
            <glyph glyph-name="Sacute" unicode="&#x15a;" horiz-adv-x="1114"
                   d="M594 1845h252l-178 -338h-224zM580 1176q-92 0 -144 -48t-53 -127q0 -121 143 -165l176 -54q180 -57 260 -150t78 -231q0 -197 -138 -311t-359 -113q-360 0 -496 254l184 152q45 -84 114 -130t185 -46t175 47q57 47 57 127q0 119 -156 168l-174 53q-328 102 -328 383
q0 178 118 299t358 121q307 0 448 -205l-184 -149q-84 125 -264 125z"/>
            <glyph glyph-name="sacute" unicode="&#x15b;" horiz-adv-x="890"
                   d="M494 1425h251l-178 -338h-223zM453 768q-61 0 -95 -26t-32 -64q0 -70 86 -88l155 -37q266 -59 267 -277q0 -127 -98 -213t-308 -86q-254 0 -381 158l141 148q113 -121 250 -121q66 0 105 24t39 68q0 68 -95 88l-161 39q-246 61 -246 272q0 119 94 210t305 91t336 -137
l-137 -145q-96 96 -225 96z"/>
            <glyph glyph-name="Scircumflex" unicode="&#x15c;" horiz-adv-x="1114"
                   d="M440 1845h246l207 -338h-221l-109 183l-108 -183h-222zM580 1176q-92 0 -144 -48t-53 -127q0 -121 143 -165l176 -54q180 -57 260 -150t78 -231q0 -197 -138 -311t-359 -113q-360 0 -496 254l184 152q45 -84 114 -130t185 -46t175 47q57 47 57 127q0 119 -156 168
l-174 53q-328 102 -328 383q0 178 118 299t358 121q307 0 448 -205l-184 -149q-84 125 -264 125z"/>
            <glyph glyph-name="scircumflex" unicode="&#x15d;" horiz-adv-x="890"
                   d="M330 1425h245l207 -338h-221l-108 183l-109 -183h-221zM453 768q-61 0 -95 -26t-32 -64q0 -70 86 -88l155 -37q266 -59 267 -277q0 -127 -98 -213t-308 -86q-254 0 -381 158l141 148q113 -121 250 -121q66 0 105 24t39 68q0 68 -95 88l-161 39q-246 61 -246 272
q0 119 94 210t305 91t336 -137l-137 -145q-96 96 -225 96z"/>
            <glyph glyph-name="Scedilla" unicode="&#x15e;" horiz-adv-x="1114"
                   d="M580 1176q-92 0 -144 -48t-53 -127q0 -121 143 -165l176 -54q180 -57 260 -150t78 -231q0 -183 -118 -293t-312 -126l-30 -78q197 0 196 -166q0 -84 -64 -132t-174 -48q-108 0 -198 47v153q84 -63 180 -63q66 0 66 45t-88 45h-90l-13 14l66 183q-297 27 -414 249l184 152
q45 -84 114 -130t185 -46t175 47q57 47 57 127q0 119 -156 168l-174 53q-328 102 -328 383q0 178 118 299t358 121q307 0 448 -205l-184 -149q-84 125 -264 125z"/>
            <glyph glyph-name="scedilla" unicode="&#x15f;" horiz-adv-x="892"
                   d="M453 768q-61 0 -95 -26t-32 -64q0 -70 86 -88l155 -37q266 -59 267 -277q0 -114 -78 -196t-248 -98l-31 -78q197 0 197 -166q0 -84 -65 -132t-173 -48t-198 47v153q84 -63 180 -63q66 0 65 43q0 47 -88 47h-90l-12 14l65 183q-209 20 -311 153l141 148q113 -121 250 -121
q66 0 105 24t39 68q0 68 -95 88l-161 39q-246 61 -246 272q0 119 94 210t305 91t336 -137l-137 -145q-96 96 -225 96z"/>
            <glyph glyph-name="Scaron" unicode="&#x160;" horiz-adv-x="1114"
                   d="M686 1507h-246l-207 338h222l108 -182l109 182h221zM580 1176q-92 0 -144 -48t-53 -127q0 -121 143 -165l176 -54q180 -57 260 -150t78 -231q0 -197 -138 -311t-359 -113q-360 0 -496 254l184 152q45 -84 114 -130t185 -46t175 47q57 47 57 127q0 119 -156 168l-174 53
q-328 102 -328 383q0 178 118 299t358 121q307 0 448 -205l-184 -149q-84 125 -264 125z"/>
            <glyph glyph-name="scaron" unicode="&#x161;" horiz-adv-x="890"
                   d="M580 1087h-246l-207 338h221l109 -182l108 182h221zM453 768q-61 0 -95 -26t-32 -64q0 -70 86 -88l155 -37q266 -59 267 -277q0 -127 -98 -213t-308 -86q-254 0 -381 158l141 148q113 -121 250 -121q66 0 105 24t39 68q0 68 -95 88l-161 39q-246 61 -246 272
q0 119 94 210t305 91t336 -137l-137 -145q-96 96 -225 96z"/>
            <glyph glyph-name="Tcommaaccent" unicode="&#x162;" horiz-adv-x="1120"
                   d="M55 1384h1010v-221h-371v-1163h-57l-39 -96q197 0 197 -166q0 -84 -65 -132q-66 -48 -174 -48t-198 47v153q84 -63 181 -63q66 0 65 43q0 47 -88 47h-90l-12 14l71 201h-61v1163h-369v221z"/>
            <glyph glyph-name="tcommaaccent" unicode="&#x163;" horiz-adv-x="720"
                   d="M451 725v-418q0 -100 102 -100q55 0 111 16l4 -215q-72 -27 -179 -31l-28 -73q197 0 196 -166q-1 -84 -65 -132t-172 -48t-199 47v153q84 -63 180 -63q66 0 66 45t-88 45h-90l-13 14l72 201q-145 57 -145 272v453h-170v188l170 21v227l248 39v-266h208v-209h-208z"/>
            <glyph glyph-name="Tcaron" unicode="&#x164;" horiz-adv-x="1120"
                   d="M684 1507h-246l-207 338h222l108 -182l109 182h221zM55 1384h1010v-221h-371v-1163h-270v1163h-369v221z"/>
            <glyph glyph-name="tcaron" unicode="&#x165;" horiz-adv-x="720"
                   d="M946 1413l-131 -313h-186l53 313h264zM451 725v-418q0 -100 102 -100q55 0 111 16l4 -215q-78 -31 -207 -31t-194 80t-64 215v453h-170v188l170 21v227l248 39v-266h208v-209h-208z"/>
            <glyph glyph-name="Tbar" unicode="&#x166;" horiz-adv-x="1126"
                   d="M250 752h178v411h-369v221h1010v-221h-371v-411h179v-170h-179v-582h-270v582h-178v170z"/>
            <glyph glyph-name="tbar" unicode="&#x167;" horiz-adv-x="724"
                   d="M74 582h133v143h-170v188l170 21v227l248 39v-266h209v-209h-209v-143h170v-170h-170v-105q0 -100 102 -100q55 0 111 16l4 -215q-78 -31 -207 -31t-194 80t-64 215v140h-133v170z"/>
            <glyph glyph-name="Utilde" unicode="&#x168;" horiz-adv-x="1318"
                   d="M820 1626q-62 0 -162 -43t-172 -43q-74 0 -134 45l4 182q51 -49 140 -49q49 0 144 41t174 41t153 -43l-4 -184q-81 53 -143 53zM659 -20q-248 0 -391 135t-143 413v856h270v-849q-1 -168 63 -247t201 -79t201 79q63 79 64 247v849h270v-856q0 -280 -144 -414t-391 -134z
"/>
            <glyph glyph-name="utilde" unicode="&#x169;" horiz-adv-x="1058"
                   d="M948 934v-934h-239v106q-90 -127 -289 -126q-319 0 -320 370v584h250v-555q0 -88 39 -130t139 -42t172 69v658h248zM690 1206q-62 0 -160 -43q-100 -43 -174 -43t-133 45l4 183q94 -91 284 -9q95 41 174 41t153 -43l-4 -184q-82 53 -144 53z"/>
            <glyph glyph-name="Umacron" unicode="&#x16a;" horiz-adv-x="1318"
                   d="M354 1757h613v-198h-613v198zM659 -20q-248 0 -391 135t-143 413v856h270v-849q-1 -168 63 -247t201 -79t201 79q63 79 64 247v849h270v-856q0 -280 -144 -414t-391 -134z"/>
            <glyph glyph-name="umacron" unicode="&#x16b;" horiz-adv-x="1058"
                   d="M948 934v-934h-239v106q-90 -127 -289 -126q-319 0 -320 370v584h250v-555q0 -88 39 -130t139 -42t172 69v658h248zM227 1337h613v-198h-613v198z"/>
            <glyph glyph-name="Ubreve" unicode="&#x16c;" horiz-adv-x="1318"
                   d="M975 1829q0 -137 -83 -224q-84 -87 -234 -87t-231 88t-81 223h158q10 -59 52 -96t102 -37t103 37q42 37 52 96h162zM659 -20q-248 0 -391 135t-143 413v856h270v-849q-1 -168 63 -247t201 -79t201 79q63 79 64 247v849h270v-856q0 -280 -144 -414t-391 -134z"/>
            <glyph glyph-name="ubreve" unicode="&#x16d;" horiz-adv-x="1058"
                   d="M948 934v-934h-239v106q-90 -127 -289 -126q-319 0 -320 370v584h250v-555q0 -88 39 -130t139 -42t172 69v658h248zM842 1409q0 -137 -83 -224t-233 -87t-232 88q-81 88 -81 223h158q10 -59 52 -96t102 -37t103 37q42 37 52 96h162z"/>
            <glyph glyph-name="Uring" unicode="&#x16e;" horiz-adv-x="1318"
                   d="M573 1689q0 -32 23 -56q22 -23 62 -23t63 22t23 57q0 33 -24 57q-22 24 -62 24t-62 -25q-22 -24 -23 -56zM658 1485q-106 -1 -164 61t-58 145t58 143t164 60q108 0 167 -60t59 -143t-60 -145t-166 -61zM659 -20q-248 0 -391 135t-143 413v856h270v-849q-1 -168 63 -247
t201 -79t201 79q63 79 64 247v849h270v-856q0 -280 -144 -414t-391 -134z"/>
            <glyph glyph-name="uring" unicode="&#x16f;" horiz-adv-x="1058"
                   d="M948 934v-934h-239v106q-90 -127 -289 -126q-319 0 -320 370v584h250v-555q0 -88 39 -130t139 -42t172 69v658h248zM520 1350q-40 0 -62 -24t-22 -57q0 -32 22 -56q22 -23 62 -23t64 22q22 22 22 57q0 33 -22 57t-64 24zM299 1271q0 83 57 143t164 60t167 -58
q61 -60 61 -144t-60 -146t-166 -61q-106 0 -165 61q-58 62 -58 145z"/>
            <glyph glyph-name="Uhungarumlaut" unicode="&#x170;" horiz-adv-x="1318"
                   d="M885 1845h252l-179 -338h-221zM512 1845h250l-178 -338h-222zM659 -20q-248 0 -391 135t-143 413v856h270v-849q-1 -168 63 -247t201 -79t201 79q63 79 64 247v849h270v-856q0 -280 -144 -414t-391 -134z"/>
            <glyph glyph-name="uhungarumlaut" unicode="&#x171;" horiz-adv-x="1060"
                   d="M735 1425h252l-178 -338h-221zM362 1425h250l-178 -338h-221zM948 934v-934h-239v106q-90 -127 -289 -126q-319 0 -320 370v584h250v-555q0 -88 39 -130t139 -42t172 69v658h248z"/>
            <glyph glyph-name="Uogonek" unicode="&#x172;" horiz-adv-x="1318"
                   d="M1194 528q0 -233 -101 -365t-282 -169l-133 -96q-64 -47 -64 -81q-1 -65 66 -67q63 0 139 55v-200q-102 -47 -214 -47q-111 0 -177 51t-66 155t130 209l22 21q-184 35 -287 167q-102 132 -102 367v856h270v-849q-1 -168 63 -247t201 -79t201 79q63 79 64 247v849h270
v-856z"/>
            <glyph glyph-name="uogonek" unicode="&#x173;" horiz-adv-x="1058"
                   d="M736 -442q-112 0 -178 51t-64 145q0 115 129 219l86 68v65q-90 -127 -289 -126q-319 0 -320 370v584h250v-555q0 -88 39 -130t139 -42t172 69v658h248v-934h2l-141 -102q-63 -47 -63 -81q-1 -65 65 -67q63 0 139 55v-200q-102 -47 -214 -47z"/>
            <glyph glyph-name="Wcircumflex" unicode="&#x174;" horiz-adv-x="1984"
                   d="M870 1845h246l207 -338h-221l-109 183l-108 -183h-221zM838 1384h307l280 -1083l258 1083h279l-360 -1384h-332l-277 1018l-278 -1018h-330l-362 1384h278l260 -1083z"/>
            <glyph glyph-name="wcircumflex" unicode="&#x175;" horiz-adv-x="1572"
                   d="M664 1425h245l207 -338h-221l-109 183l-108 -183h-221zM670 934h233l201 -672l188 672h256l-286 -934h-271l-205 618l-202 -618h-273l-286 934h254l192 -672z"/>
            <glyph glyph-name="Ycircumflex" unicode="&#x176;" horiz-adv-x="1210"
                   d="M483 1845h246l207 -338h-221l-109 183l-108 -183h-222zM739 0h-270v539l-467 845h297l309 -604l301 604h299l-469 -845v-539z"/>
            <glyph glyph-name="ycircumflex" unicode="&#x177;" horiz-adv-x="1001"
                   d="M387 1425h246l207 -338h-222l-108 183l-109 -183h-221zM287 934l227 -608l209 608h266l-547 -1376h-252l201 483l-383 893h279z"/>
            <glyph glyph-name="Ydieresis" unicode="&#x178;" horiz-adv-x="1210"
                   d="M809 1509q-150 0 -150 144q0 75 41 111q42 36 106 36t107 -38t43 -110t-42 -108q-42 -35 -105 -35zM406 1509q-147 0 -148 144q0 75 40 111t104 36t109 -38q44 -38 44 -110t-43 -108q-43 -35 -106 -35zM739 0h-270v539l-467 845h297l309 -604l301 604h299l-469 -845v-539
z"/>
            <glyph glyph-name="Zacute" unicode="&#x179;" horiz-adv-x="1069"
                   d="M575 1845h252l-178 -338h-223zM981 1384v-194l-602 -969h625v-221h-943v190l607 973h-576v221h889z"/>
            <glyph glyph-name="zacute" unicode="&#x17a;" horiz-adv-x="856"
                   d="M483 1425h252l-178 -338h-223zM780 934v-162l-401 -561h399v-211h-710v162l405 561h-387v211h694z"/>
            <glyph glyph-name="Zdotaccent" unicode="&#x17b;" horiz-adv-x="1069"
                   d="M539 1509q-150 0 -150 144q0 75 41 111q42 36 106 36t108 -38t44 -110t-43 -108q-43 -35 -106 -35zM981 1384v-194l-602 -969h625v-221h-943v190l607 973h-576v221h889z"/>
            <glyph glyph-name="zdotaccent" unicode="&#x17c;" horiz-adv-x="856"
                   d="M461 1090q-150 0 -150 143q0 75 41 111q42 36 106 36t108 -38t44 -110t-43 -108q-43 -34 -106 -34zM780 934v-162l-401 -561h399v-211h-710v162l405 561h-387v211h694z"/>
            <glyph glyph-name="Zcaron" unicode="&#x17d;" horiz-adv-x="1069"
                   d="M659 1507h-245l-207 338h221l109 -182l108 182h221zM981 1384v-194l-602 -969h625v-221h-943v190l607 973h-576v221h889z"/>
            <glyph glyph-name="zcaron" unicode="&#x17e;" horiz-adv-x="856"
                   d="M565 1087h-246l-206 338h221l108 -182l109 182h221zM780 934v-162l-401 -561h399v-211h-710v162l405 561h-387v211h694z"/>
            <glyph glyph-name="florin" unicode="&#x192;" horiz-adv-x="737"
                   d="M475 721v-875q0 -131 -76 -220t-206 -89t-187 25v213q50 -15 114 -15t90 33t26 101v827h-181v213h181v190q0 131 77 221q78 89 230 89q102 0 159 -25v-213q-66 14 -120 14t-80 -30q-27 -30 -27 -99v-147h197v-213h-197z"/>
            <glyph glyph-name="Aringacute" unicode="&#x1fa;" horiz-adv-x="1271"
                   d="M637 1108l-184 -573h368zM987 0l-100 313h-502l-100 -313h-287l483 1384h310l485 -1384h-289zM551 1664q1 -36 23 -60t63 -23q41 0 65 24q24 23 25 59q0 36 -25 60q-26 24 -66 25q-40 -1 -62 -25t-23 -60zM418 1656q0 75 36 127t101 70l107 179h235l-137 -195
q102 -55 102 -174q0 -82 -60 -141q-60 -60 -164 -60t-162 60t-58 134z"/>
            <glyph glyph-name="aringacute" unicode="&#x1fb;" horiz-adv-x="968"
                   d="M313 266q-1 -100 111 -100t192 80v176l-100 -14q-203 -29 -203 -142zM616 631q0 129 -143 129q-76 0 -113 -25t-36 -65v-37h-215q-6 31 -7 63q0 117 104 188q104 70 280 70q177 0 279 -78q101 -79 101 -243v-633h-233v109q-113 -131 -297 -132q-123 0 -199 74t-76 199
q0 283 453 313l102 8v60zM412 1249q0 -35 22 -59t64 -23q42 0 66 24q24 25 24 59t-25 59t-65 25t-64 -25q-22 -25 -22 -60zM279 1243q0 78 43 133t120 70l80 158h230l-131 -183q102 -53 102 -174q0 -82 -60 -141q-61 -59 -165 -59t-162 59q-57 59 -57 137z"/>
            <glyph glyph-name="AEacute" unicode="&#x1fc;" horiz-adv-x="1935"
                   d="M1851 1384v-221h-624v-356h538v-221h-538v-377h631v-209h-902v317h-489l-199 -317h-286l895 1384h974zM956 530v596l-358 -596h358zM1298 1845h252l-178 -338h-223z"/>
            <glyph glyph-name="aeacute" unicode="&#x1fd;" horiz-adv-x="1515"
                   d="M1219 594q1 80 -47 121t-126 41t-124 -54t-52 -139h347q2 12 2 31zM311 266q1 -100 111 -100t194 80v176l-102 -14q-203 -29 -203 -142zM1081 188q125 0 230 86l116 -161q-139 -135 -359 -135t-339 141q-137 -141 -358 -142q-150 0 -231 73t-81 200q0 283 453 313l104 8
v60q0 129 -151 129q-70 0 -107 -25t-36 -65v-37h-216q-4 41 -4 63q0 117 102 188q102 70 292 70t282 -104q104 104 290 104t283 -118t97 -287q0 -94 -14 -162h-564q10 -199 211 -199zM819 1425h252l-178 -338h-223z"/>
            <glyph glyph-name="Oslashacute" unicode="&#x1fe;" horiz-adv-x="1351"
                   d="M987 690q0 139 -22 230l-492 -644q74 -68 201 -67q174 0 244 124q69 124 69 357zM362 690q0 -145 23 -241l496 649q-74 78 -205 78q-172 0 -243 -126t-71 -360zM1266 676q0 -312 -144 -504t-448 -192q-215 0 -352 98l-60 -78h-219l156 205q-115 175 -115 495t141 512
t451 193q215 0 358 -105l64 84h223l-166 -217q111 -179 111 -491zM700 1845h236l-166 -334h-209z"/>
            <glyph glyph-name="oslashacute" unicode="&#x1ff;" horiz-adv-x="1021"
                   d="M539 1425h252l-179 -338h-223zM510 201q188 0 188 264q0 53 -10 104l-270 -348q39 -20 92 -20zM322 469q0 -61 10 -117l274 355q-41 25 -98 24q-186 0 -186 -262zM514 954q139 0 236 -59l30 39h191l-109 -141q90 -127 90 -338t-112 -344t-334 -134q-135 0 -232 58
l-26 -35h-187l103 133q-94 127 -94 341t111 347q112 133 333 133z"/>
            <glyph glyph-name="Scommaaccent" unicode="&#x218;" horiz-adv-x="1114"
                   d="M705 -129l-132 -313h-186l53 313h265zM580 1176q-92 0 -144 -48t-53 -127q0 -121 143 -165l176 -54q180 -57 260 -150t78 -231q0 -197 -138 -311t-359 -113q-360 0 -496 254l184 152q45 -84 114 -130t185 -46t175 47q57 47 57 127q0 119 -156 168l-174 53
q-328 102 -328 383q0 178 118 299t358 121q307 0 448 -205l-184 -149q-84 125 -264 125z"/>
            <glyph glyph-name="scommaaccent" unicode="&#x219;" horiz-adv-x="890"
                   d="M602 -129l-131 -313h-186l53 313h264zM453 768q-61 0 -95 -26t-32 -64q0 -70 86 -88l155 -37q266 -59 267 -277q0 -127 -98 -213t-308 -86q-254 0 -381 158l141 148q113 -121 250 -121q66 0 105 24t39 68q0 68 -95 88l-161 39q-246 61 -246 272q0 119 94 210t305 91
t336 -137l-137 -145q-96 96 -225 96z"/>
            <glyph glyph-name="uni021A" unicode="&#x21a;" horiz-adv-x="1120"
                   d="M688 -129l-131 -313h-186l53 313h264zM55 1384h1010v-221h-371v-1163h-270v1163h-369v221z"/>
            <glyph glyph-name="uni021B" unicode="&#x21b;" horiz-adv-x="720"
                   d="M559 -129l-131 -313h-186l53 313h264zM451 725v-418q0 -100 102 -100q55 0 111 16l4 -215q-78 -31 -207 -31t-194 80t-64 215v453h-170v188l170 21v227l248 39v-266h208v-209h-208z"/>
            <glyph glyph-name="dotlessj" unicode="&#x237;" horiz-adv-x="471"
                   d="M111 -33v967h249v-918q0 -327 -266 -479l-149 158q166 111 166 272z"/>
            <glyph glyph-name="circumflex" unicode="&#x2c6;" horiz-adv-x="1228"
                   d="M492 1425h245l207 -338h-221l-109 183l-108 -183h-221z"/>
            <glyph glyph-name="caron" unicode="&#x2c7;" horiz-adv-x="1228"
                   d="M737 1087h-245l-207 338h221l108 -182l109 182h221z"/>
            <glyph glyph-name="breve" unicode="&#x2d8;" horiz-adv-x="1228"
                   d="M928 1409q0 -137 -83 -224t-233 -87t-232 88q-81 88 -81 223h158q10 -59 52 -96t102 -37t103 37q42 37 52 96h162z"/>
            <glyph glyph-name="dotaccent" unicode="&#x2d9;" horiz-adv-x="1228"
                   d="M614 1090q-150 0 -149 143q0 75 41 111t105 36q65 0 109 -38t44 -110t-43 -108q-44 -34 -107 -34z"/>
            <glyph glyph-name="ring" unicode="&#x2da;" horiz-adv-x="1228"
                   d="M610 1350q-40 0 -62 -24t-22 -57q0 -32 22 -56q22 -23 62 -23t64 22q22 22 22 57q0 33 -22 57t-64 24zM389 1271q0 83 57 143t164 60t167 -58q61 -60 61 -144t-60 -146t-166 -61q-106 0 -165 61q-58 62 -58 145z"/>
            <glyph glyph-name="ogonek" unicode="&#x2db;" horiz-adv-x="1228"
                   d="M640 -442q-112 0 -178 51t-65 155q0 104 129 209l92 74l236 -47l-141 -102q-63 -47 -63 -81q-1 -65 65 -67q63 0 139 55v-200q-102 -47 -214 -47z"/>
            <glyph glyph-name="tilde" unicode="&#x2dc;" horiz-adv-x="1228"
                   d="M774 1206q-62 0 -160 -43q-100 -43 -174 -43t-133 45l4 183q94 -91 284 -9q95 41 174 41t153 -43l-4 -184q-82 53 -144 53z"/>
            <glyph glyph-name="hungarumlaut" unicode="&#x2dd;" horiz-adv-x="1228"
                   d="M750 1425h251l-178 -338h-221zM377 1425h250l-178 -338h-222z"/>
            <glyph glyph-name="uni0394" unicode="&#x394;" horiz-adv-x="1349"
                   d="M999 209l-325 907l-324 -907h649zM-8 0l536 1384h295l535 -1384h-1366z"/>
            <glyph glyph-name="uni03A9" unicode="&#x3a9;" horiz-adv-x="1478"
                   d="M86 209h291q-119 101 -197 241t-78 284t35 258q80 258 306 360q126 55 294 55t295 -55q231 -100 309 -359q35 -113 35 -258t-78 -285t-198 -241h293v-209h-566v209q115 90 193 228q78 139 78 317t-88 301t-272 123t-271 -123q-86 -123 -86 -301t78 -317q78 -138 192 -228
v-209h-565v209z"/>
            <glyph glyph-name="uni03BC" unicode="&#x3bc;" horiz-adv-x="1069"
                   d="M358 362q8 -155 152 -155q130 0 199 69v658h247v-934h-239v106q-90 -127 -287 -126q-37 0 -72 6v-428h-247v1376h247v-572z"/>
            <glyph glyph-name="pi" unicode="&#x3c0;" horiz-adv-x="1212"
                   d="M223 0v725h-188v209h1112v-209h-191v-420q0 -100 103 -100q37 0 59 2v-219q-76 -10 -137 -11q-139 0 -203 80q-63 80 -63 215v453h-250v-725h-242z"/>
            <glyph glyph-name="Wgrave" unicode="&#x1e80;" horiz-adv-x="1984"
                   d="M705 1845h251l150 -338h-223zM838 1384h307l280 -1083l258 1083h279l-360 -1384h-332l-277 1018l-278 -1018h-330l-362 1384h278l260 -1083z"/>
            <glyph glyph-name="wgrave" unicode="&#x1e81;" horiz-adv-x="1572"
                   d="M504 1425h252l149 -338h-223zM670 934h233l201 -672l188 672h256l-286 -934h-271l-205 618l-202 -618h-273l-286 934h254l192 -672z"/>
            <glyph glyph-name="Wacute" unicode="&#x1e82;" horiz-adv-x="1984"
                   d="M1032 1845h252l-178 -338h-223zM838 1384h307l280 -1083l258 1083h279l-360 -1384h-332l-277 1018l-278 -1018h-330l-362 1384h278l260 -1083z"/>
            <glyph glyph-name="wacute" unicode="&#x1e83;" horiz-adv-x="1572"
                   d="M821 1425h252l-178 -338h-223zM670 934h233l201 -672l188 672h256l-286 -934h-271l-205 618l-202 -618h-273l-286 934h254l192 -672z"/>
            <glyph glyph-name="Wdieresis" unicode="&#x1e84;" horiz-adv-x="1984"
                   d="M1196 1509q-150 0 -149 144q1 75 41 111t104 36t108 -38q43 -38 43 -110t-42 -108q-42 -35 -105 -35zM793 1509q-147 0 -148 144q0 75 40 111q41 36 105 36t108 -38t44 -110t-43 -108q-43 -35 -106 -35zM838 1384h307l280 -1083l258 1083h279l-360 -1384h-332l-277 1018
l-278 -1018h-330l-362 1384h278l260 -1083z"/>
            <glyph glyph-name="wdieresis" unicode="&#x1e85;" horiz-adv-x="1572"
                   d="M989 1090q-150 0 -149 143q0 75 41 111t105 36t108 -38t43 -110q0 -72 -42 -108q-43 -34 -106 -34zM586 1090q-147 0 -148 143q0 75 40 111t104 36t109 -38q44 -38 44 -110t-43 -108q-43 -34 -106 -34zM670 934h233l201 -672l188 672h256l-286 -934h-271l-205 618
l-202 -618h-273l-286 934h254l192 -672z"/>
            <glyph glyph-name="Ygrave" unicode="&#x1ef2;" horiz-adv-x="1210"
                   d="M328 1845h252l149 -338h-223zM739 0h-270v539l-467 845h297l309 -604l301 604h299l-469 -845v-539z"/>
            <glyph glyph-name="ygrave" unicode="&#x1ef3;" horiz-adv-x="1001"
                   d="M236 1425h251l150 -338h-223zM287 934l227 -608l209 608h266l-547 -1376h-252l201 483l-383 893h279z"/>
            <glyph glyph-name="endash" unicode="&#x2013;" horiz-adv-x="1214"
                   d="M106 659h1000v-210h-1000v210z"/>
            <glyph glyph-name="emdash" unicode="&#x2014;" horiz-adv-x="1501"
                   d="M106 659h1287v-210h-1287v210z"/>
            <glyph glyph-name="quoteleft" unicode="&#x2018;" horiz-adv-x="471"
                   d="M72 862l131 522h186l-51 -522h-266z"/>
            <glyph glyph-name="quoteright" unicode="&#x2019;" horiz-adv-x="456"
                   d="M410 1384l-134 -522h-186l51 522h269z"/>
            <glyph glyph-name="quotesinglbase" unicode="&#x201a;" horiz-adv-x="481"
                   d="M391 301l-133 -524h-186l51 524h268z"/>
            <glyph glyph-name="quotedblleft" unicode="&#x201c;" horiz-adv-x="829"
                   d="M72 862l131 522h186l-51 -522h-266zM430 862l131 522h187l-52 -522h-266z"/>
            <glyph glyph-name="quotedblright" unicode="&#x201d;" horiz-adv-x="815"
                   d="M768 1384l-133 -522h-184l51 522h266zM410 1384l-134 -522h-186l51 522h269z"/>
            <glyph glyph-name="quotedblbase" unicode="&#x201e;" horiz-adv-x="839"
                   d="M748 299l-134 -522h-184l51 522h267zM389 299l-133 -522h-184l51 522h266z"/>
            <glyph glyph-name="dagger" unicode="&#x2020;" horiz-adv-x="866"
                   d="M51 631h299v782h164v-782h299v-156h-299v-917h-164v917h-299v156z"/>
            <glyph glyph-name="daggerdbl" unicode="&#x2021;" horiz-adv-x="948"
                   d="M92 920h301v493h164v-493h297v-156h-297v-549h297v-156h-297v-501h-164v501h-301v156h301v549h-301v156z"/>
            <glyph glyph-name="bullet" unicode="&#x2022;" horiz-adv-x="823"
                   d="M127 551q0 117 80 193t204 77q125 0 205 -77q80 -78 80 -194t-80 -192t-205 -77q-124 1 -204 77t-80 193z"/>
            <glyph glyph-name="ellipsis" unicode="&#x2026;" horiz-adv-x="1409"
                   d="M713 -12q-70 0 -117 44t-47 110t47 112q47 45 117 45q71 0 117 -45t46 -112q0 -66 -46 -110q-47 -44 -117 -44zM1167 -12q-69 0 -115 44t-46 110t46 112q46 45 116 45t115 -45q46 -45 46 -112q0 -66 -46 -110t-116 -44zM243 299q71 0 117 -45t46 -112q0 -66 -46 -110
t-117 -44t-117 44t-46 110t46 112q46 45 117 45z"/>
            <glyph glyph-name="perthousand" unicode="&#x2030;" horiz-adv-x="2435"
                   d="M2054 760q320 0 320 -386t-320 -386t-319 386q0 386 319 386zM2055 614q-73 0 -103 -57t-29 -183q-1 -126 29 -184t103 -57q73 0 102 57q29 58 29 184t-29 183t-102 57zM381 1397q319 0 319 -386t-319 -386t-319 386t319 386zM382 1251q-72 0 -102 -57t-30 -183
q0 -125 30 -183t102 -58q74 0 102 57t28 183t-29 184q-29 57 -101 57zM1346 760q319 0 319 -386t-319 -386t-319 386t319 386zM1214 374q0 -126 30 -184t103 -57q73 0 101 57q28 58 29 184q0 126 -29 183q-30 57 -102 57t-102 -57t-30 -183zM1372 1384l-825 -1384h-195
l819 1384h201z"/>
            <glyph glyph-name="guilsinglleft" unicode="&#x2039;" horiz-adv-x="679"
                   d="M41 553l408 471l157 -111l-272 -362l272 -363l-157 -108z"/>
            <glyph glyph-name="guilsinglright" unicode="&#x203a;" horiz-adv-x="679"
                   d="M233 1024l408 -471l-408 -473l-159 108l272 363l-270 362z"/>
            <glyph glyph-name="fraction" unicode="&#x2044;" horiz-adv-x="393"
                   d="M707 1384l-826 -1384h-194l819 1384h201z"/>
            <glyph glyph-name="zerosuperior" unicode="&#x2070;" horiz-adv-x="757"
                   d="M379 1622q319 0 319 -386t-319 -386t-319 386t319 386zM248 1236q0 -126 30 -184t102 -57q74 -1 102 57t28 184t-29 183t-101 57t-102 -56q-30 -58 -30 -184z"/>
            <glyph glyph-name="foursuperior" unicode="&#x2074;" horiz-adv-x="710"
                   d="M397 1143v246l-176 -246h176zM662 1143v-139h-84v-138h-181v138h-364v120l352 490h193v-471h84z"/>
            <glyph glyph-name="fivesuperior" unicode="&#x2075;" horiz-adv-x="671"
                   d="M621 1113q0 -119 -78 -189t-218 -70t-211 58t-71 159h182q0 -72 99 -72q109 0 108 107q0 45 -29 74q-29 28 -83 28t-97 -32l-143 24l53 414h451v-139h-303l-19 -142q45 18 103 19q109 0 183 -60t73 -179z"/>
            <glyph glyph-name="sixsuperior" unicode="&#x2076;" horiz-adv-x="718"
                   d="M379 1477q-129 0 -129 -179q68 45 174 45q106 -1 174 -65q66 -64 66 -174t-77 -182t-227 -72t-225 98q-76 98 -76 273t77 288q76 113 228 113t218 -59t65 -154h-182q0 68 -86 68zM367 995q109 0 108 107q0 49 -28 78t-80 28q-78 0 -119 -61q0 -152 119 -152z"/>
            <glyph glyph-name="sevensuperior" unicode="&#x2077;" horiz-adv-x="608"
                   d="M37 1475v139h547v-121l-299 -627h-197l289 609h-340z"/>
            <glyph glyph-name="eightsuperior" unicode="&#x2078;" horiz-adv-x="727"
                   d="M365 1479q-100 0 -101 -80q0 -84 100 -84t101 82q0 82 -100 82zM365 1176q-53 0 -85 -25t-32 -66t35 -65t83 -23q48 0 80 24q32 25 33 65q0 40 -30 65q-31 25 -84 25zM365 852q-141 0 -224 57q-82 57 -82 160q0 135 142 178q-127 41 -127 162q0 99 77 157t214 58t213 -57
t75 -158q0 -121 -125 -162q141 -43 142 -178q0 -101 -82 -159t-223 -58z"/>
            <glyph glyph-name="ninesuperior" unicode="&#x2079;" horiz-adv-x="718"
                   d="M72 1063h184q0 -68 84 -68q133 0 133 179q-63 -48 -173 -48t-176 65t-67 175q0 110 78 184q79 72 227 72t223 -99t74 -259q0 -414 -319 -414q-135 0 -202 59q-66 60 -66 154zM246 1370q0 -106 120 -106q64 0 105 61q0 152 -113 152t-112 -107z"/>
            <glyph glyph-name="zeroinferior" unicode="&#x2080;" horiz-adv-x="757"
                   d="M379 555q319 0 319 -386t-319 -386t-319 386t319 386zM248 169q0 -125 30 -183t102 -58q74 0 102 58t28 183q0 126 -29 183q-29 58 -101 58t-102 -58t-30 -183z"/>
            <glyph glyph-name="oneinferior" unicode="&#x2081;" horiz-adv-x="522"
                   d="M430 -205h-184v584l-199 -72l-43 133l268 103h158v-748z"/>
            <glyph glyph-name="twoinferior" unicode="&#x2082;" horiz-adv-x="663"
                   d="M51 301q0 117 70 185t199 69q128 0 204 -66t76 -170q0 -70 -44 -133t-124 -141l-121 -111h291v-139h-532v119l241 236q100 94 101 169q0 41 -23 66t-63 25q-92 0 -93 -109h-182z"/>
            <glyph glyph-name="threeinferior" unicode="&#x2083;" horiz-adv-x="688"
                   d="M629 -2q0 -96 -81 -156t-219 -59q-138 0 -208 58t-70 159h182q0 -72 101 -72q47 0 77 20t29 60q0 96 -135 96h-80v140h80q123 0 123 88q0 37 -26 57q-26 21 -68 21t-66 -18q-25 -18 -24 -50h-183q0 94 69 154t201 59q132 0 209 -59t76 -154q0 -60 -37 -106t-96 -62
q63 -16 105 -64t41 -112z"/>
            <glyph glyph-name="fourinferior" unicode="&#x2084;" horiz-adv-x="710"
                   d="M397 72v245l-176 -245h176zM662 72v-140h-84v-137h-181v137h-364v121l352 490h193v-471h84z"/>
            <glyph glyph-name="fiveinferior" unicode="&#x2085;" horiz-adv-x="671"
                   d="M621 42q0 -120 -78 -190t-218 -69q-140 0 -211 58t-71 159h182q0 -72 99 -72q109 0 108 107q0 45 -29 74t-83 29t-97 -34l-143 25l53 414h451v-140h-303l-19 -141q45 18 103 19q109 1 183 -59t73 -180z"/>
            <glyph glyph-name="sixinferior" unicode="&#x2086;" horiz-adv-x="718"
                   d="M379 410q-129 0 -129 -179q68 45 174 45t174 -64q66 -64 66 -174t-77 -182t-227 -73q-150 0 -225 98q-76 98 -76 273t77 288q76 113 228 113t218 -59t65 -154h-182q0 68 -86 68zM367 -72q109 0 108 107q0 49 -28 78t-80 28q-78 0 -119 -61q0 -152 119 -152z"/>
            <glyph glyph-name="seveninferior" unicode="&#x2087;" horiz-adv-x="608"
                   d="M37 403v140h547v-121l-299 -627h-197l289 608h-340z"/>
            <glyph glyph-name="eightinferior" unicode="&#x2088;" horiz-adv-x="727"
                   d="M365 410q-100 0 -101 -80q0 -84 100 -84t101 82q0 82 -100 82zM365 106q-53 0 -85 -24t-32 -66q0 -40 35 -64t83 -24t80 24t33 64q0 40 -30 66q-31 24 -84 24zM365 -217q-141 0 -224 57q-82 57 -82 160q0 135 142 178q-127 41 -127 162q0 100 77 158t214 57
q137 0 213 -57t75 -158q0 -121 -125 -162q141 -43 142 -178q0 -102 -82 -160t-223 -57z"/>
            <glyph glyph-name="nineinferior" unicode="&#x2089;" horiz-adv-x="716"
                   d="M72 -4h184q0 -68 84 -68q133 0 133 178q-63 -47 -173 -47t-176 65q-66 66 -67 176q0 110 78 182q79 72 227 73q148 0 223 -99t74 -259q0 -414 -319 -414q-135 0 -202 59q-66 60 -66 154zM246 303q0 -107 120 -107q64 0 105 62q0 152 -113 152t-112 -107z"/>
            <glyph glyph-name="rupee" unicode="&#x20a8;" horiz-adv-x="1140"
                   d="M1067 1225h-248q66 -72 76 -183h172v-163h-174q-18 -111 -101 -191t-206 -108l342 -580h-305l-312 549h-217v205h215q143 0 214 28t98 97h-525v163h527q-27 76 -92 105t-205 29h-232v208l973 2v-161z"/>
            <glyph glyph-name="Euro" unicode="&#x20ac;" horiz-adv-x="1161"
                   d="M70 905h112q78 500 547 500q178 0 363 -82l-82 -217q-147 68 -287 68q-221 0 -272 -269h497l-57 -162h-455v-47q0 -47 2 -67h416l-55 -162h-336q70 -258 278 -258q145 0 281 80l63 -226q-166 -86 -356 -86q-459 0 -545 490h-114v162h96v114h-96v162z"/>
            <glyph glyph-name="afii61289" unicode="&#x2113;" horiz-adv-x="774"
                   d="M561 1153q0 59 -23 88q-24 29 -55 29q-80 0 -80 -131v-338q158 168 158 352zM497 1448q230 0 230 -285q0 -141 -81 -279t-243 -290v-326q0 -61 26 -94t69 -33q78 0 166 64l59 -142q-103 -86 -231 -86q-252 0 -252 263v219q-43 -43 -125 -101l-80 129q137 98 205 175v444
q0 172 71 257q72 85 186 85z"/>
            <glyph glyph-name="uni2117" unicode="&#x2117;" horiz-adv-x="1691"
                   d="M1026 820q0 110 -125 110h-145v-219h145q125 -1 125 109zM575 1075h322q160 1 240 -69t80 -190t-80 -186t-240 -67h-141v-276h-181v788zM266 685q0 -261 162 -421t419 -160t419 160t162 421t-162 421t-419 160t-419 -160t-162 -421zM80 686q0 328 218 542t549 214
t548 -213t217 -542t-217 -545t-548 -216t-549 216t-218 544z"/>
            <glyph glyph-name="trademark" unicode="&#x2122;" horiz-adv-x="1286"
                   d="M881 885l84 358h161l48 -485h-115l-25 358l-92 -358h-131l-80 354l-31 -354h-114l47 485h166zM86 1243h434v-92h-162v-393h-116v393h-156v92z"/>
            <glyph glyph-name="Omega" unicode="&#x2126;" horiz-adv-x="1490"
                   d="M92 209h291q-119 101 -197 241t-78 284t36 258q78 258 306 360q126 55 294 55t294 -55q127 -54 201 -150q145 -187 143 -452q0 -160 -78 -300t-198 -241h293v-209h-565v209q115 90 192 228q78 139 78 317t-88 301t-272 123t-271 -123q-86 -123 -86 -301t78 -317
q78 -138 192 -228v-209h-565v209z"/>
            <glyph glyph-name="estimated" unicode="&#x212e;" horiz-adv-x="1488"
                   d="M379 786h756v377q-166 154 -384 154t-372 -154v-377zM379 692v-471q152 -152 375 -151q164 0 284 74t217 237l93 -55q-121 -188 -256 -270t-338 -81q-299 0 -485 205q-185 205 -185 513t184 512t484 204t486 -201q185 -201 187 -516h-1046z"/>
            <glyph glyph-name="onethird" unicode="&#x2153;" horiz-adv-x="1632"
                   d="M479 637h-184v584l-199 -72l-43 133l269 102h157v-747zM1286 1384l-825 -1384h-195l819 1384h201zM1559 203q0 -95 -81 -155t-219 -60t-208 58t-70 159h182q0 -72 101 -72q46 1 76 21t30 59q0 96 -135 96h-80v140h80q123 0 123 88q0 37 -26 57t-68 20t-66 -18
q-25 -18 -24 -49h-183q0 94 69 153q69 60 201 60q133 0 209 -60t76 -153q0 -59 -37 -105t-96 -63q63 -17 105 -65t41 -111z"/>
            <glyph glyph-name="twothirds" unicode="&#x2154;" horiz-adv-x="1714"
                   d="M1378 1384l-825 -1384h-195l820 1384h200zM1651 203q0 -95 -81 -155t-219 -60t-208 58t-70 159h182q0 -72 101 -72q47 1 77 21t29 59q0 96 -135 96h-80v140h80q123 0 123 88q0 37 -26 57t-68 20t-66 -18q-25 -18 -24 -49h-183q0 94 69 153q69 60 201 60t209 -60t76 -153
q0 -59 -36 -106q-38 -46 -97 -62q63 -17 105 -65t41 -111zM70 1143q0 117 70 185t198 69q129 0 205 -66t75 -170q0 -70 -44 -133t-123 -141l-121 -111h291v-139h-533v119l242 235q100 94 100 170q0 41 -22 66q-23 25 -64 24q-92 0 -92 -108h-182z"/>
            <glyph glyph-name="oneeighth" unicode="&#x215b;" horiz-adv-x="1648"
                   d="M479 637h-184v584l-199 -72l-43 133l269 102h157v-747zM1286 1384l-825 -1384h-195l819 1384h201zM1272 614q-100 0 -101 -79q1 -84 101 -84t100 84q0 79 -100 79zM1272 311q-53 -1 -85 -25t-32 -65t35 -65t83 -23q48 0 81 24q32 25 32 65t-30 65q-31 24 -84 24z
M1272 -12q-141 0 -223 57t-82 160q0 135 141 178q-127 41 -127 162q0 100 77 157q77 58 214 58t213 -58t76 -157q0 -121 -125 -162q141 -43 141 -178q0 -101 -82 -159t-223 -58z"/>
            <glyph glyph-name="threeeighths" unicode="&#x215c;" horiz-adv-x="1703"
                   d="M1333 614q-100 0 -100 -79q0 -84 100 -84t101 84q-1 79 -101 79zM1333 311q-53 -1 -85 -25t-32 -65t36 -65q34 -24 82 -23q48 0 81 24q33 25 33 65t-31 64t-84 25zM1333 -12q-141 0 -223 57t-82 160q0 135 141 178q-127 41 -127 162q0 100 77 157q77 58 214 58t213 -58
t76 -157q0 -121 -125 -162q141 -43 141 -178q0 -101 -82 -159t-223 -58zM1350 1384l-826 -1384h-194l819 1384h201zM647 840q0 -96 -81 -156t-219 -59q-138 0 -208 58t-69 159h182q0 -72 100 -72q47 0 77 20t30 60q0 96 -135 96h-80v139h80q123 0 122 89q0 37 -25 57
q-26 20 -68 20q-43 0 -67 -18t-24 -49h-182q0 94 68 153q69 59 201 59t209 -58q77 -60 77 -154q0 -60 -37 -106t-96 -62q63 -16 104 -64t41 -112z"/>
            <glyph glyph-name="fiveeighths" unicode="&#x215d;" horiz-adv-x="1685"
                   d="M1313 614q-100 0 -101 -79q0 -84 100 -84t101 84q0 79 -100 79zM1313 311q-53 -1 -85 -25t-32 -65t35 -65t83 -23q48 0 81 24q33 25 33 65t-31 65q-31 24 -84 24zM1313 -12q-141 0 -223 57t-82 160q0 135 141 178q-127 41 -127 162q0 100 77 157q77 58 214 58t213 -58
t76 -157q0 -121 -125 -162q141 -43 141 -178q0 -101 -82 -159t-223 -58zM1327 1384l-825 -1384h-195l819 1384h201zM381 1122q109 0 183 -59t73 -179q0 -120 -78 -190t-218 -70t-211 59q-71 58 -71 159h183q0 -72 98 -72q109 0 109 107q0 45 -29 73t-84 29q-55 0 -96 -33
l-144 25l54 413h450v-139h-303l-18 -141q45 18 102 18z"/>
            <glyph glyph-name="seveneighths" unicode="&#x215e;" horiz-adv-x="1544"
                   d="M1190 1384l-825 -1384h-195l819 1384h201zM1176 614q-100 0 -101 -79q1 -84 101 -84t100 84q0 79 -100 79zM1176 311q-53 -1 -85 -25t-32 -65t35 -65t83 -23q49 0 81 24q32 25 32 65t-30 65q-31 24 -84 24zM1176 -12q-141 0 -224 57q-82 57 -82 160q0 135 142 178
q-127 41 -127 162q0 100 77 157q77 58 214 58t213 -58t75 -157q0 -121 -125 -162q141 -43 142 -178q0 -101 -82 -159t-223 -58zM66 1245v139h546v-120l-299 -627h-196l289 608h-340z"/>
            <glyph glyph-name="arrowleft" unicode="&#x2190;" horiz-adv-x="1536"
                   d="M1389 692v-211h-900l342 -342l-137 -139l-590 588l590 588l137 -142l-342 -342h900z"/>
            <glyph glyph-name="arrowup" unicode="&#x2191;" horiz-adv-x="1536"
                   d="M872 2h-210v897l-343 -342l-139 137l588 590l588 -590l-142 -137l-342 342v-897z"/>
            <glyph glyph-name="arrowright" unicode="&#x2192;" horiz-adv-x="1536"
                   d="M147 510v211h900l-342 342l137 139l590 -588l-590 -587l-137 141l342 342h-900z"/>
            <glyph glyph-name="arrowdown" unicode="&#x2193;" horiz-adv-x="1536"
                   d="M664 1200h210v-899l343 342l139 -137l-588 -588l-588 588l142 137l342 -342v899z"/>
            <glyph glyph-name="uni2196" unicode="&#x2196;" horiz-adv-x="1536"
                   d="M313 1079h834v-198h-485l634 -635l-147 -150l-637 637v-485h-199v831z"/>
            <glyph glyph-name="uni2197" unicode="&#x2197;" horiz-adv-x="1536"
                   d="M1221 1079v-831h-199v485l-635 -637l-149 150l636 635h-485v198h832z"/>
            <glyph glyph-name="uni2198" unicode="&#x2198;" horiz-adv-x="1536"
                   d="M1219 123h-834v199h485l-634 634l147 150l637 -637v485h199v-831z"/>
            <glyph glyph-name="uni2199" unicode="&#x2199;" horiz-adv-x="1536"
                   d="M317 123v831h197v-485l637 637l147 -150l-634 -634h485v-199h-832z"/>
            <glyph glyph-name="partialdiff" unicode="&#x2202;" horiz-adv-x="1077"
                   d="M524 193q108 0 164 97q55 97 55 245q-74 147 -229 147q-98 0 -149 -65t-51 -177t50 -179q52 -68 160 -68zM476 915q190 0 282 -147q-4 158 -107 336q-102 178 -243 309h294q134 -129 216 -330t82 -453t-105 -443q-53 -97 -149 -153t-224 -57q-223 0 -338 128
q-114 129 -114 343t108 340t298 127z"/>
            <glyph glyph-name="Delta" unicode="&#x2206;" horiz-adv-x="1454"
                   d="M1051 209l-326 907l-324 -907h650zM43 0l537 1384h294l535 -1384h-1366z"/>
            <glyph glyph-name="product" unicode="&#x220f;" horiz-adv-x="1533"
                   d="M68 1384h1398v-208h-135v-1618h-256v1620h-614v-1620h-258v1618h-135v208z"/>
            <glyph glyph-name="summation" unicode="&#x2211;" horiz-adv-x="1206"
                   d="M1133 -236v-208h-1059v249l495 682l-495 648v249h1056v-208h-802l524 -687l-524 -725h805z"/>
            <glyph glyph-name="minus" unicode="&#x2212;"
                   d="M72 449v210h1001v-210h-1001z"/>
            <glyph glyph-name="uni2215" unicode="&#x2215;" horiz-adv-x="948"
                   d="M985 1384l-825 -1384h-195l819 1384h201z"/>
            <glyph glyph-name="uni2219" unicode="&#x2219;" horiz-adv-x="522"
                   d="M262 395q-74 0 -124 47t-50 119t50 120t125 48t124 -48t49 -120t-50 -119t-124 -47z"/>
            <glyph glyph-name="radical" unicode="&#x221a;" horiz-adv-x="1267"
                   d="M1262 1425l-502 -1867h-264l-271 632l-143 -61l-74 168l365 156l233 -588l404 1560h252z"/>
            <glyph glyph-name="infinity" unicode="&#x221e;" horiz-adv-x="1454"
                   d="M418 682q-64 0 -104 -42t-40 -106t40 -100q40 -37 98 -37q58 1 109 41q52 40 89 97q-100 147 -192 147zM1182 540q0 64 -39 102q-39 40 -103 40q-92 0 -188 -147q100 -135 188 -136q63 0 103 38q39 39 39 103zM1372 543q0 -141 -88 -235t-221 -93q-203 0 -332 191
q-77 -94 -153 -142t-195 -47q-119 0 -209 90q-90 89 -90 229t88 232t219 92q193 0 340 -196q137 201 330 200q131 0 221 -90t90 -231z"/>
            <glyph glyph-name="integral" unicode="&#x222b;" horiz-adv-x="763"
                   d="M502 1116v-1270q0 -133 -82 -221t-254 -88q-76 0 -133 25v205q111 -6 137 -7q92 0 92 107v1270q0 133 83 221t251 88q74 0 135 -25v-204q-117 6 -137 6q-92 -1 -92 -107z"/>
            <glyph glyph-name="approxequal" unicode="&#x2248;"
                   d="M810 158q-104 0 -244 64t-220 65q-80 0 -201 -74l-12 205q111 82 234 82q82 0 222 -66t223 -66t192 83l10 -207q-100 -86 -204 -86zM812 608q-106 0 -248 65t-217 65t-141 -45q-50 -28 -61 -36l-10 205q115 88 232 88q82 0 220 -66t223 -65q85 0 194 82l10 -207
q-96 -86 -202 -86z"/>
            <glyph glyph-name="notequal" unicode="&#x2260;"
                   d="M137 901h457l49 205l125 -29l-43 -176h287v-211h-338l-66 -272h404v-213h-457l-51 -217l-123 24l45 193h-289v213h340l66 272h-406v211z"/>
            <glyph glyph-name="lessequal" unicode="&#x2264;"
                   d="M129 47v201h870v-201h-870zM129 725v254l875 326v-226l-666 -229l666 -227v-226z"/>
            <glyph glyph-name="greaterequal" unicode="&#x2265;"
                   d="M1024 979v-254l-872 -328v226l665 227l-665 229v226zM131 47v201h870v-201h-870z"/>
            <glyph glyph-name="lozenge" unicode="&#x25ca;" horiz-adv-x="1253"
                   d="M1204 725l-463 -725h-233l-461 725l461 700h233zM924 725l-297 463l-305 -463l305 -487z"/>
            <glyph glyph-name="circle" unicode="&#x25cb;" horiz-adv-x="1556"
                   d="M776 1239q-242 -1 -382 -149t-140 -399t140 -399t382 -148t383 149t141 399t-141 398t-383 149zM82 692q0 313 192 513q193 200 503 200t504 -200t194 -513t-194 -514t-503 -201t-503 201q-193 201 -193 514z"/>
            <glyph glyph-name="commaaccent" unicode="&#xf6c3;" horiz-adv-x="1228"
                   d="M772 -129l-131 -313h-186l53 313h264z"/>
            <glyph glyph-name="uniF8FF" unicode="&#xf8ff;" horiz-adv-x="1181"
                   d="M246 78h690v1188h-690v-1188zM168 0v1343h846v-1343h-846z"/>
            <glyph glyph-name="exclam.sc" horiz-adv-x="483"
                   d="M241 -8q-62 0 -104 37q-41 37 -41 93t41 94t103 38t104 -38q41 -38 41 -94t-41 -93t-103 -37zM338 356h-193l-39 682h273z"/>
            <glyph glyph-name="numbersign.sc" horiz-adv-x="1120"
                   d="M500 608l-27 -172h145l27 172h-145zM221 240h-160l35 196h160l29 172h-160l29 195h159l41 235h217l-41 -235h146l41 235h217l-37 -235h164l-33 -195h-164l-28 -172h163l-30 -196h-166l-41 -240h-219l41 240h-142l-43 -240h-219z"/>
            <glyph glyph-name="dollar.sc" horiz-adv-x="948"
                   d="M354 749q0 -76 84 -102v199q-84 -21 -84 -97zM631 282q0 73 -92 105v-197q92 19 92 92zM539 -158h-101v144q-283 10 -381 184l166 137q68 -109 215 -121v230l-63 18q-268 80 -269 297q0 125 81 215t251 105v114h101v-112q221 -10 329 -154l-166 -133q-57 70 -163 82v-230
l63 -16q276 -82 277 -293q-1 -139 -95 -223t-245 -98v-146z"/>
            <glyph glyph-name="percent.sc" horiz-adv-x="1454"
                   d="M326 1049q266 0 266 -296t-267 -296t-268 295q0 139 66 218t203 79zM327 582q54 0 74 40q21 40 21 131t-20 131t-75 40q-54 0 -76 -40t-22 -131t22 -131t76 -40zM1129 582q267 0 267 -296t-266 -296q-268 0 -268 296t267 296zM1032 287q0 -90 22 -131t75 -41q54 0 75 39
q20 39 20 132t-20 132t-74 39t-76 -40t-22 -130zM1147 1038l-666 -1038h-178l662 1038h182z"/>
            <glyph glyph-name="ampersand.sc" horiz-adv-x="1116"
                   d="M594 788q0 37 -30 61q-30 23 -80 23t-80 -23q-29 -24 -29 -61q0 -59 84 -133l4 -6q131 79 131 139zM408 166q96 0 186 84l-154 160l-22 -15q-43 -26 -74 -53q-32 -28 -44 -46t-13 -50q0 -31 31 -56q33 -24 90 -24zM1090 0h-252l-107 109q-152 -125 -338 -125
q-147 0 -234 70t-87 190q0 68 40 129t99 109t94 65l-6 8l-16 14q-14 16 -43 45t-40 51q-12 21 -26 47t-14 76q0 113 89 190t234 77t235 -78t91 -197q0 -119 -211 -268l123 -125l145 174l160 -112l-131 -162q-2 -2 -35 -41l230 -232v-14z"/>
            <glyph glyph-name="section.sc" horiz-adv-x="964"
                   d="M334 476q0 -36 38 -60t126 -47l112 -33q29 25 29 57q0 80 -139 113l-135 37q-31 -31 -31 -67zM877 436q0 -106 -93 -174q92 -59 92 -169q0 -111 -96 -189q-98 -78 -309 -78q-285 0 -389 143l117 140q106 -111 286 -111q139 0 140 61q0 25 -30 41t-95 37l-146 43
q-131 40 -193 100q-63 60 -63 162t88 174q-90 60 -90 164t98 190t312 85q212 0 342 -125l-127 -144q-96 92 -254 93q-53 -1 -88 -17t-35 -42t28 -41t99 -38l139 -41q267 -82 267 -264z"/>
            <glyph glyph-name="paragraph.sc" horiz-adv-x="970"
                   d="M662 -39v739h202v-690q1 -243 -196 -358l-129 129q123 92 123 180zM381 700h203v-686h-201v203q-311 0 -311 238q0 245 309 245z"/>
            <glyph glyph-name="parenleft.sc" horiz-adv-x="557"
                   d="M78 371q0 201 63 365t189 345l172 -65q-182 -354 -182 -660t178 -630l-168 -68q-252 322 -252 713z"/>
            <glyph glyph-name="slash.sc" horiz-adv-x="671"
                   d="M623 1038v-20l-344 -1018h-228v23l338 1015h234z"/>
            <glyph glyph-name="parenright.sc" horiz-adv-x="555"
                   d="M477 371q0 -389 -250 -713l-168 68q179 324 179 630t-183 660l172 65q125 -180 187 -345t63 -365z"/>
            <glyph glyph-name="bracketleft.sc" horiz-adv-x="624"
                   d="M113 1069h442v-184h-201v-1032h201v-185h-442v1401z"/>
            <glyph glyph-name="backslash.sc" horiz-adv-x="686"
                   d="M49 1038h234l354 -1015v-23h-229l-359 1018v20z"/>
            <glyph glyph-name="bracketright.sc" horiz-adv-x="622"
                   d="M70 1069h438v-1401h-438v185h200v1032h-200v184z"/>
            <glyph glyph-name="braceleft.sc" horiz-adv-x="608"
                   d="M440 821v-266q0 -172 -151 -190q67 -7 109 -53t42 -134v-272q0 -40 20 -56t64 -16v-166q-168 0 -246 50t-77 171v267q0 125 -160 125v165q160 0 160 136v256q0 119 78 171t245 52v-166q-44 -1 -64 -17t-20 -57z"/>
            <glyph glyph-name="bar.sc" horiz-adv-x="362"
                   d="M250 -332h-137v1401h137v-1401z"/>
            <glyph glyph-name="braceright.sc" horiz-adv-x="608"
                   d="M168 555v266q0 41 -20 57t-64 17v166q168 0 246 -52t78 -171v-256q0 -74 40 -105t119 -31v-165q-160 0 -159 -125v-267q0 -121 -78 -171t-246 -50v166q43 0 63 15t21 57v272q0 168 149 187q-149 18 -149 190z"/>
            <glyph glyph-name="zero.sc" horiz-adv-x="1042"
                   d="M522 1055q434 0 434 -536t-434 -535q-436 0 -436 536q0 252 106 394t330 141zM522 180q102 0 145 82q42 82 42 258t-42 257q-43 81 -145 81t-145 -82t-43 -257t43 -257t145 -82z"/>
            <glyph glyph-name="one.sc" horiz-adv-x="724"
                   d="M594 0h-244v815l-276 -100l-60 182l371 141h209v-1038z"/>
            <glyph glyph-name="two.sc" horiz-adv-x="917"
                   d="M441 1055q176 0 278 -90t102 -234q0 -98 -59 -187t-168 -196l-172 -158h405v-190h-729v162l334 327q139 133 139 242q0 57 -30 92q-31 35 -92 35q-131 0 -132 -153h-241q0 162 94 256q95 94 271 94z"/>
            <glyph glyph-name="three.sc" horiz-adv-x="952"
                   d="M866 279q0 -131 -110 -213t-298 -82t-284 81t-96 220h241q0 -104 148 -105q65 0 107 30t42 85q0 135 -190 135h-109v193h109q172 0 172 125q0 50 -35 80t-96 30q-131 0 -131 -98h-246q0 133 93 214t275 81t287 -82q104 -82 105 -213q0 -84 -52 -150t-134 -84
q86 -18 144 -87t58 -160z"/>
            <glyph glyph-name="four.sc" horiz-adv-x="987"
                   d="M553 383v348l-252 -348h252zM913 383v-190h-118v-193h-242v193h-502v167l488 678h256v-655h118z"/>
            <glyph glyph-name="five.sc" horiz-adv-x="923"
                   d="M850 344q0 -164 -108 -262t-298 -98t-286 82t-97 219h240q0 -51 38 -78t103 -27q156 0 156 156q0 63 -40 102t-119 39t-138 -45l-188 33l71 573h615v-190h-418l-27 -199q55 25 142 25q150 0 252 -83t102 -247z"/>
            <glyph glyph-name="six.sc" horiz-adv-x="987"
                   d="M643 760q0 98 -127 98q-184 0 -184 -256q92 68 242 68t242 -89q91 -89 91 -242t-105 -254t-308 -101t-307 137q-103 137 -103 379t103 399q103 156 329 156q186 0 278 -82t91 -213h-242zM500 483q-107 0 -166 -88q0 -98 42 -156t124 -59q158 0 157 154q0 70 -40 110
t-117 39z"/>
            <glyph glyph-name="seven.sc" horiz-adv-x="841"
                   d="M57 848v190h744v-161l-410 -877h-260l395 848h-469z"/>
            <glyph glyph-name="eight.sc" horiz-adv-x="1001"
                   d="M500 180q78 0 122 33t44 95t-46 96q-46 32 -120 32t-120 -33t-46 -95t44 -95t122 -33zM500 858q-68 0 -107 -30t-39 -87t40 -87t106 -29q145 0 145 118q-1 55 -39 85t-106 30zM915 287q0 -143 -111 -223q-110 -80 -302 -80t-305 80t-113 223q0 92 55 155t144 90
q-80 27 -128 85t-49 139q0 139 104 219t290 80t290 -79t103 -220q0 -80 -47 -138t-129 -86q88 -27 143 -89t55 -156z"/>
            <glyph glyph-name="nine.sc" horiz-adv-x="989"
                   d="M102 279h244q0 -45 33 -72t92 -27q184 0 184 258q-87 -72 -239 -72t-243 91t-91 243t105 253t309 101t306 -138t103 -380q0 -242 -104 -397q-104 -156 -330 -155q-185 0 -277 82t-92 213zM491 858q-81 0 -121 -41t-40 -111t41 -111q41 -40 118 -40q107 0 166 86
q0 97 -42 157t-122 60z"/>
            <glyph glyph-name="question.sc" horiz-adv-x="782"
                   d="M496 754q0 98 -110 98q-54 0 -82 -25t-28 -53l-219 25q0 109 79 183t242 73q163 0 255 -80t92 -205q0 -70 -39 -130t-84 -95q-123 -96 -123 -189h-233q0 120 88 206q37 36 74 68q88 77 88 124zM365 -8q-63 0 -104 37q-40 37 -40 93t41 94q42 38 104 38t103 -38t41 -94
t-41 -93t-104 -37z"/>
            <glyph glyph-name="a.sc" horiz-adv-x="1081"
                   d="M541 791l-131 -381h262zM805 0l-74 213h-381l-74 -213h-264l385 1038h285l389 -1038h-266z"/>
            <glyph glyph-name="b.sc" horiz-adv-x="1042"
                   d="M379 633h123q154 0 153 104q0 106 -155 107h-121v-211zM379 195h151q180 0 181 122q0 121 -181 121h-151v-243zM129 0v1038h401q381 0 381 -278q0 -154 -155 -211q92 -23 153 -87t62 -163q0 -299 -439 -299h-403z"/>
            <glyph glyph-name="c.sc" horiz-adv-x="1030"
                   d="M588 852q-250 0 -250 -333t250 -333q123 0 194 121l189 -119q-123 -204 -380 -204t-384 139t-127 396t127 396t383 139t381 -206l-189 -115q-72 119 -194 119z"/>
            <glyph glyph-name="d.sc" horiz-adv-x="1136"
                   d="M379 195h100q178 1 249 71t71 251t-72 254t-248 73h-100v-649zM129 0v1038h367q287 0 424 -126t137 -393t-137 -393t-424 -126h-367z"/>
            <glyph glyph-name="e.sc" horiz-adv-x="964"
                   d="M381 195h500v-195h-752v1038h745v-194h-493v-228h420v-196h-420v-225z"/>
            <glyph glyph-name="f.sc" horiz-adv-x="913"
                   d="M129 0v1038h713v-194h-461v-254h387v-197h-387v-393h-252z"/>
            <glyph glyph-name="g.sc" horiz-adv-x="1122"
                   d="M586 377v194h465q8 -57 8 -114q0 -205 -118 -339q-117 -134 -355 -134t-373 137t-135 403t139 398t397 133q128 -1 230 -53t151 -144l-186 -117q-74 111 -207 111q-266 0 -266 -330q0 -184 62 -260t180 -76t174 54t55 137h-221z"/>
            <glyph glyph-name="h.sc" horiz-adv-x="1191"
                   d="M813 631v407h250v-1038h-250v434h-434v-434h-250v1038h250v-407h434z"/>
            <glyph glyph-name="i.sc" horiz-adv-x="509"
                   d="M129 0v1038h252v-1038h-252z"/>
            <glyph glyph-name="j.sc" horiz-adv-x="841"
                   d="M344 186q143 0 143 166v686h236v-706q0 -164 -99 -256t-280 -92q-117 0 -196 49q-78 49 -115 131l174 108q43 -86 137 -86z"/>
            <glyph glyph-name="k.sc" horiz-adv-x="1083"
                   d="M381 0h-252v1038h252v-420l389 420h291l-389 -428l387 -610h-285l-268 438l-125 -123v-315z"/>
            <glyph glyph-name="l.sc" horiz-adv-x="847"
                   d="M381 195h428v-195h-680v1038h252v-843z"/>
            <glyph glyph-name="m.sc" horiz-adv-x="1462"
                   d="M733 293l211 745h328l108 -1038h-231l-66 758l-219 -758h-272l-201 748l-82 -748h-233l127 1038h329z"/>
            <glyph glyph-name="n.sc" horiz-adv-x="1181"
                   d="M805 1038h248v-1038h-254l-418 653v-653h-254l2 1038h264l412 -641v641z"/>
            <glyph glyph-name="o.sc" horiz-adv-x="1132"
                   d="M1053 519q0 -243 -119 -389t-369 -146q-249 0 -367 146t-118 389t118 389t370 146t369 -146q116 -146 116 -389zM338 518q0 -162 49 -247t177 -85t180 86t53 246q1 334 -229 334t-230 -334z"/>
            <glyph glyph-name="p.sc" horiz-adv-x="1013"
                   d="M381 844v-287h137q174 0 174 143t-174 144h-137zM537 362h-156v-362h-252v1038h408q199 0 307 -87t106 -252q0 -165 -106 -251t-307 -86z"/>
            <glyph glyph-name="q.sc" horiz-adv-x="1132"
                   d="M338 518q0 -162 49 -247t178 -85q80 0 127 33l-229 199l127 137l196 -166q10 49 11 129q1 334 -229 334t-230 -334zM1053 518q0 -178 -62 -299l111 -92l-131 -143l-103 86q-115 -86 -303 -86q-249 0 -367 146t-118 389t118 389t370 146t369 -146q116 -146 116 -390z"/>
            <glyph glyph-name="r.sc" horiz-adv-x="1056"
                   d="M723 721q0 61 -41 92t-141 31h-160v-244h160q102 0 142 30t40 91zM129 0v1038h438q414 0 414 -315q0 -115 -63 -194t-185 -103l266 -426h-278l-238 403h-102v-403h-252z"/>
            <glyph glyph-name="s.sc" horiz-adv-x="944"
                   d="M494 852q-66 0 -101 -30t-35 -77q0 -76 97 -102l139 -41q276 -82 276 -293q0 -157 -116 -241t-288 -84q-173 0 -273 55t-144 131l168 137q37 -59 90 -90t139 -31t126 29t40 74q0 74 -108 104l-137 41q-266 80 -267 297q0 137 96 231t298 93q251 0 368 -156l-168 -133
q-66 86 -200 86z"/>
            <glyph glyph-name="t.sc" horiz-adv-x="950"
                   d="M59 1038h832v-194h-291v-844h-250v844h-291v194z"/>
            <glyph glyph-name="u.sc" horiz-adv-x="1116"
                   d="M559 -14q-205 0 -323 103t-119 312v637h252v-628q0 -111 44 -166q44 -56 146 -56q103 0 147 56t44 166v628h249v-637q1 -209 -117 -312t-323 -103z"/>
            <glyph glyph-name="v.sc" horiz-adv-x="1054"
                   d="M772 1038h260l-344 -1038h-321l-342 1038h258l247 -790z"/>
            <glyph glyph-name="w.sc" horiz-adv-x="1665"
                   d="M692 1038h281l209 -770l188 770h254l-278 -1038h-308l-204 711l-209 -711h-303l-281 1038h254l190 -770z"/>
            <glyph glyph-name="x.sc" horiz-adv-x="1044"
                   d="M33 1038h278l211 -348l211 348h277l-326 -503l332 -535h-279l-215 362l-215 -362h-278l329 535z"/>
            <glyph glyph-name="y.sc" horiz-adv-x="1021"
                   d="M637 0h-252v397l-375 641h271l233 -426l225 426h275l-377 -641v-397z"/>
            <glyph glyph-name="z.sc" horiz-adv-x="919"
                   d="M827 1038v-172l-465 -671h484v-195h-774v168l467 676h-447v194h735z"/>
            <glyph glyph-name="agrave.sc" horiz-adv-x="1081"
                   d="M260 1487h236l149 -334h-207zM541 791l-131 -381h262zM805 0l-74 213h-381l-74 -213h-264l385 1038h285l389 -1038h-266z"/>
            <glyph glyph-name="aacute.sc" horiz-adv-x="1081"
                   d="M588 1487h235l-178 -334h-207zM541 791l-131 -381h262zM805 0l-74 213h-381l-74 -213h-264l385 1038h285l389 -1038h-266z"/>
            <glyph glyph-name="acircumflex.sc" horiz-adv-x="1081"
                   d="M420 1487h246l206 -338h-221l-108 182l-109 -182h-221zM541 791l-131 -381h262zM805 0l-74 213h-381l-74 -213h-264l385 1038h285l389 -1038h-266z"/>
            <glyph glyph-name="atilde.sc" horiz-adv-x="1081"
                   d="M369 1182q-74 0 -133 45l4 182q51 -49 139 -49q49 0 144 41t174 41t153 -43l-4 -185q-82 54 -144 54t-160 -43q-99 -43 -173 -43zM541 791l-131 -381h262zM805 0l-74 213h-381l-74 -213h-264l385 1038h285l389 -1038h-266z"/>
            <glyph glyph-name="adieresis.sc" horiz-adv-x="1081"
                   d="M741 1161q-143 0 -143 137q0 70 39 106t101 36t104 -36t41 -106q1 -70 -41 -104t-101 -33zM344 1161q-143 0 -143 137q0 70 39 106t101 36t103 -36t41 -106t-41 -104t-100 -33zM541 791l-131 -381h262zM805 0l-74 213h-381l-74 -213h-264l385 1038h285l389 -1038h-266z
"/>
            <glyph glyph-name="amacron.sc" horiz-adv-x="1081"
                   d="M238 1378h608v-188h-608v188zM541 791l-131 -381h262zM805 0l-74 213h-381l-74 -213h-264l385 1038h285l389 -1038h-266z"/>
            <glyph glyph-name="abreve.sc" horiz-adv-x="1081"
                   d="M856 1450q0 -137 -83 -224t-233 -87t-232 88q-81 88 -81 223h158q10 -59 52 -96q43 -37 103 -37t102 37t52 96h162zM541 791l-131 -381h262zM805 0l-74 213h-381l-74 -213h-264l385 1038h285l389 -1038h-266z"/>
            <glyph glyph-name="aring.sc" horiz-adv-x="1081"
                   d="M455 1328q1 -32 23 -56t62 -23q40 0 62 23q22 22 23 56q0 34 -23 58q-24 24 -64 23t-62 -25t-21 -56zM317 1330q-1 84 57 144t165 60t167 -60t60 -144t-60 -146t-166 -62t-164 62q-59 62 -59 146zM541 791l-131 -381h262zM805 0l-74 213h-381l-74 -213h-264l385 1038h285
l389 -1038h-266z"/>
            <glyph glyph-name="aringacute.sc" horiz-adv-x="1081"
                   d="M541 791l-131 -381h262zM805 0l-74 213h-381l-74 -213h-264l385 1038h285l389 -1038h-266zM449 1328q1 -36 23 -60t62 -23q40 0 66 24q25 23 25 59t-25 61t-66 25t-63 -26q-22 -24 -22 -60zM315 1327q0 139 127 186l111 179h238l-140 -187q109 -55 109 -178
q0 -82 -60 -141q-60 -60 -166 -60q-104 0 -162 60t-57 141z"/>
            <glyph glyph-name="aogonek.sc" horiz-adv-x="1077"
                   d="M539 791l-131 -381h262zM855 -442q-111 0 -177 51t-66 155t129 209l56 43l-68 197h-381l-74 -213h-264l385 1038h285l389 -1038l-141 -102q-64 -47 -64 -81q-1 -65 66 -67q63 0 139 55v-200q-102 -47 -214 -47z"/>
            <glyph glyph-name="ae.sc" horiz-adv-x="1640"
                   d="M807 410v333l-234 -333h234zM1057 195h499v-195h-749v213h-369l-147 -213h-297l747 1038h809v-194h-493v-228h422v-196h-422v-225z"/>
            <glyph glyph-name="aeacute.sc" horiz-adv-x="1640"
                   d="M807 410v333l-234 -333h234zM1057 195h499v-195h-749v213h-369l-147 -213h-297l747 1038h809v-194h-493v-228h422v-196h-422v-225zM1145 1487h235l-178 -334h-207z"/>
            <glyph glyph-name="cacute.sc" horiz-adv-x="1030"
                   d="M594 1487h235l-178 -334h-207zM588 852q-250 0 -250 -333t250 -333q123 0 194 121l189 -119q-123 -204 -380 -204t-384 139t-127 396t127 396t383 139t381 -206l-189 -115q-72 119 -194 119z"/>
            <glyph glyph-name="ccircumflex.sc" horiz-adv-x="1030"
                   d="M436 1487h246l207 -338h-221l-109 182l-108 -182h-222zM588 852q-250 0 -250 -333t250 -333q123 0 194 121l189 -119q-123 -204 -380 -204t-384 139t-127 396t127 396t383 139t381 -206l-189 -115q-72 119 -194 119z"/>
            <glyph glyph-name="ccaron.sc" horiz-adv-x="1030"
                   d="M682 1149h-246l-207 338h222l108 -182l109 182h221zM588 852q-250 0 -250 -333t250 -333q123 0 194 121l189 -119q-123 -204 -380 -204t-384 139t-127 396t127 396t383 139t381 -206l-189 -115q-72 119 -194 119z"/>
            <glyph glyph-name="cdotaccent.sc" horiz-adv-x="1030"
                   d="M559 1161q-143 0 -143 137q0 70 39 106t101 36t103 -36t41 -106t-41 -104t-100 -33zM588 852q-250 0 -250 -333t250 -333q123 0 194 121l189 -119q-123 -204 -380 -204t-384 139t-127 396t127 396t383 139t381 -206l-189 -115q-72 119 -194 119z"/>
            <glyph glyph-name="ccedilla.sc" horiz-adv-x="1030"
                   d="M588 852q-250 0 -250 -333t250 -333q123 0 194 121l189 -119q-106 -178 -324 -200l-33 -84q197 0 197 -166q0 -84 -65 -132q-66 -48 -174 -48t-197 47v153q84 -63 180 -63q66 0 66 45t-89 45h-90l-12 14l68 189q-205 23 -312 159q-106 137 -106 383t127 385t383 139
t381 -206l-189 -115q-72 119 -194 119z"/>
            <glyph glyph-name="dcaron.sc" horiz-adv-x="1136"
                   d="M655 1149h-245l-207 338h221l108 -182l109 182h221zM379 195h100q178 1 249 71t71 251t-72 254t-248 73h-100v-649zM129 0v1038h367q287 0 424 -126t137 -393t-137 -393t-424 -126h-367z"/>
            <glyph glyph-name="dcroat.sc" horiz-adv-x="1157"
                   d="M399 195h101q178 1 249 71t71 251t-72 254t-248 73h-101v-228h187v-170h-187v-251zM35 616h115v422h366q287 0 424 -126t137 -393t-137 -393t-424 -126h-366v446h-115v170z"/>
            <glyph glyph-name="eth.sc" horiz-adv-x="1157"
                   d="M399 195h101q178 1 249 71t71 251t-72 254t-248 73h-101v-228h187v-170h-187v-251zM35 616h115v422h366q287 0 424 -126t137 -393t-137 -393t-424 -126h-366v446h-115v170z"/>
            <glyph glyph-name="egrave.sc" horiz-adv-x="962"
                   d="M229 1487h236l149 -334h-206zM381 195h500v-195h-752v1038h745v-194h-493v-228h420v-196h-420v-225z"/>
            <glyph glyph-name="eacute.sc" horiz-adv-x="962"
                   d="M543 1487h235l-178 -334h-207zM381 195h500v-195h-752v1038h745v-194h-493v-228h420v-196h-420v-225z"/>
            <glyph glyph-name="ecircumflex.sc" horiz-adv-x="962"
                   d="M379 1487h246l206 -338h-221l-108 182l-109 -182h-221zM381 195h500v-195h-752v1038h745v-194h-493v-228h420v-196h-420v-225z"/>
            <glyph glyph-name="ecaron.sc" horiz-adv-x="962"
                   d="M625 1149h-246l-207 338h221l109 -182l108 182h221zM381 195h500v-195h-752v1038h745v-194h-493v-228h420v-196h-420v-225z"/>
            <glyph glyph-name="edieresis.sc" horiz-adv-x="962"
                   d="M700 1161q-143 0 -143 137q0 70 39 106t101 36q61 0 103 -36t42 -106t-42 -104t-100 -33zM303 1161q-143 0 -143 137q0 70 39 106t101 36t103 -36t41 -106t-41 -104t-100 -33zM381 195h500v-195h-752v1038h745v-194h-493v-228h420v-196h-420v-225z"/>
            <glyph glyph-name="emacron.sc" horiz-adv-x="962"
                   d="M197 1378h608v-188h-608v188zM381 195h500v-195h-752v1038h745v-194h-493v-228h420v-196h-420v-225z"/>
            <glyph glyph-name="ebreve.sc" horiz-adv-x="962"
                   d="M817 1450q0 -137 -83 -224t-233 -87t-232 88q-81 88 -81 223h158q10 -59 52 -96t102 -37t103 37q42 37 52 96h162zM381 195h500v-195h-752v1038h745v-194h-493v-228h420v-196h-420v-225z"/>
            <glyph glyph-name="edotaccent.sc" horiz-adv-x="962"
                   d="M502 1161q-143 0 -144 137q0 70 39 106t101 36t104 -36q41 -36 41 -106t-41 -104t-100 -33zM381 195h500v-195h-752v1038h745v-194h-493v-228h420v-196h-420v-225z"/>
            <glyph glyph-name="eogonek.sc" horiz-adv-x="962"
                   d="M379 195h500v-195l-142 -102q-63 -47 -63 -81q0 -65 65 -67q63 0 140 55v-200q-102 -47 -214 -47t-178 51t-65 145q0 115 129 219l33 27h-457v1038h745v-194h-493v-228h420v-196h-420v-225z"/>
            <glyph glyph-name="gcircumflex.sc" horiz-adv-x="1122"
                   d="M457 1487h245l207 -338h-221l-108 182l-109 -182h-221zM586 377v194h465q8 -57 8 -114q0 -205 -118 -339q-117 -134 -355 -134t-373 137t-135 403t139 398t397 133q128 -1 230 -53t151 -144l-186 -117q-74 111 -207 111q-266 0 -266 -330q0 -184 62 -260t180 -76t174 54
t55 137h-221z"/>
            <glyph glyph-name="gbreve.sc" horiz-adv-x="1122"
                   d="M895 1450q0 -137 -83 -224q-84 -87 -234 -87t-231 88t-81 223h158q10 -59 52 -96t102 -37t103 37q42 37 52 96h162zM586 377v194h465q8 -57 8 -114q0 -205 -118 -339q-117 -134 -355 -134t-373 137t-135 403t139 398t397 133q128 -1 230 -53t151 -144l-186 -117
q-74 111 -207 111q-266 0 -266 -330q0 -184 62 -260t180 -76t174 54t55 137h-221z"/>
            <glyph glyph-name="gdotaccent.sc" horiz-adv-x="1122"
                   d="M582 1161q-143 0 -144 137q0 70 39 106t101 36t104 -36q41 -36 41 -106t-41 -104t-100 -33zM586 377v194h465q8 -57 8 -114q0 -205 -118 -339q-117 -134 -355 -134t-373 137t-135 403t139 398t397 133q128 -1 230 -53t151 -144l-186 -117q-74 111 -207 111
q-266 0 -266 -330q0 -184 62 -260t180 -76t174 54t55 137h-221z"/>
            <glyph glyph-name="gcommaaccent.sc" horiz-adv-x="1122"
                   d="M723 -129l-131 -313h-186l53 313h264zM586 377v194h465q8 -57 8 -114q0 -205 -118 -339q-117 -134 -355 -134t-373 137t-135 403t139 398t397 133q128 -1 230 -53t151 -144l-186 -117q-74 111 -207 111q-266 0 -266 -330q0 -184 62 -260t180 -76t174 54t55 137h-221z"/>
            <glyph glyph-name="hcircumflex.sc" horiz-adv-x="1191"
                   d="M471 1487h246l207 -338h-222l-108 182l-109 -182h-221zM813 631v407h250v-1038h-250v434h-434v-434h-250v1038h250v-407h434z"/>
            <glyph glyph-name="hbar.sc" horiz-adv-x="1193"
                   d="M815 631v119h-434v-119h434zM63 911h66v127h252v-127h434v127h248v-127h76v-161h-76v-750h-248v434h-434v-434h-252v750h-66v161z"/>
            <glyph glyph-name="igrave.sc" horiz-adv-x="509"
                   d="M-25 1487h236l149 -334h-206zM129 0v1038h252v-1038h-252z"/>
            <glyph glyph-name="iacute.sc" horiz-adv-x="509"
                   d="M303 1487h236l-179 -334h-206zM129 0v1038h252v-1038h-252z"/>
            <glyph glyph-name="ibreve.sc" horiz-adv-x="509"
                   d="M569 1450q0 -137 -83 -224t-233 -87t-231 88t-81 223h157q10 -59 52 -96t103 -37t103 37t52 96h161zM129 0v1038h252v-1038h-252z"/>
            <glyph glyph-name="icircumflex.sc" horiz-adv-x="509"
                   d="M131 1487h246l207 -338h-222l-108 182l-109 -182h-221zM129 0v1038h252v-1038h-252z"/>
            <glyph glyph-name="itilde.sc" horiz-adv-x="509"
                   d="M80 1182q-74 0 -133 45l4 182q51 -49 139 -49q49 0 144 41t174 41t153 -43l-4 -185q-82 54 -143 54q-60 0 -160 -43t-174 -43zM129 0v1038h252v-1038h-252z"/>
            <glyph glyph-name="idieresis.sc" horiz-adv-x="509"
                   d="M455 1161q-143 0 -144 137q0 70 39 106q40 36 102 36t103 -36t41 -106t-41 -104t-100 -33zM57 1161q-143 0 -143 137q0 70 39 106t101 36t104 -36t41 -106q1 -70 -41 -104t-101 -33zM129 0v1038h252v-1038h-252z"/>
            <glyph glyph-name="imacron.sc" horiz-adv-x="509"
                   d="M-49 1378h608v-188h-608v188zM129 0v1038h252v-1038h-252z"/>
            <glyph glyph-name="idotaccent.sc" horiz-adv-x="509"
                   d="M256 1161q-143 0 -143 137q0 70 39 106t101 36t103 -36t41 -106t-41 -104t-100 -33zM129 0v1038h252v-1038h-252z"/>
            <glyph glyph-name="iogonek.sc" horiz-adv-x="507"
                   d="M167 -442q-111 0 -177 51t-66 155t129 209l76 60v1005h252v-1038l-141 -102q-64 -47 -64 -81q-1 -65 66 -67q63 0 139 55v-200q-102 -47 -214 -47z"/>
            <glyph glyph-name="jcircumflex.sc" horiz-adv-x="843"
                   d="M483 1487h246l207 -338h-221l-109 182l-108 -182h-222zM344 186q143 0 143 166v686h236v-706q0 -164 -99 -256t-280 -92q-117 0 -196 49q-78 49 -115 131l174 108q43 -86 137 -86z"/>
            <glyph glyph-name="kcommaaccent.sc" horiz-adv-x="1083"
                   d="M672 -129l-131 -313h-187l54 313h264zM381 0h-252v1038h252v-420l389 420h291l-389 -428l387 -610h-285l-268 438l-125 -123v-315z"/>
            <glyph glyph-name="lacute.sc" horiz-adv-x="847"
                   d="M305 1487h236l-179 -334h-206zM381 195h428v-195h-680v1038h252v-843z"/>
            <glyph glyph-name="lcaron.sc" horiz-adv-x="968"
                   d="M948 1038l-129 -346h-174l51 346h252zM381 195h428v-195h-680v1038h252v-843z"/>
            <glyph glyph-name="lcommaaccent.sc" horiz-adv-x="847"
                   d="M590 -129l-131 -313h-187l54 313h264zM381 195h428v-195h-680v1038h252v-843z"/>
            <glyph glyph-name="lslash.sc" horiz-adv-x="862"
                   d="M395 195h428v-195h-680v365l-102 -46v193l102 45v481h252v-372l133 59v-193l-133 -59v-278z"/>
            <glyph glyph-name="ldot.sc" horiz-adv-x="933"
                   d="M711 471q-143 0 -144 137q0 72 39 107q40 35 102 35t103 -36t41 -106t-41 -104t-100 -33zM381 195h428v-195h-680v1038h252v-843z"/>
            <glyph glyph-name="nacute.sc" horiz-adv-x="1181"
                   d="M635 1487h235l-178 -334h-207zM805 1038h248v-1038h-254l-418 653v-653h-254l2 1038h264l412 -641v641z"/>
            <glyph glyph-name="ncaron.sc" horiz-adv-x="1181"
                   d="M713 1149h-246l-207 338h221l109 -182l108 182h222zM805 1038h248v-1038h-254l-418 653v-653h-254l2 1038h264l412 -641v641z"/>
            <glyph glyph-name="ntilde.sc" horiz-adv-x="1181"
                   d="M416 1182q-74 0 -133 45l4 182q51 -49 139 -49q49 0 144 41t174 41t153 -43l-4 -185q-81 54 -143 54t-161 -43t-173 -43zM805 1038h248v-1038h-254l-418 653v-653h-254l2 1038h264l412 -641v641z"/>
            <glyph glyph-name="ncommaaccent.sc" horiz-adv-x="1181"
                   d="M727 -129l-131 -313h-186l53 313h264zM805 1038h248v-1038h-254l-418 653v-653h-254l2 1038h264l412 -641v641z"/>
            <glyph glyph-name="ograve.sc" horiz-adv-x="1132"
                   d="M295 1487h235l150 -334h-207zM1053 519q0 -243 -119 -389t-369 -146q-249 0 -367 146t-118 389t118 389t370 146t369 -146q116 -146 116 -389zM338 518q0 -162 49 -247t177 -85t180 86t53 246q1 334 -229 334t-230 -334z"/>
            <glyph glyph-name="oacute.sc" horiz-adv-x="1132"
                   d="M608 1487h236l-178 -334h-207zM1053 519q0 -243 -119 -389t-369 -146q-249 0 -367 146t-118 389t118 389t370 146t369 -146q116 -146 116 -389zM338 518q0 -162 49 -247t177 -85t180 86t53 246q1 334 -229 334t-230 -334z"/>
            <glyph glyph-name="ocircumflex.sc" horiz-adv-x="1132"
                   d="M444 1487h246l207 -338h-221l-109 182l-108 -182h-221zM1053 519q0 -243 -119 -389t-369 -146q-249 0 -367 146t-118 389t118 389t370 146t369 -146q116 -146 116 -389zM338 518q0 -162 49 -247t177 -85t180 86t53 246q1 334 -229 334t-230 -334z"/>
            <glyph glyph-name="otilde.sc" horiz-adv-x="1132"
                   d="M393 1182q-74 0 -133 45l4 182q51 -49 139 -49q49 0 145 41t174 41t152 -43l-4 -185q-82 54 -143 54t-161 -43t-173 -43zM1053 519q0 -243 -119 -389t-369 -146q-249 0 -367 146t-118 389t118 389t370 146t369 -146q116 -146 116 -389zM338 518q0 -162 49 -247t177 -85
t180 86t53 246q1 334 -229 334t-230 -334z"/>
            <glyph glyph-name="odieresis.sc" horiz-adv-x="1132"
                   d="M766 1161q-143 0 -143 137q0 70 39 106t101 36t103 -36t41 -106t-41 -104t-100 -33zM369 1161q-143 0 -144 137q0 70 39 106q40 36 102 36t103 -36t41 -106t-41 -104t-100 -33zM1053 519q0 -243 -119 -389t-369 -146q-249 0 -367 146t-118 389t118 389t370 146t369 -146
q116 -146 116 -389zM338 518q0 -162 49 -247t177 -85t180 86t53 246q1 334 -229 334t-230 -334z"/>
            <glyph glyph-name="omacron.sc" horiz-adv-x="1132"
                   d="M262 1378h608v-188h-608v188zM1053 519q0 -243 -119 -389t-369 -146q-249 0 -367 146t-118 389t118 389t370 146t369 -146q116 -146 116 -389zM338 518q0 -162 49 -247t177 -85t180 86t53 246q1 334 -229 334t-230 -334z"/>
            <glyph glyph-name="obreve.sc" horiz-adv-x="1132"
                   d="M883 1450q0 -137 -83 -224q-84 -87 -234 -87t-231 88t-81 223h158q10 -59 52 -96t102 -37t103 37q42 37 52 96h162zM1053 519q0 -243 -119 -389t-369 -146q-249 0 -367 146t-118 389t118 389t370 146t369 -146q116 -146 116 -389zM338 518q0 -162 49 -247t177 -85t180 86
t53 246q1 334 -229 334t-230 -334z"/>
            <glyph glyph-name="ohungarumlaut.sc" horiz-adv-x="1132"
                   d="M788 1487h236l-178 -334h-207zM424 1487h235l-178 -334h-207zM1053 519q0 -243 -119 -389t-369 -146q-249 0 -367 146t-118 389t118 389t370 146t369 -146q116 -146 116 -389zM338 518q0 -162 49 -247t177 -85t180 86t53 246q1 334 -229 334t-230 -334z"/>
            <glyph glyph-name="oslash.sc" horiz-adv-x="1132"
                   d="M338 518q0 -86 12 -153l344 452q-51 35 -125 35q-231 0 -231 -334zM797 518q0 88 -19 160l-348 -455q49 -37 135 -37q127 0 179 86t53 246zM1053 517q0 -241 -119 -387t-369 -146q-160 0 -268 63l-37 -47h-186l110 145q-104 139 -104 378t118 385t371 147q150 0 262 -60
l33 43h191l-109 -141q107 -139 107 -380z"/>
            <glyph glyph-name="oslashacute.sc" horiz-adv-x="1132"
                   d="M338 518q0 -86 12 -153l344 452q-51 35 -125 35q-231 0 -231 -334zM797 518q0 88 -19 160l-348 -455q49 -37 135 -37q127 0 179 86t53 246zM1053 517q0 -241 -119 -387t-369 -146q-160 0 -268 63l-37 -47h-186l110 145q-104 139 -104 378t118 385t371 147q150 0 262 -60
l33 43h191l-109 -141q107 -139 107 -380zM602 1487h236l-179 -334h-206z"/>
            <glyph glyph-name="oe.sc" horiz-adv-x="1513"
                   d="M565 186q72 0 115 15v635q-49 16 -111 16q-231 0 -231 -334q0 -162 49 -247t178 -85zM930 195h502v-195h-711q-72 -16 -156 -16q-249 0 -367 146t-118 389t118 389t371 147q80 0 152 -17h704v-194h-495v-228h422v-196h-422v-225z"/>
            <glyph glyph-name="racute.sc" horiz-adv-x="1054"
                   d="M530 1487h236l-178 -334h-207zM723 721q0 61 -41 92t-141 31h-160v-244h160q102 0 142 30t40 91zM129 0v1038h438q414 0 414 -315q0 -115 -63 -194t-185 -103l266 -426h-278l-238 403h-102v-403h-252z"/>
            <glyph glyph-name="rcaron.sc" horiz-adv-x="1054"
                   d="M610 1149h-245l-207 338h221l108 -182l109 182h221zM723 721q0 61 -41 92t-141 31h-160v-244h160q102 0 142 30t40 91zM129 0v1038h438q414 0 414 -315q0 -115 -63 -194t-185 -103l266 -426h-278l-238 403h-102v-403h-252z"/>
            <glyph glyph-name="rcommaaccent.sc" horiz-adv-x="1056"
                   d="M649 -129l-131 -313h-186l53 313h264zM723 721q0 61 -41 92t-141 31h-160v-244h160q102 0 142 30t40 91zM129 0v1038h438q414 0 414 -315q0 -115 -63 -194t-185 -103l266 -426h-278l-238 403h-102v-403h-252z"/>
            <glyph glyph-name="sacute.sc" horiz-adv-x="944"
                   d="M530 1487h236l-178 -334h-207zM494 852q-66 0 -101 -30t-35 -77q0 -76 97 -102l139 -41q276 -82 276 -293q0 -157 -116 -241t-288 -84q-173 0 -273 55t-144 131l168 137q37 -59 90 -90t139 -31t126 29t40 74q0 74 -108 104l-137 41q-266 80 -267 297q0 137 96 231t298 93
q251 0 368 -156l-168 -133q-66 86 -200 86z"/>
            <glyph glyph-name="scircumflex.sc" horiz-adv-x="944"
                   d="M352 1487h246l207 -338h-221l-109 182l-108 -182h-222zM494 852q-66 0 -101 -30t-35 -77q0 -76 97 -102l139 -41q276 -82 276 -293q0 -157 -116 -241t-288 -84q-173 0 -273 55t-144 131l168 137q37 -59 90 -90t139 -31t126 29t40 74q0 74 -108 104l-137 41
q-266 80 -267 297q0 137 96 231t298 93q251 0 368 -156l-168 -133q-66 86 -200 86z"/>
            <glyph glyph-name="scaron.sc" horiz-adv-x="944"
                   d="M598 1149h-246l-207 338h222l108 -182l109 182h221zM494 852q-66 0 -101 -30t-35 -77q0 -76 97 -102l139 -41q276 -82 276 -293q0 -157 -116 -241t-288 -84q-173 0 -273 55t-144 131l168 137q37 -59 90 -90t139 -31t126 29t40 74q0 74 -108 104l-137 41q-266 80 -267 297
q0 137 96 231t298 93q251 0 368 -156l-168 -133q-66 86 -200 86z"/>
            <glyph glyph-name="scedilla.sc" horiz-adv-x="944"
                   d="M494 852q-66 0 -101 -30t-35 -77q0 -76 97 -102l139 -41q276 -82 276 -293q0 -135 -89 -218t-234 -101l-35 -86q197 0 197 -166q0 -84 -65 -132q-66 -48 -174 -48t-198 47v153q84 -63 181 -63q66 0 65 43q0 47 -88 47h-90l-12 14l67 189q-252 18 -346 182l168 137
q37 -59 90 -90t139 -31t126 29t40 74q0 74 -108 104l-137 41q-266 80 -267 297q0 137 96 231t298 93q251 0 368 -156l-168 -133q-66 86 -200 86z"/>
            <glyph glyph-name="scommaaccent.sc" horiz-adv-x="944"
                   d="M631 -129l-131 -313h-187l54 313h264zM494 852q-66 0 -101 -30t-35 -77q0 -76 97 -102l139 -41q276 -82 276 -293q0 -157 -116 -241t-288 -84q-173 0 -273 55t-144 131l168 137q37 -59 90 -90t139 -31t126 29t40 74q0 74 -108 104l-137 41q-266 80 -267 297q0 137 96 231
t298 93q251 0 368 -156l-168 -133q-66 86 -200 86z"/>
            <glyph glyph-name="tcaron.sc" horiz-adv-x="950"
                   d="M598 1149h-246l-207 338h222l108 -182l109 182h221zM59 1038h832v-194h-291v-844h-250v844h-291v194z"/>
            <glyph glyph-name="tcommaaccent.sc" horiz-adv-x="950"
                   d="M59 1038h832v-194h-291v-844h-49l-39 -96q197 0 197 -166q0 -84 -65 -132q-66 -48 -174 -48t-198 47v153q84 -63 181 -63q66 0 65 43q0 47 -88 47h-90l-12 14l71 201h-49v844h-291v194z"/>
            <glyph glyph-name="uni021A.sc" horiz-adv-x="952"
                   d="M61 1038h832v-194h-291v-844h-250v844h-291v194zM604 -129l-131 -313h-186l53 313h264z"/>
            <glyph glyph-name="tbar.sc" horiz-adv-x="958"
                   d="M205 575h149v269h-291v194h832v-194h-291v-269h152v-169h-152v-406h-250v406h-149v169z"/>
            <glyph glyph-name="thorn.sc" horiz-adv-x="1007"
                   d="M381 662v-287h137q174 0 174 143t-174 144h-137zM537 180h-156v-180h-252v1038h252v-182h156q199 0 307 -87t106 -252q0 -165 -106 -251t-307 -86z"/>
            <glyph glyph-name="ugrave.sc" horiz-adv-x="1116"
                   d="M285 1487h235l150 -334h-207zM559 -14q-205 0 -323 103t-119 312v637h252v-628q0 -111 44 -166q44 -56 146 -56q103 0 147 56t44 166v628h249v-637q1 -209 -117 -312t-323 -103z"/>
            <glyph glyph-name="uacute.sc" horiz-adv-x="1116"
                   d="M600 1487h236l-179 -334h-206zM559 -14q-205 0 -323 103t-119 312v637h252v-628q0 -111 44 -166q44 -56 146 -56q103 0 147 56t44 166v628h249v-637q1 -209 -117 -312t-323 -103z"/>
            <glyph glyph-name="ucircumflex.sc" horiz-adv-x="1116"
                   d="M434 1487h246l207 -338h-221l-109 182l-108 -182h-222zM559 -14q-205 0 -323 103t-119 312v637h252v-628q0 -111 44 -166q44 -56 146 -56q103 0 147 56t44 166v628h249v-637q1 -209 -117 -312t-323 -103z"/>
            <glyph glyph-name="utilde.sc" horiz-adv-x="1116"
                   d="M383 1182q-74 0 -133 45l4 182q51 -49 139 -49q49 0 145 41t174 41t152 -43l-4 -185q-82 54 -143 54t-161 -43t-173 -43zM559 -14q-205 0 -323 103t-119 312v637h252v-628q0 -111 44 -166q44 -56 146 -56q103 0 147 56t44 166v628h249v-637q1 -209 -117 -312t-323 -103z
"/>
            <glyph glyph-name="udieresis.sc" horiz-adv-x="1116"
                   d="M758 1161q-143 0 -144 137q0 70 39 106t101 36t104 -36q41 -36 41 -106t-41 -104t-100 -33zM360 1161q-143 0 -143 137q0 70 39 106t101 36q61 0 103 -36t42 -106t-42 -104t-100 -33zM559 -14q-205 0 -323 103t-119 312v637h252v-628q0 -111 44 -166q44 -56 146 -56
q103 0 147 56t44 166v628h249v-637q1 -209 -117 -312t-323 -103z"/>
            <glyph glyph-name="umacron.sc" horiz-adv-x="1116"
                   d="M254 1378h608v-188h-608v188zM559 -14q-205 0 -323 103t-119 312v637h252v-628q0 -111 44 -166q44 -56 146 -56q103 0 147 56t44 166v628h249v-637q1 -209 -117 -312t-323 -103z"/>
            <glyph glyph-name="ubreve.sc" horiz-adv-x="1116"
                   d="M872 1450q0 -137 -82 -224t-234 -87q-150 0 -231 88t-81 223h157q11 -59 53 -96t102 -37t102 37t53 96h161zM559 -14q-205 0 -323 103t-119 312v637h252v-628q0 -111 44 -166q44 -56 146 -56q103 0 147 56t44 166v628h249v-637q1 -209 -117 -312t-323 -103z"/>
            <glyph glyph-name="uring.sc" horiz-adv-x="1116"
                   d="M471 1328q0 -32 23 -56q22 -24 62 -23q40 0 62 23q22 22 23 56q0 34 -23 58q-22 24 -62 23t-62 -25t-23 -56zM334 1330q0 84 57 144t164 60t167 -60t60 -144t-60 -146t-166 -62t-164 62t-58 146zM559 -14q-205 0 -323 103t-119 312v637h252v-628q0 -111 44 -166
q44 -56 146 -56q103 0 147 56t44 166v628h249v-637q1 -209 -117 -312t-323 -103z"/>
            <glyph glyph-name="uhungarumlaut.sc" horiz-adv-x="1116"
                   d="M784 1487h236l-178 -334h-207zM420 1487h235l-178 -334h-207zM559 -14q-205 0 -323 103t-119 312v637h252v-628q0 -111 44 -166q44 -56 146 -56q103 0 147 56t44 166v628h249v-637q1 -209 -117 -312t-323 -103z"/>
            <glyph glyph-name="uogonek.sc" horiz-adv-x="1116"
                   d="M999 401q0 -299 -247 -387l-134 -96q-63 -47 -63 -81q1 -66 65 -66t140 55v-201q-102 -47 -214 -47t-178 51t-65 156q0 105 129 209l2 2q-150 27 -234 128t-83 277v637h252v-628q0 -111 44 -166q44 -56 146 -56q103 0 147 56t44 166v628h249v-637z"/>
            <glyph glyph-name="wacute.sc" horiz-adv-x="1665"
                   d="M881 1487h235l-178 -334h-207zM692 1038h281l209 -770l188 770h254l-278 -1038h-308l-204 711l-209 -711h-303l-281 1038h254l190 -770z"/>
            <glyph glyph-name="wcircumflex.sc" horiz-adv-x="1665"
                   d="M711 1487h245l207 -338h-221l-108 182l-109 -182h-221zM692 1038h281l209 -770l188 770h254l-278 -1038h-308l-204 711l-209 -711h-303l-281 1038h254l190 -770z"/>
            <glyph glyph-name="wdieresis.sc" horiz-adv-x="1665"
                   d="M1034 1161q-143 0 -143 137q0 70 39 106t101 36q61 0 103 -36t42 -106t-42 -104t-100 -33zM637 1161q-143 0 -143 137q0 70 38 106q40 36 102 36t103 -36t41 -106t-41 -104t-100 -33zM692 1038h281l209 -770l188 770h254l-278 -1038h-308l-204 711l-209 -711h-303
l-281 1038h254l190 -770z"/>
            <glyph glyph-name="wgrave.sc" horiz-adv-x="1665"
                   d="M551 1487h235l150 -334h-207zM692 1038h281l209 -770l188 770h254l-278 -1038h-308l-204 711l-209 -711h-303l-281 1038h254l190 -770z"/>
            <glyph glyph-name="yacute.sc" horiz-adv-x="1021"
                   d="M557 1487h236l-179 -334h-206zM637 0h-252v397l-375 641h271l233 -426l225 426h275l-377 -641v-397z"/>
            <glyph glyph-name="ycircumflex.sc" horiz-adv-x="1021"
                   d="M391 1487h246l207 -338h-221l-109 182l-108 -182h-222zM637 0h-252v397l-375 641h271l233 -426l225 426h275l-377 -641v-397z"/>
            <glyph glyph-name="ydieresis.sc" horiz-adv-x="1021"
                   d="M715 1161q-143 0 -144 137q0 70 39 106q40 36 102 36t103 -36t41 -106t-41 -104t-100 -33zM317 1161q-143 0 -143 137q0 70 39 106t101 36t104 -36t41 -106q1 -70 -41 -104t-101 -33zM637 0h-252v397l-375 641h271l233 -426l225 426h275l-377 -641v-397z"/>
            <glyph glyph-name="ygrave.sc" horiz-adv-x="1021"
                   d="M242 1487h235l150 -334h-207zM637 0h-252v397l-375 641h271l233 -426l225 426h275l-377 -641v-397z"/>
            <glyph glyph-name="zacute.sc" horiz-adv-x="919"
                   d="M498 1487h235l-178 -334h-207zM827 1038v-172l-465 -671h484v-195h-774v168l467 676h-447v194h735z"/>
            <glyph glyph-name="zcaron.sc" horiz-adv-x="919"
                   d="M580 1149h-246l-207 338h221l109 -182l108 182h221zM827 1038v-172l-465 -671h484v-195h-774v168l467 676h-447v194h735z"/>
            <glyph glyph-name="zdotaccent.sc" horiz-adv-x="919"
                   d="M459 1161q-143 0 -144 137q0 70 39 106q40 36 102 36t103 -36t41 -106t-41 -104t-100 -33zM827 1038v-172l-465 -671h484v-195h-774v168l467 676h-447v194h735z"/>
            <glyph glyph-name="ij.sc" horiz-adv-x="1349"
                   d="M852 186q143 0 143 166v686h236v-706q0 -164 -99 -256t-280 -92q-117 0 -196 49q-78 49 -115 131l174 108q43 -86 137 -86zM125 0v1038h252v-1038h-252z"/>
            <glyph glyph-name="germandbls.sc" horiz-adv-x="1900"
                   d="M494 852q-66 0 -101 -30t-35 -77q0 -76 97 -102l139 -41q276 -82 276 -293q0 -157 -116 -241t-288 -84q-173 0 -273 55t-144 131l168 137q37 -59 90 -90t139 -31t126 29t40 74q0 74 -108 104l-137 41q-266 80 -267 297q0 137 96 231t298 93q251 0 368 -156l-168 -133
q-66 86 -200 86zM1450 852q-66 0 -100 -30t-35 -77q0 -76 96 -102l139 -41q276 -82 277 -293q0 -157 -116 -241t-289 -84t-273 55t-143 131l168 137q37 -59 90 -90t139 -31t126 29t40 74q0 74 -109 104l-137 41q-266 80 -266 297q0 137 96 231t297 93q252 0 369 -156
l-168 -133q-66 86 -201 86z"/>
            <glyph glyph-name="fi.sc" horiz-adv-x="1431"
                   d="M1051 0v1038h252v-1038h-252zM129 0v1038h713v-194h-461v-254h387v-197h-387v-393h-252z"/>
            <glyph glyph-name="fl.sc" horiz-adv-x="1769"
                   d="M1303 195h428v-195h-680v1038h252v-843zM129 0v1038h713v-194h-461v-254h387v-197h-387v-393h-252z"/>
            <glyph glyph-name="eng.sc" horiz-adv-x="1177"
                   d="M803 1038h248v-1032q0 -227 -213 -354l-166 155q121 68 129 193l-422 653v-653h-254l2 1038h264l412 -641v641z"/>
            <glyph glyph-name="grave.sc" horiz-adv-x="1228"
                   d="M422 1487h235l150 -334h-207z"/>
            <glyph glyph-name="acute.sc" horiz-adv-x="1228"
                   d="M571 1487h236l-178 -334h-207z"/>
            <glyph glyph-name="circumflex.sc" horiz-adv-x="1228"
                   d="M492 1487h245l207 -338h-221l-109 182l-108 -182h-221z"/>
            <glyph glyph-name="caron.sc" horiz-adv-x="1228"
                   d="M737 1149h-245l-207 338h221l108 -182l109 182h221z"/>
            <glyph glyph-name="caronalt.sc" horiz-adv-x="1228"
                   d="M766 1038l-129 -346h-174l51 346h252z"/>
            <glyph glyph-name="tilde.sc" horiz-adv-x="1228"
                   d="M440 1182q-74 0 -133 45l4 182q51 -49 140 -49q49 0 144 41t174 41t153 -43l-4 -185q-82 54 -144 54t-160 -43q-100 -43 -174 -43z"/>
            <glyph glyph-name="dieresis.sc" horiz-adv-x="1228"
                   d="M813 1161q-143 0 -143 137q0 70 39 106t101 36t103 -36t41 -106t-41 -104t-100 -33zM416 1161q-143 0 -144 137q0 70 39 106t101 36t104 -36q41 -36 41 -106t-41 -104t-100 -33z"/>
            <glyph glyph-name="macron.sc" horiz-adv-x="1228"
                   d="M309 1378h609v-188h-609v188z"/>
            <glyph glyph-name="breve.sc" horiz-adv-x="1228"
                   d="M928 1450q0 -137 -83 -224t-233 -87t-232 88q-81 88 -81 223h158q10 -59 52 -96t102 -37t103 37q42 37 52 96h162z"/>
            <glyph glyph-name="ring.sc" horiz-adv-x="1228"
                   d="M610 1409q-40 -1 -62 -25t-22 -56t22 -56t62 -23q40 0 64 23q22 22 22 56t-22 58t-64 23zM389 1330q0 84 57 144t164 60t167 -60q61 -60 61 -144t-60 -146t-166 -62t-164 62t-59 146z"/>
            <glyph glyph-name="hungarumlaut.sc" horiz-adv-x="1228"
                   d="M754 1487h235l-178 -334h-207zM389 1487h236l-179 -334h-206z"/>
            <glyph glyph-name="dotaccent.sc" horiz-adv-x="1228"
                   d="M614 1161q-143 0 -143 137q0 70 39 106t101 36q61 0 103 -36t42 -106t-42 -104t-100 -33z"/>
            <glyph glyph-name="exclamdown.sc" horiz-adv-x="483"
                   d="M243 1047q62 0 103 -37q41 -38 41 -94t-41 -94t-103 -38t-104 38q-41 38 -41 94t41 94q42 37 104 37zM145 682h193l39 -682h-273z"/>
            <glyph glyph-name="questiondown.sc" horiz-adv-x="782"
                   d="M406 -16q-162 0 -254 80t-92 193q0 114 85 202q35 35 71 67q89 80 87 156h234q0 -118 -88 -206q-37 -36 -74 -68q-90 -76 -89 -123q2 -47 30 -73t81 -26t81 25t28 53l221 -24q1 -108 -79 -182t-242 -74zM419 1047q62 0 103 -37q41 -38 41 -94t-41 -94t-103 -38t-105 38
q-42 38 -42 94t42 94q43 37 105 37z"/>
            <glyph glyph-name="Euro.sc" horiz-adv-x="972"
                   d="M420 342q49 -154 221 -154q90 0 199 56l57 -201q-129 -59 -285 -59q-379 0 -450 358h-92v137h75v70h-75v139h90q63 367 452 367q137 0 295 -58l-73 -196q-129 47 -228 47q-160 0 -198 -160h389l-49 -139h-353v-27q0 -29 2 -43h330l-49 -137h-258z"/>
            <glyph glyph-name="cent.sc" horiz-adv-x="825"
                   d="M299 350q0 -98 47 -145l86 323q-133 -12 -133 -178zM295 4q-217 72 -217 364q0 140 87 244t267 105q18 0 47 -4l31 116l108 -22l-30 -117q111 -43 157 -137l-145 -111q-23 39 -59 64l-88 -338q98 0 149 90l143 -113q-80 -162 -313 -161l-29 2l-24 -99l-109 23z"/>
            <glyph glyph-name="sterling.sc" horiz-adv-x="972"
                   d="M72 526h100v152q0 164 90 270t287 107q121 0 202 -40t167 -120l-148 -152q-104 100 -211 101q-150 0 -149 -164v-154h260v-137h-260v-205h424v-184h-662v389h-100v137z"/>
            <glyph glyph-name="florin.sc" horiz-adv-x="667"
                   d="M422 514v-633q0 -94 -66 -162q-66 -67 -174 -67t-162 22v189q37 -12 97 -13q82 0 82 84v580h-138v186h138v146q0 96 66 163q67 67 175 67t158 -21v-187q-51 10 -98 11q-78 0 -78 -82v-97h151v-186h-151z"/>
            <glyph glyph-name="yen.sc" horiz-adv-x="1054"
                   d="M100 481h258l-32 68h-226v139h148l-189 350h269l194 -411l201 411h268l-192 -350h153v-139h-233l-37 -68h270v-141h-311v-340h-240v340h-301v141z"/>
            <glyph glyph-name="rupee.sc" horiz-adv-x="995"
                   d="M92 1038h832v-149h-205q45 -51 55 -117h150v-115h-152q-10 -86 -62 -147t-137 -88l263 -422h-281l-233 389h-230v191h168q135 0 185 16t59 61h-412v115h412q-10 43 -45 59t-127 17h-240v190z"/>
            <glyph glyph-name="perthousand.sc" horiz-adv-x="2043"
                   d="M1718 582q268 0 268 -296t-268 -296t-268 296t268 296zM1719 115q54 0 76 40t22 131t-22 131t-76 40t-74 -40q-21 -40 -21 -131t20 -131t75 -40zM326 1049q266 0 266 -296t-267 -296t-268 295q0 139 66 218t203 79zM327 582q54 0 74 40q21 40 21 131t-20 131t-75 40
q-54 0 -76 -40t-22 -131t22 -131t76 -40zM1129 582q267 0 267 -296t-266 -296q-268 0 -268 296t267 296zM1032 287q0 -90 22 -131t75 -41q54 0 75 39q20 39 20 132t-20 132t-74 39t-76 -40t-22 -130zM1147 1038l-666 -1038h-178l662 1038h182z"/>
            <glyph glyph-name="zero.tf"
                   d="M572 1407q505 0 505 -715t-505 -715t-504 715q-1 715 504 715zM573 201q131 0 183 118q51 119 51 373t-51 373q-50 119 -182 119t-184 -119t-52 -373t52 -372t183 -119z"/>
            <glyph glyph-name="one.tf"
                   d="M147 0v221h340v899l-311 -123l-70 209l416 178h236v-1163h289v-221h-900z"/>
            <glyph glyph-name="two.tf"
                   d="M555 1407q211 0 334 -118t123 -304q0 -133 -72 -249t-207 -259l-246 -262h537v-215h-889v184l422 451q184 195 184 350q0 90 -46 144t-132 55q-184 0 -184 -226h-264q0 205 114 327q115 122 326 122z"/>
            <glyph glyph-name="three.tf"
                   d="M1047 371q1 -176 -133 -285t-362 -109q-228 -1 -344 105q-118 106 -118 283h264q0 -78 54 -121t152 -43q97 0 157 50q59 50 59 142t-67 149q-68 56 -193 56h-133v215h133q238 0 238 193q0 82 -52 130t-141 48q-90 0 -139 -44t-49 -116h-264q-1 168 113 276t333 107
q219 0 345 -109t126 -280q0 -116 -68 -202t-172 -109q111 -25 186 -116t75 -220z"/>
            <glyph glyph-name="four.tf"
                   d="M668 487v549l-359 -549h359zM1092 487v-215h-162v-272h-262v272h-633v191l618 921h277v-897h162z"/>
            <glyph glyph-name="five.tf"
                   d="M612 893q184 0 308 -112t124 -327q0 -216 -128 -346t-359 -130t-349 109q-118 110 -118 288h262q0 -80 54 -127t156 -47q102 1 156 67t54 173t-55 167t-162 62q-107 0 -193 -68l-208 33l88 749h745v-215h-532l-39 -325q94 49 196 49z"/>
            <glyph glyph-name="six.tf"
                   d="M786 1024q0 74 -49 117t-135 43q-129 0 -190 -111t-62 -301q45 45 127 81t178 36q195 0 309 -120t114 -322q0 -201 -128 -335q-127 -134 -364 -135q-172 -1 -288 89q-218 168 -218 577q0 352 128 558t394 206q221 -1 334 -107t113 -276h-263zM582 201q110 0 167 64
q56 65 56 175t-56 173q-55 63 -149 63q-169 1 -248 -144q0 -145 60 -238t170 -93z"/>
            <glyph glyph-name="seven.tf"
                   d="M133 1169v215h899v-184l-506 -1200h-284l495 1169h-604z"/>
            <glyph glyph-name="eight.tf"
                   d="M574 602q-104 0 -168 -52t-64 -148t62 -149q62 -52 170 -52t170 51t62 148q0 98 -64 150q-65 52 -168 52zM574 1184q-95 0 -150 -47t-55 -137t57 -136q57 -47 148 -47t149 47q57 47 57 136t-55 137q-56 47 -151 47zM575 -23q-231 -1 -367 105t-136 297q0 129 70 215
q71 86 184 117q-104 33 -166 110q-61 78 -62 193q0 182 127 288t350 105q223 0 349 -105t127 -288q1 -115 -61 -193t-165 -110q111 -31 182 -116t70 -216q1 -190 -135 -296t-367 -106z"/>
            <glyph glyph-name="nine.tf"
                   d="M98 360h264q0 -74 48 -116t133 -43q254 0 254 413q-47 -47 -128 -83t-177 -35q-193 0 -308 120q-114 120 -114 321q0 202 128 336t374 134t370 -182q125 -182 125 -509t-127 -533t-397 -206q-221 -1 -333 107t-112 276zM566 1184q-112 0 -168 -65t-56 -175t57 -173
q57 -62 164 -62q152 0 232 141q-1 146 -59 240t-170 94z"/>
            <glyph glyph-name="zero.tosf"
                   d="M573 1200q252 0 380 -163t128 -449t-128 -448q-128 -163 -381 -163q-254 0 -380 162t-126 449q0 288 128 450t379 162zM573 209q129 0 185 96q55 95 55 283t-55 284q-54 96 -184 96t-185 -96t-55 -283t55 -283t184 -97z"/>
            <glyph glyph-name="one.tosf"
                   d="M172 0v227h334v682l-305 -110l-70 198l412 181h221v-951h276v-227h-868z"/>
            <glyph glyph-name="two.tosf"
                   d="M1012 0h-873v166l422 344q98 78 147 142q48 66 48 144t-50 132t-144 53q-94 0 -140 -55q-47 -55 -47 -148h-250q0 190 116 306q117 116 329 116t328 -117t116 -260t-69 -241t-195 -191l-234 -192h496v-199z"/>
            <glyph glyph-name="three.tosf"
                   d="M1047 164q1 -176 -133 -285t-362 -109t-344 106q-118 105 -118 282h264q0 -78 54 -121t152 -43q97 0 157 50q59 50 59 142t-67 149q-68 56 -193 56h-133v215h133q238 0 238 193q0 82 -52 130t-141 48q-90 0 -139 -44t-49 -116h-264q0 168 113 276q114 107 333 107
t345 -108t126 -281q0 -117 -68 -203t-172 -108q111 -25 186 -116t75 -220z"/>
            <glyph glyph-name="four.tosf"
                   d="M666 283v548l-359 -548h359zM1090 283v-215h-162v-273h-262v273h-633v190l618 922h277v-897h162z"/>
            <glyph glyph-name="five.tosf"
                   d="M1042 250q0 -215 -128 -346t-359 -131q-231 -1 -349 109t-118 288h262q0 -80 53 -127t156 -47t157 66t54 174t-55 168t-162 60t-193 -67l-208 33l88 750h745v-215h-532l-39 -326q94 49 196 49q184 0 309 -111q123 -112 123 -327z"/>
            <glyph glyph-name="six.tosf"
                   d="M786 1024q0 74 -49 117t-135 43q-129 0 -190 -111t-62 -301q45 45 127 81t178 36q195 0 309 -120t114 -322q0 -201 -128 -335q-127 -134 -364 -135q-172 -1 -288 89q-218 168 -218 577q0 352 128 558t394 206q221 -1 334 -107t113 -276h-263zM582 201q110 0 167 64
q56 65 56 175t-56 173q-55 63 -149 63q-169 1 -248 -144q0 -145 60 -238t170 -93z"/>
            <glyph glyph-name="seven.tosf"
                   d="M131 965v215h899v-185l-506 -1200h-284l495 1170h-604z"/>
            <glyph glyph-name="eight.tosf"
                   d="M574 602q-104 0 -168 -52t-64 -148t62 -149q62 -52 170 -52t170 51t62 148q0 98 -64 150q-65 52 -168 52zM574 1184q-95 0 -150 -47t-55 -137t57 -136q57 -47 148 -47t149 47q57 47 57 136t-55 137q-56 47 -151 47zM575 -23q-231 -1 -367 105t-136 297q0 129 70 215
q71 86 184 117q-104 33 -166 110q-61 78 -62 193q0 182 127 288t350 105q223 0 349 -105t127 -288q1 -115 -61 -193t-165 -110q111 -31 182 -116t70 -216q1 -190 -135 -296t-367 -106z"/>
            <glyph glyph-name="nine.tosf"
                   d="M96 154h264q0 -74 48 -117t133 -43q254 0 254 414q-47 -47 -128 -83t-178 -36q-193 0 -307 120q-114 119 -114 321t128 336t374 134t370 -182q125 -182 125 -508t-127 -534q-127 -206 -397 -205q-221 -1 -333 107t-112 276zM564 977q-112 0 -168 -65q-56 -66 -56 -176
t57 -172t164 -62q152 0 232 141q-1 147 -59 241t-170 93z"/>
            <glyph glyph-name="Euro.tf"
                   d="M63 905h113q78 500 547 500q178 0 362 -82l-81 -217q-147 68 -287 68q-221 0 -273 -269h498l-57 -162h-455v-47q0 -47 2 -67h416l-55 -162h-336q70 -258 278 -258q145 0 281 80l63 -226q-166 -86 -356 -86q-459 0 -545 490h-115v162h97v114h-97v162z"/>
            <glyph glyph-name="cent.tf"
                   d="M422 467q0 -154 67 -223l119 491q-186 -8 -186 -268zM602 -23q-24 0 -45 3l-31 -127l-123 28l29 123q-133 49 -198 173q-64 124 -64 290q0 213 106 350t326 137q18 0 60 -4l36 156l125 -29l-39 -155q131 -51 193 -177l-174 -122q-35 57 -72 79l-123 -505h13
q119 0 184 114l172 -125q-98 -209 -375 -209z"/>
            <glyph glyph-name="sterling.tf"
                   d="M63 690h130v215q0 219 108 360q109 140 346 140q150 0 252 -52t195 -155l-162 -168q-125 139 -275 139q-209 0 -208 -262v-217h342v-162h-342v-319h546v-209h-805l3 528h-130v162z"/>
            <glyph glyph-name="florin.tf"
                   d="M692 721v-875q0 -131 -76 -220t-206 -89t-187 25v213q51 -15 115 -15t89 33q26 33 26 101v827h-181v213h181v190q0 131 77 221q78 89 230 89q102 0 160 -25v-213q-62 14 -118 14t-83 -30t-27 -99v-147h197v-213h-197z"/>
            <glyph glyph-name="yen.tf"
                   d="M70 629h325l-57 114h-268v162h182l-246 479h291l272 -587l277 587h293l-252 -479h190v-162h-278l-60 -114h338v-162h-381v-467h-258v467h-368v162z"/>
            <glyph glyph-name="rupee.tf"
                   d="M1069 1225h-248q66 -72 76 -183h172v-163h-174q-18 -111 -101 -191t-206 -108l342 -580h-305l-312 549h-217v205h215q143 0 214 28t98 97h-525v163h527q-27 76 -91 105q-65 29 -206 29h-232v208l973 2v-161z"/>
            <glyph glyph-name="dollar.tf"
                   d="M401 1008q0 -116 113 -162v317q-113 -39 -113 -155zM791 372q0 118 -125 167v-320q125 35 125 153zM666 -211h-152v191q-326 16 -444 251l184 152q82 -160 260 -174v375l-59 18q-326 102 -326 383q0 160 95 277t290 139v153h152v-151q258 -18 385 -203l-185 -147
q-70 100 -200 121v-375l59 -17q340 -106 340 -381q0 -177 -109 -285t-290 -132v-195z"/>
            <glyph glyph-name="zero.osf" horiz-adv-x="1228"
                   d="M88 588q0 288 133 450t394 162t393 -163t133 -449q0 -286 -133 -448q-132 -163 -394 -163t-394 162t-132 449zM614 209q137 0 198 96q60 95 60 283t-60 284t-198 96t-197 -96q-60 -98 -61 -284q0 -379 258 -379z"/>
            <glyph glyph-name="one.osf" horiz-adv-x="802"
                   d="M657 0h-258v930l-311 -123l-65 201l409 170h225v-1178z"/>
            <glyph glyph-name="two.osf" horiz-adv-x="1069"
                   d="M973 0h-873v166l422 344q98 78 147 142q48 66 48 144t-50 132q-49 54 -143 53q-94 0 -141 -55t-47 -148h-250q0 190 116 306t328 116t329 -117q116 -117 116 -260t-69 -241t-195 -191l-234 -192h496v-199z"/>
            <glyph glyph-name="three.osf" horiz-adv-x="1118"
                   d="M1032 166q0 -176 -133 -285t-361 -109t-344 106q-118 105 -118 282h264q0 -78 54 -121t152 -43t156 50q60 50 60 142t-68 148t-192 57h-133v215h133q238 0 237 193q0 82 -51 130t-141 48t-139 -44t-50 -116h-264q0 168 114 276q114 107 333 107t345 -108t126 -281
q0 -117 -68 -203t-172 -108q112 -25 186 -116t74 -220z"/>
            <glyph glyph-name="four.osf" horiz-adv-x="1177"
                   d="M682 283v548l-358 -548h358zM1106 283v-215h-162v-273h-262v273h-633v190l619 922h276v-897h162z"/>
            <glyph glyph-name="five.osf" horiz-adv-x="1091"
                   d="M582 688q184 0 308 -112t124 -326q0 -215 -128 -346t-360 -131q-232 -1 -349 109q-118 110 -118 288h263q0 -80 53 -127t155 -47t157 66q54 66 54 174t-55 168t-162 60t-192 -67l-209 33l88 750h745v-215h-532l-39 -326q94 49 197 49z"/>
            <glyph glyph-name="six.osf" horiz-adv-x="1163"
                   d="M795 1024q1 74 -49 117t-136 43q-129 0 -190 -111t-62 -301q45 45 127 81t179 36q194 0 308 -120t114 -322q0 -201 -128 -335q-127 -134 -364 -135q-172 -1 -288 89q-218 168 -218 577q0 352 128 558t394 206q221 -1 334 -107t113 -276h-262zM590 201q110 0 167 64
q56 65 56 175t-56 173q-55 63 -149 63q-169 1 -248 -144q0 -145 60 -238t170 -93z"/>
            <glyph glyph-name="seven.osf" horiz-adv-x="1017"
                   d="M68 965v215h899v-185l-506 -1200h-285l496 1170h-604z"/>
            <glyph glyph-name="eight.osf" horiz-adv-x="1181"
                   d="M592 201q108 0 169 51q62 51 62 148t-64 150q-65 52 -168 52t-168 -52t-65 -148t63 -149q63 -52 171 -52zM591 1184q-95 0 -151 -47t-55 -137q0 -90 57 -136q56 -47 148 -47t149 47t57 136q0 88 -54 136q-56 48 -151 48zM592 -23q-232 -1 -368 105t-136 297q0 129 71 215
t183 117q-104 33 -166 110q-61 78 -61 193q0 182 127 288t350 105q223 0 349 -105t126 -288q0 -115 -61 -193t-164 -110q112 -31 182 -116t70 -216q0 -190 -136 -296t-366 -106z"/>
            <glyph glyph-name="nine.osf" horiz-adv-x="1161"
                   d="M104 154h265q0 -74 48 -117t132 -43q254 0 254 414q-47 -47 -128 -83t-177 -36q-193 0 -308 120q-114 119 -114 321t128 336t374 134t370 -182q125 -182 125 -508t-127 -534q-127 -206 -397 -205q-221 -1 -333 107t-112 276zM572 977q-112 0 -168 -65q-56 -66 -56 -176
t58 -172t163 -62q152 0 232 141q-1 147 -59 241t-170 93z"/>
            <glyph glyph-name="zero.denom" horiz-adv-x="755"
                   d="M379 760q319 0 319 -386t-319 -386t-319 386t319 386zM380 614q-72 0 -102 -57t-30 -183t30 -184t102 -57q74 0 102 57q28 58 28 184t-29 183t-101 57z"/>
            <glyph glyph-name="one.denom" horiz-adv-x="520"
                   d="M428 0h-184v584l-199 -72l-43 133l268 103h158v-748z"/>
            <glyph glyph-name="two.denom" horiz-adv-x="661"
                   d="M49 506q0 118 70 186t199 68q128 0 204 -66t76 -170q0 -70 -44 -133t-124 -141l-121 -111h291v-139h-532v119l241 235q100 94 101 170q0 41 -23 66t-63 24q-92 0 -93 -108h-182z"/>
            <glyph glyph-name="three.denom" horiz-adv-x="684"
                   d="M627 203q0 -95 -81 -155t-219 -60t-208 58t-70 159h182q0 -72 101 -72q47 1 77 21t29 59q0 96 -135 96h-80v140h80q123 0 123 88q0 37 -26 57t-68 20t-66 -18q-25 -18 -24 -49h-183q0 94 69 153q69 60 201 60t209 -60t76 -153q0 -59 -36 -106q-38 -46 -97 -62
q63 -17 105 -65t41 -111z"/>
            <glyph glyph-name="four.denom" horiz-adv-x="708"
                   d="M395 276v246l-176 -246h176zM659 276v-139h-84v-137h-180v137h-364v121l352 490h192v-472h84z"/>
            <glyph glyph-name="five.denom" horiz-adv-x="667"
                   d="M362 485q108 0 182 -59t74 -179t-78 -190q-78 -69 -217 -69q-140 0 -211 58t-71 159h182q0 -72 99 -72q109 0 108 107q0 46 -29 74t-83 28t-97 -33l-143 25l53 414h451v-140h-303l-19 -141q45 18 102 18z"/>
            <glyph glyph-name="six.denom" horiz-adv-x="716"
                   d="M377 614q-129 0 -129 -178q68 45 174 45q106 -1 174 -65q66 -64 66 -174t-77 -182t-227 -72t-225 98q-76 98 -76 273t77 288q76 113 228 113t218 -60t65 -153h-182q0 67 -86 67zM473 240q0 106 -121 106q-65 0 -106 -61q0 -152 119 -152q109 0 108 107z"/>
            <glyph glyph-name="seven.denom" horiz-adv-x="606"
                   d="M35 608v140h547v-121l-299 -627h-197l289 608h-340z"/>
            <glyph glyph-name="eight.denom" horiz-adv-x="724"
                   d="M362 614q-100 0 -100 -79q0 -84 100 -84t101 84q-1 79 -101 79zM362 311q-52 -1 -84 -25t-32 -65t35 -65t83 -23q48 0 80 24q32 25 33 65q0 40 -31 64t-84 25zM362 -12q-141 0 -223 57t-82 160q0 135 142 178q-127 41 -127 162q0 100 76 157q77 58 214 58t213 -58
t76 -157q0 -121 -125 -162q141 -43 142 -178q0 -102 -82 -160q-83 -57 -224 -57z"/>
            <glyph glyph-name="nine.denom" horiz-adv-x="716"
                   d="M70 201h184q0 -68 84 -68q133 0 133 178q-63 -47 -173 -47t-176 65t-67 175q0 110 78 184q79 72 227 72t223 -100t74 -259q0 -414 -319 -413q-135 0 -202 59q-66 60 -66 154zM244 508q0 -106 120 -106q64 0 105 61q0 152 -115 151q-111 0 -110 -106z"/>
            <glyph glyph-name="zero.num" horiz-adv-x="759"
                   d="M379 1397q319 0 319 -386t-319 -386t-319 386t319 386zM380 1251q-72 0 -102 -57t-30 -183q0 -125 30 -183t102 -58q74 0 102 57t28 183t-29 184q-29 57 -101 57z"/>
            <glyph glyph-name="one.num" horiz-adv-x="524"
                   d="M430 637h-184v584l-199 -72l-43 133l268 102h158v-747z"/>
            <glyph glyph-name="two.num" horiz-adv-x="665"
                   d="M51 1143q0 117 70 185t199 69q128 0 204 -66t76 -170q0 -70 -44 -133t-124 -141l-121 -111h291v-139h-532v119l241 235q100 94 101 170q0 41 -23 66t-63 24q-92 0 -93 -108h-182z"/>
            <glyph glyph-name="three.num" horiz-adv-x="688"
                   d="M629 840q0 -96 -81 -156t-219 -59q-138 0 -208 58t-70 159h182q0 -72 101 -72q47 0 77 20t29 60q0 96 -135 96h-80v139h80q123 0 123 89q0 37 -26 57t-68 20t-66 -18q-25 -18 -24 -49h-183q0 94 69 153t201 59t209 -58q77 -60 76 -154q0 -59 -36 -106q-38 -46 -97 -62
q63 -16 105 -64t41 -112z"/>
            <glyph glyph-name="four.num" horiz-adv-x="710"
                   d="M397 913v246l-176 -246h176zM662 913v-139h-84v-137h-181v137h-364v121l352 489h193v-471h84z"/>
            <glyph glyph-name="five.num" horiz-adv-x="671"
                   d="M365 1122q109 0 183 -59t73 -179q0 -120 -78 -190t-218 -70t-211 59q-71 58 -71 159h182q0 -72 99 -72q109 0 108 107q0 45 -29 73t-83 29q-54 0 -97 -33l-143 25l53 413h451v-139h-303l-19 -141q45 18 103 18z"/>
            <glyph glyph-name="six.num" horiz-adv-x="718"
                   d="M379 1251q-129 0 -129 -178q68 45 174 45t174 -64q66 -64 66 -174t-77 -183t-227 -73t-225 99q-76 98 -76 273t77 288q76 113 228 113q152 1 218 -59t65 -154h-182q0 67 -86 67zM475 877q0 106 -121 106q-65 0 -106 -61q0 -152 119 -152q109 0 108 107z"/>
            <glyph glyph-name="seven.num" horiz-adv-x="608"
                   d="M37 1245v139h547v-120l-299 -627h-197l289 608h-340z"/>
            <glyph glyph-name="eight.num" horiz-adv-x="729"
                   d="M365 1251q-100 0 -101 -80q0 -84 100 -84t101 82q0 82 -100 82zM365 948q-53 0 -85 -24t-32 -66q0 -40 35 -64t83 -24t80 24t33 64q0 40 -30 66q-31 24 -84 24zM365 625q-141 0 -224 57q-82 57 -82 160q0 135 142 178q-127 41 -127 162q0 100 77 157t214 57t213 -56
q76 -58 75 -158q0 -121 -125 -162q141 -43 142 -178q0 -102 -82 -160t-223 -57z"/>
            <glyph glyph-name="nine.num" horiz-adv-x="718"
                   d="M72 838h184q0 -68 84 -68q133 0 133 178q-63 -47 -173 -47t-176 65q-66 66 -67 176q0 110 78 182q79 72 227 73t223 -99t74 -260q0 -414 -319 -413q-135 0 -202 59q-66 60 -66 154zM246 1145q0 -107 120 -107q64 0 105 62q0 152 -115 151q-111 0 -110 -106z"/>
            <glyph glyph-name="parenleft.case" horiz-adv-x="618"
                   d="M82 698q0 279 76 496t225 453l190 -74q-231 -469 -231 -875q0 -236 54 -442t173 -432l-186 -74q-301 438 -301 948z"/>
            <glyph glyph-name="parenright.case" horiz-adv-x="618"
                   d="M276 698q0 410 -229 875l186 74q150 -236 227 -453t77 -496q0 -512 -304 -948l-182 74q117 227 171 432t54 442z"/>
            <glyph glyph-name="hyphen.case" horiz-adv-x="813"
                   d="M111 782h589v-211h-589v211z"/>
            <glyph glyph-name="bracketleft.case" horiz-adv-x="700"
                   d="M121 1618h508v-209h-248v-1438h248v-209h-508v1856z"/>
            <glyph glyph-name="bracketright.case" horiz-adv-x="700"
                   d="M72 1618h508v-1856h-508v209h247v1438h-247v209z"/>
            <glyph glyph-name="braceleft.case" horiz-adv-x="688"
                   d="M489 1327v-395q0 -217 -174 -242q174 -20 174 -237v-400q0 -57 28 -80t87 -22v-189q-197 0 -285 66t-88 225v375q0 168 -192 168v188q96 0 144 39t48 135v369q-1 159 89 225t284 66v-188q-59 0 -87 -23t-28 -80z"/>
            <glyph glyph-name="bar.case" horiz-adv-x="407"
                   d="M285 -238h-164v1856h164v-1856z"/>
            <glyph glyph-name="braceright.case" horiz-adv-x="688"
                   d="M199 932v395q0 57 -28 80t-87 23v188q195 0 284 -67t89 -224v-369q0 -96 48 -135t144 -39v-188q-193 0 -192 -168v-375q0 -159 -88 -225t-285 -66v189q59 1 87 23t28 79v400q0 217 174 237q-174 25 -174 242z"/>
            <glyph glyph-name="guilsinglleft.case" horiz-adv-x="727"
                   d="M59 676l408 471l158 -111l-273 -362l273 -363l-158 -108z"/>
            <glyph glyph-name="guilsinglright.case" horiz-adv-x="724"
                   d="M258 1147l408 -471l-408 -473l-160 108l273 363l-271 362z"/>
            <glyph glyph-name="guillemotleft.case" horiz-adv-x="1175"
                   d="M508 676l407 471l158 -111l-272 -362l272 -363l-158 -108zM59 676l408 471l158 -111l-273 -362l273 -363l-158 -108z"/>
            <glyph glyph-name="guillemotright.case" horiz-adv-x="1175"
                   d="M258 1147l408 -471l-408 -473l-160 108l273 363l-271 362zM707 1147l407 -471l-407 -473l-160 108l272 363l-270 362z"/>
            <glyph glyph-name="endash.case" horiz-adv-x="1224"
                   d="M111 782h999v-211h-999v211z"/>
            <glyph glyph-name="emdash.case" horiz-adv-x="1511"
                   d="M111 782h1286v-211h-1286v211z"/>
            <glyph glyph-name="bullet.case" horiz-adv-x="817"
                   d="M125 674q0 118 80 194t204 76q125 0 205 -77t80 -193t-80 -194q-80 -77 -205 -77q-124 0 -204 77t-80 194z"/>
            <glyph glyph-name="periodcentered.case" horiz-adv-x="538"
                   d="M270 600q-74 0 -124 47t-50 119t50 120t125 48t124 -48t49 -120t-50 -119t-124 -47z"/>
            <glyph glyph-name="a.alt" horiz-adv-x="1062"
                   d="M528 727q-202 0 -202 -260t202 -260q113 0 177 63v394q-68 63 -177 63zM717 934h235v-934h-235v76q-100 -96 -271 -96t-272 128q-100 128 -100 360t100 359t287 127q154 0 256 -96v76z"/>
            <glyph glyph-name="agrave.alt" horiz-adv-x="1062"
                   d="M276 1425h252l150 -338h-223zM528 727q-202 0 -202 -260t202 -260q113 0 177 63v394q-68 63 -177 63zM717 934h235v-934h-235v76q-100 -96 -271 -96t-272 128q-100 128 -100 360t100 359t287 127q154 0 256 -96v76z"/>
            <glyph glyph-name="aacute.alt" horiz-adv-x="1062"
                   d="M571 1425h252l-178 -338h-223zM528 727q-202 0 -202 -260t202 -260q113 0 177 63v394q-68 63 -177 63zM717 934h235v-934h-235v76q-100 -96 -271 -96t-272 128q-100 128 -100 360t100 359t287 127q154 0 256 -96v76z"/>
            <glyph glyph-name="acircumflex.alt" horiz-adv-x="1062"
                   d="M422 1425h246l206 -338h-221l-108 183l-109 -183h-221zM528 727q-202 0 -202 -260t202 -260q113 0 177 63v394q-68 63 -177 63zM717 934h235v-934h-235v76q-100 -96 -271 -96t-272 128q-100 128 -100 360t100 359t287 127q154 0 256 -96v76z"/>
            <glyph glyph-name="atilde.alt" horiz-adv-x="1062"
                   d="M704 1206q-62 0 -160 -43q-99 -43 -173 -43t-133 45l4 183q52 -50 120 -50t163 41t174 41t153 -43l-4 -184q-82 53 -144 53zM528 727q-202 0 -202 -260t202 -260q113 0 177 63v394q-68 63 -177 63zM717 934h235v-934h-235v76q-100 -96 -271 -96t-272 128
q-100 128 -100 360t100 359t287 127q154 0 256 -96v76z"/>
            <glyph glyph-name="adieresis.alt" horiz-adv-x="1062"
                   d="M748 1090q-150 0 -150 143q0 75 41 111t105 36t108 -38q43 -38 43 -110t-42 -108q-42 -34 -105 -34zM344 1090q-147 0 -147 143q0 75 40 111t104 36q65 0 109 -38t44 -110t-43 -108q-44 -34 -107 -34zM528 727q-202 0 -202 -260t202 -260q113 0 177 63v394
q-68 63 -177 63zM717 934h235v-934h-235v76q-100 -96 -271 -96t-272 128q-100 128 -100 360t100 359t287 127q154 0 256 -96v76z"/>
            <glyph glyph-name="amacron.alt" horiz-adv-x="1062"
                   d="M240 1337h612v-198h-612v198zM528 727q-202 0 -202 -260t202 -260q113 0 177 63v394q-68 63 -177 63zM717 934h235v-934h-235v76q-100 -96 -271 -96t-272 128q-100 128 -100 360t100 359t287 127q154 0 256 -96v76z"/>
            <glyph glyph-name="abreve.alt" horiz-adv-x="1062"
                   d="M860 1409q0 -137 -83 -224t-233 -87t-232 88q-81 88 -81 223h158q10 -59 52 -96q43 -37 103 -37t102 37t52 96h162zM528 727q-202 0 -202 -260t202 -260q113 0 177 63v394q-68 63 -177 63zM717 934h235v-934h-235v76q-100 -96 -271 -96t-272 128q-100 128 -100 360
t100 359t287 127q154 0 256 -96v76z"/>
            <glyph glyph-name="aring.alt" horiz-adv-x="1062"
                   d="M528 727q-202 0 -202 -260t202 -260q113 0 177 63v394q-68 63 -177 63zM717 934h235v-934h-235v76q-100 -96 -271 -96t-272 128q-100 128 -100 360t100 359t287 127q154 0 256 -96v76zM459 1269q1 -32 23 -56q22 -23 62 -23t62 22t23 57q0 33 -23 57q-24 24 -64 24
t-62 -24t-21 -57zM322 1271q0 83 57 143t165 60t167 -58q59 -60 59 -144t-60 -146t-166 -61q-106 0 -164 61q-58 62 -58 145z"/>
            <glyph glyph-name="aringacute.alt" horiz-adv-x="1062"
                   d="M528 727q-202 0 -202 -260t202 -260q113 0 177 63v394q-68 63 -177 63zM717 934h235v-934h-235v76q-100 -96 -271 -96t-272 128q-100 128 -100 360t100 359t287 127q154 0 256 -96v76zM461 1247q-1 -33 21 -55t63 -23q41 0 63 23q22 24 23 56q0 32 -23 57q-24 25 -64 25
t-62 -25q-21 -25 -21 -58zM322 1242q0 77 43 132t120 72l78 158h240l-129 -183q98 -55 98 -174q0 -82 -60 -142q-60 -61 -166 -61t-166 60q-58 60 -58 138z"/>
            <glyph glyph-name="g.alt" horiz-adv-x="1015"
                   d="M471 -256q231 0 231 127q0 43 -27 73q-28 30 -91 29h-254q-59 -41 -60 -106q0 -123 201 -123zM491 453q97 1 137 37t40 110q0 148 -180 148t-181 -148q0 -74 43 -111q44 -36 141 -36zM969 756h-150q70 -63 70 -166q-1 -152 -103 -232t-286 -79q-84 0 -135 10
q-14 -29 -15 -58q0 -57 92 -57h156q352 0 352 -272q0 -152 -127 -247t-346 -95t-327 68t-107 171q0 72 50 131t106 72q-33 14 -54 53q-20 39 -20 80q0 113 100 191q-152 88 -151 278q0 162 109 256q110 94 319 94q90 0 211 -32l256 20v-186z"/>
            <glyph glyph-name="gcircumflex.alt" horiz-adv-x="1015"
                   d="M383 1425h246l207 -338h-222l-108 183l-109 -183h-221zM471 -256q231 0 231 127q0 43 -27 73q-28 30 -91 29h-254q-59 -41 -60 -106q0 -123 201 -123zM491 453q97 1 137 37t40 110q0 148 -180 148t-181 -148q0 -74 43 -111q44 -36 141 -36zM969 756h-150q70 -63 70 -166
q-1 -152 -103 -232t-286 -79q-84 0 -135 10q-14 -29 -15 -58q0 -57 92 -57h156q352 0 352 -272q0 -152 -127 -247t-346 -95t-327 68t-107 171q0 72 50 131t106 72q-33 14 -54 53q-20 39 -20 80q0 113 100 191q-152 88 -151 278q0 162 109 256q110 94 319 94q90 0 211 -32
l256 20v-186z"/>
            <glyph glyph-name="gbreve.alt" horiz-adv-x="1015"
                   d="M471 -256q231 0 231 127q0 43 -27 73q-28 30 -91 29h-254q-59 -41 -60 -106q0 -123 201 -123zM491 453q97 1 137 37t40 110q0 148 -180 148t-181 -148q0 -74 43 -111q44 -36 141 -36zM969 756h-150q70 -63 70 -166q-1 -152 -103 -232t-286 -79q-84 0 -135 10
q-14 -29 -15 -58q0 -57 92 -57h156q352 0 352 -272q0 -152 -127 -247t-346 -95t-327 68t-107 171q0 72 50 131t106 72q-33 14 -54 53q-20 39 -20 80q0 113 100 191q-152 88 -151 278q0 162 109 256q110 94 319 94q90 0 211 -32l256 20v-186zM807 1409q0 -137 -83 -224
q-84 -87 -234 -87t-231 88t-81 223h158q10 -59 52 -96t102 -37t103 37q42 37 52 96h162z"/>
            <glyph glyph-name="gdotaccent.alt" horiz-adv-x="1015"
                   d="M471 -256q231 0 231 127q0 43 -27 73q-28 30 -91 29h-254q-59 -41 -60 -106q0 -123 201 -123zM491 453q97 1 137 37t40 110q0 148 -180 148t-181 -148q0 -74 43 -111q44 -36 141 -36zM969 756h-150q70 -63 70 -166q-1 -152 -103 -232t-286 -79q-84 0 -135 10
q-14 -29 -15 -58q0 -57 92 -57h156q352 0 352 -272q0 -152 -127 -247t-346 -95t-327 68t-107 171q0 72 50 131t106 72q-33 14 -54 53q-20 39 -20 80q0 113 100 191q-152 88 -151 278q0 162 109 256q110 94 319 94q90 0 211 -32l256 20v-186zM496 1090q-150 0 -150 143
q0 75 41 111t105 36t109 -38q44 -38 44 -110t-43 -108q-43 -34 -106 -34z"/>
            <glyph glyph-name="brokenbar.sc" horiz-adv-x="403"
                   d="M133 385h137v-594h-137v594zM270 594h-137v598h137v-598z"/>
            <glyph glyph-name="gcommaaccent.alt" horiz-adv-x="1015"
                   d="M360 1135l136 370h192l-53 -370h-275zM471 -256q231 0 231 127q0 43 -27 73q-28 30 -91 29h-254q-59 -41 -60 -106q0 -123 201 -123zM491 453q97 1 137 37t40 110q0 148 -180 148t-181 -148q0 -74 43 -111q44 -36 141 -36zM969 756h-150q70 -63 70 -166
q-1 -152 -103 -232t-286 -79q-84 0 -135 10q-14 -29 -15 -58q0 -57 92 -57h156q352 0 352 -272q0 -152 -127 -247t-346 -95t-327 68t-107 171q0 72 50 131t106 72q-33 14 -54 53q-20 39 -20 80q0 113 100 191q-152 88 -151 278q0 162 109 256q110 94 319 94q90 0 211 -32
l256 20v-186z"/>
            <glyph glyph-name="aogonek.alt" horiz-adv-x="1062"
                   d="M528 727q-202 0 -202 -260t202 -260q113 0 177 63v394q-68 63 -177 63zM750 -183q0 -65 65 -67q63 0 139 55v-200q-102 -47 -214 -47t-178 51t-64 145q0 115 129 219l90 72v31q-100 -96 -271 -96t-272 128q-100 128 -100 360t100 359t287 127q154 0 256 -96v76h235v-934
h2l-141 -102q-63 -47 -63 -81z"/>
            </font>
</defs>
</svg>
