<?xml version="1.0" standalone="no"?>
<!DOCTYPE svg PUBLIC "-//W3C//DTD SVG 1.1//EN" "http://www.w3.org/Graphics/SVG/1.1/DTD/svg11.dtd" >
<svg xmlns="http://www.w3.org/2000/svg">
<metadata>
Created by FontPrep 20130207 at Wed Sep  7 03:13:46 2016
 By Georgi Chelev
Copyright (c) 2014 by Hannes von Doehren, Livius Dietzel. All rights reserved.
</metadata>
<defs>
<font id="d0cb9eca9dd08c640b9f35ea960925bf" horiz-adv-x='1024' >
  <font-face 
    font-family="BrixSansMedium"
    font-weight="500"
    font-stretch="normal"
    units-per-em="2048"
    panose-1="2 0 0 0 0 0 0 0 0 0"
    ascent="1475"
    descent="-573"
    x-height="934"
    cap-height="1384"
    bbox="-309 -465 2298 2019"
    underline-thickness="102"
    underline-position="-102"
    unicode-range="U+0020-FB02"
  />
<missing-glyph horiz-adv-x="1050" 
d="M180 80h690v1184h-690v-1184zM102 0v1343h846v-1343h-846z" />
    <glyph glyph-name="fi" unicode="fi" horiz-adv-x="1167" 
d="M936 1135q-133 0 -133 129q0 66 37 98t93 33q56 0 95 -34t39 -97t-38 -96t-93 -33zM836 0v758h-435v-758h-204v758h-154v155l154 21v145q0 334 317 334h121v-176h-109q-125 0 -125 -160v-143h639v-934h-204z" />
    <glyph glyph-name="fl" unicode="fl" horiz-adv-x="1187" 
d="M809 1413h205v-1128q0 -55 19 -79t67 -24h49v-190h-111q-229 0 -229 264v1157zM635 1413v-176h-109q-125 0 -125 -160v-143h258v-176h-258v-758h-204v758h-154v155l154 21v145q0 334 317 334h121z" />
    <glyph glyph-name="f_f" unicode="ff" horiz-adv-x="1312" 
d="M1257 1413v-176h-108q-125 0 -125 -160v-143h258v-176h-258v-758h-205v758h-418v-758h-204v758h-154v155l154 21v145q0 334 317 334h121v-176h-109q-125 0 -125 -160v-143h418v145q0 334 318 334h120z" />
    <glyph glyph-name=".notdef" horiz-adv-x="1050" 
d="M180 80h690v1184h-690v-1184zM102 0v1343h846v-1343h-846z" />
    <glyph glyph-name=".null" horiz-adv-x="0" 
 />
    <glyph glyph-name=".null" horiz-adv-x="0" 
 />
    <glyph glyph-name="nonmarkingreturn" horiz-adv-x="681" 
 />
    <glyph glyph-name="space" unicode=" " horiz-adv-x="417" 
 />
    <glyph glyph-name="exclam" unicode="!" horiz-adv-x="491" 
d="M247 -12q-62 0 -104 39q-41 39 -41 98t41 99t103 40t104 -40q41 -40 41 -99t-41 -98t-103 -39zM332 449h-172l-37 935h248z" />
    <glyph glyph-name="quotedbl" unicode="&#x22;" horiz-adv-x="757" 
d="M129 885l-23 499h203l-22 -499h-158zM471 885l-18 499h198l-22 -499h-158z" />
    <glyph glyph-name="numbersign" unicode="#" horiz-adv-x="1296" 
d="M545 850l-43 -287h241l43 287h-241zM274 381h-202l26 182h207l43 287h-201l23 184h207l53 350h199l-56 -350h240l55 350h197l-51 -350h211l-27 -184h-215l-43 -287h211l-25 -182h-217l-57 -381h-199l60 381h-240l-57 -381h-201z" />
    <glyph glyph-name="dollar" unicode="$" horiz-adv-x="1124" 
d="M352 1008q0 -72 37 -115t117 -72v383q-76 -18 -115 -71t-39 -125zM815 377q0 131 -176 188v-389q176 35 176 201zM639 -211h-133v191q-319 16 -436 256l159 120q39 -80 101 -128t176 -56v434l-57 17q-324 100 -324 370q0 158 96 272t285 136v153h133v-149
q266 -18 385 -203l-156 -123q-80 117 -229 133v-430l66 -18q336 -102 335 -373q0 -171 -108 -279t-293 -128v-195z" />
    <glyph glyph-name="percent" unicode="%" horiz-adv-x="1687" 
d="M377 1395q307 0 307 -377q0 -178 -75 -278t-232 -101q-307 0 -307 378t307 378zM377 764q81 0 113 61t32 193t-33 192q-33 62 -113 62t-112 -62q-33 -62 -33 -192t33 -192t113 -62zM1307 743q307 0 307 -376q0 -179 -75 -279t-232 -100q-307 0 -307 378t307 377z
M1307 113q81 0 113 61q32 60 32 192t-33 193t-113 61t-112 -60q-33 -62 -33 -193t33 -193t113 -61zM1341 1384l-829 -1384h-168l823 1384h174z" />
    <glyph glyph-name="ampersand" unicode="&#x26;" horiz-adv-x="1329" 
d="M367 1071q0 -92 122 -215l37 -39l56 39q90 68 130 113t40 105t-50 108t-138 49q-87 -1 -142 -49t-55 -111zM457 154q160 0 301 155l-252 271l-35 -25q-155 -109 -183 -177q-14 -32 -14 -84t54 -96t129 -44zM1286 0h-237l-162 172q-186 -195 -430 -195q-177 -1 -279 91
t-102 230t83 227t199 173l23 17l-37 39q-106 112 -140 180t-34 137q0 141 108 239t282 97q174 0 283 -98q108 -98 107 -238q0 -98 -61 -176t-191 -176l-47 -35l219 -231l27 34l180 250l150 -112l-226 -312l285 -297v-16z" />
    <glyph glyph-name="quotesingle" unicode="'" horiz-adv-x="413" 
d="M127 885l-18 499h198l-22 -499h-158z" />
    <glyph glyph-name="parenleft" unicode="(" horiz-adv-x="575" 
d="M86 497q0 283 74 497t219 448l160 -62q-236 -461 -236 -886q-1 -244 55 -452t177 -437l-156 -60q-143 217 -218 443t-75 509z" />
    <glyph glyph-name="parenright" unicode=")" horiz-adv-x="573" 
d="M272 494q0 426 -235 886l158 62q145 -232 220 -448t75 -498t-76 -509q-74 -226 -219 -442l-154 60q121 229 176 437t55 452z" />
    <glyph glyph-name="asterisk" unicode="*" horiz-adv-x="954" 
d="M279 643l-125 115l194 227l-268 51l51 185l266 -93l-14 297h195l-17 -295l277 78l39 -182l-267 -45l176 -229l-153 -109l-164 250z" />
    <glyph glyph-name="plus" unicode="+" 
d="M86 463v178h387v403h195v-403h393v-178h-393v-402h-195v402h-387z" />
    <glyph glyph-name="comma" unicode="," horiz-adv-x="466" 
d="M360 266l-120 -491h-158l51 491h227z" />
    <glyph glyph-name="hyphen" unicode="-" horiz-adv-x="796" 
d="M119 641h559v-176h-559v176z" />
    <glyph glyph-name="period" unicode="." horiz-adv-x="493" 
d="M247 281q67 0 109 -43q42 -44 43 -106q-1 -62 -43 -103t-109 -41t-110 41t-43 105t43 105q43 42 110 42z" />
    <glyph glyph-name="slash" unicode="/" horiz-adv-x="751" 
d="M696 1384l-430 -1384h-211l426 1384h215z" />
    <glyph glyph-name="zero" unicode="0" horiz-adv-x="1226" 
d="M614 1407q262 0 387 -187q125 -188 125 -528t-125 -527t-388 -187t-388 186q-125 188 -125 527t126 527t388 189zM614 166q154 0 222 131t67 395q0 264 -67 395q-68 131 -222 131t-222 -130q-68 -132 -68 -396t68 -395t222 -131z" />
    <glyph glyph-name="one" unicode="1" horiz-adv-x="813" 
d="M655 0h-217v1176l-366 -148l-56 170l449 186h190v-1384z" />
    <glyph glyph-name="two" unicode="2" horiz-adv-x="1069" 
d="M90 973q0 199 110 317t315 117q204 0 323 -116t118 -298q0 -133 -70 -248t-206 -258l-287 -307h584v-180h-875v156l430 462q100 109 150 196q49 87 49 184q0 96 -54 158q-53 62 -157 62t-158 -65q-54 -66 -55 -180h-217z" />
    <glyph glyph-name="three" unicode="3" horiz-adv-x="1122" 
d="M1024 369q0 -174 -130 -283t-351 -109q-221 -1 -337 103t-116 272h217q0 -86 65 -137q64 -51 178 -51t182 59t67 164q0 105 -77 168t-212 63h-131v181h131q123 0 195 55q71 56 71 154t-60 154t-166 56t-164 -50q-58 -52 -58 -136h-219q0 162 111 268q112 106 324 106
t335 -107q123 -108 122 -275q0 -121 -69 -205q-70 -83 -176 -110q112 -23 190 -114t78 -226z" />
    <glyph glyph-name="four" unicode="4" horiz-adv-x="1177" 
d="M707 467v623l-418 -623h418zM1104 467v-180h-180v-287h-217v287h-650v162l639 935h228v-917h180z" />
    <glyph glyph-name="five" unicode="5" horiz-adv-x="1085" 
d="M1001 452q1 -210 -123 -342t-350 -132t-342 109q-115 110 -114 284h217q0 -91 61 -149t181 -58t183 77q62 77 62 199t-63 192q-63 68 -183 68t-219 -77l-176 26l86 735h729v-180h-551l-45 -379q106 61 221 62q186 0 306 -112t120 -323z" />
    <glyph glyph-name="six" unicode="6" horiz-adv-x="1159" 
d="M823 1032q0 86 -57 136t-158 51q-143 0 -214 -128t-70 -348q47 53 133 97t188 43q199 0 313 -120t113 -320q0 -201 -124 -333q-125 -132 -363 -132t-361 180q-123 182 -123 512t126 533q126 204 382 204q213 0 324 -105t110 -270h-219zM589 164q127 0 193 75t66 199
t-66 196q-66 71 -171 71t-175 -48t-108 -118q0 -162 66 -269q67 -106 195 -106z" />
    <glyph glyph-name="seven" unicode="7" horiz-adv-x="980" 
d="M61 1204v180h875v-157l-508 -1227h-238l502 1204h-631z" />
    <glyph glyph-name="eight" unicode="8" horiz-adv-x="1179" 
d="M590 164q122 0 194 60t72 169t-75 168t-193 59t-191 -58q-73 -60 -73 -169t72 -169t194 -60zM590 1219q-112 -1 -176 -55t-64 -154t67 -154t173 -53q106 0 173 53q67 54 67 154t-65 154q-64 54 -175 55zM590 -23q-224 1 -358 105t-134 293q0 135 75 221t189 117
q-106 33 -171 111t-64 196q0 178 124 282t339 105q215 0 339 -104t124 -283q0 -119 -65 -197t-169 -110q111 -31 186 -117t74 -221q0 -188 -133 -293t-356 -105z" />
    <glyph glyph-name="nine" unicode="9" horiz-adv-x="1161" 
d="M119 352h219q0 -86 57 -136t156 -50q145 0 216 127t71 348q-45 -53 -132 -97t-190 -44q-198 0 -312 121t-114 321t124 332q124 133 364 133t361 -182q122 -182 122 -511t-126 -533t-384 -204q-211 -1 -321 105t-111 270zM313 946q0 -126 66 -196t172 -70t176 48t107 118
q0 162 -67 268t-195 106t-194 -74q-66 -75 -65 -200z" />
    <glyph glyph-name="colon" unicode=":" horiz-adv-x="514" 
d="M257 678q-62 0 -103 39t-41 99t41 99t103 39t103 -39t41 -99t-41 -99t-103 -39zM257 -12q-62 0 -103 39t-41 98t41 99t103 40t103 -40t41 -99t-41 -98t-103 -39z" />
    <glyph glyph-name="semicolon" unicode=";" horiz-adv-x="503" 
d="M377 266l-121 -491h-156l52 491h225zM256 678q-61 0 -102 39t-41 99t41 99t102 39t102 -39t41 -99t-41 -99t-102 -39z" />
    <glyph glyph-name="less" unicode="&#x3c;" 
d="M137 449v208l840 332v-190l-664 -248l664 -246v-190z" />
    <glyph glyph-name="equal" unicode="=" 
d="M152 401h841v-176h-841v176zM152 883h841v-178h-841v178z" />
    <glyph glyph-name="greater" unicode="&#x3e;" 
d="M1010 657v-208l-842 -334v190l663 246l-663 248v190z" />
    <glyph glyph-name="question" unicode="?" horiz-adv-x="921" 
d="M444 1405q188 0 298 -100t110 -250t-110 -270q-46 -50 -92 -97q-111 -113 -109 -239h-211q0 106 49 196t107 143q157 143 157 256q0 72 -50 121t-137 49q-88 0 -138 -45t-50 -112l-200 18q0 143 94 237t282 93zM578 125q0 -59 -42 -98t-103 -39q-62 0 -102 39t-40 98
t40 99t102 40q61 0 103 -40t42 -99z" />
    <glyph glyph-name="at" unicode="@" horiz-adv-x="1851" 
d="M794 29q-148 0 -223 87q-76 87 -75 257q0 215 117 378q118 163 298 162q145 0 230 -96l16 78h174l-96 -553q-38 -176 61 -176q115 0 203 139t88 397q0 216 -136 352q-137 136 -403 136t-445 -117t-263 -299t-84 -401q0 -582 559 -582q219 0 389 80l35 -145
q-199 -92 -422 -93q-367 0 -548 198t-181 544q0 266 110 485t325 353q216 134 503 135q184 0 328 -52t229 -141q172 -180 172 -473t-141 -481t-336 -189q-172 1 -201 140q-135 -123 -283 -123zM930 752q-108 0 -180 -109t-72 -256q0 -193 151 -192q125 0 218 88l71 393
q-80 76 -188 76z" />
    <glyph glyph-name="A" unicode="A" horiz-adv-x="1261" 
d="M631 1155l-211 -631h422zM1012 0l-113 338h-539l-112 -338h-238l490 1384h260l491 -1384h-239z" />
    <glyph glyph-name="B" unicode="B" horiz-adv-x="1204" 
d="M375 807h205q240 0 239 203q0 190 -241 190h-203v-393zM375 184h231q150 0 218 52t67 165q0 221 -285 222h-231v-439zM152 0v1384h456q227 0 335 -95t108 -263q0 -236 -205 -297q118 -25 196 -112t78 -230q0 -387 -502 -387h-466z" />
    <glyph glyph-name="C" unicode="C" horiz-adv-x="1204" 
d="M326 690q0 -244 89 -381t275 -137q92 0 168 47t115 123l172 -111q-141 -252 -463 -251q-291 0 -439 186t-149 526q0 340 148 526t440 187q322 0 463 -252l-172 -111q-39 76 -115 123t-168 47q-364 0 -364 -522z" />
    <glyph glyph-name="D" unicode="D" horiz-adv-x="1335" 
d="M375 184h178q258 0 357 113q100 113 100 393t-100 396q-100 114 -357 114h-178v-1016zM152 0v1384h413q356 0 515 -164t159 -526q0 -364 -159 -529t-515 -165h-413z" />
    <glyph glyph-name="E" unicode="E" horiz-adv-x="1110" 
d="M375 184h647v-184h-870v1384h864v-184h-641v-405h561v-185h-561v-426z" />
    <glyph glyph-name="F" unicode="F" horiz-adv-x="1064" 
d="M152 0v1384h839v-184h-616v-444h524v-185h-524v-571h-223z" />
    <glyph glyph-name="G" unicode="G" horiz-adv-x="1318" 
d="M700 561v187h535q10 -66 10 -119q0 -289 -135 -469t-423 -180q-289 0 -441 180t-152 532q0 713 625 713q157 0 273 -65t177 -179l-168 -110q-99 161 -297 161t-288 -131t-90 -394t88 -390t268 -127t258 108t78 283h-318z" />
    <glyph glyph-name="H" unicode="H" horiz-adv-x="1388" 
d="M1016 813v571h221v-1384h-221v629h-641v-629h-223v1384h223v-571h641z" />
    <glyph glyph-name="I" unicode="I" horiz-adv-x="528" 
d="M152 0v1384h223v-1384h-223z" />
    <glyph glyph-name="J" unicode="J" horiz-adv-x="993" 
d="M406 172q117 0 175 72t58 235v905h211v-915q0 -244 -117 -367t-327 -122q-263 0 -369 219l160 104q35 -67 83 -99t126 -32z" />
    <glyph glyph-name="K" unicode="K" horiz-adv-x="1251" 
d="M375 0h-223v1384h223v-647l583 647h271l-510 -571l510 -813h-264l-398 653l-192 -198v-455z" />
    <glyph glyph-name="L" unicode="L" horiz-adv-x="980" 
d="M375 184h571v-184h-794v1384h223v-1200z" />
    <glyph glyph-name="M" unicode="M" horiz-adv-x="1755" 
d="M881 276l329 1108h295l164 -1384h-213l-121 1124l-338 -1124h-243l-324 1118l-133 -1118h-213l176 1384h299z" />
    <glyph glyph-name="N" unicode="N" horiz-adv-x="1390" 
d="M1018 1384h221v-1384h-231l-633 1030l2 -1030h-225v1384h237l629 -1019v1019z" />
    <glyph glyph-name="O" unicode="O" horiz-adv-x="1345" 
d="M670 -20q-299 0 -438 191q-138 191 -138 520t139 521t446 193q307 0 441 -205q129 -192 129 -515t-140 -514t-439 -191zM326 689q0 -251 76 -384t270 -133q192 0 270 134t78 385t-78 386t-267 135t-269 -136t-80 -387z" />
    <glyph glyph-name="P" unicode="P" horiz-adv-x="1167" 
d="M375 1200v-491h225q266 -1 266 245t-266 246h-225zM614 524h-239v-524h-223v1384h462q238 0 361 -112t123 -318t-123 -318t-361 -112z" />
    <glyph glyph-name="Q" unicode="Q" horiz-adv-x="1345" 
d="M326 689q0 -251 76 -384t268 -133q154 0 235 88l-321 311l116 129l291 -274q29 106 29 264q0 252 -78 387t-267 135t-269 -136t-80 -387zM1249 690q0 -258 -84 -428l158 -147l-123 -138l-143 138q-141 -135 -387 -135q-299 0 -438 191q-138 191 -138 520t139 521t446 193
q307 0 441 -205q129 -192 129 -510z" />
    <glyph glyph-name="R" unicode="R" horiz-adv-x="1226" 
d="M911 984q0 106 -63 162q-63 54 -215 54h-258v-430h258q152 0 215 54t63 160zM152 0v1384h501q240 0 365 -104t125 -293q0 -150 -89 -249t-251 -132l371 -606h-252l-347 586h-200l2 -586h-225z" />
    <glyph glyph-name="S" unicode="S" horiz-adv-x="1114" 
d="M578 1212q-111 0 -171 -57q-61 -57 -61 -139t41 -126t129 -73l180 -53q170 -53 252 -143t82 -228q0 -190 -132 -303t-351 -113q-356 0 -486 259l158 122q43 -90 116 -139t203 -49t196 56t67 151q0 137 -183 192l-180 54q-324 100 -323 370q0 174 116 293q117 119 347 119
q305 0 438 -205l-158 -123q-88 135 -280 135z" />
    <glyph glyph-name="T" unicode="T" horiz-adv-x="1112" 
d="M59 1384h992v-184h-383v-1200h-224v1200h-385v184z" />
    <glyph glyph-name="U" unicode="U" horiz-adv-x="1325" 
d="M1186 522q0 -278 -140 -410t-383 -132t-382 132t-140 410v862h224v-860q-1 -182 73 -267t226 -85t226 85t73 267v860h223v-862z" />
    <glyph glyph-name="V" unicode="V" horiz-adv-x="1230" 
d="M973 1384h235l-452 -1384h-283l-450 1384h233l360 -1155z" />
    <glyph glyph-name="W" unicode="W" horiz-adv-x="1982" 
d="M864 1384h254l307 -1132l293 1132h232l-379 -1384h-275l-305 1081l-305 -1081h-272l-381 1384h231l295 -1132z" />
    <glyph glyph-name="X" unicode="X" horiz-adv-x="1196" 
d="M39 1384h254l303 -522l307 522h252l-410 -669l426 -715h-253l-322 553l-320 -553h-251l426 715z" />
    <glyph glyph-name="Y" unicode="Y" horiz-adv-x="1193" 
d="M709 0h-224v545l-471 839h246l338 -636l334 636h248l-471 -839v-545z" />
    <glyph glyph-name="Z" unicode="Z" horiz-adv-x="1062" 
d="M971 1384v-163l-641 -1037h659v-184h-921v160l641 1040h-609v184h871z" />
    <glyph glyph-name="bracketleft" unicode="[" horiz-adv-x="643" 
d="M129 1413h463v-174h-250v-1507h250v-174h-463v1855z" />
    <glyph glyph-name="backslash" unicode="\" horiz-adv-x="751" 
d="M485 0l-430 1384h217l424 -1384h-211z" />
    <glyph glyph-name="bracketright" unicode="]" horiz-adv-x="643" 
d="M51 1413h463v-1855h-463v174h250v1507h-250v174z" />
    <glyph glyph-name="asciicircum" unicode="^" 
d="M61 922l512 510l510 -510l-137 -140l-371 371l-372 -371z" />
    <glyph glyph-name="underscore" unicode="_" horiz-adv-x="1003" 
d="M92 -63h819v-140h-819v140z" />
    <glyph glyph-name="grave" unicode="`" horiz-adv-x="1228" 
d="M432 1425h213l152 -327h-187z" />
    <glyph glyph-name="a" unicode="a" horiz-adv-x="964" 
d="M281 258q0 -119 135 -119t227 97v200l-129 -18q-233 -33 -233 -160zM848 0h-193v113q-119 -135 -305 -136q-129 0 -205 73t-75 196q0 274 442 307l131 14v74q0 74 -39 111t-133 36q-170 0 -170 -100v-45h-180q-4 41 -4 64q0 111 97 179t270 68t269 -77q95 -78 95 -234
v-643z" />
    <glyph glyph-name="b" unicode="b" horiz-adv-x="1058" 
d="M766 469q0 295 -236 295q-131 0 -200 -88v-410q72 -98 202 -98t182 79t52 222zM330 1413v-557q86 98 248 98q201 0 300 -127t99 -356q-1 -229 -103 -361t-290 -132t-291 106l-62 -84h-106v1413h205z" />
    <glyph glyph-name="c" unicode="c" horiz-adv-x="917" 
d="M504 -23q-212 1 -318 137t-106 352t105 352t319 136q260 0 362 -198l-147 -105q-68 121 -201 121q-227 0 -227 -305t227 -305q133 0 203 119l145 -105q-100 -199 -362 -199z" />
    <glyph glyph-name="d" unicode="d" horiz-adv-x="1058" 
d="M526 764q-233 0 -233 -298t231 -298q135 0 205 88v420q-76 88 -203 88zM729 1413h207v-1413h-197v82q-100 -104 -278 -104t-278 128q-99 128 -99 360t99 360t277 128t269 -98v557z" />
    <glyph glyph-name="e" unicode="e" horiz-adv-x="964" 
d="M694 588q0 92 -52 145t-138 53q-201 0 -215 -233h403q2 12 2 35zM524 -23q-225 1 -335 133q-109 132 -109 351t109 356q110 137 309 137t294 -116t95 -283q0 -98 -15 -154h-583q8 -245 235 -245q139 0 244 92l98 -135q-53 -57 -145 -97t-197 -39z" />
    <glyph glyph-name="f" unicode="f" horiz-adv-x="690" 
d="M635 1413v-176h-109q-125 0 -125 -160v-143h258v-176h-258v-758h-204v758h-154v155l154 21v145q0 334 317 334h121z" />
    <glyph glyph-name="g" unicode="g" horiz-adv-x="1054" 
d="M522 764q-231 0 -231 -298t231 -298q129 0 201 90v420q-68 86 -201 86zM735 934h195v-997q0 -157 -111 -257t-294 -100t-281 83t-99 212h183q0 -51 52 -90t145 -39t146 48q52 48 52 132v160q-94 -109 -244 -109q-197 0 -296 128q-99 127 -99 361t101 361t277 127
t273 -104v84z" />
    <glyph glyph-name="h" unicode="h" horiz-adv-x="1060" 
d="M125 0v1413h205v-575q109 117 293 116q324 0 323 -364v-590h-207v569q0 99 -43 147q-42 48 -162 48t-204 -88v-676h-205z" />
    <glyph glyph-name="i" unicode="i" horiz-adv-x="458" 
d="M227 1135q-133 0 -133 129q0 66 37 98t93 33q56 0 95 -34t39 -97t-37 -97q-39 -32 -94 -32zM127 0v934h205v-934h-205z" />
    <glyph glyph-name="j" unicode="j" horiz-adv-x="458" 
d="M227 1135q-133 0 -133 129q0 66 37 98t94 33q57 0 97 -34q40 -35 38 -99q0 -64 -38 -96q-40 -31 -95 -31zM127 -45v979h207v-940q0 -328 -258 -457l-119 135q92 51 131 117t39 166z" />
    <glyph glyph-name="k" unicode="k" horiz-adv-x="989" 
d="M330 0h-205v1413h205v-864l391 385h254l-365 -354l355 -580h-232l-268 436l-135 -131v-305z" />
    <glyph glyph-name="l" unicode="l" horiz-adv-x="499" 
d="M119 1413h205v-1128q0 -55 18 -79t68 -24h49v-190h-111q-229 0 -229 264v1157z" />
    <glyph glyph-name="m" unicode="m" horiz-adv-x="1656" 
d="M125 0v934h199v-109q109 129 268 129q193 0 291 -141q117 141 325 141q332 0 332 -348v-606h-207v590q0 88 -42 131t-138 43q-133 0 -213 -88v-676h-207v662q-55 102 -181 102t-222 -88v-676h-205z" />
    <glyph glyph-name="n" unicode="n" horiz-adv-x="1060" 
d="M125 0v934h199v-109q94 129 297 129q324 0 323 -364v-590h-205v569q0 99 -44 147q-45 48 -165 48t-200 -88v-676h-205z" />
    <glyph glyph-name="o" unicode="o" horiz-adv-x="1024" 
d="M512 164q221 0 221 302t-221 302t-221 -302t221 -302zM512 954q215 0 323 -133q107 -133 107 -355t-108 -355t-323 -133q-214 0 -323 134q-108 134 -108 355t108 354q109 133 324 133z" />
    <glyph glyph-name="p" unicode="p" horiz-adv-x="1064" 
d="M537 168q235 0 235 298t-235 298q-137 0 -207 -88v-420q76 -88 207 -88zM330 -442h-205v1376h197v-84q100 104 279 104t279 -129t101 -360q0 -231 -100 -359q-101 -128 -281 -128t-270 98v-518z" />
    <glyph glyph-name="q" unicode="q" horiz-adv-x="1050" 
d="M291 463q0 -295 231 -295q129 0 199 88v410q-72 98 -199 98t-179 -79t-52 -222zM721 -442v518q-86 -98 -244 -99q-199 0 -297 127q-98 126 -98 356t101 362t287 132t288 -106l61 86h107v-1376h-205z" />
    <glyph glyph-name="r" unicode="r" horiz-adv-x="716" 
d="M322 782h2q94 172 256 172q61 0 110 -12l-18 -219q-61 18 -140 18q-137 0 -202 -143v-598h-205v934h197v-152z" />
    <glyph glyph-name="s" unicode="s" horiz-adv-x="886" 
d="M297 680q0 -84 100 -107l158 -36q262 -59 262 -269q0 -125 -96 -208t-293 -83q-242 0 -369 158l121 125q109 -125 254 -125q80 0 127 30t47 87q0 78 -119 106l-161 41q-238 59 -238 263q0 116 91 204t293 88t325 -135l-119 -123q-90 100 -229 101q-78 0 -116 -33t-38 -84
z" />
    <glyph glyph-name="t" unicode="t" horiz-adv-x="706" 
d="M416 758v-469q0 -121 112 -121q57 0 121 25l10 -181q-89 -35 -207 -35t-181 76q-62 76 -62 209v496h-172v155l172 21v231l207 33v-264h229v-176h-229z" />
    <glyph glyph-name="u" unicode="u" horiz-adv-x="1060" 
d="M936 934v-934h-199v109q-94 -129 -297 -129q-324 0 -323 364v590h205v-569q0 -99 44 -147t164 -48t201 88v676h205z" />
    <glyph glyph-name="v" unicode="v" horiz-adv-x="993" 
d="M743 934h222l-342 -934h-248l-346 934h221l248 -733z" />
    <glyph glyph-name="w" unicode="w" horiz-adv-x="1562" 
d="M682 934h199l219 -713l211 713h215l-295 -934h-227l-224 672l-221 -672h-227l-297 934h215l213 -713z" />
    <glyph glyph-name="x" unicode="x" horiz-adv-x="956" 
d="M608 467l314 -467h-238l-205 328l-207 -328h-237l313 469l-313 465h237l207 -326l205 326h238z" />
    <glyph glyph-name="y" unicode="y" horiz-adv-x="993" 
d="M252 934l258 -645l238 645h223l-559 -1376h-211l207 491l-390 885h234z" />
    <glyph glyph-name="z" unicode="z" horiz-adv-x="847" 
d="M766 934v-139l-434 -619h436v-176h-696v139l438 619h-418v176h674z" />
    <glyph glyph-name="braceleft" unicode="{" horiz-adv-x="626" 
d="M428 1126v-409q0 -211 -162 -232q162 -20 162 -229v-412q0 -72 30 -100t97 -27v-159q-180 0 -260 63t-80 223v394q0 92 -46 130t-142 38v159q98 0 143 39t45 133v389q0 158 81 223t259 64v-160q-67 1 -97 -27t-30 -100z" />
    <glyph glyph-name="bar" unicode="|" horiz-adv-x="397" 
d="M270 -442h-141v1855h141v-1855z" />
    <glyph glyph-name="braceright" unicode="}" horiz-adv-x="626" 
d="M199 717v409q0 72 -30 100t-97 27v160q178 -1 259 -65t81 -222v-389q0 -94 45 -133t143 -39v-159q-96 0 -142 -38t-46 -130v-394q0 -160 -80 -223t-260 -63v159q68 0 98 28t29 99v412q0 209 161 229q-161 21 -161 232z" />
    <glyph glyph-name="asciitilde" unicode="~" 
d="M366 387q-89 0 -163 59l6 203q79 -69 149 -69t190 70t213 68q93 0 183 -63l-10 -198q-96 69 -164 69t-191 -70q-124 -70 -213 -69z" />
    <glyph glyph-name="uni00A0" unicode="&#xa0;" horiz-adv-x="417" 
 />
    <glyph glyph-name="exclamdown" unicode="&#xa1;" horiz-adv-x="473" 
d="M236 954q61 0 102 -39t41 -98t-41 -99t-102 -40t-103 40q-41 40 -41 99t41 98q42 39 103 39zM152 494h172l36 -936h-249z" />
    <glyph glyph-name="cent" unicode="&#xa2;" horiz-adv-x="972" 
d="M303 467q0 -193 94 -264l138 569h-3q-229 0 -229 -305zM348 6q-254 96 -254 484q0 192 106 328t318 136q18 0 60 -4l36 156l115 -27l-39 -155q127 -47 189 -168l-146 -105q-39 63 -86 90l-141 -579h26q131 0 201 119l146 -105q-100 -199 -361 -199q-23 0 -55 5l-31 -127
l-113 26z" />
    <glyph glyph-name="sterling" unicode="&#xa3;" horiz-adv-x="1150" 
d="M74 680h131v227q0 219 106 359t352 139q246 0 420 -199l-137 -141q-123 143 -289 143q-240 0 -239 -301v-227h368v-139h-368v-365h575v-176h-788v541h-131v139z" />
    <glyph glyph-name="currency" unicode="&#xa4;" horiz-adv-x="1122" 
d="M709 559q-1 160 -149 160t-148 -160t148 -160t149 160zM887 558q0 -87 -25 -157l166 -170l-143 -143l-162 160q-74 -35 -169 -35t-165 37l-151 -152l-136 133l156 162q-27 68 -27 159t25 159l-162 170l144 139l153 -156q67 39 173 39t171 -41l152 154l135 -133l-160 -164
q25 -74 25 -161z" />
    <glyph glyph-name="yen" unicode="&#xa5;" horiz-adv-x="1224" 
d="M137 618h330l-72 138h-258v139h182l-260 489h242l307 -624l314 624h243l-266 -489h186v-139h-264l-73 -138h337v-141h-372v-477h-213v477h-363v141z" />
    <glyph glyph-name="brokenbar" unicode="&#xa6;" horiz-adv-x="413" 
d="M135 348h144v-790h-144v790zM279 627h-144v786h144v-786z" />
    <glyph glyph-name="section" unicode="&#xa7;" horiz-adv-x="1138" 
d="M334 637q0 -61 49 -101t158 -79l192 -70q88 59 88 132t-50 115t-153 75l-200 67q-84 -53 -84 -139zM1036 559q0 -147 -137 -246q133 -82 133 -222t-119 -232t-352 -92q-166 0 -290 53t-189 145l123 131q133 -164 369 -164t235 129q0 37 -34 68q-33 31 -65 45t-92 35
l-204 74q-293 106 -293 313q0 154 133 254q-131 84 -131 218t118 236t337 101q303 0 448 -184l-133 -131q-125 145 -332 145q-92 0 -154 -37q-63 -37 -63 -92t49 -88t158 -70l168 -59q161 -53 239 -132t78 -198z" />
    <glyph glyph-name="dieresis" unicode="&#xa8;" horiz-adv-x="1228" 
d="M809 1114q-133 0 -133 129q0 67 37 99t93 32t95 -34t39 -97t-38 -96t-93 -33zM420 1114q-131 0 -131 129q0 67 36 99t92 32t95 -34t39 -97t-38 -96t-93 -33z" />
    <glyph glyph-name="copyright" unicode="&#xa9;" horiz-adv-x="1679" 
d="M1034 842q-94 94 -194 94t-154 -68t-55 -184q0 -252 209 -252q123 0 196 103l119 -117q-125 -146 -309 -146t-290 112q-108 112 -108 300t110 300t282 112t311 -142zM252 687q0 -267 165 -431t424 -164t423 164t164 431t-164 430t-424 163t-424 -163t-164 -430zM842 1434
q324 0 534 -209t211 -537q0 -328 -212 -538q-213 -210 -535 -211t-535 211t-213 539t213 536t537 209z" />
    <glyph glyph-name="ordfeminine" unicode="&#xaa;" horiz-adv-x="724" 
d="M238 879q0 -66 82 -66t139 61v109l-74 -12q-147 -18 -147 -92zM604 717h-139v65q-75 -80 -177 -80t-150 44t-48 122q0 176 291 197l78 6v43q-1 82 -103 82t-102 -55v-27h-131q-2 14 -2 43q0 68 64 110q65 42 175 42q244 0 244 -195v-397z" />
    <glyph glyph-name="guillemotleft" unicode="&#xab;" horiz-adv-x="1075" 
d="M469 553l389 457l131 -95l-272 -364l274 -363l-133 -92zM49 553l389 457l131 -95l-272 -364l274 -363l-133 -92z" />
    <glyph glyph-name="logicalnot" unicode="&#xac;" 
d="M72 633v178h977v-567h-197v389h-780z" />
    <glyph glyph-name="uni00AD" unicode="&#xad;" horiz-adv-x="796" 
d="M119 641h559v-176h-559v176z" />
    <glyph glyph-name="registered" unicode="&#xae;" horiz-adv-x="1679" 
d="M252 687q0 -267 165 -431t424 -164t423 164t164 431t-164 430t-424 163t-424 -163t-164 -430zM842 1434q324 0 534 -209t211 -537q0 -328 -212 -538q-213 -210 -535 -211t-535 211t-213 539t213 536t537 209zM535 279v808h305q311 0 311 -233q0 -84 -54 -143t-151 -80
l223 -352h-172l-204 333h-105v-333h-153zM999 850q0 47 -35 82q-36 35 -116 35h-160v-234h150q84 0 123 35q38 35 38 82z" />
    <glyph glyph-name="macron" unicode="&#xaf;" horiz-adv-x="1228" 
d="M317 1325h594v-168h-594v168z" />
    <glyph glyph-name="degree" unicode="&#xb0;" horiz-adv-x="714" 
d="M355 1284q-73 0 -113 -48t-39 -117q0 -69 40 -115q41 -46 113 -48q72 0 113 48t41 116t-41 116t-114 48zM639 1119q0 -119 -77 -201t-207 -82q-129 0 -203 82t-74 201q0 120 74 203t204 83t206 -83q77 -83 77 -203z" />
    <glyph glyph-name="plusminus" unicode="&#xb1;" 
d="M84 61v177h977v-177h-977zM84 743v177h387v403h197v-403h393v-177h-393v-327h-197v327h-387z" />
    <glyph glyph-name="twosuperior" unicode="&#xb2;" horiz-adv-x="649" 
d="M55 1384q1 112 67 176t189 64t195 -63t72 -147t-42 -145q-42 -62 -120 -139l-140 -129h308v-120h-514v102l241 238q106 100 107 178q0 45 -27 74t-74 28q-106 0 -106 -117h-156z" />
    <glyph glyph-name="threesuperior" unicode="&#xb3;" horiz-adv-x="675" 
d="M608 1063q0 -80 -77 -138q-77 -59 -209 -59t-199 56q-68 56 -68 151h154q0 -39 32 -61t86 -21q54 0 88 25q34 24 34 70t-38 75t-110 29h-76v121h76q135 0 135 98q0 41 -28 66q-29 25 -80 25t-79 -24q-28 -22 -28 -57h-158q0 91 67 147t194 56q126 0 200 -56t74 -149
q0 -59 -39 -105t-98 -61q63 -14 105 -61t42 -127z" />
    <glyph glyph-name="acute" unicode="&#xb4;" horiz-adv-x="1228" 
d="M584 1425h213l-179 -327h-186z" />
    <glyph glyph-name="mu" unicode="&#xb5;" horiz-adv-x="1064" 
d="M330 -442h-207v1376h207v-588q4 -90 47 -133t143 -43q137 0 217 88v676h207v-934h-201v109q-90 -129 -297 -129q-55 0 -116 14v-436z" />
    <glyph glyph-name="paragraph" unicode="&#xb6;" horiz-adv-x="1060" 
d="M758 -63v997h186v-959q0 -100 -16 -174q-16 -75 -70 -147t-151 -119l-111 131q86 50 124 110t38 161zM416 934h229v-985h-184v368q-207 0 -303 75q-96 74 -96 226t88 234t266 82z" />
    <glyph glyph-name="periodcentered" unicode="&#xb7;" horiz-adv-x="512" 
d="M257 414q-67 0 -110 41t-43 105t43 105q43 42 110 42t110 -43q43 -44 43 -106t-43 -103t-110 -41z" />
    <glyph glyph-name="cedilla" unicode="&#xb8;" horiz-adv-x="1228" 
d="M840 -268q0 -78 -60 -126t-162 -48q-100 0 -190 47v135q84 -62 166 -62t82 56t-101 55h-79l-11 12l74 213l129 -14l-41 -102q193 0 193 -166z" />
    <glyph glyph-name="onesuperior" unicode="&#xb9;" horiz-adv-x="501" 
d="M403 879h-155v591l-203 -73l-39 114l262 101h135v-733z" />
    <glyph glyph-name="ordmasculine" unicode="&#xba;" horiz-adv-x="733" 
d="M367 829q131 1 131 177t-131 176t-131 -176t131 -177zM368 1309q142 0 212 -83t70 -220t-70 -221q-70 -83 -213 -83t-213 83t-70 221t71 220q71 83 213 83z" />
    <glyph glyph-name="guillemotright" unicode="&#xbb;" horiz-adv-x="1075" 
d="M217 1010l389 -457l-389 -457l-133 92l274 363l-272 364zM637 1010l389 -457l-389 -457l-133 92l274 363l-272 364z" />
    <glyph glyph-name="onequarter" unicode="&#xbc;" horiz-adv-x="1490" 
d="M455 651h-156v592l-203 -74l-39 115l262 100h136v-733zM1249 1384l-829 -1384h-168l823 1384h174zM1167 262v275l-202 -275h202zM1415 262v-121h-92v-141h-156v141h-364v107l356 485h164v-471h92z" />
    <glyph glyph-name="onehalf" unicode="&#xbd;" horiz-adv-x="1560" 
d="M455 651h-156v592l-203 -74l-39 115l262 100h136v-733zM944 504q0 111 66 175t190 64q123 0 195 -63t71 -162q0 -68 -42 -130t-119 -138l-140 -129h308v-121h-515v102l242 238q106 100 107 178q0 45 -27 74t-74 29q-106 0 -106 -117h-156zM1249 1384l-829 -1384h-168
l823 1384h174z" />
    <glyph glyph-name="threequarters" unicode="&#xbe;" horiz-adv-x="1556" 
d="M1239 262v275l-203 -275h203zM1487 262v-121h-92v-141h-156v141h-365v107l357 485h164v-471h92zM1323 1384l-829 -1384h-168l823 1384h174zM635 836q0 -80 -77 -138t-209 -59q-131 0 -199 56t-68 151h154q0 -39 32 -61q32 -21 85 -21q54 0 88 24t34 71q0 46 -38 75
t-109 29h-76v120h76q135 0 135 99q0 42 -29 66t-80 24t-79 -23t-27 -57h-158q0 90 67 146t193 56t201 -56q74 -56 74 -148q0 -59 -39 -106q-40 -46 -99 -60q63 -14 105 -61t43 -127z" />
    <glyph glyph-name="questiondown" unicode="&#xbf;" horiz-adv-x="907" 
d="M472 -463q-188 1 -298 101t-108 250q0 150 109 269q46 50 92 97q110 112 110 240h211q0 -106 -49 -196t-107 -144q-58 -53 -108 -122q-50 -70 -50 -138t50 -117t138 -49q87 0 137 45t50 112l201 -18q0 -143 -94 -237q-96 -93 -284 -93zM484 954q62 0 102 -39t41 -98
q0 -59 -40 -99q-41 -40 -103 -40t-103 40t-41 99t41 98t103 39z" />
    <glyph glyph-name="Agrave" unicode="&#xc0;" horiz-adv-x="1261" 
d="M360 1843h213l152 -327h-186zM631 1155l-211 -631h422zM1012 0l-113 338h-539l-112 -338h-238l490 1384h260l491 -1384h-239z" />
    <glyph glyph-name="Aacute" unicode="&#xc1;" horiz-adv-x="1261" 
d="M684 1843h213l-178 -327h-187zM631 1155l-211 -631h422zM1012 0l-113 338h-539l-112 -338h-238l490 1384h260l491 -1384h-239z" />
    <glyph glyph-name="Acircumflex" unicode="&#xc2;" horiz-adv-x="1261" 
d="M530 1843h205l207 -327h-186l-123 194l-125 -194h-186zM631 1155l-211 -631h422zM1012 0l-113 338h-539l-112 -338h-238l490 1384h260l491 -1384h-239z" />
    <glyph glyph-name="Atilde" unicode="&#xc3;" horiz-adv-x="1261" 
d="M790 1632q-60 0 -156 -41q-95 -41 -171 -41t-127 47l8 156q52 -51 116 -51t156 41t166 41t148 -47l-8 -156q-72 51 -132 51zM631 1155l-211 -631h422zM1012 0l-113 338h-539l-112 -338h-238l490 1384h260l491 -1384h-239z" />
    <glyph glyph-name="Adieresis" unicode="&#xc4;" horiz-adv-x="1261" 
d="M827 1532q-133 0 -133 129q0 67 37 99t93 32t96 -34t38 -97q0 -63 -38 -96t-93 -33zM438 1532q-131 0 -131 129q0 67 36 99t92 32t95 -34t39 -97t-38 -96t-93 -33zM631 1155l-211 -631h422zM1012 0l-113 338h-539l-112 -338h-238l490 1384h260l491 -1384h-239z" />
    <glyph glyph-name="Aring" unicode="&#xc5;" horiz-adv-x="1261" 
d="M535 1661q-1 -39 25 -65t70 -26t70 26t25 65q0 39 -26 65q-25 26 -69 25q-44 1 -70 -25t-25 -65zM414 1663q0 84 57 141q57 58 159 58t162 -58q58 -58 58 -141q0 -84 -58 -142q-58 -59 -160 -59t-160 58t-58 143zM631 1155l-211 -631h422zM1012 0l-113 338h-539
l-112 -338h-238l490 1384h260l491 -1384h-239z" />
    <glyph glyph-name="AE" unicode="&#xc6;" horiz-adv-x="1931" 
d="M1837 1384v-184h-641v-405h561v-185h-561v-434h647v-176h-870v340h-522l-222 -340h-239l913 1384h934zM973 520v651l-412 -651h412z" />
    <glyph glyph-name="Ccedilla" unicode="&#xc7;" horiz-adv-x="1204" 
d="M326 690q0 -244 89 -381t275 -137q92 0 168 47t115 123l172 -111q-129 -231 -420 -249l-33 -84q193 0 193 -166q-1 -78 -61 -126t-160 -48t-191 47v135q84 -62 166 -62t82 56t-100 55h-80l-11 12l64 183q-248 27 -374 211q-126 185 -126 511t148 512t440 187
q322 0 463 -252l-172 -111q-39 76 -115 123t-168 47q-364 0 -364 -522z" />
    <glyph glyph-name="Egrave" unicode="&#xc8;" horiz-adv-x="1110" 
d="M332 1843h213l151 -327h-186zM375 184h647v-184h-870v1384h864v-184h-641v-405h561v-185h-561v-426z" />
    <glyph glyph-name="Eacute" unicode="&#xc9;" horiz-adv-x="1110" 
d="M639 1843h213l-178 -327h-187zM375 184h647v-184h-870v1384h864v-184h-641v-405h561v-185h-561v-426z" />
    <glyph glyph-name="Ecircumflex" unicode="&#xca;" horiz-adv-x="1110" 
d="M485 1843h205l207 -327h-186l-123 194l-125 -194h-187zM375 184h647v-184h-870v1384h864v-184h-641v-405h561v-185h-561v-426z" />
    <glyph glyph-name="Edieresis" unicode="&#xcb;" horiz-adv-x="1110" 
d="M782 1532q-133 0 -133 129q0 67 37 99t93 32t95 -34t39 -97t-38 -96t-93 -33zM393 1532q-131 0 -131 129q0 67 36 99t92 32t95 -34t39 -97t-38 -96t-93 -33zM375 184h647v-184h-870v1384h864v-184h-641v-405h561v-185h-561v-426z" />
    <glyph glyph-name="Igrave" unicode="&#xcc;" horiz-adv-x="528" 
d="M-6 1843h213l151 -327h-186zM152 0v1384h223v-1384h-223z" />
    <glyph glyph-name="Iacute" unicode="&#xcd;" horiz-adv-x="528" 
d="M324 1843h213l-179 -327h-186zM152 0v1384h223v-1384h-223z" />
    <glyph glyph-name="Icircumflex" unicode="&#xce;" horiz-adv-x="528" 
d="M160 1843h205l206 -327h-186l-123 194l-125 -194h-186zM152 0v1384h223v-1384h-223z" />
    <glyph glyph-name="Idieresis" unicode="&#xcf;" horiz-adv-x="528" 
d="M459 1532q-133 0 -133 129q0 67 36 99t94 32q56 0 95 -34t39 -97t-38 -96t-93 -33zM70 1532q-131 0 -131 129q-1 67 35 99t92 32t96 -34q39 -34 39 -97t-38 -96t-93 -33zM152 0v1384h223v-1384h-223z" />
    <glyph glyph-name="Eth" unicode="&#xd0;" horiz-adv-x="1351" 
d="M391 184h178q258 0 358 113q99 113 99 393t-99 396q-99 114 -358 114h-178v-420h232v-149h-232v-447zM39 780h129v604h414q356 0 515 -164t159 -526q0 -364 -160 -529q-158 -165 -514 -165h-414v631h-129v149z" />
    <glyph glyph-name="Ntilde" unicode="&#xd1;" horiz-adv-x="1390" 
d="M855 1632q-59 0 -155 -41t-172 -41t-127 47l9 156q52 -51 116 -51t156 41t166 41t147 -47l-8 -156q-72 51 -132 51zM1018 1384h221v-1384h-231l-633 1030l2 -1030h-225v1384h237l629 -1019v1019z" />
    <glyph glyph-name="Ograve" unicode="&#xd2;" horiz-adv-x="1345" 
d="M414 1843h213l151 -327h-186zM670 -20q-299 0 -438 191q-138 191 -138 520t139 521t446 193q307 0 441 -205q129 -192 129 -515t-140 -514t-439 -191zM326 689q0 -251 76 -384t270 -133q192 0 270 134t78 385t-78 386t-267 135t-269 -136t-80 -387z" />
    <glyph glyph-name="Oacute" unicode="&#xd3;" horiz-adv-x="1345" 
d="M729 1843h213l-178 -327h-186zM670 -20q-299 0 -438 191q-138 191 -138 520t139 521t446 193q307 0 441 -205q129 -192 129 -515t-140 -514t-439 -191zM326 689q0 -251 76 -384t270 -133q192 0 270 134t78 385t-78 386t-267 135t-269 -136t-80 -387z" />
    <glyph glyph-name="Ocircumflex" unicode="&#xd4;" horiz-adv-x="1345" 
d="M571 1843h205l207 -327h-186l-123 194l-125 -194h-187zM670 -20q-299 0 -438 191q-138 191 -138 520t139 521t446 193q307 0 441 -205q129 -192 129 -515t-140 -514t-439 -191zM326 689q0 -251 76 -384t270 -133q192 0 270 134t78 385t-78 386t-267 135t-269 -136
t-80 -387z" />
    <glyph glyph-name="Otilde" unicode="&#xd5;" horiz-adv-x="1345" 
d="M830 1632q-60 0 -155 -41t-171 -41t-127 47l8 156q51 -51 115 -51t157 41q92 41 166 41t148 -47l-8 -156q-73 51 -133 51zM670 -20q-299 0 -438 191q-138 191 -138 520t139 521t446 193q307 0 441 -205q129 -192 129 -515t-140 -514t-439 -191zM326 689q0 -251 76 -384
t270 -133q192 0 270 134t78 385t-78 386t-267 135t-269 -136t-80 -387z" />
    <glyph glyph-name="Odieresis" unicode="&#xd6;" horiz-adv-x="1345" 
d="M868 1532q-133 0 -133 129q0 67 37 99t93 32q55 0 95 -34t40 -97t-39 -96q-38 -33 -93 -33zM479 1532q-131 0 -131 129q0 67 36 99t92 32t95 -34t39 -97t-38 -96t-93 -33zM670 -20q-299 0 -438 191q-138 191 -138 520t139 521t446 193q307 0 441 -205q129 -192 129 -515
t-140 -514t-439 -191zM326 689q0 -251 76 -384t270 -133q192 0 270 134t78 385t-78 386t-267 135t-269 -136t-80 -387z" />
    <glyph glyph-name="multiply" unicode="&#xd7;" 
d="M250 98l-129 131l317 318l-325 325l135 140l327 -328l322 322l131 -129l-323 -322l327 -328l-137 -137l-326 328z" />
    <glyph glyph-name="Oslash" unicode="&#xd8;" horiz-adv-x="1349" 
d="M1022 690q0 166 -33 283l-547 -717q80 -84 230 -84q194 0 272 134t78 384zM328 690q0 -178 34 -291l549 721q-82 92 -235 92q-188 0 -268 -136t-80 -386zM1251 678q0 -316 -140 -507t-439 -191q-221 0 -359 108l-67 -88h-187l154 201q-117 179 -117 499t140 512t440 193
q227 0 364 -115l72 94h191l-162 -213q110 -177 110 -493z" />
    <glyph glyph-name="Ugrave" unicode="&#xd9;" horiz-adv-x="1325" 
d="M395 1843h213l152 -327h-187zM1186 522q0 -278 -140 -410t-383 -132t-382 132t-140 410v862h224v-860q-1 -182 73 -267t226 -85t226 85t73 267v860h223v-862z" />
    <glyph glyph-name="Uacute" unicode="&#xda;" horiz-adv-x="1325" 
d="M719 1843h213l-178 -327h-187zM1186 522q0 -278 -140 -410t-383 -132t-382 132t-140 410v862h224v-860q-1 -182 73 -267t226 -85t226 85t73 267v860h223v-862z" />
    <glyph glyph-name="Ucircumflex" unicode="&#xdb;" horiz-adv-x="1325" 
d="M559 1843h205l207 -327h-187l-122 194l-125 -194h-187zM1186 522q0 -278 -140 -410t-383 -132t-382 132t-140 410v862h224v-860q-1 -182 73 -267t226 -85t226 85t73 267v860h223v-862z" />
    <glyph glyph-name="Udieresis" unicode="&#xdc;" horiz-adv-x="1325" 
d="M858 1532q-133 0 -133 129q0 67 37 99t93 32t95 -34t39 -97t-38 -96t-93 -33zM469 1532q-131 0 -131 129q0 67 36 99t92 32t95 -34t39 -97t-38 -96t-93 -33zM1186 522q0 -278 -140 -410t-383 -132t-382 132t-140 410v862h224v-860q-1 -182 73 -267t226 -85t226 85t73 267
v860h223v-862z" />
    <glyph glyph-name="Yacute" unicode="&#xdd;" horiz-adv-x="1193" 
d="M651 1843h213l-178 -327h-186zM709 0h-224v545l-471 839h246l338 -636l334 636h248l-471 -839v-545z" />
    <glyph glyph-name="Thorn" unicode="&#xde;" horiz-adv-x="1163" 
d="M375 942v-491h225q266 -1 266 245t-266 246h-225zM614 266h-239v-266h-223v1386h223v-260h239q238 0 361 -112t123 -318t-123 -318t-361 -112z" />
    <glyph glyph-name="germandbls" unicode="&#xdf;" horiz-adv-x="1134" 
d="M125 0v995q0 207 97 323t293 116t295 -100t99 -249q0 -111 -126 -273q-42 -54 -42 -83q0 -49 93 -113l73 -51q176 -119 176 -291q0 -131 -93 -214q-92 -83 -236 -83t-262 60l61 164q90 -55 164 -55q75 0 115 36q40 37 40 92q0 92 -104 162l-84 58q-57 40 -84 64
q-70 60 -70 158q0 56 84 168t84 192t-50 127q-50 48 -150 48t-137 -62q-38 -62 -37 -183v-1006h-199z" />
    <glyph glyph-name="agrave" unicode="&#xe0;" horiz-adv-x="964" 
d="M242 1425h213l151 -327h-186zM281 258q0 -119 135 -119t227 97v200l-129 -18q-233 -33 -233 -160zM848 0h-193v113q-119 -135 -305 -136q-129 0 -205 73t-75 196q0 274 442 307l131 14v74q0 74 -39 111t-133 36q-170 0 -170 -100v-45h-180q-4 41 -4 64q0 111 97 179
t270 68t269 -77q95 -78 95 -234v-643z" />
    <glyph glyph-name="aacute" unicode="&#xe1;" horiz-adv-x="964" 
d="M551 1425h213l-178 -327h-187zM281 258q0 -119 135 -119t227 97v200l-129 -18q-233 -33 -233 -160zM848 0h-193v113q-119 -135 -305 -136q-129 0 -205 73t-75 196q0 274 442 307l131 14v74q0 74 -39 111t-133 36q-170 0 -170 -100v-45h-180q-4 41 -4 64q0 111 97 179
t270 68t269 -77q95 -78 95 -234v-643z" />
    <glyph glyph-name="acircumflex" unicode="&#xe2;" horiz-adv-x="964" 
d="M393 1425h205l207 -327h-187l-122 194l-125 -194h-187zM281 258q0 -119 135 -119t227 97v200l-129 -18q-233 -33 -233 -160zM848 0h-193v113q-119 -135 -305 -136q-129 0 -205 73t-75 196q0 274 442 307l131 14v74q0 74 -39 111t-133 36q-170 0 -170 -100v-45h-180
q-4 41 -4 64q0 111 97 179t270 68t269 -77q95 -78 95 -234v-643z" />
    <glyph glyph-name="atilde" unicode="&#xe3;" horiz-adv-x="964" 
d="M654 1214q-60 0 -155 -40t-171 -41q-76 0 -127 47l8 155q51 -51 115 -51t157 41q92 41 166 41t148 -47l-9 -156q-72 51 -132 51zM281 258q0 -119 135 -119t227 97v200l-129 -18q-233 -33 -233 -160zM848 0h-193v113q-119 -135 -305 -136q-129 0 -205 73t-75 196
q0 274 442 307l131 14v74q0 74 -39 111t-133 36q-170 0 -170 -100v-45h-180q-4 41 -4 64q0 111 97 179t270 68t269 -77q95 -78 95 -234v-643z" />
    <glyph glyph-name="adieresis" unicode="&#xe4;" horiz-adv-x="964" 
d="M692 1114q-133 0 -133 129q0 67 37 99t93 32t95 -34t39 -97t-38 -96t-93 -33zM303 1114q-131 0 -131 129q0 67 36 99t92 32t95 -34t39 -97t-38 -96t-93 -33zM281 258q0 -119 135 -119t227 97v200l-129 -18q-233 -33 -233 -160zM848 0h-193v113q-119 -135 -305 -136
q-129 0 -205 73t-75 196q0 274 442 307l131 14v74q0 74 -39 111t-133 36q-170 0 -170 -100v-45h-180q-4 41 -4 64q0 111 97 179t270 68t269 -77q95 -78 95 -234v-643z" />
    <glyph glyph-name="aring" unicode="&#xe5;" horiz-adv-x="964" 
d="M401 1272q0 -39 26 -65q26 -25 70 -25q43 0 69 26t26 64t-26 64t-70 26t-69 -26q-26 -26 -26 -64zM281 1274q0 84 57 141q58 57 160 57t160 -56q58 -58 58 -142t-58 -142t-160 -58t-160 58t-57 142zM281 258q0 -119 135 -119t227 97v200l-129 -18q-233 -33 -233 -160z
M848 0h-193v113q-119 -135 -305 -136q-129 0 -205 73t-75 196q0 274 442 307l131 14v74q0 74 -39 111t-133 36q-170 0 -170 -100v-45h-180q-4 41 -4 64q0 111 97 179t270 68t269 -77q95 -78 95 -234v-643z" />
    <glyph glyph-name="ae" unicode="&#xe6;" horiz-adv-x="1527" 
d="M1257 588q0 92 -52 145t-138 53q-197 0 -215 -233h403q2 12 2 35zM279 258q0 -119 135 -119t227 97v200l-127 -18q-119 -16 -177 -54t-58 -106zM1090 -23q-238 0 -349 156q-137 -156 -366 -156q-145 0 -225 72t-80 197q0 274 440 307l131 14v74q0 74 -38 111
q-38 36 -127 36t-132 -28t-43 -72v-45h-180q-6 31 -6 64q0 111 97 179t269 68q217 0 299 -125q102 125 291 125t284 -116t95 -283q0 -94 -12 -154h-586q8 -245 238 -245q141 0 241 92l99 -135q-52 -57 -144 -97t-196 -39z" />
    <glyph glyph-name="ccedilla" unicode="&#xe7;" horiz-adv-x="917" 
d="M80 477q0 205 105 341t319 136q260 0 362 -198l-147 -105q-68 121 -201 121q-227 0 -227 -305t227 -305q133 0 203 119l145 -105q-88 -178 -311 -196l-33 -82q193 0 193 -166q-1 -78 -61 -126t-160 -48t-191 47v135q84 -62 166 -62t82 56t-100 55h-80l-11 12l62 183
q-172 24 -257 156t-85 337z" />
    <glyph glyph-name="egrave" unicode="&#xe8;" horiz-adv-x="964" 
d="M256 1425h213l152 -327h-187zM694 588q0 92 -52 145t-138 53q-201 0 -215 -233h403q2 12 2 35zM524 -23q-225 1 -335 133q-109 132 -109 351t109 356q110 137 309 137t294 -116t95 -283q0 -98 -15 -154h-583q8 -245 235 -245q139 0 244 92l98 -135q-53 -57 -145 -97
t-197 -39z" />
    <glyph glyph-name="eacute" unicode="&#xe9;" horiz-adv-x="964" 
d="M551 1425h213l-178 -327h-187zM694 588q0 92 -52 145t-138 53q-201 0 -215 -233h403q2 12 2 35zM524 -23q-225 1 -335 133q-109 132 -109 351t109 356q110 137 309 137t294 -116t95 -283q0 -98 -15 -154h-583q8 -245 235 -245q139 0 244 92l98 -135q-53 -57 -145 -97
t-197 -39z" />
    <glyph glyph-name="ecircumflex" unicode="&#xea;" horiz-adv-x="964" 
d="M406 1425h204l207 -327h-186l-123 194l-125 -194h-186zM694 588q0 92 -52 145t-138 53q-201 0 -215 -233h403q2 12 2 35zM524 -23q-225 1 -335 133q-109 132 -109 351t109 356q110 137 309 137t294 -116t95 -283q0 -98 -15 -154h-583q8 -245 235 -245q139 0 244 92
l98 -135q-53 -57 -145 -97t-197 -39z" />
    <glyph glyph-name="edieresis" unicode="&#xeb;" horiz-adv-x="964" 
d="M707 1114q-133 0 -134 129q0 67 37 99q38 32 94 32t95 -34t39 -97t-38 -96t-93 -33zM317 1114q-131 0 -131 129q0 67 36 99t92 32t96 -34t39 -97t-39 -96t-93 -33zM694 588q0 92 -52 145t-138 53q-201 0 -215 -233h403q2 12 2 35zM524 -23q-225 1 -335 133
q-109 132 -109 351t109 356q110 137 309 137t294 -116t95 -283q0 -98 -15 -154h-583q8 -245 235 -245q139 0 244 92l98 -135q-53 -57 -145 -97t-197 -39z" />
    <glyph glyph-name="igrave" unicode="&#xec;" horiz-adv-x="456" 
d="M-29 1425h213l152 -327h-186zM127 0v934h205v-934h-205z" />
    <glyph glyph-name="iacute" unicode="&#xed;" horiz-adv-x="456" 
d="M272 1425h213l-178 -327h-186zM125 0v934h205v-934h-205z" />
    <glyph glyph-name="icircumflex" unicode="&#xee;" horiz-adv-x="458" 
d="M129 1425h205l207 -327h-187l-123 194l-125 -194h-186zM127 0v934h205v-934h-205z" />
    <glyph glyph-name="idieresis" unicode="&#xef;" horiz-adv-x="458" 
d="M424 1114q-133 0 -133 129q0 67 37 99t93 32t95 -34t39 -97t-38 -96t-93 -33zM35 1114q-131 0 -131 129q0 67 36 99t92 32t95 -34t39 -97t-38 -96t-93 -33zM127 0v934h205v-934h-205z" />
    <glyph glyph-name="eth" unicode="&#xf0;" horiz-adv-x="1075" 
d="M285 443q0 -129 58 -207t182 -78t183 106q58 106 62 271q-82 186 -256 186q-115 0 -172 -75t-57 -203zM80 446q0 214 106 342t304 127q198 0 294 -172q-2 162 -92 334l-155 -69l-56 131l140 59q-82 119 -193 215h252q57 -51 119 -137l129 55l53 -127l-111 -49
q115 -236 115 -510t-100 -463q-51 -96 -145 -150t-218 -55q-218 0 -330 128q-112 127 -112 341z" />
    <glyph glyph-name="ntilde" unicode="&#xf1;" horiz-adv-x="1060" 
d="M697 1214q-60 0 -155 -40t-171 -41q-76 0 -127 47l8 155q50 -51 116 -51t156 41t165 41t149 -47l-9 -156q-72 51 -132 51zM125 0v934h199v-109q94 129 297 129q324 0 323 -364v-590h-205v569q0 99 -44 147q-45 48 -165 48t-200 -88v-676h-205z" />
    <glyph glyph-name="ograve" unicode="&#xf2;" horiz-adv-x="1024" 
d="M262 1425h213l152 -327h-187zM512 164q221 0 221 302t-221 302t-221 -302t221 -302zM512 954q215 0 323 -133q107 -133 107 -355t-108 -355t-323 -133q-214 0 -323 134q-108 134 -108 355t108 354q109 133 324 133z" />
    <glyph glyph-name="oacute" unicode="&#xf3;" horiz-adv-x="1024" 
d="M559 1425h213l-178 -327h-186zM512 164q221 0 221 302t-221 302t-221 -302t221 -302zM512 954q215 0 323 -133q107 -133 107 -355t-108 -355t-323 -133q-214 0 -323 134q-108 134 -108 355t108 354q109 133 324 133z" />
    <glyph glyph-name="ocircumflex" unicode="&#xf4;" horiz-adv-x="1024" 
d="M412 1425h204l207 -327h-186l-123 194l-125 -194h-186zM512 164q221 0 221 302t-221 302t-221 -302t221 -302zM512 954q215 0 323 -133q107 -133 107 -355t-108 -355t-323 -133q-214 0 -323 134q-108 134 -108 355t108 354q109 133 324 133z" />
    <glyph glyph-name="otilde" unicode="&#xf5;" horiz-adv-x="1024" 
d="M675 1214q-59 0 -155 -40t-172 -41q-76 0 -127 47l8 155q51 -51 115 -51t158 41q92 41 166 41t147 -47l-8 -156q-72 51 -132 51zM512 164q221 0 221 302t-221 302t-221 -302t221 -302zM512 954q215 0 323 -133q107 -133 107 -355t-108 -355t-323 -133q-214 0 -323 134
q-108 134 -108 355t108 354q109 133 324 133z" />
    <glyph glyph-name="odieresis" unicode="&#xf6;" horiz-adv-x="1024" 
d="M709 1114q-133 0 -134 129q0 67 37 99q38 32 94 32t95 -34t39 -97t-38 -96t-93 -33zM319 1114q-131 0 -131 129q0 67 36 99t92 32t96 -34t39 -97t-39 -96t-93 -33zM512 164q221 0 221 302t-221 302t-221 -302t221 -302zM512 954q215 0 323 -133q107 -133 107 -355
t-108 -355t-323 -133q-214 0 -323 134q-108 134 -108 355t108 354q109 133 324 133z" />
    <glyph glyph-name="divide" unicode="&#xf7;" 
d="M721 927q0 -59 -41 -99t-103 -40t-103 39q-40 39 -40 99t40 100q40 39 102 39t104 -39q41 -39 41 -99zM577 39q-62 0 -103 40q-40 40 -40 99t40 98t102 39t104 -39q41 -39 41 -98t-41 -99t-103 -40zM84 465v176h977v-176h-977z" />
    <glyph glyph-name="oslash" unicode="&#xf8;" horiz-adv-x="1024" 
d="M510 164q223 0 223 301q0 92 -20 153l-326 -421q47 -33 123 -33zM291 469q0 -98 20 -162l326 426q-51 35 -127 35q-219 0 -219 -299zM514 954q139 0 242 -65l35 45h165l-104 -135q90 -127 90 -341t-108 -347t-328 -134q-141 0 -240 64l-30 -41h-160l98 129
q-94 127 -94 343t108 349q109 133 326 133z" />
    <glyph glyph-name="ugrave" unicode="&#xf9;" horiz-adv-x="1060" 
d="M936 934v-934h-199v109q-94 -129 -297 -129q-324 0 -323 364v590h205v-569q0 -99 44 -147t164 -48t201 88v676h205zM270 1425h213l152 -327h-186z" />
    <glyph glyph-name="uacute" unicode="&#xfa;" horiz-adv-x="1060" 
d="M936 934v-934h-199v109q-94 -129 -297 -129q-324 0 -323 364v590h205v-569q0 -99 44 -147t164 -48t201 88v676h205zM578 1425h213l-179 -327h-186z" />
    <glyph glyph-name="ucircumflex" unicode="&#xfb;" horiz-adv-x="1060" 
d="M936 934v-934h-199v109q-94 -129 -297 -129q-324 0 -323 364v590h205v-569q0 -99 44 -147t164 -48t201 88v676h205zM420 1425h205l206 -327h-186l-123 194l-125 -194h-186z" />
    <glyph glyph-name="udieresis" unicode="&#xfc;" horiz-adv-x="1060" 
d="M936 934v-934h-199v109q-94 -129 -297 -129q-324 0 -323 364v590h205v-569q0 -99 44 -147t164 -48t201 88v676h205zM723 1114q-133 0 -133 129q0 67 37 99t93 32t95 -34t39 -97t-38 -96t-93 -33zM334 1114q-131 0 -131 129q0 67 36 99t92 32t95 -34t39 -97t-38 -96
t-93 -33z" />
    <glyph glyph-name="yacute" unicode="&#xfd;" horiz-adv-x="993" 
d="M567 1425h213l-178 -327h-186zM252 934l258 -645l238 645h223l-559 -1376h-211l207 491l-390 885h234z" />
    <glyph glyph-name="thorn" unicode="&#xfe;" horiz-adv-x="1064" 
d="M537 168q235 0 235 298t-233 298q-139 0 -209 -88v-420q80 -88 207 -88zM330 -442h-205v1824h205v-526q94 98 272 98t280 -129t101 -360q0 -231 -101 -359q-102 -128 -280 -128t-272 98v-518z" />
    <glyph glyph-name="ydieresis" unicode="&#xff;" horiz-adv-x="993" 
d="M702 1114q-133 0 -133 129q0 67 37 99t93 32q55 0 95 -34t40 -97t-38 -96t-94 -33zM313 1114q-131 0 -131 129q0 67 36 99t92 32t96 -34t38 -97q0 -63 -38 -96t-93 -33zM252 934l258 -645l238 645h223l-559 -1376h-211l207 491l-390 885h234z" />
    <glyph glyph-name="Amacron" unicode="&#x100;" horiz-adv-x="1261" 
d="M336 1743h594v-168h-594v168zM631 1155l-211 -631h422zM1012 0l-113 338h-539l-112 -338h-238l490 1384h260l491 -1384h-239z" />
    <glyph glyph-name="amacron" unicode="&#x101;" horiz-adv-x="964" 
d="M201 1325h594v-168h-594v168zM281 258q0 -119 135 -119t227 97v200l-129 -18q-233 -33 -233 -160zM848 0h-193v113q-119 -135 -305 -136q-129 0 -205 73t-75 196q0 274 442 307l131 14v74q0 74 -39 111t-133 36q-170 0 -170 -100v-45h-180q-4 41 -4 64q0 111 97 179
t270 68t269 -77q95 -78 95 -234v-643z" />
    <glyph glyph-name="Abreve" unicode="&#x102;" horiz-adv-x="1261" 
d="M930 1823q0 -131 -80 -215t-219 -84t-218 84t-79 215h135q8 -66 51 -107t110 -41t110 41t51 107h139zM631 1155l-211 -631h422zM1012 0l-113 338h-539l-112 -338h-238l490 1384h260l491 -1384h-239z" />
    <glyph glyph-name="abreve" unicode="&#x103;" horiz-adv-x="964" 
d="M793 1405q0 -131 -80 -215t-219 -84t-219 84q-79 84 -78 215h135q8 -66 51 -107t110 -41t109 41t51 107h140zM281 258q0 -119 135 -119t227 97v200l-129 -18q-233 -33 -233 -160zM848 0h-193v113q-119 -135 -305 -136q-129 0 -205 73t-75 196q0 274 442 307l131 14v74
q0 74 -39 111t-133 36q-170 0 -170 -100v-45h-180q-4 41 -4 64q0 111 97 179t270 68t269 -77q95 -78 95 -234v-643z" />
    <glyph glyph-name="Aogonek" unicode="&#x104;" horiz-adv-x="1259" 
d="M629 1155l-211 -631h422zM1038 -202q0 -75 78 -77q59 0 133 54v-170q-86 -47 -191 -47t-168 51q-62 51 -62 149t120 197l60 49l-111 334h-539l-112 -338h-238l490 1384h260l491 -1384l-145 -111q-66 -53 -66 -91z" />
    <glyph glyph-name="aogonek" unicode="&#x105;" horiz-adv-x="964" 
d="M279 258q0 -119 135 -119t227 97v200l-129 -18q-233 -33 -233 -160zM846 0h2l-160 -109q-55 -39 -55 -90q0 -57 64 -57t120 31l10 -140q-49 -27 -103 -33t-87 1q-199 12 -199 161q0 111 109 177l106 67v105q-119 -135 -305 -136q-129 0 -205 73t-75 196q0 274 442 307
l131 14v74q0 74 -39 111t-133 36q-170 0 -170 -100v-45h-180q-4 41 -4 64q0 111 97 179t270 68t269 -77q95 -78 95 -234v-643z" />
    <glyph glyph-name="Cacute" unicode="&#x106;" horiz-adv-x="1202" 
d="M725 1843h213l-178 -327h-187zM326 690q0 -244 89 -381t275 -137q92 0 168 47t115 123l172 -111q-141 -252 -463 -251q-291 0 -439 186t-149 526q0 340 148 526t440 187q322 0 463 -252l-172 -111q-39 76 -115 123t-168 47q-364 0 -364 -522z" />
    <glyph glyph-name="cacute" unicode="&#x107;" horiz-adv-x="917" 
d="M561 1425h213l-178 -327h-186zM504 -23q-212 1 -318 137t-106 352t105 352t319 136q260 0 362 -198l-147 -105q-68 121 -201 121q-227 0 -227 -305t227 -305q133 0 203 119l145 -105q-100 -199 -362 -199z" />
    <glyph glyph-name="Ccircumflex" unicode="&#x108;" horiz-adv-x="1202" 
d="M573 1843h205l207 -327h-186l-123 194l-125 -194h-186zM326 690q0 -244 89 -381t275 -137q92 0 168 47t115 123l172 -111q-141 -252 -463 -251q-291 0 -439 186t-149 526q0 340 148 526t440 187q322 0 463 -252l-172 -111q-39 76 -115 123t-168 47q-364 0 -364 -522z" />
    <glyph glyph-name="ccircumflex" unicode="&#x109;" horiz-adv-x="917" 
d="M412 1425h204l207 -327h-186l-123 194l-125 -194h-186zM504 -23q-212 1 -318 137t-106 352t105 352t319 136q260 0 362 -198l-147 -105q-68 121 -201 121q-227 0 -227 -305t227 -305q133 0 203 119l145 -105q-100 -199 -362 -199z" />
    <glyph glyph-name="Cdotaccent" unicode="&#x10a;" horiz-adv-x="1202" 
d="M676 1532q-133 0 -133 129q0 67 37 99t94 32t95 -34t38 -98t-38 -96t-93 -32zM326 690q0 -244 89 -381t275 -137q92 0 168 47t115 123l172 -111q-141 -252 -463 -251q-291 0 -439 186t-149 526q0 340 148 526t440 187q322 0 463 -252l-172 -111q-39 76 -115 123t-168 47
q-364 0 -364 -522z" />
    <glyph glyph-name="cdotaccent" unicode="&#x10b;" horiz-adv-x="917" 
d="M522 1114q-133 0 -133 129q0 67 37 99t94 32t95 -34t38 -98t-38 -96t-93 -32zM504 -23q-212 1 -318 137t-106 352t105 352t319 136q260 0 362 -198l-147 -105q-68 121 -201 121q-227 0 -227 -305t227 -305q133 0 203 119l145 -105q-100 -199 -362 -199z" />
    <glyph glyph-name="Ccaron" unicode="&#x10c;" horiz-adv-x="1202" 
d="M778 1516h-205l-208 327h186l125 -194l123 194h186zM326 690q0 -244 89 -381t275 -137q92 0 168 47t115 123l172 -111q-141 -252 -463 -251q-291 0 -439 186t-149 526q0 340 148 526t440 187q322 0 463 -252l-172 -111q-39 76 -115 123t-168 47q-364 0 -364 -522z" />
    <glyph glyph-name="ccaron" unicode="&#x10d;" horiz-adv-x="917" 
d="M621 1098h-205l-209 327h186l125 -194l123 194h186zM504 -23q-212 1 -318 137t-106 352t105 352t319 136q260 0 362 -198l-147 -105q-68 121 -201 121q-227 0 -227 -305t227 -305q133 0 203 119l145 -105q-100 -199 -362 -199z" />
    <glyph glyph-name="Dcaron" unicode="&#x10e;" horiz-adv-x="1335" 
d="M709 1516h-205l-209 327h186l125 -194l123 194h186zM375 184h178q258 0 357 113q100 113 100 393t-100 396q-100 114 -357 114h-178v-1016zM152 0v1384h413q356 0 515 -164t159 -526q0 -364 -159 -529t-515 -165h-413z" />
    <glyph glyph-name="dcaron" unicode="&#x10f;" horiz-adv-x="1060" 
d="M1298 1413l-118 -309h-158l53 309h223zM526 764q-233 0 -233 -298t231 -298q135 0 205 88v420q-76 88 -203 88zM729 1413h207v-1413h-197v82q-100 -104 -278 -104t-278 128q-99 128 -99 360t99 360t277 128t269 -98v557z" />
    <glyph glyph-name="Dcroat" unicode="&#x110;" horiz-adv-x="1351" 
d="M391 184h178q258 0 358 113q99 113 99 393t-99 396q-99 114 -358 114h-178v-420h232v-149h-232v-447zM39 780h129v604h414q356 0 515 -164t159 -526q0 -364 -160 -529q-158 -165 -514 -165h-414v631h-129v149z" />
    <glyph glyph-name="dcroat" unicode="&#x111;" horiz-adv-x="1060" 
d="M526 764q-233 0 -233 -298t231 -298q135 0 205 88v420q-76 88 -203 88zM535 1229h194v184h207v-184h129v-150h-129v-1079h-197v82q-100 -104 -278 -104t-278 128q-99 128 -99 360t99 360t277 128t269 -98v223h-194v150z" />
    <glyph glyph-name="Emacron" unicode="&#x112;" horiz-adv-x="1110" 
d="M291 1743h594v-168h-594v168zM375 184h647v-184h-870v1384h864v-184h-641v-405h561v-185h-561v-426z" />
    <glyph glyph-name="emacron" unicode="&#x113;" horiz-adv-x="964" 
d="M213 1325h594v-168h-594v168zM694 588q0 92 -52 145t-138 53q-201 0 -215 -233h403q2 12 2 35zM524 -23q-225 1 -335 133q-109 132 -109 351t109 356q110 137 309 137t294 -116t95 -283q0 -98 -15 -154h-583q8 -245 235 -245q139 0 244 92l98 -135q-53 -57 -145 -97
t-197 -39z" />
    <glyph glyph-name="Ebreve" unicode="&#x114;" horiz-adv-x="1110" 
d="M885 1823q0 -131 -80 -215t-219 -84t-218 84t-79 215h135q8 -66 51 -107t110 -41t109 41t51 107h140zM375 184h647v-184h-870v1384h864v-184h-641v-405h561v-185h-561v-426z" />
    <glyph glyph-name="ebreve" unicode="&#x115;" horiz-adv-x="964" 
d="M803 1405q0 -131 -80 -215t-219 -84t-218 84t-79 215h135q8 -66 51 -107t110 -41t110 41t51 107h139zM694 588q0 92 -52 145t-138 53q-201 0 -215 -233h403q2 12 2 35zM524 -23q-225 1 -335 133q-109 132 -109 351t109 356q110 137 309 137t294 -116t95 -283
q0 -98 -15 -154h-583q8 -245 235 -245q139 0 244 92l98 -135q-53 -57 -145 -97t-197 -39z" />
    <glyph glyph-name="Edotaccent" unicode="&#x116;" horiz-adv-x="1110" 
d="M588 1532q-133 0 -133 129q0 67 37 99t94 32t95 -34t38 -98t-38 -96t-93 -32zM375 184h647v-184h-870v1384h864v-184h-641v-405h561v-185h-561v-426z" />
    <glyph glyph-name="edotaccent" unicode="&#x117;" horiz-adv-x="964" 
d="M520 1114q-133 0 -133 129q0 67 37 99t94 32t95 -34t38 -98t-38 -96t-93 -32zM694 588q0 92 -52 145t-138 53q-201 0 -215 -233h403q2 12 2 35zM524 -23q-225 1 -335 133q-109 132 -109 351t109 356q110 137 309 137t294 -116t95 -283q0 -98 -15 -154h-583
q8 -245 235 -245q139 0 244 92l98 -135q-53 -57 -145 -97t-197 -39z" />
    <glyph glyph-name="Eogonek" unicode="&#x118;" horiz-adv-x="1107" 
d="M811 -202q0 -75 78 -77q59 0 133 54v-170q-86 -47 -192 -47t-167 51q-63 51 -63 149t121 197l55 45h-626v1384h864v-184h-641v-405h561v-185h-561v-426h647v-184h2l-145 -111q-66 -53 -66 -91z" />
    <glyph glyph-name="eogonek" unicode="&#x119;" horiz-adv-x="966" 
d="M694 588q0 92 -52 145t-138 53q-201 0 -215 -233h403q2 12 2 35zM621 -209q1 -69 91 -69q48 0 122 53v-170q-86 -47 -192 -47t-168 51t-62 147t125 221h-13q-225 1 -335 133q-109 132 -109 351t109 356q110 137 309 137t294 -116t95 -283q0 -98 -15 -154h-583
q8 -245 247 -245q127 0 232 92l98 -135h2l-155 -166q-92 -98 -92 -156z" />
    <glyph glyph-name="Ecaron" unicode="&#x11a;" horiz-adv-x="1110" 
d="M690 1516h-205l-209 327h187l125 -194l123 194h186zM375 184h647v-184h-870v1384h864v-184h-641v-405h561v-185h-561v-426z" />
    <glyph glyph-name="ecaron" unicode="&#x11b;" horiz-adv-x="964" 
d="M612 1098h-204l-209 327h186l125 -194l123 194h186zM694 588q0 92 -52 145t-138 53q-201 0 -215 -233h403q2 12 2 35zM524 -23q-225 1 -335 133q-109 132 -109 351t109 356q110 137 309 137t294 -116t95 -283q0 -98 -15 -154h-583q8 -245 235 -245q139 0 244 92l98 -135
q-53 -57 -145 -97t-197 -39z" />
    <glyph glyph-name="Gcircumflex" unicode="&#x11c;" horiz-adv-x="1318" 
d="M602 1843h205l207 -327h-187l-122 194l-125 -194h-187zM700 561v187h535q10 -66 10 -119q0 -289 -135 -469t-423 -180q-289 0 -441 180t-152 532q0 713 625 713q157 0 273 -65t177 -179l-168 -110q-99 161 -297 161t-288 -131t-90 -394t88 -390t268 -127t258 108t78 283
h-318z" />
    <glyph glyph-name="gcircumflex" unicode="&#x11d;" horiz-adv-x="1054" 
d="M442 1425h205l207 -327h-186l-123 194l-125 -194h-187zM522 764q-231 0 -231 -298t231 -298q129 0 201 90v420q-68 86 -201 86zM735 934h195v-997q0 -157 -111 -257t-294 -100t-281 83t-99 212h183q0 -51 52 -90t145 -39t146 48q52 48 52 132v160q-94 -109 -244 -109
q-197 0 -296 128q-99 127 -99 361t101 361t277 127t273 -104v84z" />
    <glyph glyph-name="Gbreve" unicode="&#x11e;" horiz-adv-x="1318" 
d="M1004 1823q0 -131 -80 -215t-220 -84t-218 84q-79 84 -78 215h135q8 -66 51 -107q44 -41 110 -41t109 41t51 107h140zM700 561v187h535q10 -66 10 -119q0 -289 -135 -469t-423 -180q-289 0 -441 180t-152 532q0 713 625 713q157 0 273 -65t177 -179l-168 -110
q-99 161 -297 161t-288 -131t-90 -394t88 -390t268 -127t258 108t78 283h-318z" />
    <glyph glyph-name="gbreve" unicode="&#x11f;" horiz-adv-x="1054" 
d="M838 1405q0 -131 -80 -215t-219 -84t-218 84t-79 215h135q8 -66 51 -107t110 -41q68 0 110 41t50 107h140zM522 764q-231 0 -231 -298t231 -298q129 0 201 90v420q-68 86 -201 86zM735 934h195v-997q0 -157 -111 -257t-294 -100t-281 83t-99 212h183q0 -51 52 -90
t145 -39t146 48q52 48 52 132v160q-94 -109 -244 -109q-197 0 -296 128q-99 127 -99 361t101 361t277 127t273 -104v84z" />
    <glyph glyph-name="Gdotaccent" unicode="&#x120;" horiz-adv-x="1318" 
d="M707 1532q-133 0 -134 129q0 67 37 99q36 32 94 32t96 -34t38 -98t-38 -96t-93 -32zM700 561v187h535q10 -66 10 -119q0 -289 -135 -469t-423 -180q-289 0 -441 180t-152 532q0 713 625 713q157 0 273 -65t177 -179l-168 -110q-99 161 -297 161t-288 -131t-90 -394
t88 -390t268 -127t258 108t78 283h-318z" />
    <glyph glyph-name="gdotaccent" unicode="&#x121;" horiz-adv-x="1054" 
d="M543 1114q-133 0 -133 129q0 67 36 99t94 32t96 -34t38 -98t-38 -96t-93 -32zM522 764q-231 0 -231 -298t231 -298q129 0 201 90v420q-68 86 -201 86zM735 934h195v-997q0 -157 -111 -257t-294 -100t-281 83t-99 212h183q0 -51 52 -90t145 -39t146 48q52 48 52 132v160
q-94 -109 -244 -109q-197 0 -296 128q-99 127 -99 361t101 361t277 127t273 -104v84z" />
    <glyph glyph-name="Gcommaaccent" unicode="&#x122;" horiz-adv-x="1318" 
d="M829 -133l-118 -309h-158l53 309h223zM700 561v187h535q10 -66 10 -119q0 -289 -135 -469t-423 -180q-289 0 -441 180t-152 532q0 713 625 713q157 0 273 -65t177 -179l-168 -110q-99 161 -297 161t-288 -131t-90 -394t88 -390t268 -127t258 108t78 283h-318z" />
    <glyph glyph-name="gcommaaccent" unicode="&#x123;" horiz-adv-x="1054" 
d="M430 1126l121 369h162l-54 -369h-229zM522 764q-231 0 -231 -298t231 -298q129 0 201 90v420q-68 86 -201 86zM735 934h195v-997q0 -157 -111 -257t-294 -100t-281 83t-99 212h183q0 -51 52 -90t145 -39t146 48q52 48 52 132v160q-94 -109 -244 -109q-197 0 -296 128
q-99 127 -99 361t101 361t277 127t273 -104v84z" />
    <glyph glyph-name="Hcircumflex" unicode="&#x124;" horiz-adv-x="1388" 
d="M596 1843h205l207 -327h-187l-123 194l-125 -194h-186zM1016 813v571h221v-1384h-221v629h-641v-629h-223v1384h223v-571h641z" />
    <glyph glyph-name="hcircumflex" unicode="&#x125;" horiz-adv-x="1060" 
d="M446 1825h205l207 -328h-186l-123 195l-125 -195h-186zM125 0v1413h205v-575q109 117 293 116q324 0 323 -364v-590h-207v569q0 99 -43 147q-42 48 -162 48t-204 -88v-676h-205z" />
    <glyph glyph-name="Hbar" unicode="&#x126;" horiz-adv-x="1394" 
d="M1018 813v219h-641v-219h641zM61 1180h93v204h223v-204h641v204h221v-204h102v-148h-102v-1032h-221v629h-641v-629h-223v1032h-93v148z" />
    <glyph glyph-name="hbar" unicode="&#x127;" horiz-adv-x="1062" 
d="M14 1229h113v184h205v-184h213v-150h-213v-241q109 117 293 116q324 0 323 -364v-590h-207v569q0 99 -43 147q-42 48 -162 48t-204 -88v-676h-205v1079h-113v150z" />
    <glyph glyph-name="Itilde" unicode="&#x128;" horiz-adv-x="528" 
d="M419 1632q-59 0 -155 -41t-172 -41t-127 47l8 156q51 -51 117 -51t156 41t164 41t149 -47l-8 -156q-72 51 -132 51zM152 0v1384h223v-1384h-223z" />
    <glyph glyph-name="itilde" unicode="&#x129;" horiz-adv-x="458" 
d="M382 1214q-60 0 -156 -40t-170 -41q-76 0 -128 47l9 155q51 -51 117 -51t156 41t164 41t148 -47l-8 -156q-72 51 -132 51zM127 0v934h205v-934h-205z" />
    <glyph glyph-name="Imacron" unicode="&#x12a;" horiz-adv-x="528" 
d="M-33 1743h594v-168h-594v168zM152 0v1384h223v-1384h-223z" />
    <glyph glyph-name="imacron" unicode="&#x12b;" horiz-adv-x="458" 
d="M-70 1325h594v-168h-594v168zM127 0v934h205v-934h-205z" />
    <glyph glyph-name="Ibreve" unicode="&#x12c;" horiz-adv-x="528" 
d="M561 1823q0 -131 -80 -215t-219 -84t-218 84t-79 215h135q8 -66 52 -107t110 -41t109 41t51 107h139zM152 0v1384h223v-1384h-223z" />
    <glyph glyph-name="ibreve" unicode="&#x12d;" horiz-adv-x="458" 
d="M526 1405q0 -131 -80 -215t-219 -84t-218 84t-79 215h136q8 -66 51 -107t109 -41t110 41q43 41 51 107h139zM127 0v934h205v-934h-205z" />
    <glyph glyph-name="Iogonek" unicode="&#x12e;" horiz-adv-x="528" 
d="M184 -442q-106 0 -169 51q-62 51 -62 149t121 197l78 63v1366h223v-1384l-146 -111q-65 -53 -65 -91q1 -75 78 -77q59 0 133 54v-170q-85 -47 -191 -47z" />
    <glyph glyph-name="iogonek" unicode="&#x12f;" horiz-adv-x="458" 
d="M229 1135q-133 0 -133 129q0 66 37 98t93 33q56 0 96 -34t38 -97q0 -63 -37 -97q-39 -32 -94 -32zM140 -442q-106 0 -168 51t-62 149t121 197l98 80v899h205v-934h-2l-146 -111q-66 -53 -66 -91q1 -75 79 -77q59 0 133 54v-170q-86 -47 -192 -47z" />
    <glyph glyph-name="Idotaccent" unicode="&#x130;" horiz-adv-x="528" 
d="M264 1532q-133 0 -133 129q0 67 37 99t94 32t95 -34t38 -98t-38 -96t-93 -32zM152 0v1384h223v-1384h-223z" />
    <glyph glyph-name="dotlessi" unicode="&#x131;" horiz-adv-x="454" 
d="M125 0v934h205v-934h-205z" />
    <glyph glyph-name="IJ" unicode="&#x132;" horiz-adv-x="1527" 
d="M940 172q117 0 175 72t59 235v905h210v-915q0 -244 -116 -367t-328 -122q-263 0 -369 219l160 104q35 -67 83 -99t126 -32zM150 0v1384h223v-1384h-223z" />
    <glyph glyph-name="ij" unicode="&#x133;" horiz-adv-x="909" 
d="M678 1135q-133 0 -133 129q0 66 37 98t94 33q57 0 96 -34q39 -35 39 -99t-39 -96t-94 -31zM578 -45v979h206v-940q0 -328 -258 -457l-118 135q92 51 131 117t39 166zM225 1135q-133 0 -133 129q0 66 37 98t93 33q56 0 95 -34t39 -97t-38 -96t-93 -33zM125 0v934h205v-934
h-205z" />
    <glyph glyph-name="Jcircumflex" unicode="&#x134;" horiz-adv-x="993" 
d="M645 1843h205l207 -327h-187l-122 194l-125 -194h-187zM406 172q117 0 175 72t58 235v905h211v-915q0 -244 -117 -367t-327 -122q-263 0 -369 219l160 104q35 -67 83 -99t126 -32z" />
    <glyph glyph-name="jcircumflex" unicode="&#x135;" horiz-adv-x="458" 
d="M127 -45v979h207v-940q0 -328 -258 -457l-117 135q92 51 130 117t38 166zM129 1425h205l207 -327h-187l-123 194l-125 -194h-186z" />
    <glyph glyph-name="Kcommaaccent" unicode="&#x136;" horiz-adv-x="1251" 
d="M709 -133l-119 -309h-158l53 309h224zM375 0h-223v1384h223v-647l583 647h271l-510 -571l510 -813h-264l-398 653l-192 -198v-455z" />
    <glyph glyph-name="kcommaaccent" unicode="&#x137;" horiz-adv-x="985" 
d="M635 -133l-119 -309h-158l54 309h223zM330 0h-205v1413h205v-864l391 385h254l-365 -354l355 -580h-232l-268 436l-135 -131v-305z" />
    <glyph glyph-name="kgreenlandic" unicode="&#x138;" horiz-adv-x="987" 
d="M330 0h-205v934h205v-385l389 385h256l-367 -354l357 -580h-234l-266 436l-135 -131v-305z" />
    <glyph glyph-name="Lacute" unicode="&#x139;" horiz-adv-x="980" 
d="M328 1843h213l-179 -327h-186zM375 184h571v-184h-794v1384h223v-1200z" />
    <glyph glyph-name="lacute" unicode="&#x13a;" horiz-adv-x="497" 
d="M279 1825h213l-179 -328h-186zM119 1413h205v-1128q0 -55 18 -79t68 -24h49v-190h-111q-229 0 -229 264v1157z" />
    <glyph glyph-name="Lcommaaccent" unicode="&#x13b;" horiz-adv-x="980" 
d="M662 -133l-119 -309h-158l53 309h224zM375 184h571v-184h-794v1384h223v-1200z" />
    <glyph glyph-name="lcommaaccent" unicode="&#x13c;" horiz-adv-x="497" 
d="M412 -133l-119 -309h-158l53 309h224zM119 1413h205v-1128q0 -55 18 -79t68 -24h49v-190h-111q-229 0 -229 264v1157z" />
    <glyph glyph-name="Lcaron" unicode="&#x13d;" horiz-adv-x="1083" 
d="M1057 1386l-119 -309h-158l54 309h223zM375 184h571v-184h-794v1384h223v-1200z" />
    <glyph glyph-name="lcaron" unicode="&#x13e;" horiz-adv-x="497" 
d="M707 1413l-119 -309h-158l53 309h224zM119 1413h205v-1128q0 -55 18 -79t68 -24h49v-190h-111q-229 0 -229 264v1157z" />
    <glyph glyph-name="Ldot" unicode="&#x13f;" horiz-adv-x="1048" 
d="M790 926q68 0 110 -43t42 -105t-42 -104q-42 -41 -110 -41q-67 0 -110 41q-43 40 -43 104t43 106t110 42zM375 184h571v-184h-794v1384h223v-1200z" />
    <glyph glyph-name="ldot" unicode="&#x140;" horiz-adv-x="790" 
d="M770 755q0 -61 -43 -103t-110 -42t-109 41t-43 105q0 64 43 106q44 42 110 41q66 0 109 -43t43 -105zM119 1413h205v-1128q0 -55 18 -79t68 -24h49v-190h-111q-229 0 -229 264v1157z" />
    <glyph glyph-name="Lslash" unicode="&#x141;" horiz-adv-x="1028" 
d="M422 184h571v-184h-794v518l-160 -69v165l160 70v700h223v-604l184 80v-164l-184 -82v-430z" />
    <glyph glyph-name="lslash" unicode="&#x142;" horiz-adv-x="548" 
d="M367 285q0 -55 19 -79t67 -24h49v-190h-111q-229 0 -229 264v352l-119 -53v164l119 53v641h205v-551l139 64v-164l-139 -64v-413z" />
    <glyph glyph-name="Nacute" unicode="&#x143;" horiz-adv-x="1390" 
d="M748 1843h213l-179 -327h-186zM1018 1384h221v-1384h-231l-633 1030l2 -1030h-225v1384h237l629 -1019v1019z" />
    <glyph glyph-name="nacute" unicode="&#x144;" horiz-adv-x="1060" 
d="M608 1425h213l-178 -327h-186zM125 0v934h199v-109q94 129 297 129q324 0 323 -364v-590h-205v569q0 99 -44 147q-45 48 -165 48t-200 -88v-676h-205z" />
    <glyph glyph-name="Ncommaaccent" unicode="&#x145;" horiz-adv-x="1390" 
d="M821 -133l-119 -309h-157l53 309h223zM1018 1384h221v-1384h-231l-633 1030l2 -1030h-225v1384h237l629 -1019v1019z" />
    <glyph glyph-name="ncommaaccent" unicode="&#x146;" horiz-adv-x="1060" 
d="M649 -133l-119 -309h-157l53 309h223zM125 0v934h199v-109q94 129 297 129q324 0 323 -364v-590h-205v569q0 99 -44 147q-45 48 -165 48t-200 -88v-676h-205z" />
    <glyph glyph-name="Ncaron" unicode="&#x147;" horiz-adv-x="1390" 
d="M801 1516h-205l-209 327h186l125 -194l123 194h187zM1018 1384h221v-1384h-231l-633 1030l2 -1030h-225v1384h237l629 -1019v1019z" />
    <glyph glyph-name="ncaron" unicode="&#x148;" horiz-adv-x="1060" 
d="M639 1098h-205l-209 327h187l125 -194l122 194h187zM125 0v934h199v-109q94 129 297 129q324 0 323 -364v-590h-205v569q0 99 -44 147q-45 48 -165 48t-200 -88v-676h-205z" />
    <glyph glyph-name="napostrophe" unicode="&#x149;" horiz-adv-x="1062" 
d="M213 1427l-119 -309h-157l53 309h223zM127 0v934h199v-109q94 129 297 129q324 0 323 -364v-590h-205v569q0 99 -44 147q-45 48 -165 48t-200 -88v-676h-205z" />
    <glyph glyph-name="Eng" unicode="&#x14a;" horiz-adv-x="1388" 
d="M1016 -45v29l-643 1046l2 -1030h-225v1384h237l629 -1019v1019h221v-1390q0 -326 -258 -457l-127 146q92 49 128 110t36 162z" />
    <glyph glyph-name="eng" unicode="&#x14b;" horiz-adv-x="1058" 
d="M123 0v934h199v-109q92 129 299 129q324 0 323 -364v-596q0 -328 -258 -457l-117 135q92 51 130 117t38 166v614q0 99 -43 147q-42 48 -162 48t-204 -88v-676h-205z" />
    <glyph glyph-name="Omacron" unicode="&#x14c;" horiz-adv-x="1345" 
d="M377 1743h594v-168h-594v168zM670 -20q-299 0 -438 191q-138 191 -138 520t139 521t446 193q307 0 441 -205q129 -192 129 -515t-140 -514t-439 -191zM326 689q0 -251 76 -384t270 -133q192 0 270 134t78 385t-78 386t-267 135t-269 -136t-80 -387z" />
    <glyph glyph-name="omacron" unicode="&#x14d;" horiz-adv-x="1024" 
d="M217 1325h594v-168h-594v168zM512 164q221 0 221 302t-221 302t-221 -302t221 -302zM512 954q215 0 323 -133q107 -133 107 -355t-108 -355t-323 -133q-214 0 -323 134q-108 134 -108 355t108 354q109 133 324 133z" />
    <glyph glyph-name="Obreve" unicode="&#x14e;" horiz-adv-x="1345" 
d="M973 1823q0 -131 -80 -215t-219 -84t-218 84t-79 215h135q8 -66 51 -107t110 -41t110 41t51 107h139zM670 -20q-299 0 -438 191q-138 191 -138 520t139 521t446 193q307 0 441 -205q129 -192 129 -515t-140 -514t-439 -191zM326 689q0 -251 76 -384t270 -133
q192 0 270 134t78 385t-78 386t-267 135t-269 -136t-80 -387z" />
    <glyph glyph-name="obreve" unicode="&#x14f;" horiz-adv-x="1024" 
d="M811 1405q0 -131 -80 -215t-219 -84t-218 84t-79 215h135q8 -66 51 -107t110 -41t110 41t51 107h139zM512 164q221 0 221 302t-221 302t-221 -302t221 -302zM512 954q215 0 323 -133q107 -133 107 -355t-108 -355t-323 -133q-214 0 -323 134q-108 134 -108 355t108 354
q109 133 324 133z" />
    <glyph glyph-name="Ohungarumlaut" unicode="&#x150;" horiz-adv-x="1345" 
d="M899 1843h213l-178 -327h-186zM551 1843h213l-178 -327h-187zM670 -20q-299 0 -438 191q-138 191 -138 520t139 521t446 193q307 0 441 -205q129 -192 129 -515t-140 -514t-439 -191zM326 689q0 -251 76 -384t270 -133q192 0 270 134t78 385t-78 386t-267 135t-269 -136
t-80 -387z" />
    <glyph glyph-name="ohungarumlaut" unicode="&#x151;" horiz-adv-x="1024" 
d="M729 1425h213l-178 -327h-186zM381 1425h213l-178 -327h-187zM512 164q221 0 221 302t-221 302t-221 -302t221 -302zM512 954q215 0 323 -133q107 -133 107 -355t-108 -355t-323 -133q-214 0 -323 134q-108 134 -108 355t108 354q109 133 324 133z" />
    <glyph glyph-name="OE" unicode="&#x152;" horiz-adv-x="1806" 
d="M670 172q106 0 180 31v975q-80 35 -176 34q-188 0 -268 -136t-80 -387t77 -384t267 -133zM1073 184h647v-184h-870q-86 -20 -180 -20q-299 0 -438 191q-138 191 -138 520t139 521t441 193q90 0 178 -21h862v-184h-641v-405h561v-185h-561v-426z" />
    <glyph glyph-name="oe" unicode="&#x153;" horiz-adv-x="1630" 
d="M1360 588q0 92 -52 145t-141 53q-199 0 -213 -233h404q2 12 2 35zM512 164q221 0 221 302t-221 302t-221 -302t221 -302zM1190 156q139 0 244 92l98 -135q-54 -57 -146 -97t-196 -39q-242 0 -346 166q-106 -166 -326 -166q-220 1 -330 135q-108 134 -108 355t108 354
q109 133 331 133t327 -168q106 168 310 168t300 -116t96 -283q0 -86 -14 -154h-584q7 -245 236 -245z" />
    <glyph glyph-name="Racute" unicode="&#x154;" horiz-adv-x="1226" 
d="M631 1843h213l-178 -327h-187zM911 984q0 106 -63 162q-63 54 -215 54h-258v-430h258q152 0 215 54t63 160zM152 0v1384h501q240 0 365 -104t125 -293q0 -150 -89 -249t-251 -132l371 -606h-252l-347 586h-200l2 -586h-225z" />
    <glyph glyph-name="racute" unicode="&#x155;" horiz-adv-x="716" 
d="M426 1425h213l-178 -327h-187zM322 782h2q94 172 256 172q61 0 110 -12l-18 -219q-61 18 -140 18q-137 0 -202 -143v-598h-205v934h197v-152z" />
    <glyph glyph-name="Rcommaaccent" unicode="&#x156;" horiz-adv-x="1226" 
d="M711 -133l-119 -309h-158l53 309h224zM911 984q0 106 -63 162q-63 54 -215 54h-258v-430h258q152 0 215 54t63 160zM152 0v1384h501q240 0 365 -104t125 -293q0 -150 -89 -249t-251 -132l371 -606h-252l-347 586h-200l2 -586h-225z" />
    <glyph glyph-name="rcommaaccent" unicode="&#x157;" horiz-adv-x="716" 
d="M340 -133l-119 -309h-158l54 309h223zM322 782h2q94 172 256 172q61 0 110 -12l-18 -219q-61 18 -140 18q-137 0 -202 -143v-598h-205v934h197v-152z" />
    <glyph glyph-name="Rcaron" unicode="&#x158;" horiz-adv-x="1226" 
d="M684 1516h-205l-209 327h187l125 -194l123 194h186zM911 984q0 106 -63 162q-63 54 -215 54h-258v-430h258q152 0 215 54t63 160zM152 0v1384h501q240 0 365 -104t125 -293q0 -150 -89 -249t-251 -132l371 -606h-252l-347 586h-200l2 -586h-225z" />
    <glyph glyph-name="rcaron" unicode="&#x159;" horiz-adv-x="716" 
d="M498 1098h-205l-209 327h186l125 -194l123 194h187zM324 782h2q94 172 256 172q61 0 110 -12l-18 -219q-61 18 -139 18q-137 0 -203 -143v-598h-205v934h197v-152z" />
    <glyph glyph-name="Sacute" unicode="&#x15a;" horiz-adv-x="1114" 
d="M614 1843h213l-178 -327h-186zM578 1212q-111 0 -171 -57q-61 -57 -61 -139t41 -126t129 -73l180 -53q170 -53 252 -143t82 -228q0 -190 -132 -303t-351 -113q-356 0 -486 259l158 122q43 -90 116 -139t203 -49t196 56t67 151q0 137 -183 192l-180 54q-324 100 -323 370
q0 174 116 293q117 119 347 119q305 0 438 -205l-158 -123q-88 135 -280 135z" />
    <glyph glyph-name="sacute" unicode="&#x15b;" horiz-adv-x="884" 
d="M514 1425h213l-178 -327h-187zM297 680q0 -84 100 -107l158 -36q262 -59 262 -269q0 -125 -96 -208t-293 -83q-242 0 -369 158l121 125q109 -125 254 -125q80 0 127 30t47 87q0 78 -119 106l-161 41q-238 59 -238 263q0 116 91 204t293 88t325 -135l-119 -123
q-90 100 -229 101q-78 0 -116 -33t-38 -84z" />
    <glyph glyph-name="Scircumflex" unicode="&#x15c;" horiz-adv-x="1114" 
d="M461 1843h205l206 -327h-186l-123 194l-125 -194h-186zM578 1212q-111 0 -171 -57q-61 -57 -61 -139t41 -126t129 -73l180 -53q170 -53 252 -143t82 -228q0 -190 -132 -303t-351 -113q-356 0 -486 259l158 122q43 -90 116 -139t203 -49t196 56t67 151q0 137 -183 192
l-180 54q-324 100 -323 370q0 174 116 293q117 119 347 119q305 0 438 -205l-158 -123q-88 135 -280 135z" />
    <glyph glyph-name="scircumflex" unicode="&#x15d;" horiz-adv-x="884" 
d="M350 1425h205l207 -327h-187l-122 194l-125 -194h-187zM297 680q0 -84 100 -107l158 -36q262 -59 262 -269q0 -125 -96 -208t-293 -83q-242 0 -369 158l121 125q109 -125 254 -125q80 0 127 30t47 87q0 78 -119 106l-161 41q-238 59 -238 263q0 116 91 204t293 88
t325 -135l-119 -123q-90 100 -229 101q-78 0 -116 -33t-38 -84z" />
    <glyph glyph-name="Scedilla" unicode="&#x15e;" horiz-adv-x="1114" 
d="M578 1212q-111 0 -171 -57q-61 -57 -61 -139t41 -126t129 -73l180 -53q170 -53 252 -143t82 -228q0 -178 -116 -288t-312 -125l-33 -82q193 0 193 -166q0 -78 -60 -126t-161 -48q-100 0 -191 47v135q84 -62 166 -62t82 56t-100 55h-80l-10 12l61 181q-297 25 -408 254
l158 122q43 -90 116 -139t203 -49t196 56t67 151q0 137 -183 192l-180 54q-324 100 -323 370q0 174 116 293q117 119 347 119q305 0 438 -205l-158 -123q-88 135 -280 135z" />
    <glyph glyph-name="scedilla" unicode="&#x15f;" horiz-adv-x="886" 
d="M297 680q0 -84 100 -107l158 -36q262 -59 262 -269q0 -112 -79 -192t-240 -94l-33 -84q193 0 192 -166q0 -78 -60 -126q-61 -48 -161 -48t-190 47v135q84 -62 166 -62t82 56t-101 55h-80l-10 12l62 181q-197 20 -306 153l121 125q109 -125 254 -125q80 0 127 30t47 87
q0 78 -119 106l-161 41q-238 59 -238 263q0 116 91 204t293 88t325 -135l-119 -123q-90 100 -229 101q-78 0 -116 -33t-38 -84z" />
    <glyph glyph-name="Scaron" unicode="&#x160;" horiz-adv-x="1114" 
d="M664 1516h-205l-209 327h186l125 -194l123 194h186zM578 1212q-111 0 -171 -57q-61 -57 -61 -139t41 -126t129 -73l180 -53q170 -53 252 -143t82 -228q0 -190 -132 -303t-351 -113q-356 0 -486 259l158 122q43 -90 116 -139t203 -49t196 56t67 151q0 137 -183 192
l-180 54q-324 100 -323 370q0 174 116 293q117 119 347 119q305 0 438 -205l-158 -123q-88 135 -280 135z" />
    <glyph glyph-name="scaron" unicode="&#x161;" horiz-adv-x="884" 
d="M559 1098h-205l-209 327h187l125 -194l123 194h186zM297 680q0 -84 100 -107l158 -36q262 -59 262 -269q0 -125 -96 -208t-293 -83q-242 0 -369 158l121 125q109 -125 254 -125q80 0 127 30t47 87q0 78 -119 106l-161 41q-238 59 -238 263q0 116 91 204t293 88t325 -135
l-119 -123q-90 100 -229 101q-78 0 -116 -33t-38 -84z" />
    <glyph glyph-name="Tcommaaccent" unicode="&#x162;" horiz-adv-x="1112" 
d="M59 1384h992v-184h-383v-1200h-43l-41 -102q193 0 192 -166q0 -78 -60 -126t-160 -48t-191 47v135q84 -62 166 -62t81 54q0 57 -100 57h-80l-10 12l67 199h-45v1200h-385v184z" />
    <glyph glyph-name="tcommaaccent" unicode="&#x163;" horiz-adv-x="706" 
d="M416 758v-469q0 -121 112 -121q57 0 121 25l10 -181q-88 -33 -180 -35l-30 -79q193 0 192 -166q0 -78 -60 -126q-61 -48 -161 -48t-191 47v135q84 -62 166 -62t82 56t-100 55h-80l-10 12l67 195q-145 55 -145 266v496h-172v155l172 21v231l207 33v-264h229v-176h-229z
" />
    <glyph glyph-name="Tcaron" unicode="&#x164;" horiz-adv-x="1112" 
d="M664 1516h-205l-209 327h186l125 -194l123 194h186zM59 1384h992v-184h-383v-1200h-224v1200h-385v184z" />
    <glyph glyph-name="tcaron" unicode="&#x165;" horiz-adv-x="706" 
d="M893 1413l-119 -309h-158l54 309h223zM416 758v-469q0 -121 112 -121q57 0 121 25l10 -181q-89 -35 -207 -35t-181 76q-62 76 -62 209v496h-172v155l172 21v231l207 33v-264h229v-176h-229z" />
    <glyph glyph-name="Tbar" unicode="&#x166;" horiz-adv-x="1118" 
d="M266 752h183v448h-386v184h992v-184h-383v-448h178v-150h-178v-602h-223v602h-183v150z" />
    <glyph glyph-name="tbar" unicode="&#x167;" horiz-adv-x="714" 
d="M76 575h139v183h-172v155l172 21v231l207 33v-264h229v-176h-229v-183h184v-149h-184v-137q0 -121 113 -121q57 0 120 25l11 -181q-88 -35 -207 -35t-181 76t-63 209v164h-139v149z" />
    <glyph glyph-name="Utilde" unicode="&#x168;" horiz-adv-x="1325" 
d="M818 1632q-60 0 -155 -41t-171 -41t-127 47l8 156q51 -51 115 -51t157 41q91 41 165 41t148 -47l-8 -156q-72 51 -132 51zM1186 522q0 -278 -140 -410t-383 -132t-382 132t-140 410v862h224v-860q-1 -182 73 -267t226 -85t226 85t73 267v860h223v-862z" />
    <glyph glyph-name="utilde" unicode="&#x169;" horiz-adv-x="1060" 
d="M936 934v-934h-199v109q-94 -129 -297 -129q-324 0 -323 364v590h205v-569q0 -99 44 -147t164 -48t201 88v676h205zM687 1214q-59 0 -155 -40t-172 -41q-76 0 -127 47l9 155q52 -51 116 -51t156 41t166 41t147 -47l-8 -156q-72 51 -132 51z" />
    <glyph glyph-name="Umacron" unicode="&#x16a;" horiz-adv-x="1325" 
d="M367 1743h594v-168h-594v168zM1186 522q0 -278 -140 -410t-383 -132t-382 132t-140 410v862h224v-860q-1 -182 73 -267t226 -85t226 85t73 267v860h223v-862z" />
    <glyph glyph-name="umacron" unicode="&#x16b;" horiz-adv-x="1060" 
d="M936 934v-934h-199v109q-94 -129 -297 -129q-324 0 -323 364v590h205v-569q0 -99 44 -147t164 -48t201 88v676h205zM236 1325h593v-168h-593v168z" />
    <glyph glyph-name="Ubreve" unicode="&#x16c;" horiz-adv-x="1325" 
d="M961 1823q0 -131 -80 -215q-79 -84 -219 -84t-219 84t-78 215h135q8 -66 51 -107t109 -41t110 41q43 41 51 107h140zM1186 522q0 -278 -140 -410t-383 -132t-382 132t-140 410v862h224v-860q-1 -182 73 -267t226 -85t226 85t73 267v860h223v-862z" />
    <glyph glyph-name="ubreve" unicode="&#x16d;" horiz-adv-x="1060" 
d="M936 934v-934h-199v109q-94 -129 -297 -129q-324 0 -323 364v590h205v-569q0 -99 44 -147t164 -48t201 88v676h205zM827 1405q1 -131 -79 -215t-220 -84t-218 84q-79 84 -79 215h136q8 -66 51 -107q44 -41 110 -41t109 41t51 107h139z" />
    <glyph glyph-name="Uring" unicode="&#x16e;" horiz-adv-x="1325" 
d="M565 1690q0 -39 26 -65q25 -26 69 -26t70 26t26 65q0 38 -26 64t-70 26t-70 -26t-25 -64zM444 1692q0 84 58 141t159 57q103 0 161 -57t58 -141t-58 -142t-160 -59q-102 1 -160 59t-58 142zM1186 522q0 -278 -140 -410t-383 -132t-382 132t-140 410v862h224v-860
q-1 -182 73 -267t226 -85t226 85t73 267v860h223v-862z" />
    <glyph glyph-name="uring" unicode="&#x16f;" horiz-adv-x="1060" 
d="M936 934v-934h-199v109q-94 -129 -297 -129q-324 0 -323 364v590h205v-569q0 -99 44 -147t164 -48t201 88v676h205zM428 1272q0 -39 26 -65q26 -25 70 -25t69 26q26 26 25 64q0 38 -26 64t-69 26t-69 -26t-26 -64zM307 1274q-1 84 57 141t160 57t160 -56q58 -58 59 -142
q0 -84 -58 -142q-59 -58 -161 -58t-160 58t-57 142z" />
    <glyph glyph-name="Uhungarumlaut" unicode="&#x170;" horiz-adv-x="1325" 
d="M893 1843h213l-178 -327h-187zM545 1843h213l-178 -327h-187zM1186 522q0 -278 -140 -410t-383 -132t-382 132t-140 410v862h224v-860q-1 -182 73 -267t226 -85t226 85t73 267v860h223v-862z" />
    <glyph glyph-name="uhungarumlaut" unicode="&#x171;" horiz-adv-x="1060" 
d="M745 1425h213l-178 -327h-186zM397 1425h213l-178 -327h-186zM936 934v-934h-199v109q-94 -129 -297 -129q-324 0 -323 364v590h205v-569q0 -99 44 -147t164 -48t201 88v676h205z" />
    <glyph glyph-name="Uogonek" unicode="&#x172;" horiz-adv-x="1325" 
d="M1186 522q0 -240 -106 -370t-292 -162l-131 -101q-65 -53 -65 -91q1 -75 78 -77q59 0 133 54v-170q-85 -47 -191 -47t-169 51q-62 51 -62 149t121 197l41 35q-401 61 -402 532v862h224v-860q-1 -182 73 -267t226 -85t226 85t73 267v860h223v-862z" />
    <glyph glyph-name="uogonek" unicode="&#x173;" horiz-adv-x="1060" 
d="M936 934v-934l-145 -111q-66 -53 -66 -91q0 -75 78 -77q59 0 133 54v-170q-86 -47 -192 -47t-167 51q-63 51 -63 149t121 197l102 82v72q-94 -129 -297 -129q-324 0 -323 364v590h205v-569q0 -99 44 -147t164 -48t201 88v676h205z" />
    <glyph glyph-name="Wcircumflex" unicode="&#x174;" horiz-adv-x="1982" 
d="M891 1843h205l207 -327h-187l-123 194l-125 -194h-186zM864 1384h254l307 -1132l293 1132h232l-379 -1384h-275l-305 1081l-305 -1081h-272l-381 1384h231l295 -1132z" />
    <glyph glyph-name="wcircumflex" unicode="&#x175;" horiz-adv-x="1560" 
d="M680 1425h205l207 -327h-187l-123 194l-125 -194h-186zM682 934h199l219 -713l211 713h215l-295 -934h-227l-224 672l-221 -672h-227l-297 934h215l213 -713z" />
    <glyph glyph-name="Ycircumflex" unicode="&#x176;" horiz-adv-x="1193" 
d="M496 1843h204l207 -327h-186l-123 194l-125 -194h-186zM709 0h-224v545l-471 839h246l338 -636l334 636h248l-471 -839v-545z" />
    <glyph glyph-name="ycircumflex" unicode="&#x177;" horiz-adv-x="993" 
d="M406 1425h204l207 -327h-186l-123 194l-125 -194h-186zM252 934l258 -645l238 645h223l-559 -1376h-211l207 491l-390 885h234z" />
    <glyph glyph-name="Ydieresis" unicode="&#x178;" horiz-adv-x="1193" 
d="M793 1532q-133 0 -134 129q0 67 37 99q38 32 94 32t95 -34t39 -97t-38 -96t-93 -33zM403 1532q-131 0 -131 129q0 67 36 99t92 32t96 -34t39 -97t-39 -96t-93 -33zM709 0h-224v545l-471 839h246l338 -636l334 636h248l-471 -839v-545z" />
    <glyph glyph-name="Zacute" unicode="&#x179;" horiz-adv-x="1062" 
d="M594 1843h213l-178 -327h-187zM971 1384v-163l-641 -1037h659v-184h-921v160l641 1040h-609v184h871z" />
    <glyph glyph-name="zacute" unicode="&#x17a;" horiz-adv-x="847" 
d="M498 1425h213l-179 -327h-186zM766 934v-139l-434 -619h436v-176h-696v139l438 619h-418v176h674z" />
    <glyph glyph-name="Zdotaccent" unicode="&#x17b;" horiz-adv-x="1062" 
d="M535 1532q-133 0 -134 129q0 67 37 99q36 32 94 32t96 -34t38 -98t-38 -96t-93 -32zM971 1384v-163l-641 -1037h659v-184h-921v160l641 1040h-609v184h871z" />
    <glyph glyph-name="zdotaccent" unicode="&#x17c;" horiz-adv-x="847" 
d="M455 1114q-133 0 -133 129q0 67 36 99t94 32t96 -34t38 -98t-38 -96t-93 -32zM766 934v-139l-434 -619h436v-176h-696v139l438 619h-418v176h674z" />
    <glyph glyph-name="Zcaron" unicode="&#x17d;" horiz-adv-x="1062" 
d="M637 1516h-205l-209 327h187l125 -194l122 194h187zM971 1384v-163l-641 -1037h659v-184h-921v160l641 1040h-609v184h871z" />
    <glyph glyph-name="zcaron" unicode="&#x17e;" horiz-adv-x="847" 
d="M541 1098h-205l-209 327h186l125 -194l123 194h187zM766 934v-139l-434 -619h436v-176h-696v139l438 619h-418v176h674z" />
    <glyph glyph-name="florin" unicode="&#x192;" horiz-adv-x="724" 
d="M449 754v-904q0 -135 -72 -224t-213 -89q-98 0 -156 21v182q59 -16 121 -16q63 0 91 40t28 121v869h-189v180h189v186q0 134 73 224t222 90q90 0 143 -21v-182q-55 16 -118 16q-64 0 -92 -39t-27 -121v-153h206v-180h-206z" />
    <glyph glyph-name="Aringacute" unicode="&#x1fa;" horiz-adv-x="1261" 
d="M631 1155l-211 -631h422zM1012 0l-113 338h-539l-112 -338h-238l490 1384h260l491 -1384h-239zM535 1662q-1 -40 25 -66t72 -26t73 26t27 66t-27 67t-73 27t-72 -27q-25 -27 -25 -67zM416 1655q0 76 41 128t110 66l109 170h203l-138 -184q111 -51 111 -174
q0 -82 -59 -139q-59 -58 -159 -58t-160 58q-58 58 -58 133z" />
    <glyph glyph-name="aringacute" unicode="&#x1fb;" horiz-adv-x="964" 
d="M281 258q0 -119 135 -119t227 97v200l-129 -18q-233 -33 -233 -160zM848 0h-193v113q-119 -135 -305 -136q-129 0 -205 73t-75 196q0 274 442 307l131 14v74q0 74 -39 111t-133 36q-170 0 -170 -100v-45h-180q-4 41 -4 64q0 111 97 179t270 68t269 -77q95 -78 95 -234
v-643zM399 1252q0 -40 26 -66t72 -25q47 0 73 26q26 25 26 65t-27 67t-73 27t-71 -27q-26 -27 -26 -67zM281 1247q0 78 45 131t125 68l88 151h198l-133 -172q113 -51 113 -174q1 -82 -59 -139t-160 -57t-159 57q-58 57 -58 135z" />
    <glyph glyph-name="AEacute" unicode="&#x1fc;" horiz-adv-x="1931" 
d="M1837 1384v-184h-641v-405h561v-185h-561v-434h647v-176h-870v340h-522l-222 -340h-239l913 1384h934zM973 520v651l-412 -651h412zM1335 1843h213l-178 -327h-186z" />
    <glyph glyph-name="aeacute" unicode="&#x1fd;" horiz-adv-x="1527" 
d="M1257 588q0 92 -52 145t-138 53q-197 0 -215 -233h403q2 12 2 35zM279 258q0 -119 135 -119t227 97v200l-127 -18q-119 -16 -177 -54t-58 -106zM1090 -23q-238 0 -349 156q-137 -156 -366 -156q-145 0 -225 72t-80 197q0 274 440 307l131 14v74q0 74 -38 111
q-38 36 -127 36t-132 -28t-43 -72v-45h-180q-6 31 -6 64q0 111 97 179t269 68q217 0 299 -125q102 125 291 125t284 -116t95 -283q0 -94 -12 -154h-586q8 -245 238 -245q141 0 241 92l99 -135q-52 -57 -144 -97t-196 -39zM846 1425h213l-178 -327h-187z" />
    <glyph glyph-name="Oslashacute" unicode="&#x1fe;" horiz-adv-x="1349" 
d="M1022 690q0 166 -33 283l-547 -717q80 -84 230 -84q194 0 272 134t78 384zM328 690q0 -178 34 -291l549 721q-82 92 -235 92q-188 0 -268 -136t-80 -386zM1251 678q0 -316 -140 -507t-439 -191q-221 0 -359 108l-67 -88h-187l154 201q-117 179 -117 499t140 512t440 193
q227 0 364 -115l72 94h191l-162 -213q110 -177 110 -493zM721 1843h203l-170 -325h-179z" />
    <glyph glyph-name="oslashacute" unicode="&#x1ff;" horiz-adv-x="1024" 
d="M559 1425h213l-178 -327h-186zM510 164q223 0 223 301q0 92 -20 153l-326 -421q47 -33 123 -33zM291 469q0 -98 20 -162l326 426q-51 35 -127 35q-219 0 -219 -299zM514 954q139 0 242 -65l35 45h165l-104 -135q90 -127 90 -341t-108 -347t-328 -134q-141 0 -240 64
l-30 -41h-160l98 129q-94 127 -94 343t108 349q109 133 326 133z" />
    <glyph glyph-name="Scommaaccent" unicode="&#x218;" horiz-adv-x="1114" 
d="M684 -133l-119 -309h-157l53 309h223zM578 1212q-111 0 -171 -57q-61 -57 -61 -139t41 -126t129 -73l180 -53q170 -53 252 -143t82 -228q0 -190 -132 -303t-351 -113q-356 0 -486 259l158 122q43 -90 116 -139t203 -49t196 56t67 151q0 137 -183 192l-180 54
q-324 100 -323 370q0 174 116 293q117 119 347 119q305 0 438 -205l-158 -123q-88 135 -280 135z" />
    <glyph glyph-name="scommaaccent" unicode="&#x219;" horiz-adv-x="884" 
d="M575 -133l-118 -309h-158l53 309h223zM297 680q0 -84 100 -107l158 -36q262 -59 262 -269q0 -125 -96 -208t-293 -83q-242 0 -369 158l121 125q109 -125 254 -125q80 0 127 30t47 87q0 78 -119 106l-161 41q-238 59 -238 263q0 116 91 204t293 88t325 -135l-119 -123
q-90 100 -229 101q-78 0 -116 -33t-38 -84z" />
    <glyph glyph-name="uni021A" unicode="&#x21a;" horiz-adv-x="1110" 
d="M664 -133l-119 -309h-158l53 309h224zM59 1384h992v-184h-383v-1200h-224v1200h-385v184z" />
    <glyph glyph-name="uni021B" unicode="&#x21b;" horiz-adv-x="706" 
d="M530 -133l-118 -309h-158l53 309h223zM416 758v-469q0 -121 112 -121q57 0 121 25l10 -181q-89 -35 -207 -35t-181 76q-62 76 -62 209v496h-172v155l172 21v231l207 33v-264h229v-176h-229z" />
    <glyph glyph-name="dotlessj" unicode="&#x237;" horiz-adv-x="456" 
d="M125 -45v979h207v-940q0 -328 -258 -457l-117 135q92 51 130 117t38 166z" />
    <glyph glyph-name="circumflex" unicode="&#x2c6;" horiz-adv-x="1228" 
d="M512 1425h205l207 -327h-187l-123 194l-125 -194h-186z" />
    <glyph glyph-name="caron" unicode="&#x2c7;" horiz-adv-x="1228" 
d="M717 1098h-205l-209 327h186l125 -194l123 194h187z" />
    <glyph glyph-name="breve" unicode="&#x2d8;" horiz-adv-x="1228" 
d="M911 1405q0 -131 -80 -215t-219 -84t-218 84t-79 215h136q8 -66 51 -107q44 -41 110 -41t109 41t51 107h139z" />
    <glyph glyph-name="dotaccent" unicode="&#x2d9;" horiz-adv-x="1228" 
d="M614 1114q-133 0 -133 129q0 67 37 99t94 32q58 0 96 -34t38 -98t-39 -96q-38 -32 -93 -32z" />
    <glyph glyph-name="ring" unicode="&#x2da;" horiz-adv-x="1228" 
d="M516 1272q0 -39 26 -65q26 -25 70 -25t69 26q26 26 26 64t-26 64t-70 26q-43 0 -69 -26t-26 -64zM395 1274q-1 84 57 141t160 57t160 -56q58 -58 59 -142q0 -84 -58 -142q-59 -58 -161 -58t-160 58t-57 142z" />
    <glyph glyph-name="ogonek" unicode="&#x2db;" horiz-adv-x="1228" 
d="M618 -202q0 -75 78 -77q59 0 133 54v-170q-86 -47 -191 -47t-168 51q-62 51 -62 149t120 197l109 88l192 -43l-145 -111q-66 -53 -66 -91z" />
    <glyph glyph-name="tilde" unicode="&#x2dc;" horiz-adv-x="1228" 
d="M771 1214q-59 0 -155 -40t-172 -41q-76 0 -127 47l9 155q52 -51 116 -51t155 41t165 41t149 -47l-8 -156q-72 51 -132 51z" />
    <glyph glyph-name="hungarumlaut" unicode="&#x2dd;" horiz-adv-x="1228" 
d="M758 1425h213l-178 -327h-187zM410 1425h213l-179 -327h-186z" />
    <glyph glyph-name="uni0394" unicode="&#x394;" horiz-adv-x="1359" 
d="M1051 176l-371 989l-375 -989h746zM2 0l553 1384h250l551 -1384h-1354z" />
    <glyph glyph-name="uni03A9" unicode="&#x3a9;" horiz-adv-x="1454" 
d="M96 176h307q-125 98 -208 249q-84 151 -84 303q1 152 35 268q78 258 297 357q122 54 283 54t284 -54q124 -55 194 -149q142 -190 139 -456q1 -172 -83 -323t-209 -249h307v-176h-541v176q127 92 211 240t84 342t-95 325t-292 131t-290 -131t-93 -325t84 -342
q84 -147 211 -240v-176h-541v176z" />
    <glyph glyph-name="uni03BC" unicode="&#x3bc;" horiz-adv-x="1069" 
d="M332 -442h-207v1376h207v-588q4 -90 47 -133t143 -43q137 0 217 88v676h207v-934h-201v109q-90 -129 -296 -129q-55 0 -117 14v-436z" />
    <glyph glyph-name="pi" unicode="&#x3c0;" horiz-adv-x="1196" 
d="M229 0v758h-188v176h1083v-176h-196v-471q0 -121 114 -121q12 0 58 4v-182q-61 -10 -119 -11q-131 0 -193 77q-61 77 -61 208v496h-299v-758h-199z" />
    <glyph glyph-name="Wgrave" unicode="&#x1e80;" horiz-adv-x="1982" 
d="M723 1843h213l151 -327h-186zM864 1384h254l307 -1132l293 1132h232l-379 -1384h-275l-305 1081l-305 -1081h-272l-381 1384h231l295 -1132z" />
    <glyph glyph-name="wgrave" unicode="&#x1e81;" horiz-adv-x="1560" 
d="M516 1425h213l152 -327h-187zM682 934h199l219 -713l211 713h215l-295 -934h-227l-224 672l-221 -672h-227l-297 934h215l213 -713z" />
    <glyph glyph-name="Wacute" unicode="&#x1e82;" horiz-adv-x="1982" 
d="M1051 1843h213l-179 -327h-186zM864 1384h254l307 -1132l293 1132h232l-379 -1384h-275l-305 1081l-305 -1081h-272l-381 1384h231l295 -1132z" />
    <glyph glyph-name="wacute" unicode="&#x1e83;" horiz-adv-x="1560" 
d="M834 1425h213l-179 -327h-186zM682 934h199l219 -713l211 713h215l-295 -934h-227l-224 672l-221 -672h-227l-297 934h215l213 -713z" />
    <glyph glyph-name="Wdieresis" unicode="&#x1e84;" horiz-adv-x="1982" 
d="M1188 1532q-133 0 -133 129q0 67 37 99t93 32t95 -34t39 -97t-38 -96t-93 -33zM799 1532q-131 0 -131 129q0 67 36 99t92 32t95 -34t39 -97t-38 -96t-93 -33zM864 1384h254l307 -1132l293 1132h232l-379 -1384h-275l-305 1081l-305 -1081h-272l-381 1384h231l295 -1132z
" />
    <glyph glyph-name="wdieresis" unicode="&#x1e85;" horiz-adv-x="1560" 
d="M977 1114q-133 0 -133 129q0 67 37 99t93 32t95 -34t39 -97t-38 -96t-93 -33zM588 1114q-131 0 -131 129q0 67 36 99t92 32t95 -34t39 -97t-38 -96t-93 -33zM682 934h199l219 -713l211 713h215l-295 -934h-227l-224 672l-221 -672h-227l-297 934h215l213 -713z" />
    <glyph glyph-name="Ygrave" unicode="&#x1ef2;" horiz-adv-x="1193" 
d="M338 1843h213l151 -327h-186zM709 0h-224v545l-471 839h246l338 -636l334 636h248l-471 -839v-545z" />
    <glyph glyph-name="ygrave" unicode="&#x1ef3;" horiz-adv-x="993" 
d="M252 1425h213l151 -327h-186zM252 934l258 -645l238 645h223l-559 -1376h-211l207 491l-390 885h234z" />
    <glyph glyph-name="endash" unicode="&#x2013;" horiz-adv-x="1208" 
d="M119 641h971v-176h-971v176z" />
    <glyph glyph-name="emdash" unicode="&#x2014;" horiz-adv-x="1495" 
d="M119 641h1257v-176h-1257v176z" />
    <glyph glyph-name="quoteleft" unicode="&#x2018;" horiz-adv-x="454" 
d="M86 893l119 491h157l-51 -491h-225z" />
    <glyph glyph-name="quoteright" unicode="&#x2019;" horiz-adv-x="442" 
d="M381 1384l-123 -491h-156l52 491h227z" />
    <glyph glyph-name="quotesinglbase" unicode="&#x201a;" horiz-adv-x="466" 
d="M360 266l-120 -491h-158l51 491h227z" />
    <glyph glyph-name="quotedblleft" unicode="&#x201c;" horiz-adv-x="776" 
d="M86 893l119 491h157l-51 -491h-225zM408 893l118 491h158l-51 -491h-225z" />
    <glyph glyph-name="quotedblright" unicode="&#x201d;" horiz-adv-x="763" 
d="M702 1384l-122 -491h-156l51 491h227zM381 1384l-123 -491h-156l52 491h227z" />
    <glyph glyph-name="quotedblbase" unicode="&#x201e;" horiz-adv-x="788" 
d="M680 264l-121 -491h-156l52 491h225zM358 264l-120 -491h-156l51 491h225z" />
    <glyph glyph-name="dagger" unicode="&#x2020;" horiz-adv-x="864" 
d="M57 621h305v792h142v-792h305v-136h-305v-927h-142v927h-305v136z" />
    <glyph glyph-name="daggerdbl" unicode="&#x2021;" horiz-adv-x="960" 
d="M104 920h306v493h141v-493h305v-136h-305v-589h305v-136h-305v-501h-141v501h-306v136h306v589h-306v136z" />
    <glyph glyph-name="bullet" unicode="&#x2022;" horiz-adv-x="802" 
d="M401 305q-113 0 -185 70q-72 69 -73 177q0 108 73 178q74 70 186 69q112 0 185 -70t73 -177t-74 -177q-72 -70 -185 -70z" />
    <glyph glyph-name="ellipsis" unicode="&#x2026;" horiz-adv-x="1335" 
d="M675 -12q-62 0 -104 39q-41 39 -41 98t41 99t103 40t104 -40q41 -40 41 -99t-41 -98t-103 -39zM1098 -12q-61 0 -103 39q-41 39 -41 98t41 99t103 40t102 -40q41 -40 41 -99t-41 -98t-102 -39zM237 -12q-62 0 -103 39q-40 39 -40 98t40 99t102 40t104 -40q41 -40 41 -99
t-41 -98t-103 -39z" />
    <glyph glyph-name="perthousand" unicode="&#x2030;" horiz-adv-x="2369" 
d="M1991 743q307 0 307 -376q0 -179 -75 -279t-232 -100q-307 0 -307 378t307 377zM1991 113q81 0 113 61q32 60 32 192t-33 193t-113 61t-112 -60q-33 -62 -33 -193t33 -193t113 -61zM377 1395q307 0 307 -377q0 -178 -75 -278t-232 -101q-307 0 -307 378t307 378zM377 764
q81 0 113 61t32 193t-33 192q-33 62 -113 62t-112 -62q-33 -62 -33 -192t33 -192t113 -62zM1307 743q307 0 307 -376q0 -179 -75 -279t-232 -100q-307 0 -307 378t307 377zM1307 113q81 0 113 61q32 60 32 192t-33 193t-113 61t-112 -60q-33 -62 -33 -193t33 -193t113 -61z
M1341 1384l-829 -1384h-168l823 1384h174z" />
    <glyph glyph-name="guilsinglleft" unicode="&#x2039;" horiz-adv-x="655" 
d="M49 553l389 457l131 -95l-272 -364l274 -363l-133 -92z" />
    <glyph glyph-name="guilsinglright" unicode="&#x203a;" horiz-adv-x="655" 
d="M217 1010l389 -457l-389 -457l-133 92l274 363l-272 364z" />
    <glyph glyph-name="fraction" unicode="&#x2044;" horiz-adv-x="376" 
d="M688 1384l-829 -1384h-168l823 1384h174z" />
    <glyph glyph-name="zerosuperior" unicode="&#x2070;" horiz-adv-x="741" 
d="M371 1620q307 0 307 -377q0 -178 -75 -278t-232 -101q-307 0 -307 378t307 378zM371 989q81 -1 113 61t32 193t-33 193t-113 61q-80 0 -112 -61q-33 -60 -33 -192t33 -194t113 -61z" />
    <glyph glyph-name="foursuperior" unicode="&#x2074;" horiz-adv-x="696" 
d="M399 1143v274l-202 -274h202zM647 1143v-121h-92v-141h-156v141h-364v106l356 486h164v-471h92z" />
    <glyph glyph-name="fivesuperior" unicode="&#x2075;" horiz-adv-x="657" 
d="M350 1354q106 0 178 -58t72 -175t-74 -185t-209 -68t-203 58t-67 153h156q0 -86 114 -86q59 0 92 34q31 34 31 87t-32 85q-34 32 -94 32t-107 -37l-125 20l53 400h432v-121h-307l-22 -162q59 23 112 23z" />
    <glyph glyph-name="sixsuperior" unicode="&#x2076;" horiz-adv-x="702" 
d="M369 1497q-74 0 -110 -56t-36 -151q73 58 181 58t173 -64t65 -170q0 -108 -75 -179q-74 -71 -216 -71t-215 96t-73 270q0 172 74 281q73 109 217 109t207 -56t64 -147h-154q0 80 -102 80zM354 989q63 0 96 33q32 33 31 88q0 119 -125 119q-90 0 -133 -72q0 -76 34 -122
t97 -46z" />
    <glyph glyph-name="sevensuperior" unicode="&#x2077;" horiz-adv-x="589" 
d="M37 1493v121h522v-105l-293 -628h-168l287 612h-348z" />
    <glyph glyph-name="eightsuperior" unicode="&#x2078;" horiz-adv-x="712" 
d="M354 1499q-53 -1 -84 -25q-30 -24 -30 -68t32 -69t83 -25q52 0 84 26q32 24 32 69q0 92 -117 92zM354 1194q-59 0 -95 -29t-36 -75t38 -72q38 -27 94 -27t94 27q37 27 37 73q0 47 -37 75q-36 28 -95 28zM356 866q-135 0 -214 56t-79 157q0 133 140 176q-125 41 -125 160
q0 95 74 151t204 56t202 -55q73 -55 73 -152q0 -119 -125 -160q141 -43 141 -176q0 -101 -78 -157t-213 -56z" />
    <glyph glyph-name="ninesuperior" unicode="&#x2079;" horiz-adv-x="702" 
d="M74 1069h157q0 -37 27 -59t74 -21q147 0 147 207q-69 -59 -179 -59t-176 63q-66 62 -65 170q0 108 75 179t217 71t214 -96t72 -256q0 -403 -305 -404q-126 0 -192 58t-66 147zM346 1497q-127 0 -127 -123q0 -117 127 -117q86 0 131 70q0 76 -33 123t-98 47z" />
    <glyph glyph-name="zeroinferior" unicode="&#x2080;" horiz-adv-x="741" 
d="M371 539q307 0 307 -377q0 -178 -75 -278t-232 -101q-307 0 -307 378t307 378zM371 -92q81 0 113 61t32 193t-33 192q-33 62 -113 62t-112 -62q-33 -62 -33 -192t33 -192t113 -62z" />
    <glyph glyph-name="oneinferior" unicode="&#x2081;" horiz-adv-x="501" 
d="M403 -205h-155v592l-203 -74l-39 115l262 100h135v-733z" />
    <glyph glyph-name="twoinferior" unicode="&#x2082;" horiz-adv-x="649" 
d="M55 299q1 111 67 175t189 65t195 -63t72 -148t-42 -145q-42 -62 -120 -138l-140 -129h308v-121h-514v103l241 237q106 100 107 178q0 45 -27 74t-74 29q-106 0 -106 -117h-156z" />
    <glyph glyph-name="threeinferior" unicode="&#x2083;" horiz-adv-x="673" 
d="M608 -20q0 -80 -77 -138t-209 -59q-132 0 -199 56q-68 56 -68 151h154q0 -39 32 -61q32 -21 86 -21t88 24t34 71q0 46 -38 75t-110 28h-76v121h76q135 0 135 99q0 42 -28 66t-80 24q-51 0 -79 -23t-28 -57h-158q0 90 67 146t194 56q126 0 200 -56t74 -148q0 -60 -39 -106
t-98 -60q63 -14 105 -62q42 -46 42 -126z" />
    <glyph glyph-name="fourinferior" unicode="&#x2084;" horiz-adv-x="698" 
d="M399 57v275l-202 -275h202zM647 57v-120h-92v-142h-156v142h-364v106l356 485h164v-471h92z" />
    <glyph glyph-name="fiveinferior" unicode="&#x2085;" horiz-adv-x="657" 
d="M600 36q0 -116 -74 -184t-209 -69q-135 0 -203 57t-67 154h156q0 -86 114 -86q59 0 92 34q31 34 31 87t-32 85q-34 32 -94 32t-107 -37l-125 20l53 399h432v-120h-307l-22 -162q59 23 112 22q106 0 178 -58t72 -174z" />
    <glyph glyph-name="sixinferior" unicode="&#x2086;" horiz-adv-x="702" 
d="M369 416q-74 0 -110 -56t-36 -151q73 57 181 57t173 -63t65 -171t-75 -178q-74 -71 -216 -71t-215 96t-73 269t74 282q73 109 217 109q144 -1 207 -57t64 -146h-154q0 80 -102 80zM354 -92q63 0 96 33q32 33 31 88q0 119 -125 118q-90 1 -133 -71q0 -76 34 -122t97 -46z
" />
    <glyph glyph-name="seveninferior" unicode="&#x2087;" horiz-adv-x="591" 
d="M37 408v120h522v-104l-293 -629h-168l287 613h-348z" />
    <glyph glyph-name="eightinferior" unicode="&#x2088;" horiz-adv-x="712" 
d="M354 416q-53 0 -84 -25q-30 -25 -30 -69t32 -68q32 -25 83 -25q52 0 84 25t32 70q0 92 -117 92zM354 111q-59 0 -95 -29t-36 -75t38 -73q38 -26 94 -26t94 25q37 26 36 73q0 47 -35 76q-37 29 -96 29zM356 -217q-135 0 -214 56t-79 157q0 133 140 176q-125 41 -125 160
q0 96 74 151t204 55t202 -54q73 -56 73 -152q0 -119 -125 -160q141 -43 141 -176q0 -102 -78 -158t-213 -55z" />
    <glyph glyph-name="nineinferior" unicode="&#x2089;" horiz-adv-x="702" 
d="M74 -12h157q0 -37 27 -59t74 -21q147 0 147 207q-69 -59 -179 -59t-176 62q-66 64 -65 172q0 108 75 178q75 71 217 71q142 -1 214 -97t72 -256q0 -403 -305 -403q-127 0 -193 57q-65 58 -65 148zM346 416q-127 0 -127 -123q0 -117 127 -117q86 0 131 70q0 76 -33 123
t-98 47z" />
    <glyph glyph-name="rupee" unicode="&#x20a8;" horiz-adv-x="1118" 
d="M1034 1245h-252q80 -78 90 -203h162v-141h-164q-14 -121 -101 -205t-222 -108l358 -588h-254l-334 565h-211v172h216q150 0 224 39t99 125h-539v141h541q-25 88 -92 127q-68 39 -211 39h-238v176l928 2v-141z" />
    <glyph glyph-name="Euro" unicode="&#x20ac;" horiz-adv-x="1171" 
d="M80 895h113q74 510 534 510q180 0 358 -84l-69 -184q-143 74 -293 73q-256 0 -307 -315h514l-51 -141h-478v-58q0 -55 2 -80h428l-51 -139h-356q66 -305 313 -305q158 0 295 88l55 -190q-168 -92 -360 -93q-455 0 -532 500h-115v139h98v138h-98v141z" />
    <glyph glyph-name="afii61289" unicode="&#x2113;" horiz-adv-x="778" 
d="M573 1159q0 68 -24 102q-25 33 -66 33t-67 -42t-25 -122v-360q182 192 182 389zM250 240v235q-51 -47 -139 -110l-70 112q143 109 209 174v451q0 172 67 259t177 87t166 -72t57 -200q0 -281 -326 -586v-328q0 -143 103 -143q84 0 178 71l55 -122q-109 -90 -252 -91
q-225 0 -225 263z" />
    <glyph glyph-name="uni2117" unicode="&#x2117;" horiz-adv-x="1679" 
d="M889 702q147 0 147 128t-147 128h-160v-256h160zM573 1085h312q157 1 235 -69t78 -189t-79 -187t-234 -67h-156v-292h-156v804zM252 687q0 -267 165 -431t424 -164t423 164t164 431t-164 430t-424 163t-424 -163t-164 -430zM842 1434q324 0 534 -209t211 -537
q0 -328 -212 -538q-213 -210 -535 -211t-535 211t-213 539t213 536t537 209z" />
    <glyph glyph-name="trademark" unicode="&#x2122;" horiz-adv-x="1298" 
d="M885 872l94 371h145l52 -485h-103l-31 370l-102 -370h-117l-94 366l-37 -366h-102l53 485h150zM96 1243h422v-84h-160v-401h-106v401h-156v84z" />
    <glyph glyph-name="Omega" unicode="&#x2126;" horiz-adv-x="1466" 
d="M102 176h308q-125 98 -209 249t-84 303q0 288 140 476q71 94 193 148t282 55q160 0 284 -54q124 -55 194 -149q140 -188 140 -456q0 -172 -84 -323t-209 -249h307v-176h-541v176q127 92 211 240t84 342t-95 325t-292 131t-290 -131t-93 -325t84 -342q84 -147 211 -240
v-176h-541v176z" />
    <glyph glyph-name="estimated" unicode="&#x212e;" horiz-adv-x="1509" 
d="M391 786h756v377q-166 154 -384 154t-372 -154v-377zM391 692v-471q152 -152 375 -151q164 0 285 74t217 237l92 -55q-121 -188 -256 -270t-338 -81q-299 0 -484 205q-186 205 -186 513t184 512t485 204q299 0 485 -201t188 -516h-1047z" />
    <glyph glyph-name="onethird" unicode="&#x2153;" horiz-adv-x="1583" 
d="M457 651h-156v592l-203 -74l-39 115l263 100h135v-733zM1251 1384l-829 -1384h-168l823 1384h174zM1499 184q0 -80 -77 -138q-76 -58 -208 -58t-200 56t-68 151h154q0 -39 32 -61t86 -22t88 26q34 24 34 70t-38 75t-110 28h-76v121h76q135 0 135 98q0 41 -29 66
q-30 25 -80 25t-78 -23t-28 -57h-158q0 90 67 146t194 56t201 -56t73 -148q0 -59 -39 -105t-98 -61q63 -13 105 -61t42 -128z" />
    <glyph glyph-name="twothirds" unicode="&#x2154;" horiz-adv-x="1673" 
d="M1348 1384l-830 -1384h-168l824 1384h174zM1597 184q0 -80 -76 -138q-77 -58 -209 -58t-200 56t-68 151h154q0 -39 32 -61t86 -22t88 26q34 24 34 70t-38 75t-110 28h-76v121h76q135 0 135 98q0 41 -28 66q-29 25 -80 25t-79 -23t-28 -57h-157q0 90 66 146q67 56 194 56
t201 -56t73 -148q0 -59 -39 -105t-98 -61q63 -13 105 -61t42 -128zM84 1155q0 111 66 175t190 65q123 1 195 -63t71 -163q0 -68 -42 -130t-120 -138l-139 -129h307v-121h-514v103l242 237q106 100 106 178q0 45 -26 74q-27 29 -74 29q-106 0 -106 -117h-156z" />
    <glyph glyph-name="oneeighth" unicode="&#x215b;" horiz-adv-x="1599" 
d="M457 651h-156v592l-203 -74l-39 115l263 100h135v-733zM1251 1384l-829 -1384h-168l823 1384h174zM1223 621q-53 0 -84 -25t-31 -69q0 -45 32 -69t84 -24t84 25t31 69q1 93 -116 93zM1223 315q-59 0 -96 -28q-35 -29 -35 -75t38 -73t94 -27t93 26t37 73t-36 75t-95 29z
M1225 -12q-135 0 -214 56t-79 157q0 133 139 176q-125 41 -125 160q0 96 74 151t204 55t202 -55t73 -151q0 -119 -125 -160q141 -43 142 -176q0 -101 -78 -157t-213 -56z" />
    <glyph glyph-name="threeeighths" unicode="&#x215c;" horiz-adv-x="1665" 
d="M1296 621q-53 0 -84 -25q-30 -25 -30 -69q0 -45 32 -69t83 -24q52 0 84 25t32 69q0 93 -117 93zM1296 315q-59 -1 -95 -29t-36 -74t38 -73t94 -27t94 26q37 26 36 73q0 47 -35 76q-37 28 -96 28zM1298 -12q-135 0 -214 56t-78 157q0 133 139 176q-125 41 -125 160
q0 96 74 151t204 55t202 -55q73 -55 73 -151q0 -119 -125 -160q141 -43 141 -176q0 -101 -78 -157t-213 -56zM1323 1384l-829 -1384h-168l823 1384h174zM635 836q0 -80 -77 -138t-209 -59q-131 0 -199 56t-68 151h154q0 -39 32 -61q32 -21 85 -21q54 0 88 24t34 71
q0 46 -38 75t-109 29h-76v120h76q135 0 135 99q0 42 -29 66t-80 24t-79 -23t-27 -57h-158q0 90 67 146t193 56t201 -56q74 -56 74 -148q0 -59 -39 -106q-40 -46 -99 -60q63 -14 105 -61t43 -127z" />
    <glyph glyph-name="fiveeighths" unicode="&#x215d;" horiz-adv-x="1644" 
d="M1274 621q-53 0 -84 -25t-31 -69q0 -45 32 -69t84 -24t84 25t32 69q0 93 -117 93zM1274 315q-59 -1 -95 -29t-36 -74t38 -73t94 -27t93 26t37 73t-36 75t-95 29zM1276 -12q-135 0 -214 56t-79 157q0 133 139 176q-125 41 -125 160q0 96 74 151t204 55t203 -55t72 -151
q0 -119 -125 -160q141 -43 142 -176q0 -101 -78 -157t-213 -56zM1300 1384l-829 -1384h-168l823 1384h174zM623 892q0 -116 -74 -184t-209 -69q-135 0 -203 57t-67 154h155q0 -86 115 -86q59 0 91 34t32 87t-33 85t-93 32t-108 -37l-125 20l54 399h432v-120h-307l-23 -162
q59 23 113 22q106 0 178 -58t72 -174z" />
    <glyph glyph-name="seveneighths" unicode="&#x215e;" horiz-adv-x="1501" 
d="M1159 1384l-829 -1384h-168l823 1384h174zM1130 621q-54 0 -84 -25t-30 -69q0 -45 32 -69t84 -24t83 25q32 25 32 69q0 93 -117 93zM1130 315q-59 -1 -95 -29t-36 -74t38 -73q39 -27 95 -27t93 26t37 73t-36 76q-37 28 -96 28zM1133 -12q-135 0 -214 56t-79 157
q0 133 139 176q-125 41 -125 160q0 96 74 151t204 55t202 -55t73 -151q0 -119 -125 -160q141 -43 141 -176q0 -102 -77 -158q-78 -55 -213 -55zM76 1264v120h522v-104l-293 -629h-168l287 613h-348z" />
    <glyph glyph-name="arrowleft" unicode="&#x2190;" horiz-adv-x="1536" 
d="M1384 668v-176h-948l361 -363l-117 -119l-569 570l569 569l117 -119l-361 -362h948z" />
    <glyph glyph-name="arrowup" unicode="&#x2191;" horiz-adv-x="1536" 
d="M856 -12h-178v950l-361 -360l-118 116l569 570l569 -570l-120 -119l-361 363v-950z" />
    <glyph glyph-name="arrowright" unicode="&#x2192;" horiz-adv-x="1536" 
d="M152 512v176h948l-361 363l117 118l569 -569l-569 -569l-117 119l361 362h-948z" />
    <glyph glyph-name="arrowdown" unicode="&#x2193;" horiz-adv-x="1536" 
d="M680 1190h178v-950l361 360l118 -117l-569 -567l-569 567l120 119l361 -362v950z" />
    <glyph glyph-name="uni2196" unicode="&#x2196;" horiz-adv-x="1536" 
d="M322 1063h804v-168h-512l672 -672l-125 -127l-672 674v-512h-167v805z" />
    <glyph glyph-name="uni2197" unicode="&#x2197;" horiz-adv-x="1536" 
d="M1214 1063v-805h-170v512l-671 -674l-125 127l672 672h-510v168h804z" />
    <glyph glyph-name="uni2198" unicode="&#x2198;" horiz-adv-x="1536" 
d="M1208 117h-805v168h512l-671 671l125 127l671 -673v512h168v-805z" />
    <glyph glyph-name="uni2199" unicode="&#x2199;" horiz-adv-x="1536" 
d="M326 117v805h168v-512l673 673l125 -127l-671 -671h509v-168h-804z" />
    <glyph glyph-name="partialdiff" unicode="&#x2202;" horiz-adv-x="1075" 
d="M283 444q0 -126 59 -206t183 -80t183 106q58 106 62 271q-82 186 -256 186q-115 0 -173 -75t-58 -202zM80 446q0 214 106 342t304 127q198 0 294 -172q-2 177 -103 357t-253 313h252q137 -123 221 -323t84 -460q0 -259 -100 -448q-51 -96 -145 -150t-218 -55
q-218 0 -330 128q-112 127 -112 341z" />
    <glyph glyph-name="Delta" unicode="&#x2206;" horiz-adv-x="1443" 
d="M1094 176l-371 989l-375 -989h746zM45 0l553 1384h250l551 -1384h-1354z" />
    <glyph glyph-name="product" unicode="&#x220f;" horiz-adv-x="1527" 
d="M76 1384h1376v-176h-135v-1650h-211v1652h-680v-1652h-213v1650h-137v176z" />
    <glyph glyph-name="summation" unicode="&#x2211;" horiz-adv-x="1204" 
d="M1124 -268v-176h-1044v215l514 716l-514 682v215h1040v-176h-831l540 -719l-540 -757h835z" />
    <glyph glyph-name="minus" unicode="&#x2212;" 
d="M84 465v178h977v-178h-977z" />
    <glyph glyph-name="uni2215" unicode="&#x2215;" horiz-adv-x="948" 
d="M975 1384l-830 -1384h-168l824 1384h174z" />
    <glyph glyph-name="uni2219" unicode="&#x2219;" horiz-adv-x="512" 
d="M257 414q-67 0 -110 41t-43 105t43 105q43 42 110 42t110 -43q43 -44 43 -106t-43 -103t-110 -41z" />
    <glyph glyph-name="radical" unicode="&#x221a;" horiz-adv-x="1263" 
d="M1245 1425l-500 -1867h-225l-289 667l-145 -67l-66 147l332 148l262 -643l422 1615h209z" />
    <glyph glyph-name="infinity" unicode="&#x221e;" horiz-adv-x="1482" 
d="M424 707q-72 1 -119 -49t-47 -124t47 -117q47 -44 119 -44q110 0 219 162q-115 172 -219 172zM1225 540q0 74 -45 120t-119 47q-100 0 -213 -172q55 -76 104 -118t116 -42t112 45t45 120zM1075 862q133 0 223 -89t91 -231q-1 -142 -89 -234t-223 -91q-195 0 -332 205
q-156 -203 -337 -203q-131 0 -222 89q-90 88 -90 228t88 231t219 91q186 0 342 -211q141 215 330 215z" />
    <glyph glyph-name="integral" unicode="&#x222b;" horiz-adv-x="755" 
d="M477 1118v-1268q0 -137 -77 -225t-238 -88q-70 0 -123 21v174l127 -8q113 0 113 141v1268q0 137 76 225q77 88 239 88q70 0 123 -21v-174l-125 9q-115 -1 -115 -142z" />
    <glyph glyph-name="approxequal" unicode="&#x2248;" 
d="M788 178q-86 0 -226 68t-207 68t-154 -60l-33 -23l-23 168q96 90 224 90q78 1 219 -67q142 -68 210 -68t181 88l22 -168q-92 -96 -213 -96zM371 930q76 0 215 -68q138 -68 210 -68t185 89l23 -168q-90 -96 -213 -97q-87 0 -229 67t-203 67t-96 -22t-61 -40t-34 -22
l-21 166q100 96 224 96z" />
    <glyph glyph-name="notequal" unicode="&#x2260;" 
d="M154 883h442l55 223l113 -27l-49 -196h280v-178h-323l-76 -304h399v-176h-442l-57 -237l-111 24l51 213h-282v176h325l74 304h-399v178z" />
    <glyph glyph-name="lessequal" unicode="&#x2264;" 
d="M143 55v172h840v-172h-840zM145 725v209l840 332v-191l-663 -248l663 -245v-191z" />
    <glyph glyph-name="greaterequal" unicode="&#x2265;" 
d="M1012 934v-209l-842 -334v191l664 245l-664 248v191zM145 55v172h840v-172h-840z" />
    <glyph glyph-name="lozenge" unicode="&#x25ca;" horiz-adv-x="1243" 
d="M1190 723l-473 -723h-193l-473 723l473 702h193zM956 723l-333 504l-340 -504l340 -524z" />
    <glyph glyph-name="circle" unicode="&#x25cb;" horiz-adv-x="1576" 
d="M244 692q0 -262 147 -416t397 -154t398 154q147 154 147 416t-147 415q-148 153 -398 153t-397 -153t-147 -415zM94 692q0 315 194 514t500 199t502 -199q195 -199 195 -514t-195 -515t-502 -200q-306 0 -500 200t-194 515z" />
    <glyph glyph-name="commaaccent" unicode="&#xf6c3;" horiz-adv-x="1228" 
d="M752 -133l-119 -309h-158l53 309h224z" />
    <glyph glyph-name="uniF8FF" unicode="&#xf8ff;" horiz-adv-x="1204" 
d="M256 80h690v1184h-690v-1184zM178 0v1343h846v-1343h-846z" />
    <glyph glyph-name="exclam.sc" horiz-adv-x="471" 
d="M235 -8q-54 0 -92 33q-37 33 -37 83t37 82q37 33 91 33t92 -33q36 -33 36 -83q0 -51 -36 -83t-91 -32zM315 346h-161l-33 692h229z" />
    <glyph glyph-name="numbersign.sc" horiz-adv-x="1103" 
d="M477 625l-31 -195h175l32 195h-176zM236 264h-164l26 166h166l31 195h-162l25 163h164l40 250h185l-45 -250h176l43 250h184l-41 -250h168l-24 -163h-172l-31 -195h168l-25 -166h-172l-45 -264h-184l45 264h-172l-45 -264h-187z" />
    <glyph glyph-name="dollar.sc" horiz-adv-x="952" 
d="M324 750q0 -86 112 -121v248q-56 -10 -84 -45t-28 -82zM662 285q0 86 -132 125v-252q132 18 132 127zM530 -158h-94v144q-270 10 -366 188l143 113q68 -119 223 -129v276l-57 17q-264 78 -264 288q0 121 81 209t240 103v114h94v-112q219 -10 326 -152l-141 -113
q-59 80 -185 93v-279l66 -16q272 -80 272 -285q0 -135 -92 -218t-246 -95v-146z" />
    <glyph glyph-name="percent.sc" horiz-adv-x="1421" 
d="M326 1049q256 0 256 -290t-256 -290t-256 290t256 290zM327 578q60 0 84 43q23 43 23 138t-23 137q-24 42 -84 42t-86 -43t-26 -136t26 -137t86 -44zM1098 569q256 1 256 -289t-256 -290t-256 290t256 289zM987 280q0 -92 26 -136t86 -44t84 42q23 42 23 138t-23 138
q-24 43 -84 43t-86 -44t-26 -137zM1120 1038l-667 -1038h-154l666 1038h155z" />
    <glyph glyph-name="ampersand.sc" horiz-adv-x="1120" 
d="M621 799q0 41 -37 71q-38 30 -100 29t-100 -29t-38 -82t92 -141l19 -18l32 20q70 47 101 78t31 72zM406 139q111 0 217 101l-183 184l-28 -18l-24 -16l-24 -18q-6 -6 -22 -16t-22 -17t-18 -17q-11 -10 -16 -18q-6 -8 -14 -22q-8 -13 -8 -48t39 -65q40 -30 103 -30z
M1077 0h-215l-123 123q-150 -139 -344 -139q-145 0 -229 70t-84 179q0 66 40 128q71 109 200 180q-19 20 -29 30q-129 127 -129 232t87 179t231 73q144 0 232 -75t87 -183q0 -74 -51 -135t-154 -136l-23 -14l154 -154l160 199l137 -98l-176 -219l229 -228v-12z" />
    <glyph glyph-name="section.sc" horiz-adv-x="966" 
d="M307 483q0 -47 40 -75t128 -54l139 -43q55 37 56 82q0 86 -156 127l-154 43q-53 -33 -53 -80zM866 428q0 -111 -102 -180q100 -61 100 -168q0 -106 -96 -180t-295 -74q-274 0 -383 145l100 117q113 -117 289 -117t176 82q0 31 -34 50q-35 19 -109 44l-158 50
q-244 80 -243 243q0 115 100 187q-100 63 -100 165t97 183q97 80 281 80q236 0 357 -131l-111 -121q-96 100 -264 100q-66 1 -110 -21t-44 -56t35 -54t117 -47l137 -43q260 -80 260 -254z" />
    <glyph glyph-name="paragraph.sc" horiz-adv-x="946" 
d="M655 -43v743h170v-706q1 -115 -39 -200t-153 -142l-107 112q129 80 129 193zM377 700h192v-714h-170v241q-319 0 -319 234q0 113 74 176t223 63z" />
    <glyph glyph-name="parenleft.sc" horiz-adv-x="540" 
d="M90 371q0 209 62 371t182 339l145 -55q-188 -348 -188 -666t184 -647l-141 -55q-244 326 -244 713z" />
    <glyph glyph-name="slash.sc" horiz-adv-x="647" 
d="M592 1038v-18l-344 -1020h-189v20l336 1018h197z" />
    <glyph glyph-name="parenright.sc" horiz-adv-x="540" 
d="M250 358q0 316 -187 668l146 55q119 -176 180 -339t62 -371q0 -381 -242 -713l-143 55q184 329 184 645z" />
    <glyph glyph-name="bracketleft.sc" horiz-adv-x="602" 
d="M125 1069h401v-158h-200v-1085h200v-158h-401v1401z" />
    <glyph glyph-name="backslash.sc" horiz-adv-x="659" 
d="M57 1038h195l350 -1018v-20h-190l-355 1020v18z" />
    <glyph glyph-name="bracketright.sc" horiz-adv-x="602" 
d="M78 1069h399v-1401h-399v158h201v1085h-201v158z" />
    <glyph glyph-name="braceleft.sc" horiz-adv-x="591" 
d="M406 829v-284q0 -164 -140 -180q139 -16 140 -179v-288q0 -51 22 -70q23 -18 74 -18v-142q-156 0 -226 48t-69 169v283q0 125 -156 125v141q80 0 118 30t38 101v277q0 119 71 169t224 50v-141q-48 0 -72 -20t-24 -71z" />
    <glyph glyph-name="bar.sc" horiz-adv-x="368" 
d="M244 -332h-119v1401h119v-1401z" />
    <glyph glyph-name="braceright.sc" horiz-adv-x="591" 
d="M184 545v284q0 51 -22 71q-23 19 -74 20v141q154 0 224 -50t71 -169v-277q0 -71 38 -101t118 -30v-141q-156 0 -156 -125v-283q0 -121 -70 -169t-225 -48v142q51 0 74 18t22 70v288q0 162 140 179q-140 16 -140 180z" />
    <glyph glyph-name="zero.sc" horiz-adv-x="1040" 
d="M520 1055q424 0 424 -535q0 -254 -103 -395t-321 -141q-424 0 -424 536q0 252 104 394t320 141zM521 150q116 0 166 91t50 278t-50 279t-166 91q-116 0 -166 -91q-50 -90 -50 -278t50 -279t166 -91z" />
    <glyph glyph-name="one.sc" horiz-adv-x="710" 
d="M567 0h-202v850l-289 -105l-49 152l366 141h174v-1038z" />
    <glyph glyph-name="two.sc" horiz-adv-x="915" 
d="M441 1055q169 0 267 -88t99 -228q0 -100 -58 -188t-165 -193l-209 -196h446v-162h-717v137l342 340q154 143 154 262q0 68 -40 109t-114 41q-156 0 -155 -170h-203q0 154 92 245t261 91z" />
    <glyph glyph-name="three.sc" horiz-adv-x="956" 
d="M858 279q0 -133 -108 -214t-289 -81q-182 0 -277 78q-94 79 -94 212h203q0 -59 47 -92q47 -32 129 -32t132 38t50 107q0 70 -57 112t-162 42h-104v161h104q201 0 201 144q0 61 -44 98t-120 37t-119 -34t-43 -87h-203q0 127 92 207t267 80q176 0 277 -81t102 -210
q0 -88 -56 -153t-139 -81q87 -18 149 -87t62 -164z" />
    <glyph glyph-name="four.sc" horiz-adv-x="993" 
d="M578 367v409l-306 -409h306zM913 367v-162h-135v-205h-200v205h-517v143l504 690h213v-671h135z" />
    <glyph glyph-name="five.sc" horiz-adv-x="925" 
d="M492 670q152 0 250 -83t98 -245t-104 -260t-290 -98t-279 82t-93 215h200q0 -61 45 -97t132 -34q87 0 134 50q46 50 46 131t-47 126t-138 45t-161 -51l-160 26l70 561h600v-161h-435l-34 -244q78 37 166 37z" />
    <glyph glyph-name="six.sc" horiz-adv-x="985" 
d="M672 768q0 55 -42 88t-116 33q-106 0 -158 -84t-53 -227q92 88 251 88t251 -89t92 -241t-102 -252t-300 -100t-299 136q-102 136 -102 380t104 400q104 155 316 155q178 0 268 -80t90 -207h-200zM688 330q0 84 -48 131t-138 47q-129 0 -197 -109q0 -109 50 -179
q51 -70 145 -70t141 48t47 132z" />
    <glyph glyph-name="seven.sc" horiz-adv-x="835" 
d="M63 877v161h723v-139l-411 -899h-217l401 877h-496z" />
    <glyph glyph-name="eight.sc" horiz-adv-x="1001" 
d="M501 150q91 0 143 38t52 112q0 73 -55 113t-141 40t-142 -40t-55 -113q0 -73 53 -112q54 -38 145 -38zM500 889q-80 0 -127 -36q-47 -37 -47 -103t48 -102t126 -36t126 36t48 103t-47 103t-127 35zM501 -16q-185 0 -296 78t-111 223q0 97 58 161t151 89q-84 25 -135 83
t-51 142q0 137 102 216q101 79 281 79t281 -79t102 -216q0 -84 -50 -142t-135 -83q90 -25 148 -90t59 -160q0 -143 -109 -223q-110 -78 -295 -78z" />
    <glyph glyph-name="nine.sc" horiz-adv-x="987" 
d="M115 270h202q0 -55 41 -88t113 -32q109 0 161 84t52 227q-94 -90 -252 -90t-250 90q-92 89 -92 241t104 252t300 100q198 0 298 -136q100 -137 101 -382q0 -245 -103 -399t-319 -153q-176 0 -266 80t-90 206zM490 889q-94 0 -143 -48q-48 -48 -48 -132t48 -131t140 -48
q127 1 195 107q0 111 -49 181t-143 71z" />
    <glyph glyph-name="question.sc" horiz-adv-x="784" 
d="M378 1055q157 0 247 -79t90 -191t-88 -200q-37 -36 -74 -71q-90 -85 -88 -168h-195q0 122 89 211q38 37 75 71q90 82 89 137q-1 54 -37 86t-100 32t-98 -29q-36 -29 -36 -70l-184 19q0 109 76 181t234 71zM369 -8q-55 0 -91 33t-36 83t34 82q36 33 92 33t92 -33t36 -83
q0 -51 -36 -83t-91 -32z" />
    <glyph glyph-name="a.sc" horiz-adv-x="1071" 
d="M537 831l-156 -432h309zM827 0l-86 236h-413l-84 -236h-221l393 1038h239l394 -1038h-222z" />
    <glyph glyph-name="b.sc" horiz-adv-x="1032" 
d="M350 618h148q178 0 178 128t-180 128h-146v-256zM350 164h172q211 0 211 144t-211 145h-172v-289zM141 0v1038h383q367 0 367 -272q0 -166 -162 -219q95 -18 157 -83t62 -169q0 -295 -418 -295h-389z" />
    <glyph glyph-name="c.sc" horiz-adv-x="1026" 
d="M582 883q-277 1 -277 -363t277 -364q141 0 215 123l157 -99q-115 -196 -367 -196q-253 0 -375 140t-122 396t123 395t375 139t366 -196l-157 -98q-74 123 -215 123z" />
    <glyph glyph-name="d.sc" horiz-adv-x="1132" 
d="M350 164h127q195 0 272 79t77 275t-77 277q-77 80 -272 79h-127v-710zM141 0v1038h348q287 0 419 -124t132 -394t-133 -395t-418 -125h-348z" />
    <glyph glyph-name="e.sc" horiz-adv-x="958" 
d="M350 164h516v-164h-725v1038h719v-164h-510v-268h441v-166h-441v-276z" />
    <glyph glyph-name="f.sc" horiz-adv-x="913" 
d="M141 0v1038h695v-164h-486v-296h410v-166h-410v-412h-209z" />
    <glyph glyph-name="g.sc" horiz-adv-x="1114" 
d="M586 399v166h446q8 -70 8 -100q0 -211 -112 -346t-348 -135q-234 0 -362 137t-128 399q0 535 518 535q126 0 224 -50t147 -139l-156 -100q-79 117 -229 117t-220 -90t-71 -278q0 -189 68 -275t203 -86t195 68t60 177h-243z" />
    <glyph glyph-name="h.sc" horiz-adv-x="1183" 
d="M836 621v417h206v-1038h-206v455h-486v-455h-209v1038h209v-417h486z" />
    <glyph glyph-name="i.sc" horiz-adv-x="493" 
d="M141 0v1038h209v-1038h-209z" />
    <glyph glyph-name="j.sc" horiz-adv-x="845" 
d="M336 156q96 0 138 47t42 153v682h197v-696q-1 -174 -97 -266t-270 -92q-219 0 -305 172l147 92q52 -92 148 -92z" />
    <glyph glyph-name="k.sc" horiz-adv-x="1071" 
d="M350 0h-209v1038h209v-454l441 454h247l-403 -428l401 -610h-241l-301 465l-144 -137v-328z" />
    <glyph glyph-name="l.sc" horiz-adv-x="843" 
d="M350 164h449v-164h-658v1038h209v-874z" />
    <glyph glyph-name="m.sc" horiz-adv-x="1464" 
d="M733 248l246 790h274l123 -1038h-194l-86 803l-252 -803h-228l-237 797l-98 -797h-197l137 1038h277z" />
    <glyph glyph-name="n.sc" horiz-adv-x="1181" 
d="M834 1038h204v-1038h-211l-477 717l2 -717h-211v1038h221l472 -706v706z" />
    <glyph glyph-name="o.sc" horiz-adv-x="1130" 
d="M1040 518q0 -244 -116 -389t-361 -145t-359 144t-114 390t115 391t361 145t360 -146t114 -390zM305 518q0 -176 56 -269q55 -93 201 -93t206 94q59 94 59 268q0 365 -261 365t-261 -365z" />
    <glyph glyph-name="p.sc" horiz-adv-x="1001" 
d="M350 874v-329h166q199 0 199 165t-199 164h-166zM530 379h-180v-379h-209v1038h389q195 0 297 -85q103 -85 103 -245t-102 -244q-102 -85 -298 -85z" />
    <glyph glyph-name="q.sc" horiz-adv-x="1130" 
d="M305 518q0 -176 56 -269t202 -93q102 0 166 51l-248 217l107 115l221 -191q18 74 18 170q0 365 -261 365t-261 -365zM1040 518q0 -186 -65 -311l121 -103l-111 -120l-111 96q-119 -96 -311 -96q-245 0 -359 144t-114 390t115 391t361 145t360 -146t114 -390z" />
    <glyph glyph-name="r.sc" horiz-adv-x="1048" 
d="M750 733q0 141 -209 141h-191v-286h191q115 0 162 36t47 109zM141 0v1038h420q401 0 402 -305q0 -117 -68 -195t-197 -98l287 -440h-231l-265 422h-139v-422h-209z" />
    <glyph glyph-name="s.sc" horiz-adv-x="946" 
d="M324 750q0 -88 120 -123l144 -41q274 -80 274 -285q0 -149 -110 -233t-289 -84q-295 0 -402 190l146 113q37 -63 92 -97t155 -34q194 1 193 129q0 90 -133 127l-141 39q-264 78 -264 288q0 133 95 225t288 91q247 0 358 -154l-141 -113q-72 94 -217 95q-82 0 -125 -38
t-43 -95z" />
    <glyph glyph-name="t.sc" horiz-adv-x="940" 
d="M63 1038h816v-164h-304v-874h-208v874h-304v164z" />
    <glyph glyph-name="u.sc" horiz-adv-x="1122" 
d="M991 395q1 -209 -115 -309t-316 -100t-314 100t-115 309v643h209v-639q0 -125 53 -184t168 -59t168 59t53 184v639h209v-643z" />
    <glyph glyph-name="v.sc" horiz-adv-x="1046" 
d="M795 1038h219l-359 -1038h-266l-354 1038h215l274 -831z" />
    <glyph glyph-name="w.sc" horiz-adv-x="1660" 
d="M713 1038h235l234 -813l217 813h213l-295 -1038h-256l-232 764l-231 -764h-254l-297 1038h215l219 -813z" />
    <glyph glyph-name="x.sc" horiz-adv-x="1026" 
d="M47 1038h234l231 -370l233 370h234l-330 -503l340 -535h-233l-244 389l-242 -389h-233l340 535z" />
    <glyph glyph-name="y.sc" horiz-adv-x="1009" 
d="M610 0h-209v403l-378 635h227l258 -452l252 452h229l-379 -635v-403z" />
    <glyph glyph-name="z.sc" horiz-adv-x="913" 
d="M817 1038v-145l-498 -729h512v-164h-755v143l497 731h-473v164h717z" />
    <glyph glyph-name="agrave.sc" horiz-adv-x="1071" 
d="M268 1487h203l154 -326h-179zM537 831l-156 -432h309zM827 0l-86 236h-413l-84 -236h-221l393 1038h239l394 -1038h-222z" />
    <glyph glyph-name="aacute.sc" horiz-adv-x="1071" 
d="M600 1487h203l-178 -326h-179zM537 831l-156 -432h309zM827 0l-86 236h-413l-84 -236h-221l393 1038h239l394 -1038h-222z" />
    <glyph glyph-name="acircumflex.sc" horiz-adv-x="1071" 
d="M434 1487h205l207 -328h-187l-122 195l-125 -195h-187zM537 831l-156 -432h309zM827 0l-86 236h-413l-84 -236h-221l393 1038h239l394 -1038h-222z" />
    <glyph glyph-name="atilde.sc" horiz-adv-x="1071" 
d="M693 1276q-60 0 -155 -41t-171 -41t-127 47l8 156q50 -51 116 -51t156 40t165 41q75 0 149 -47l-9 -155q-72 51 -132 51zM537 831l-156 -432h309zM827 0l-86 236h-413l-84 -236h-221l393 1038h239l394 -1038h-222z" />
    <glyph glyph-name="adieresis.sc" horiz-adv-x="1071" 
d="M729 1184q-127 0 -127 123q0 63 35 95t90 32t92 -33t37 -94t-37 -92t-90 -31zM344 1184q-127 0 -127 123q0 63 35 95t90 32t92 -33t37 -94t-37 -92t-90 -31zM537 831l-156 -432h309zM827 0l-86 236h-413l-84 -236h-221l393 1038h239l394 -1038h-222z" />
    <glyph glyph-name="amacron.sc" horiz-adv-x="1071" 
d="M242 1372h589v-162h-589v162zM537 831l-156 -432h309zM827 0l-86 236h-413l-84 -236h-221l393 1038h239l394 -1038h-222z" />
    <glyph glyph-name="abreve.sc" horiz-adv-x="1071" 
d="M836 1446q0 -131 -80 -215t-219 -84t-219 84q-79 84 -78 215h135q8 -66 51 -107t110 -41q68 0 110 41t50 107h140zM537 831l-156 -432h309zM827 0l-86 236h-413l-84 -236h-221l393 1038h239l394 -1038h-222z" />
    <glyph glyph-name="aring.sc" horiz-adv-x="1071" 
d="M440 1330q0 -38 26 -64t70 -25q44 0 70 26q26 25 25 63q0 38 -26 64q-25 26 -69 26t-70 -26t-26 -64zM319 1331q-1 83 57 141t160 58t161 -57t59 -141t-58 -143t-161 -59q-102 0 -160 58t-58 143zM537 831l-156 -432h309zM827 0l-86 236h-413l-84 -236h-221l393 1038h239
l394 -1038h-222z" />
    <glyph glyph-name="aringacute.sc" horiz-adv-x="1071" 
d="M537 831l-156 -432h309zM827 0l-86 236h-413l-84 -236h-221l393 1038h239l394 -1038h-222zM434 1330q0 -40 26 -66t72 -25q46 0 72 26q27 25 27 65t-27 67t-73 27q-45 0 -71 -28q-26 -26 -26 -66zM752 1329q0 -82 -60 -139t-160 -57t-158 57t-59 132q0 75 38 124t106 67
l112 173h203l-139 -181q117 -51 117 -176z" />
    <glyph glyph-name="aogonek.sc" horiz-adv-x="1067" 
d="M535 831l-156 -432h309zM856 -442q-106 0 -169 51q-62 51 -62 149t120 197l74 59l-80 222h-413l-84 -236h-222l394 1038h239l394 -1038l-146 -111q-65 -53 -65 -91q1 -75 77 -77q59 0 134 54v-170q-85 -47 -191 -47z" />
    <glyph glyph-name="ae.sc" horiz-adv-x="1636" 
d="M821 399v392l-282 -392h282zM1028 164h516v-164h-723v236h-401l-170 -236h-248l770 1038h766v-164h-510v-268h442v-166h-442v-276z" />
    <glyph glyph-name="aeacute.sc" horiz-adv-x="1636" 
d="M821 399v392l-282 -392h282zM1028 164h516v-164h-723v236h-401l-170 -236h-248l770 1038h766v-164h-510v-268h442v-166h-442v-276zM1167 1487h203l-178 -326h-178z" />
    <glyph glyph-name="cacute.sc" horiz-adv-x="1026" 
d="M612 1487h203l-178 -326h-178zM582 883q-277 1 -277 -363t277 -364q141 0 215 123l157 -99q-115 -196 -367 -196q-253 0 -375 140t-122 396t123 395t375 139t366 -196l-157 -98q-74 123 -215 123z" />
    <glyph glyph-name="ccircumflex.sc" horiz-adv-x="1026" 
d="M455 1487h204l207 -328h-186l-123 195l-125 -195h-186zM582 883q-277 1 -277 -363t277 -364q141 0 215 123l157 -99q-115 -196 -367 -196q-253 0 -375 140t-122 396t123 395t375 139t366 -196l-157 -98q-74 123 -215 123z" />
    <glyph glyph-name="ccaron.sc" horiz-adv-x="1026" 
d="M659 1159h-204l-209 328h186l125 -195l123 195h186zM582 883q-277 1 -277 -363t277 -364q141 0 215 123l157 -99q-115 -196 -367 -196q-253 0 -375 140t-122 396t123 395t375 139t366 -196l-157 -98q-74 123 -215 123z" />
    <glyph glyph-name="cdotaccent.sc" horiz-adv-x="1026" 
d="M557 1184q-127 0 -127 123q0 63 35 95t90 32t92 -33t37 -94t-37 -92t-90 -31zM582 883q-277 1 -277 -363t277 -364q141 0 215 123l157 -99q-115 -196 -367 -196q-253 0 -375 140t-122 396t123 395t375 139t366 -196l-157 -98q-74 123 -215 123z" />
    <glyph glyph-name="ccedilla.sc" horiz-adv-x="1026" 
d="M582 883q-277 1 -277 -363t277 -364q141 0 215 123l157 -99q-100 -172 -315 -192l-35 -90q193 0 193 -166q-1 -78 -61 -126t-160 -48t-191 47v135q84 -62 166 -62t82 56t-101 55h-79l-11 12l64 187q-205 18 -310 156q-106 138 -106 385t123 386t375 139t366 -196
l-157 -98q-74 123 -215 123z" />
    <glyph glyph-name="dcaron.sc" horiz-adv-x="1132" 
d="M631 1159h-205l-209 328h186l125 -195l123 195h187zM350 164h127q195 0 272 79t77 275t-77 277q-77 80 -272 79h-127v-710zM141 0v1038h348q287 0 419 -124t132 -394t-133 -395t-418 -125h-348z" />
    <glyph glyph-name="dcroat.sc" horiz-adv-x="1150" 
d="M369 164h127q196 0 272 79t76 275t-77 277q-77 80 -271 79h-127v-270h204v-149h-204v-291zM43 604h117v434h348q287 0 419 -124t132 -394t-133 -395t-418 -125h-348v455h-117v149z" />
    <glyph glyph-name="eth.sc" horiz-adv-x="1150" 
d="M369 164h127q196 0 272 79t76 275t-77 277q-77 80 -271 79h-127v-270h204v-149h-204v-291zM43 604h117v434h348q287 0 419 -124t132 -394t-133 -395t-418 -125h-348v455h-117v149z" />
    <glyph glyph-name="egrave.sc" horiz-adv-x="958" 
d="M242 1487h202l154 -326h-178zM350 164h516v-164h-725v1038h719v-164h-510v-268h441v-166h-441v-276z" />
    <glyph glyph-name="eacute.sc" horiz-adv-x="958" 
d="M559 1487h203l-178 -326h-178zM350 164h516v-164h-725v1038h719v-164h-510v-268h441v-166h-441v-276z" />
    <glyph glyph-name="ecircumflex.sc" horiz-adv-x="958" 
d="M397 1487h205l207 -328h-186l-123 195l-125 -195h-187zM350 164h516v-164h-725v1038h719v-164h-510v-268h441v-166h-441v-276z" />
    <glyph glyph-name="ecaron.sc" horiz-adv-x="958" 
d="M602 1159h-205l-209 328h187l125 -195l123 195h186zM350 164h516v-164h-725v1038h719v-164h-510v-268h441v-166h-441v-276z" />
    <glyph glyph-name="edieresis.sc" horiz-adv-x="958" 
d="M692 1184q-127 0 -127 123q0 63 35 95t90 32t92 -33t37 -94t-37 -92t-90 -31zM307 1184q-127 0 -127 123q0 63 35 95t90 32t92 -33t37 -94t-37 -92t-90 -31zM350 164h516v-164h-725v1038h719v-164h-510v-268h441v-166h-441v-276z" />
    <glyph glyph-name="emacron.sc" horiz-adv-x="958" 
d="M205 1372h590v-162h-590v162zM350 164h516v-164h-725v1038h719v-164h-510v-268h441v-166h-441v-276z" />
    <glyph glyph-name="ebreve.sc" horiz-adv-x="958" 
d="M797 1446q0 -131 -80 -215t-219 -84t-218 84t-79 215h135q8 -66 51 -107t110 -41t109 41t51 107h140zM350 164h516v-164h-725v1038h719v-164h-510v-268h441v-166h-441v-276z" />
    <glyph glyph-name="edotaccent.sc" horiz-adv-x="958" 
d="M500 1184q-127 0 -127 123q0 63 35 95t90 32t92 -33t37 -94t-37 -92t-90 -31zM350 164h516v-164h-725v1038h719v-164h-510v-268h441v-166h-441v-276z" />
    <glyph glyph-name="eogonek.sc" horiz-adv-x="956" 
d="M348 164h516v-164h-2l-145 -111q-66 -53 -66 -91q0 -75 78 -77q59 0 133 54v-170q-86 -47 -191 -47t-168 51t-63 149t121 197l55 45h-477v1038h719v-164h-510v-268h440v-166h-440v-276z" />
    <glyph glyph-name="gcircumflex.sc" horiz-adv-x="1114" 
d="M473 1487h205l207 -328h-187l-123 195l-124 -195h-187zM586 399v166h446q8 -70 8 -100q0 -211 -112 -346t-348 -135q-234 0 -362 137t-128 399q0 535 518 535q126 0 224 -50t147 -139l-156 -100q-79 117 -229 117t-220 -90t-71 -278q0 -189 68 -275t203 -86t195 68
t60 177h-243z" />
    <glyph glyph-name="gbreve.sc" horiz-adv-x="1114" 
d="M874 1446q0 -131 -80 -215t-218 -84q-140 0 -219 84t-78 215h135q8 -66 51 -107t109 -41t110 41q43 41 51 107h139zM586 399v166h446q8 -70 8 -100q0 -211 -112 -346t-348 -135q-234 0 -362 137t-128 399q0 535 518 535q126 0 224 -50t147 -139l-156 -100
q-79 117 -229 117t-220 -90t-71 -278q0 -189 68 -275t203 -86t195 68t60 177h-243z" />
    <glyph glyph-name="gdotaccent.sc" horiz-adv-x="1114" 
d="M575 1184q-127 0 -126 123q0 63 34 95q35 32 90 32t93 -33t36 -94q0 -61 -36 -93q-38 -30 -91 -30zM586 399v166h446q8 -70 8 -100q0 -211 -112 -346t-348 -135q-234 0 -362 137t-128 399q0 535 518 535q126 0 224 -50t147 -139l-156 -100q-79 117 -229 117t-220 -90
t-71 -278q0 -189 68 -275t203 -86t195 68t60 177h-243z" />
    <glyph glyph-name="gcommaaccent.sc" horiz-adv-x="1114" 
d="M698 -133l-118 -309h-158l53 309h223zM586 399v166h446q8 -70 8 -100q0 -211 -112 -346t-348 -135q-234 0 -362 137t-128 399q0 535 518 535q126 0 224 -50t147 -139l-156 -100q-79 117 -229 117t-220 -90t-71 -278q0 -189 68 -275t203 -86t195 68t60 177h-243z" />
    <glyph glyph-name="hcircumflex.sc" horiz-adv-x="1183" 
d="M489 1487h205l207 -328h-186l-123 195l-125 -195h-186zM836 621v417h206v-1038h-206v455h-486v-455h-209v1038h209v-417h486z" />
    <glyph glyph-name="hbar.sc" horiz-adv-x="1185" 
d="M836 621v133h-486v-133h486zM68 895h75v143h207v-143h486v143h206v-143h80v-141h-80v-754h-206v455h-486v-455h-207v754h-75v141z" />
    <glyph glyph-name="igrave.sc" horiz-adv-x="493" 
d="M-20 1487h202l154 -326h-178zM141 0v1038h209v-1038h-209z" />
    <glyph glyph-name="iacute.sc" horiz-adv-x="493" 
d="M311 1487h203l-178 -326h-178zM141 0v1038h209v-1038h-209z" />
    <glyph glyph-name="ibreve.sc" horiz-adv-x="493" 
d="M545 1446q0 -131 -80 -215t-219 -84t-218 84t-79 215h135q8 -66 51 -107t110 -41t110 41t51 107h139zM141 0v1038h209v-1038h-209z" />
    <glyph glyph-name="icircumflex.sc" horiz-adv-x="493" 
d="M143 1487h205l207 -328h-186l-123 195l-125 -195h-187zM141 0v1038h209v-1038h-209z" />
    <glyph glyph-name="itilde.sc" horiz-adv-x="493" 
d="M402 1276q-60 0 -155 -41t-171 -41t-127 47l8 156q51 -51 115 -51t156 40q91 40 166 41q75 0 149 -47l-8 -155q-73 51 -133 51zM141 0v1038h209v-1038h-209z" />
    <glyph glyph-name="idieresis.sc" horiz-adv-x="493" 
d="M440 1184q-127 0 -127 123q0 63 35 95t90 32t92 -33t37 -94t-37 -92t-90 -31zM55 1184q-127 0 -127 123q0 63 35 95t90 32t92 -33t37 -94t-37 -92t-90 -31zM141 0v1038h209v-1038h-209z" />
    <glyph glyph-name="imacron.sc" horiz-adv-x="493" 
d="M-47 1372h590v-162h-590v162zM141 0v1038h209v-1038h-209z" />
    <glyph glyph-name="idotaccent.sc" horiz-adv-x="493" 
d="M248 1184q-127 0 -127 123q0 63 35 95t90 32t92 -33t37 -94t-37 -92t-90 -31zM141 0v1038h209v-1038h-209z" />
    <glyph glyph-name="iogonek.sc" horiz-adv-x="491" 
d="M139 -202q0 -75 78 -77q59 0 133 54v-170q-86 -47 -191 -47t-168 51t-63 149t121 197l92 74v1009h209v-1038l-145 -111q-66 -53 -66 -91z" />
    <glyph glyph-name="jcircumflex.sc" horiz-adv-x="847" 
d="M514 1487h205l207 -328h-187l-123 195l-124 -195h-187zM336 156q96 0 138 47t42 153v682h197v-696q-1 -174 -97 -266t-270 -92q-219 0 -305 172l147 92q52 -92 148 -92z" />
    <glyph glyph-name="kcommaaccent.sc" horiz-adv-x="1071" 
d="M641 -133l-119 -309h-157l53 309h223zM350 0h-209v1038h209v-454l441 454h247l-403 -428l401 -610h-241l-301 465l-144 -137v-328z" />
    <glyph glyph-name="lacute.sc" horiz-adv-x="843" 
d="M313 1487h203l-178 -326h-178zM350 164h449v-164h-658v1038h209v-874z" />
    <glyph glyph-name="lcaron.sc" horiz-adv-x="940" 
d="M901 1038l-119 -331h-147l51 331h215zM350 164h449v-164h-658v1038h209v-874z" />
    <glyph glyph-name="lcommaaccent.sc" horiz-adv-x="843" 
d="M569 -133l-118 -309h-158l53 309h223zM350 164h449v-164h-658v1038h209v-874z" />
    <glyph glyph-name="lslash.sc" horiz-adv-x="858" 
d="M367 164h448v-164h-657v383l-113 -49v166l113 47v491h209v-401l141 61v-163l-141 -62v-309z" />
    <glyph glyph-name="ldot.sc" horiz-adv-x="919" 
d="M694 471q-127 0 -127 123q0 63 35 95t90 32t92 -33t37 -94t-37 -92t-90 -31zM350 164h449v-164h-658v1038h209v-874z" />
    <glyph glyph-name="nacute.sc" horiz-adv-x="1181" 
d="M655 1487h203l-178 -326h-178zM834 1038h204v-1038h-211l-477 717l2 -717h-211v1038h221l472 -706v706z" />
    <glyph glyph-name="ncaron.sc" horiz-adv-x="1181" 
d="M692 1159h-205l-208 328h186l125 -195l123 195h186zM834 1038h204v-1038h-211l-477 717l2 -717h-211v1038h221l472 -706v706z" />
    <glyph glyph-name="ntilde.sc" horiz-adv-x="1181" 
d="M746 1276q-60 0 -155 -41t-171 -41t-127 47l8 156q51 -51 117 -51t156 40q91 40 165 41q74 0 148 -47l-8 -155q-73 51 -133 51zM834 1038h204v-1038h-211l-477 717l2 -717h-211v1038h221l472 -706v706z" />
    <glyph glyph-name="ncommaaccent.sc" horiz-adv-x="1181" 
d="M707 -133l-119 -309h-158l53 309h224zM834 1038h204v-1038h-211l-477 717l2 -717h-211v1038h221l472 -706v706z" />
    <glyph glyph-name="ograve.sc" horiz-adv-x="1130" 
d="M309 1487h203l154 -326h-179zM1040 518q0 -244 -116 -389t-361 -145t-359 144t-114 390t115 391t361 145t360 -146t114 -390zM305 518q0 -176 56 -269q55 -93 201 -93t206 94q59 94 59 268q0 365 -261 365t-261 -365z" />
    <glyph glyph-name="oacute.sc" horiz-adv-x="1130" 
d="M627 1487h202l-178 -326h-178zM1040 518q0 -244 -116 -389t-361 -145t-359 144t-114 390t115 391t361 145t360 -146t114 -390zM305 518q0 -176 56 -269q55 -93 201 -93t206 94q59 94 59 268q0 365 -261 365t-261 -365z" />
    <glyph glyph-name="ocircumflex.sc" horiz-adv-x="1130" 
d="M465 1487h205l207 -328h-187l-123 195l-125 -195h-186zM1040 518q0 -244 -116 -389t-361 -145t-359 144t-114 390t115 391t361 145t360 -146t114 -390zM305 518q0 -176 56 -269q55 -93 201 -93t206 94q59 94 59 268q0 365 -261 365t-261 -365z" />
    <glyph glyph-name="otilde.sc" horiz-adv-x="1130" 
d="M724 1276q-60 0 -156 -41t-170 -41q-76 0 -128 47l9 156q51 -51 115 -51t157 40q91 40 165 41q74 0 148 -47l-8 -155q-72 51 -132 51zM1040 518q0 -244 -116 -389t-361 -145t-359 144t-114 390t115 391t361 145t360 -146t114 -390zM305 518q0 -176 56 -269
q55 -93 201 -93t206 94q59 94 59 268q0 365 -261 365t-261 -365z" />
    <glyph glyph-name="odieresis.sc" horiz-adv-x="1130" 
d="M760 1184q-127 0 -127 123q0 63 35 95t90 32t92 -33t37 -94t-37 -92t-90 -31zM375 1184q-127 0 -127 123q0 63 35 95t90 32t92 -33t37 -94t-37 -92t-90 -31zM1040 518q0 -244 -116 -389t-361 -145t-359 144t-114 390t115 391t361 145t360 -146t114 -390zM305 518
q0 -176 56 -269q55 -93 201 -93t206 94q59 94 59 268q0 365 -261 365t-261 -365z" />
    <glyph glyph-name="omacron.sc" horiz-adv-x="1130" 
d="M272 1372h590v-162h-590v162zM1040 518q0 -244 -116 -389t-361 -145t-359 144t-114 390t115 391t361 145t360 -146t114 -390zM305 518q0 -176 56 -269q55 -93 201 -93t206 94q59 94 59 268q0 365 -261 365t-261 -365z" />
    <glyph glyph-name="obreve.sc" horiz-adv-x="1130" 
d="M864 1446q0 -131 -80 -215t-219 -84t-218 84t-79 215h135q7 -66 51 -107t110 -41t110 41q43 41 51 107h139zM1040 518q0 -244 -116 -389t-361 -145t-359 144t-114 390t115 391t361 145t360 -146t114 -390zM305 518q0 -176 56 -269q55 -93 201 -93t206 94q59 94 59 268
q0 365 -261 365t-261 -365z" />
    <glyph glyph-name="ohungarumlaut.sc" horiz-adv-x="1130" 
d="M795 1487h202l-178 -326h-178zM455 1487h202l-178 -326h-178zM1040 518q0 -244 -116 -389t-361 -145t-359 144t-114 390t115 391t361 145t360 -146t114 -390zM305 518q0 -176 56 -269q55 -93 201 -93t206 94q59 94 59 268q0 365 -261 365t-261 -365z" />
    <glyph glyph-name="oslash.sc" horiz-adv-x="1130" 
d="M305 518q0 -121 23 -196l393 516q-61 45 -154 45q-262 0 -262 -365zM827 494q0 150 -28 227l-396 -518q59 -47 160 -47q145 0 205 94q59 94 59 244zM1040 516q0 -242 -116 -387t-361 -145q-166 0 -274 69l-41 -53h-164l109 143q-103 135 -103 378t115 388t362 146
q160 0 267 -68l38 51h170l-108 -141q106 -139 106 -381z" />
    <glyph glyph-name="oslashacute.sc" horiz-adv-x="1130" 
d="M305 518q0 -121 23 -196l393 516q-61 45 -154 45q-262 0 -262 -365zM827 494q0 150 -28 227l-396 -518q59 -47 160 -47q145 0 205 94q59 94 59 244zM1040 516q0 -242 -116 -387t-361 -145q-166 0 -274 69l-41 -53h-164l109 143q-103 135 -103 378t115 388t362 146
q160 0 267 -68l38 51h170l-108 -141q106 -139 106 -381zM621 1487h202l-178 -326h-178z" />
    <glyph glyph-name="oe.sc" horiz-adv-x="1505" 
d="M563 156q80 0 127 16v692q-51 18 -123 19q-262 0 -262 -365q1 -176 57 -269t201 -93zM899 164h514v-164h-690q-76 -16 -160 -16q-245 0 -359 144t-114 390t115 391t362 146q82 0 154 -17h686v-164h-508v-268h440v-166h-440v-276z" />
    <glyph glyph-name="racute.sc" horiz-adv-x="1048" 
d="M545 1487h203l-179 -326h-178zM750 733q0 141 -209 141h-191v-286h191q115 0 162 36t47 109zM141 0v1038h420q401 0 402 -305q0 -117 -68 -195t-197 -98l287 -440h-231l-265 422h-139v-422h-209z" />
    <glyph glyph-name="rcaron.sc" horiz-adv-x="1048" 
d="M588 1159h-205l-209 328h186l125 -195l123 195h187zM750 733q0 141 -209 141h-191v-286h191q115 0 162 36t47 109zM141 0v1038h420q401 0 402 -305q0 -117 -68 -195t-197 -98l287 -440h-231l-265 422h-139v-422h-209z" />
    <glyph glyph-name="rcommaaccent.sc" horiz-adv-x="1048" 
d="M623 -133l-119 -309h-158l53 309h224zM750 733q0 141 -209 141h-191v-286h191q115 0 162 36t47 109zM141 0v1038h420q401 0 402 -305q0 -117 -68 -195t-197 -98l287 -440h-231l-265 422h-139v-422h-209z" />
    <glyph glyph-name="sacute.sc" horiz-adv-x="946" 
d="M547 1487h203l-179 -326h-178zM324 750q0 -88 120 -123l144 -41q274 -80 274 -285q0 -149 -110 -233t-289 -84q-295 0 -402 190l146 113q37 -63 92 -97t155 -34q194 1 193 129q0 90 -133 127l-141 39q-264 78 -264 288q0 133 95 225t288 91q247 0 358 -154l-141 -113
q-72 94 -217 95q-82 0 -125 -38t-43 -95z" />
    <glyph glyph-name="scircumflex.sc" horiz-adv-x="946" 
d="M373 1487h205l206 -328h-186l-123 195l-125 -195h-186zM324 750q0 -88 120 -123l144 -41q274 -80 274 -285q0 -149 -110 -233t-289 -84q-295 0 -402 190l146 113q37 -63 92 -97t155 -34q194 1 193 129q0 90 -133 127l-141 39q-264 78 -264 288q0 133 95 225t288 91
q247 0 358 -154l-141 -113q-72 94 -217 95q-82 0 -125 -38t-43 -95z" />
    <glyph glyph-name="scaron.sc" horiz-adv-x="946" 
d="M578 1159h-205l-209 328h186l125 -195l123 195h186zM324 750q0 -88 120 -123l144 -41q274 -80 274 -285q0 -149 -110 -233t-289 -84q-295 0 -402 190l146 113q37 -63 92 -97t155 -34q194 1 193 129q0 90 -133 127l-141 39q-264 78 -264 288q0 133 95 225t288 91
q247 0 358 -154l-141 -113q-72 94 -217 95q-82 0 -125 -38t-43 -95z" />
    <glyph glyph-name="scedilla.sc" horiz-adv-x="946" 
d="M324 750q0 -88 120 -123l144 -41q274 -80 274 -285q0 -133 -88 -215t-235 -98l-35 -90q193 0 192 -166q0 -78 -60 -126t-160 -48t-191 47v135q84 -62 166 -62t81 54q0 57 -100 57h-80l-10 12l64 185q-250 16 -345 188l146 113q37 -63 92 -97t155 -34q194 1 193 129
q0 90 -133 127l-141 39q-264 78 -264 288q0 133 95 225t288 91q247 0 358 -154l-141 -113q-72 94 -217 95q-82 0 -125 -38t-43 -95z" />
    <glyph glyph-name="scommaaccent.sc" horiz-adv-x="946" 
d="M606 -133l-119 -309h-157l53 309h223zM324 750q0 -88 120 -123l144 -41q274 -80 274 -285q0 -149 -110 -233t-289 -84q-295 0 -402 190l146 113q37 -63 92 -97t155 -34q194 1 193 129q0 90 -133 127l-141 39q-264 78 -264 288q0 133 95 225t288 91q247 0 358 -154
l-141 -113q-72 94 -217 95q-82 0 -125 -38t-43 -95z" />
    <glyph glyph-name="tcaron.sc" horiz-adv-x="942" 
d="M573 1159h-204l-209 328h186l125 -195l123 195h186zM63 1038h816v-164h-304v-874h-208v874h-304v164z" />
    <glyph glyph-name="tcommaaccent.sc" horiz-adv-x="940" 
d="M63 1038h816v-164h-304v-874h-38l-41 -102q193 0 192 -166q0 -78 -60 -126t-160 -48t-192 47v135q84 -62 166 -62t82 54q0 57 -100 57h-80l-10 12l67 199h-34v874h-304v164z" />
    <glyph glyph-name="uni021A.sc" horiz-adv-x="944" 
d="M66 1038h815v-164h-303v-874h-209v874h-303v164zM582 -133l-119 -309h-158l53 309h224z" />
    <glyph glyph-name="tbar.sc" horiz-adv-x="950" 
d="M211 571h160v303h-303v164h815v-164h-303v-303h161v-149h-161v-422h-209v422h-160v149z" />
    <glyph glyph-name="thorn.sc" horiz-adv-x="997" 
d="M350 684v-330h166q199 0 199 165t-199 165h-166zM530 188h-180v-188h-209v1038h209v-190h180q195 0 297 -85q103 -85 103 -245t-102 -245t-298 -85z" />
    <glyph glyph-name="ugrave.sc" horiz-adv-x="1122" 
d="M299 1487h203l153 -326h-178zM991 395q1 -209 -115 -309t-316 -100t-314 100t-115 309v643h209v-639q0 -125 53 -184t168 -59t168 59t53 184v639h209v-643z" />
    <glyph glyph-name="uacute.sc" horiz-adv-x="1122" 
d="M621 1487h202l-178 -326h-178zM991 395q1 -209 -115 -309t-316 -100t-314 100t-115 309v643h209v-639q0 -125 53 -184t168 -59t168 59t53 184v639h209v-643z" />
    <glyph glyph-name="ucircumflex.sc" horiz-adv-x="1122" 
d="M459 1487h205l206 -328h-186l-123 195l-125 -195h-186zM991 395q1 -209 -115 -309t-316 -100t-314 100t-115 309v643h209v-639q0 -125 53 -184t168 -59t168 59t53 184v639h209v-643z" />
    <glyph glyph-name="utilde.sc" horiz-adv-x="1122" 
d="M718 1276q-60 0 -156 -41t-170 -41q-76 0 -128 47l8 156q51 -51 117 -51t156 40q91 40 165 41q74 0 148 -47l-8 -155q-72 51 -132 51zM991 395q1 -209 -115 -309t-316 -100t-314 100t-115 309v643h209v-639q0 -125 53 -184t168 -59t168 59t53 184v639h209v-643z" />
    <glyph glyph-name="udieresis.sc" horiz-adv-x="1122" 
d="M754 1184q-127 0 -127 123q0 63 35 95t90 32t92 -33t37 -94t-37 -92t-90 -31zM369 1184q-127 0 -127 123q0 63 34 95t90 32t93 -33t37 -94t-37 -92t-90 -31zM991 395q1 -209 -115 -309t-316 -100t-314 100t-115 309v643h209v-639q0 -125 53 -184t168 -59t168 59t53 184
v639h209v-643z" />
    <glyph glyph-name="umacron.sc" horiz-adv-x="1122" 
d="M266 1372h590v-162h-590v162zM991 395q1 -209 -115 -309t-316 -100t-314 100t-115 309v643h209v-639q0 -125 53 -184t168 -59t168 59t53 184v639h209v-643z" />
    <glyph glyph-name="ubreve.sc" horiz-adv-x="1122" 
d="M858 1446q0 -131 -80 -215t-219 -84t-218 84t-79 215h135q7 -66 51 -107t110 -41t110 41q43 41 51 107h139zM991 395q1 -209 -115 -309t-316 -100t-314 100t-115 309v643h209v-639q0 -125 53 -184t168 -59t168 59t53 184v639h209v-643z" />
    <glyph glyph-name="uring.sc" horiz-adv-x="1122" 
d="M463 1330q-1 -38 25 -64t70 -25q44 0 70 26q26 25 26 63t-26 64t-70 26t-70 -26q-25 -26 -25 -64zM342 1331q0 83 57 141t159 58t162 -57q58 -57 58 -141t-58 -143t-160 -59t-160 58t-58 143zM991 395q1 -209 -115 -309t-316 -100t-314 100t-115 309v643h209v-639
q0 -125 53 -184t168 -59t168 59t53 184v639h209v-643z" />
    <glyph glyph-name="uhungarumlaut.sc" horiz-adv-x="1122" 
d="M793 1487h202l-178 -326h-178zM453 1487h202l-178 -326h-178zM991 395q1 -209 -115 -309t-316 -100t-314 100t-115 309v643h209v-639q0 -125 53 -184t168 -59t168 59t53 184v639h209v-643z" />
    <glyph glyph-name="uogonek.sc" horiz-adv-x="1122" 
d="M991 395q0 -307 -256 -385l-133 -102q-66 -53 -66 -91q1 -77 78 -77q59 0 134 53v-170q-86 -47 -192 -47t-168 51t-62 150t120 196l23 19q-160 20 -249 120t-89 283v643h209v-639q0 -125 53 -184t168 -59t168 59t53 184v639h209v-643z" />
    <glyph glyph-name="wacute.sc" horiz-adv-x="1660" 
d="M895 1487h203l-178 -326h-179zM713 1038h235l234 -813l217 813h213l-295 -1038h-256l-232 764l-231 -764h-254l-297 1038h215l219 -813z" />
    <glyph glyph-name="wcircumflex.sc" horiz-adv-x="1660" 
d="M729 1487h205l207 -328h-187l-123 195l-124 -195h-187zM713 1038h235l234 -813l217 813h213l-295 -1038h-256l-232 764l-231 -764h-254l-297 1038h215l219 -813z" />
    <glyph glyph-name="wdieresis.sc" horiz-adv-x="1660" 
d="M1024 1184q-127 0 -127 123q0 63 35 95t90 32t92 -33t37 -94t-37 -92t-90 -31zM639 1184q-127 0 -127 123q0 63 35 95t90 32t92 -33t37 -94t-37 -92t-90 -31zM713 1038h235l234 -813l217 813h213l-295 -1038h-256l-232 764l-231 -764h-254l-297 1038h215l219 -813z" />
    <glyph glyph-name="wgrave.sc" horiz-adv-x="1660" 
d="M561 1487h203l154 -326h-179zM713 1038h235l234 -813l217 813h213l-295 -1038h-256l-232 764l-231 -764h-254l-297 1038h215l219 -813z" />
    <glyph glyph-name="yacute.sc" horiz-adv-x="1009" 
d="M569 1487h203l-178 -326h-178zM610 0h-209v403l-378 635h227l258 -452l252 452h229l-379 -635v-403z" />
    <glyph glyph-name="ycircumflex.sc" horiz-adv-x="1009" 
d="M406 1487h204l207 -328h-186l-123 195l-125 -195h-186zM610 0h-209v403l-378 635h227l258 -452l252 452h229l-379 -635v-403z" />
    <glyph glyph-name="ydieresis.sc" horiz-adv-x="1009" 
d="M700 1184q-127 0 -127 123q0 63 35 95t90 32q54 0 92 -33t38 -94t-37 -93q-38 -30 -91 -30zM315 1184q-127 0 -127 123q0 63 35 95t90 32t93 -33t36 -94q0 -61 -36 -93q-38 -30 -91 -30zM610 0h-209v403l-378 635h227l258 -452l252 452h229l-379 -635v-403z" />
    <glyph glyph-name="ygrave.sc" horiz-adv-x="1009" 
d="M250 1487h203l153 -326h-178zM610 0h-209v403l-378 635h227l258 -452l252 452h229l-379 -635v-403z" />
    <glyph glyph-name="zacute.sc" horiz-adv-x="911" 
d="M514 1487h203l-178 -326h-179zM817 1038v-145l-498 -729h512v-164h-755v143l497 731h-473v164h717z" />
    <glyph glyph-name="zcaron.sc" horiz-adv-x="911" 
d="M557 1159h-205l-209 328h187l125 -195l123 195h186zM817 1038v-145l-498 -729h512v-164h-755v143l497 731h-473v164h717z" />
    <glyph glyph-name="zdotaccent.sc" horiz-adv-x="911" 
d="M455 1184q-127 0 -127 123q0 63 34 95t90 32t93 -33t37 -94t-37 -92t-90 -31zM817 1038v-145l-498 -729h512v-164h-755v143l497 731h-473v164h717z" />
    <glyph glyph-name="ij.sc" horiz-adv-x="1329" 
d="M819 156q96 0 138 47t42 153v682h197v-696q0 -174 -96 -266t-271 -92q-219 0 -305 172l148 92q51 -92 147 -92zM137 0v1038h209v-1038h-209z" />
    <glyph glyph-name="germandbls.sc" horiz-adv-x="1886" 
d="M324 750q0 -88 120 -123l144 -41q274 -80 274 -285q0 -149 -110 -233t-289 -84q-295 0 -402 190l146 113q37 -63 92 -97t155 -34q194 1 193 129q0 90 -133 127l-141 39q-264 78 -264 288q0 133 95 225t288 91q247 0 358 -154l-141 -113q-72 94 -217 95q-82 0 -125 -38
t-43 -95zM1266 750q0 -88 120 -123l144 -41q274 -80 274 -285q0 -149 -110 -233t-289 -84q-295 0 -401 190l145 113q37 -63 92 -97t155 -34q194 1 193 129q0 90 -133 127l-141 39q-264 78 -264 288q0 133 95 225t288 91q247 0 358 -154l-141 -113q-72 94 -217 95
q-82 0 -125 -38t-43 -95z" />
    <glyph glyph-name="fi.sc" horiz-adv-x="1421" 
d="M1069 0v1038h209v-1038h-209zM141 0v1038h695v-164h-486v-296h410v-166h-410v-412h-209z" />
    <glyph glyph-name="fl.sc" horiz-adv-x="1771" 
d="M1278 164h448v-164h-657v1038h209v-874zM141 0v1038h695v-164h-486v-296h410v-166h-410v-412h-209z" />
    <glyph glyph-name="eng.sc" horiz-adv-x="1177" 
d="M139 0v1038h221l471 -706v706h205v-1046q0 -233 -205 -342l-133 133q125 63 131 215l-481 719l2 -717h-211z" />
    <glyph glyph-name="grave.sc" horiz-adv-x="1228" 
d="M436 1487h203l154 -326h-179z" />
    <glyph glyph-name="acute.sc" horiz-adv-x="1228" 
d="M590 1487h203l-179 -326h-178z" />
    <glyph glyph-name="circumflex.sc" horiz-adv-x="1228" 
d="M512 1487h205l207 -328h-187l-123 195l-125 -195h-186z" />
    <glyph glyph-name="caron.sc" horiz-adv-x="1228" 
d="M717 1159h-205l-209 328h186l125 -195l123 195h187z" />
    <glyph glyph-name="caronalt.sc" horiz-adv-x="1228" 
d="M748 1038l-119 -331h-148l51 331h216z" />
    <glyph glyph-name="tilde.sc" horiz-adv-x="1228" 
d="M771 1276q-59 0 -155 -41t-172 -41t-127 47l9 156q52 -51 116 -51t155 40t165 41q74 0 149 -47l-8 -155q-72 51 -132 51z" />
    <glyph glyph-name="dieresis.sc" horiz-adv-x="1228" 
d="M807 1184q-127 0 -127 123q0 63 35 95t90 32t92 -33t37 -94t-37 -92t-90 -31zM422 1184q-127 0 -127 123q0 63 35 95t90 32t92 -33t37 -94t-37 -92t-90 -31z" />
    <glyph glyph-name="macron.sc" horiz-adv-x="1228" 
d="M319 1372h590v-162h-590v162z" />
    <glyph glyph-name="breve.sc" horiz-adv-x="1228" 
d="M911 1446q0 -131 -80 -215t-219 -84t-218 84t-79 215h136q8 -66 51 -107q44 -41 110 -41t109 41t51 107h139z" />
    <glyph glyph-name="ring.sc" horiz-adv-x="1228" 
d="M516 1330q0 -38 26 -64t70 -25q44 0 69 26q26 25 26 63t-26 64t-70 26q-43 0 -69 -26t-26 -64zM395 1331q-1 83 57 141t160 58t160 -57t59 -141q0 -84 -58 -143q-59 -59 -161 -59t-160 58t-57 143z" />
    <glyph glyph-name="hungarumlaut.sc" horiz-adv-x="1228" 
d="M760 1487h203l-179 -326h-178zM420 1487h203l-179 -326h-178z" />
    <glyph glyph-name="dotaccent.sc" horiz-adv-x="1228" 
d="M614 1184q-127 0 -127 123q0 63 35 95t90 32q54 0 92 -33t38 -94t-37 -93q-38 -30 -91 -30z" />
    <glyph glyph-name="exclamdown.sc" horiz-adv-x="468" 
d="M236 1047q55 0 91 -33q35 -33 35 -83t-36 -83t-90 -33q-55 0 -92 33q-36 33 -36 83t36 83q37 33 92 33zM156 692h159l33 -692h-227z" />
    <glyph glyph-name="questiondown.sc" horiz-adv-x="784" 
d="M406 -16q-156 0 -246 78t-90 193q0 114 88 199q38 36 74 70q89 84 87 168h195q0 -121 -88 -211q-37 -37 -75 -71q-89 -78 -89 -134q0 -57 36 -89q36 -31 100 -31t99 28q36 28 35 70l185 -18q1 -108 -77 -180t-234 -72zM416 1047q55 0 91 -33t36 -83t-35 -83t-91 -33
t-93 33t-37 83t37 83t92 33z" />
    <glyph glyph-name="Euro.sc" horiz-adv-x="987" 
d="M80 680h90q59 375 442 375q137 0 291 -62l-63 -164q-119 51 -234 52q-188 0 -229 -201h407l-45 -121h-372v-37q0 -35 2 -51h340l-45 -121h-277q51 -195 234 -194q119 0 231 61l49 -170q-137 -63 -289 -63q-375 0 -440 366h-92v121h78v88h-78v121z" />
    <glyph glyph-name="cent.sc" horiz-adv-x="829" 
d="M274 350q0 -127 70 -178l100 387q-170 -6 -170 -209zM90 368q0 142 85 245t261 104q33 0 49 -2l31 114l98 -20l-30 -117q104 -37 153 -131l-125 -94q-23 43 -69 70l-105 -396h15q109 0 161 92l123 -94q-80 -156 -301 -155q-27 0 -39 2l-24 -97l-97 21l25 94
q-211 70 -211 364z" />
    <glyph glyph-name="sterling.sc" horiz-adv-x="974" 
d="M78 518h104v162q0 164 88 269t287 105t350 -155l-125 -125q-102 102 -225 103q-176 0 -176 -197v-162h283v-121h-283v-241h450v-156h-649v397h-104v121z" />
    <glyph glyph-name="florin.sc" horiz-adv-x="661" 
d="M399 543v-658q0 -98 -61 -166q-60 -67 -164 -67t-149 20v160q35 -12 92 -12q94 0 94 106v617h-145v157h145v144q0 98 62 165t186 66q74 0 125 -18v-158q-47 10 -92 10q-92 0 -93 -104v-105h160v-157h-160z" />
    <glyph glyph-name="yen.sc" horiz-adv-x="1040" 
d="M117 471h264l-47 86h-217v123h147l-201 358h224l229 -442l232 442h225l-207 -358h154v-123h-224l-49 -86h273v-121h-308v-350h-198v350h-297v121z" />
    <glyph glyph-name="rupee.sc" horiz-adv-x="972" 
d="M102 1038h789v-131h-207q57 -53 66 -131h141v-104h-141q-23 -190 -222 -242l277 -430h-236l-254 406h-213v161h170q135 0 190 24q54 24 64 81h-424v104h424q-10 53 -52 77t-140 24h-232v161z" />
    <glyph glyph-name="perthousand.sc" horiz-adv-x="1988" 
d="M1665 569q256 1 256 -289t-256 -290t-256 290t256 289zM1556 281q0 -93 25 -137t85 -44t85 43t25 137t-25 138q-25 43 -85 43t-85 -43t-25 -137zM326 1049q256 0 256 -290t-256 -290t-256 290t256 290zM327 578q60 0 84 43q23 43 23 138t-23 137q-24 42 -84 42t-86 -43
t-26 -136t26 -137t86 -44zM1098 569q256 1 256 -289t-256 -290t-256 290t256 289zM987 280q0 -92 26 -136t86 -44t84 42q23 42 23 138t-23 138q-24 43 -84 43t-86 -44t-26 -137zM1120 1038l-667 -1038h-154l666 1038h155z" />
    <glyph glyph-name="zero.tf" 
d="M573 1407q496 0 496 -715t-497 -715t-496 715q0 340 120 528t377 187zM573 166q147 0 210 130q62 130 63 396q0 266 -62 396t-210 131q-148 0 -210 -130q-62 -131 -62 -397t62 -396t209 -130z" />
    <glyph glyph-name="one.tf" 
d="M160 0v184h354v981l-330 -133l-59 176l416 176h194v-1200h301v-184h-876z" />
    <glyph glyph-name="two.tf" 
d="M129 973q1 199 111 317t314 117q204 0 323 -116t118 -298q1 -133 -69 -248t-207 -258l-287 -307h584v-180h-875v156l430 462q100 109 150 196q49 87 49 184q0 96 -54 158t-158 62t-158 -65q-54 -66 -54 -180h-217z" />
    <glyph glyph-name="three.tf" 
d="M1036 369q0 -174 -130 -283t-351 -109q-221 -1 -337 103t-116 272h217q0 -86 65 -137q64 -51 178 -51t182 59t67 164q0 105 -77 168t-212 63h-131v181h131q123 0 195 55q71 56 71 154t-60 154t-166 56t-164 -50q-58 -52 -58 -136h-219q0 162 111 268q112 106 324 106
t335 -107q123 -108 123 -275q0 -120 -70 -204t-176 -111q112 -23 190 -114t78 -226z" />
    <glyph glyph-name="four.tf" 
d="M690 467v623l-418 -623h418zM1087 467v-180h-180v-287h-217v287h-649v162l639 935h227v-917h180z" />
    <glyph glyph-name="five.tf" 
d="M1032 452q0 -210 -124 -342t-350 -132t-341 109q-115 110 -115 284h217q-1 -91 61 -149t182 -58t182 77t62 199t-62 192q-64 68 -183 68t-219 -77l-176 26l86 735h729v-180h-551l-45 -379q109 61 221 62q186 0 306 -112t120 -323z" />
    <glyph glyph-name="six.tf" 
d="M817 1032q0 86 -57 136t-158 51q-143 0 -214 -128t-71 -348q47 53 133 97t189 43q199 0 313 -120t113 -320q0 -201 -124 -333q-125 -132 -363 -132t-361 180q-123 182 -123 512t126 533q126 204 382 204q213 0 324 -105t110 -270h-219zM583 164q127 0 193 75t66 199
t-66 196q-66 71 -171 71t-175 -48t-108 -118q0 -162 66 -269q67 -106 195 -106z" />
    <glyph glyph-name="seven.tf" 
d="M143 1204v180h875v-157l-508 -1227h-238l502 1204h-631z" />
    <glyph glyph-name="eight.tf" 
d="M307 393q-1 -109 71 -169t195 -60t195 60t72 169t-75 168t-193 59t-192 -58q-74 -60 -73 -169zM573 1219q-111 -1 -175 -55t-64 -154t66 -154q67 -53 173 -53t173 53q67 54 67 154q-1 100 -65 154t-175 55zM573 -23q-223 1 -357 105t-134 293q0 135 75 221t189 117
q-106 33 -171 111t-64 196q0 178 123 283q124 104 339 104t339 -104t124 -283q0 -119 -64 -197t-169 -110q111 -31 185 -117t75 -221q1 -188 -133 -293t-357 -105z" />
    <glyph glyph-name="nine.tf" 
d="M111 352h219q0 -86 57 -136t156 -50q145 0 216 127t70 348q-45 -53 -132 -97t-189 -44q-198 0 -312 121t-114 321t124 332q124 133 364 133t361 -182q122 -182 122 -511t-126 -533t-384 -204q-211 -1 -321 105t-111 270zM305 946q0 -126 66 -196t172 -70t176 48
q69 48 106 118q0 162 -66 268q-67 106 -195 106t-194 -74q-66 -75 -65 -200z" />
    <glyph glyph-name="zero.tosf" 
d="M573 1200q248 0 374 -162t126 -448t-126 -450q-126 -163 -375 -163q-250 0 -374 162t-124 449q0 288 126 450t373 162zM573 172q277 0 277 418t-276 418t-277 -418q0 -418 276 -418z" />
    <glyph glyph-name="one.tosf" 
d="M190 0v190h338v764l-321 -116l-57 168l405 172h186v-988h287v-190h-838z" />
    <glyph glyph-name="two.tosf" 
d="M999 0h-845v141l440 371q98 80 144 146t46 150q0 85 -57 146q-57 62 -165 62t-161 -62t-53 -170h-209q0 184 112 300q113 116 319 116t318 -115t112 -256t-66 -236t-186 -187l-279 -238h530v-168z" />
    <glyph glyph-name="three.tosf" 
d="M1036 162q0 -174 -130 -283t-351 -109t-337 104q-116 103 -116 271h217q0 -86 65 -137q64 -51 178 -51t182 59t67 164q0 105 -77 168t-212 64h-131v180h131q123 0 195 55q71 55 71 153t-60 155t-166 57t-164 -51t-58 -136h-219q0 162 111 269q112 106 324 106t335 -108
t123 -275q0 -121 -70 -205t-176 -110q112 -23 190 -114t78 -226z" />
    <glyph glyph-name="four.tosf" 
d="M688 262v623l-418 -623h418zM1085 262v-180h-180v-287h-217v287h-649v162l639 936h227v-918h180z" />
    <glyph glyph-name="five.tosf" 
d="M1028 246q0 -211 -124 -343t-350 -132q-226 -1 -341 109t-115 284h217q-1 -92 61 -150t182 -57q120 0 182 77t62 200q0 124 -62 192q-64 68 -183 68t-219 -78l-176 26l86 736h729v-181h-551l-45 -379q106 61 221 62q186 0 306 -112t120 -322z" />
    <glyph glyph-name="six.tosf" 
d="M817 1032q0 86 -57 136t-158 51q-143 0 -214 -128t-71 -348q47 53 133 97t189 43q199 0 313 -120t113 -320q0 -201 -124 -333q-125 -132 -363 -132t-361 180q-123 182 -123 512t126 533q126 204 382 204q213 0 324 -105t110 -270h-219zM583 164q127 0 193 75t66 199
t-66 196q-66 71 -171 71t-175 -48t-108 -118q0 -162 66 -269q67 -106 195 -106z" />
    <glyph glyph-name="seven.tosf" 
d="M143 999v181h875v-158l-508 -1227h-238l502 1204h-631z" />
    <glyph glyph-name="eight.tosf" 
d="M307 393q-1 -109 71 -169t195 -60t195 60t72 169t-75 168t-193 59t-192 -58q-74 -60 -73 -169zM573 1219q-111 -1 -175 -55t-64 -154t66 -154q67 -53 173 -53t173 53q67 54 67 154q-1 100 -65 154t-175 55zM573 -23q-223 1 -357 105t-134 293q0 135 75 221t189 117
q-106 33 -171 111t-64 196q0 178 123 283q124 104 339 104t339 -104t124 -283q0 -119 -64 -197t-169 -110q111 -31 185 -117t75 -221q1 -188 -133 -293t-357 -105z" />
    <glyph glyph-name="nine.tosf" 
d="M111 145h219q0 -86 57 -136t156 -50q145 0 216 127t70 348q-45 -53 -132 -97t-189 -44q-198 0 -312 121q-114 120 -114 320t124 333t364 133t361 -182q122 -182 122 -511t-126 -533t-384 -203q-211 0 -322 105q-110 105 -110 269zM305 739q0 -125 66 -195t172 -71
q106 0 176 48q69 48 106 118q0 162 -66 268q-67 107 -195 107t-194 -75t-65 -200z" />
    <glyph glyph-name="Euro.tf" 
d="M68 895h112q74 510 535 510q180 0 358 -84l-69 -184q-143 74 -293 73q-256 0 -308 -315h515l-52 -141h-477v-58q0 -55 2 -80h428l-51 -139h-356q66 -305 313 -305q158 0 295 88l55 -190q-168 -92 -360 -93q-455 0 -533 500h-114v139h98v138h-98v141z" />
    <glyph glyph-name="cent.tf" 
d="M389 467q0 -193 94 -264l138 569h-3q-229 0 -229 -305zM434 6q-254 96 -254 484q0 192 106 328t318 136q18 0 60 -4l36 156l115 -27l-39 -155q127 -47 189 -168l-146 -105q-39 63 -86 90l-141 -579h26q131 0 201 119l146 -105q-100 -199 -361 -199q-23 0 -55 5l-31 -127
l-112 26z" />
    <glyph glyph-name="sterling.tf" 
d="M72 680h131v227q0 219 106 359t352 139q246 0 420 -199l-137 -141q-123 143 -289 143q-240 0 -239 -301v-227h368v-139h-368v-365h575v-176h-788v541h-131v139z" />
    <glyph glyph-name="florin.tf" 
d="M668 754v-904q0 -135 -72 -224t-213 -89q-98 0 -156 21v182q59 -16 121 -16t90 40t29 121v869h-188v180h188v186q0 134 73 224t222 90q90 0 143 -21v-182q-55 16 -117 16q-121 0 -120 -160v-153h206v-180h-206z" />
    <glyph glyph-name="yen.tf" 
d="M98 618h330l-72 138h-258v139h183l-261 489h242l307 -624l314 624h243l-266 -489h187v-139h-265l-73 -138h338v-141h-373v-477h-213v477h-363v141z" />
    <glyph glyph-name="rupee.tf" 
d="M1049 1245h-252q80 -78 90 -203h162v-141h-164q-13 -121 -101 -205t-223 -108l359 -588h-254l-334 565h-211v172h215q150 0 224 39t99 125h-538v141h541q-25 88 -93 127t-211 39h-237v176l928 2v-141z" />
    <glyph glyph-name="dollar.tf" 
d="M362 1008q0 -72 37 -115t117 -72v383q-76 -18 -115 -71t-39 -125zM825 377q0 131 -176 188v-389q176 35 176 201zM649 -211h-133v191q-319 16 -436 256l160 120q39 -80 100 -128t176 -56v434l-57 17q-324 100 -324 370q0 158 96 272t285 136v153h133v-149
q266 -18 385 -203l-155 -123q-80 117 -230 133v-430l66 -18q336 -102 336 -373q0 -171 -109 -279t-293 -128v-195z" />
    <glyph glyph-name="zero.osf" horiz-adv-x="1226" 
d="M100 589q0 287 129 449t385 162t384 -162t128 -448t-130 -450q-130 -163 -385 -163t-383 162t-128 450zM613 172q290 0 290 418t-290 418t-290 -418t290 -418z" />
    <glyph glyph-name="one.osf" horiz-adv-x="786" 
d="M629 0h-215v971l-324 -131l-55 170l403 168h191v-1178z" />
    <glyph glyph-name="two.osf" horiz-adv-x="1062" 
d="M956 0h-845v141l440 371q98 80 144 146t46 150q0 85 -57 146q-57 62 -165 62t-161 -62t-53 -170h-209q0 184 112 300t318 116t319 -115q111 -115 111 -256t-66 -236t-185 -187l-279 -238h530v-168z" />
    <glyph glyph-name="three.osf" horiz-adv-x="1120" 
d="M1022 164q0 -174 -130 -283t-351 -109t-337 104q-116 103 -116 271h217q0 -86 65 -137q64 -51 178 -51t182 59t67 164q0 105 -77 168t-212 64h-131v180h131q122 0 194 55t72 153t-60 155t-166 57t-164 -51t-58 -136h-220q0 163 112 269t324 106t335 -108t122 -275
q0 -121 -69 -205q-70 -83 -176 -110q112 -23 190 -114t78 -226z" />
    <glyph glyph-name="four.osf" horiz-adv-x="1183" 
d="M707 262v623l-418 -623h418zM1104 262v-180h-180v-287h-217v287h-650v162l639 936h228v-918h180z" />
    <glyph glyph-name="five.osf" horiz-adv-x="1091" 
d="M575 682q186 0 306 -112t120 -322q1 -211 -123 -343t-350 -132q-226 -1 -342 109q-115 110 -114 284h217q0 -92 61 -150t181 -57q120 0 183 77q62 77 62 200q0 124 -63 192t-183 68t-219 -78l-176 26l86 736h729v-181h-551l-45 -378q106 61 221 61z" />
    <glyph glyph-name="six.osf" horiz-adv-x="1161" 
d="M823 1032q0 86 -57 136t-158 51q-143 0 -214 -128t-70 -348q47 53 133 97t188 43q199 0 313 -120t113 -320q0 -201 -124 -333q-125 -132 -363 -132t-361 180q-123 182 -123 512t126 533q126 204 382 204q213 0 324 -105t110 -270h-219zM589 164q127 0 193 75t66 199
t-66 196q-66 71 -171 71t-175 -48t-108 -118q0 -162 66 -269q67 -106 195 -106z" />
    <glyph glyph-name="seven.osf" horiz-adv-x="1009" 
d="M76 999v181h874v-158l-508 -1227h-237l502 1204h-631z" />
    <glyph glyph-name="eight.osf" horiz-adv-x="1179" 
d="M590 164q122 0 194 60t72 169t-75 168t-193 59t-191 -58q-73 -60 -73 -169t72 -169t194 -60zM590 1219q-112 -1 -176 -55t-64 -154t67 -154t173 -53q106 0 173 53q67 54 67 154t-65 154q-64 54 -175 55zM590 -23q-224 1 -358 105t-134 293q0 135 75 221t189 117
q-106 33 -171 111t-64 196q0 178 124 282t339 105q215 0 339 -104t124 -283q0 -119 -65 -197t-169 -110q111 -31 186 -117t74 -221q0 -188 -133 -293t-356 -105z" />
    <glyph glyph-name="nine.osf" horiz-adv-x="1159" 
d="M117 145h219q0 -86 57 -136t156 -50q145 0 216 127t71 348q-44 -53 -132 -97t-190 -44q-198 0 -312 121q-114 120 -114 320t124 333t364 133t361 -182q122 -182 122 -511t-126 -533t-384 -203q-211 0 -322 105q-110 105 -110 269zM311 739q0 -125 66 -195t172 -71
q106 0 176 48q69 48 106 118q0 162 -66 268q-67 107 -195 107t-194 -75t-65 -200z" />
    <glyph glyph-name="zero.denom" horiz-adv-x="737" 
d="M369 743q307 0 307 -376q0 -179 -75 -279t-232 -100q-307 0 -307 378t307 377zM369 113q81 0 113 61q32 60 32 192t-33 193t-113 61t-112 -60q-33 -62 -33 -193t33 -193t113 -61z" />
    <glyph glyph-name="one.denom" horiz-adv-x="497" 
d="M401 0h-155v592l-203 -74l-39 115l262 100h135v-733z" />
    <glyph glyph-name="two.denom" horiz-adv-x="645" 
d="M53 504q1 111 67 175t189 64t195 -63t71 -162q1 -68 -41 -130t-120 -138l-140 -129h308v-121h-514v102l241 238q106 100 107 178q0 45 -27 74t-74 29q-106 0 -106 -117h-156z" />
    <glyph glyph-name="three.denom" horiz-adv-x="667" 
d="M606 184q0 -80 -77 -138t-209 -58t-199 56q-68 56 -68 151h154q0 -39 32 -61t86 -22t88 26q33 24 33 70t-37 75q-38 29 -110 28h-76v121h76q135 0 135 98q0 41 -28 66q-29 25 -80 25t-79 -23t-28 -57h-158q0 90 67 146t194 56q126 0 200 -56t74 -148q0 -59 -39 -105
t-98 -61q63 -13 105 -61t42 -128z" />
    <glyph glyph-name="four.denom" horiz-adv-x="690" 
d="M397 262v275l-202 -275h202zM645 262v-121h-92v-141h-156v141h-364v107l356 485h164v-471h92z" />
    <glyph glyph-name="five.denom" horiz-adv-x="651" 
d="M598 241q0 -116 -74 -185q-74 -68 -209 -68t-203 57t-67 154h156q0 -86 114 -86q59 0 92 33q31 34 31 88t-32 84q-32 32 -94 32q-60 0 -107 -37l-125 21l53 399h432v-121h-307l-22 -161q59 23 112 22q106 0 178 -58t72 -174z" />
    <glyph glyph-name="six.denom" horiz-adv-x="696" 
d="M367 621q-74 -1 -110 -57t-36 -150q73 57 181 57t172 -63q64 -62 65 -170q0 -108 -74 -180t-216 -70q-142 0 -215 96t-73 269t74 282t232 108q129 0 192 -56t64 -146h-154q0 80 -102 80zM352 113q63 1 95 33t32 87q0 119 -125 119q-90 1 -133 -71q0 -76 34 -122t97 -46z
" />
    <glyph glyph-name="seven.denom" horiz-adv-x="583" 
d="M35 612v121h522v-104l-293 -629h-168l287 612h-348z" />
    <glyph glyph-name="eight.denom" horiz-adv-x="706" 
d="M352 621q-53 0 -84 -25q-30 -25 -30 -69q0 -45 32 -69t83 -24q52 0 84 25t32 69q0 93 -117 93zM352 315q-59 -1 -95 -29t-36 -74t38 -73t94 -27t93 26t37 73t-36 75t-95 29zM354 -12q-135 0 -214 56t-79 157q0 133 140 176q-125 41 -125 160q0 96 74 151t204 55t202 -55
q73 -55 73 -151q0 -119 -125 -160q141 -43 141 -176q0 -101 -78 -157t-213 -56z" />
    <glyph glyph-name="nine.denom" horiz-adv-x="696" 
d="M72 193h157q0 -37 27 -59t74 -21q147 0 147 206q-69 -59 -179 -59t-176 64t-65 170q0 108 75 179t217 71t214 -97q72 -96 72 -256q0 -403 -305 -403q-127 0 -193 57q-65 58 -65 148zM217 498q0 -117 127 -117q86 0 131 70q0 77 -33 123t-98 47q-127 0 -127 -123z" />
    <glyph glyph-name="zero.num" horiz-adv-x="743" 
d="M371 1395q307 0 307 -377q0 -178 -75 -278t-232 -101q-307 0 -307 378t307 378zM371 764q81 0 113 61t32 193t-33 192q-33 62 -113 62t-112 -62q-33 -62 -33 -192t33 -192t113 -62z" />
    <glyph glyph-name="one.num" horiz-adv-x="503" 
d="M403 651h-155v592l-203 -74l-39 115l262 100h135v-733z" />
    <glyph glyph-name="two.num" horiz-adv-x="651" 
d="M55 1155q1 111 67 175t189 65t195 -63t72 -148t-42 -145q-42 -62 -120 -138l-140 -129h308v-121h-514v103l241 237q106 100 107 178q0 45 -27 74t-74 29q-106 0 -106 -117h-156z" />
    <glyph glyph-name="three.num" horiz-adv-x="675" 
d="M608 836q0 -80 -77 -138t-209 -59q-132 0 -199 56q-68 56 -68 151h154q0 -39 32 -61q32 -21 86 -21t88 24t34 71q0 46 -38 75t-110 29h-76v120h76q135 0 135 99q0 42 -28 66t-80 24q-51 0 -79 -23t-28 -57h-158q0 90 67 146t194 56q126 0 200 -56t74 -148q0 -60 -39 -106
t-98 -60q63 -14 105 -61t42 -127z" />
    <glyph glyph-name="four.num" horiz-adv-x="696" 
d="M399 913v275l-202 -275h202zM647 913v-120h-92v-142h-156v142h-364v106l356 485h164v-471h92z" />
    <glyph glyph-name="five.num" horiz-adv-x="659" 
d="M600 892q0 -116 -74 -184t-209 -69q-135 0 -203 57t-67 154h156q0 -86 114 -86q59 0 92 34q31 34 31 87t-32 85q-34 32 -94 32t-107 -37l-125 20l53 399h432v-120h-307l-22 -162q59 23 112 22q106 0 178 -58t72 -174z" />
    <glyph glyph-name="six.num" horiz-adv-x="704" 
d="M369 1272q-74 0 -110 -56t-36 -151q73 57 181 57t173 -63t65 -171t-75 -178q-74 -71 -216 -71t-215 96t-73 269t74 282q73 109 217 109q144 -1 207 -57t64 -146h-154q0 80 -102 80zM354 764q63 0 96 33q32 33 31 88q0 119 -125 119q-90 0 -133 -72q0 -76 34 -122t97 -46z
" />
    <glyph glyph-name="seven.num" horiz-adv-x="591" 
d="M37 1264v120h522v-104l-293 -629h-168l287 613h-348z" />
    <glyph glyph-name="eight.num" horiz-adv-x="714" 
d="M354 1272q-53 0 -84 -25q-30 -25 -30 -69t32 -68q32 -25 83 -25q52 0 84 25t32 70q0 92 -117 92zM354 967q-59 0 -95 -29t-36 -75q0 -47 38 -73t94 -26t94 26q37 26 37 72t-36 76q-37 29 -96 29zM356 639q-135 0 -214 56t-79 157q0 133 140 176q-125 41 -125 160
q0 96 74 151t204 55t202 -54q73 -56 73 -152q0 -119 -125 -160q141 -43 141 -176q0 -102 -78 -158t-213 -55z" />
    <glyph glyph-name="nine.num" horiz-adv-x="704" 
d="M74 844h157q0 -37 27 -59t74 -21q147 0 147 207q-69 -59 -179 -59t-176 62q-66 64 -65 172q0 108 75 178q75 71 217 71q142 -1 214 -97t72 -256q0 -403 -305 -403q-127 0 -193 57q-65 58 -65 148zM346 1272q-127 0 -127 -123q0 -117 127 -117q86 0 131 70q0 76 -33 123
t-98 47z" />
    <glyph glyph-name="parenleft.case" horiz-adv-x="600" 
d="M94 702q0 282 74 496q74 215 219 449l160 -62q-236 -461 -236 -887q-1 -244 55 -452t177 -436l-156 -60q-143 218 -218 444t-75 508z" />
    <glyph glyph-name="parenright.case" horiz-adv-x="600" 
d="M291 698q0 426 -236 887l158 62q145 -231 220 -447t75 -500q0 -283 -75 -509t-220 -441l-154 60q121 229 177 437q55 208 55 451z" />
    <glyph glyph-name="hyphen.case" horiz-adv-x="808" 
d="M125 764h559v-176h-559v176z" />
    <glyph glyph-name="bracketleft.case" horiz-adv-x="673" 
d="M135 1618h463v-174h-250v-1507h250v-175h-463v1856z" />
    <glyph glyph-name="bracketright.case" horiz-adv-x="673" 
d="M76 1618h463v-1856h-463v175h250v1507h-250v174z" />
    <glyph glyph-name="braceleft.case" horiz-adv-x="665" 
d="M449 1331v-409q0 -211 -162 -232q162 -20 162 -229v-412q-1 -71 29 -99t97 -28v-160q-180 0 -260 64t-79 223v393q0 92 -46 130t-143 38v160q98 0 143 39t46 133v389q0 159 80 223t259 64v-160q-68 0 -97 -28t-29 -99z" />
    <glyph glyph-name="bar.case" horiz-adv-x="409" 
d="M276 -238h-141v1856h141v-1856z" />
    <glyph glyph-name="braceright.case" horiz-adv-x="665" 
d="M215 922v409q0 72 -30 100t-97 27v160q178 0 259 -65t81 -222v-389q0 -94 45 -133t143 -39v-160q-96 0 -142 -38t-46 -130v-393q0 -160 -80 -223t-260 -64v160q68 0 98 28t29 99v412q0 209 162 229q-162 21 -162 232z" />
    <glyph glyph-name="guilsinglleft.case" horiz-adv-x="706" 
d="M72 676l389 457l131 -95l-273 -364l275 -363l-133 -92z" />
    <glyph glyph-name="guilsinglright.case" horiz-adv-x="706" 
d="M246 1133l389 -457l-389 -457l-133 92l274 363l-272 364z" />
    <glyph glyph-name="guillemotleft.case" horiz-adv-x="1126" 
d="M492 676l389 457l131 -95l-273 -364l275 -363l-133 -92zM72 676l389 457l131 -95l-273 -364l275 -363l-133 -92z" />
    <glyph glyph-name="guillemotright.case" horiz-adv-x="1126" 
d="M246 1133l389 -457l-389 -457l-133 92l274 363l-272 364zM666 1133l389 -457l-389 -457l-134 92l275 363l-272 364z" />
    <glyph glyph-name="endash.case" horiz-adv-x="1218" 
d="M125 764h971v-176h-971v176z" />
    <glyph glyph-name="emdash.case" horiz-adv-x="1505" 
d="M125 764h1257v-176h-1257v176z" />
    <glyph glyph-name="bullet.case" horiz-adv-x="796" 
d="M399 428q-113 0 -185 70t-73 178q0 108 73 176q74 70 186 70t185 -70t73 -177t-74 -177q-72 -70 -185 -70z" />
    <glyph glyph-name="periodcentered.case" horiz-adv-x="528" 
d="M418 763q0 -61 -43 -103t-110 -42t-109 41t-43 105q0 64 43 106q44 42 110 41q66 0 109 -43t43 -105z" />
    <glyph glyph-name="a.alt" horiz-adv-x="1060" 
d="M524 766q-231 0 -231 -299t231 -299q135 0 205 88v422q-72 88 -205 88zM739 934h197v-934h-197v82q-98 -102 -277 -102t-279 128q-99 128 -99 359t98 359t278 128t279 -102v82z" />
    <glyph glyph-name="agrave.alt" horiz-adv-x="1060" 
d="M289 1425h213l151 -327h-186zM524 766q-231 0 -231 -299t231 -299q135 0 205 88v422q-72 88 -205 88zM739 934h197v-934h-197v82q-98 -102 -277 -102t-279 128q-99 128 -99 359t98 359t278 128t279 -102v82z" />
    <glyph glyph-name="aacute.alt" horiz-adv-x="1060" 
d="M592 1425h213l-178 -327h-187zM524 766q-231 0 -231 -299t231 -299q135 0 205 88v422q-72 88 -205 88zM739 934h197v-934h-197v82q-98 -102 -277 -102t-279 128q-99 128 -99 359t98 359t278 128t279 -102v82z" />
    <glyph glyph-name="acircumflex.alt" horiz-adv-x="1060" 
d="M440 1425h205l207 -327h-186l-123 194l-125 -194h-187zM524 766q-231 0 -231 -299t231 -299q135 0 205 88v422q-72 88 -205 88zM739 934h197v-934h-197v82q-98 -102 -277 -102t-279 128q-99 128 -99 359t98 359t278 128t279 -102v82z" />
    <glyph glyph-name="atilde.alt" horiz-adv-x="1060" 
d="M699 1214q-60 0 -155 -40t-171 -41q-76 0 -127 47l8 155q52 -51 116 -51t156 41t166 41t148 -47l-9 -156q-72 51 -132 51zM524 766q-231 0 -231 -299t231 -299q135 0 205 88v422q-72 88 -205 88zM739 934h197v-934h-197v82q-98 -102 -277 -102t-279 128q-99 128 -99 359
t98 359t278 128t279 -102v82z" />
    <glyph glyph-name="adieresis.alt" horiz-adv-x="1060" 
d="M737 1114q-133 0 -133 129q0 67 37 99t93 32t95 -34t39 -97t-38 -96t-93 -33zM348 1114q-131 0 -131 129q0 67 36 99t92 32t95 -34t39 -97t-38 -96t-93 -33zM524 766q-231 0 -231 -299t231 -299q135 0 205 88v422q-72 88 -205 88zM739 934h197v-934h-197v82
q-98 -102 -277 -102t-279 128q-99 128 -99 359t98 359t278 128t279 -102v82z" />
    <glyph glyph-name="amacron.alt" horiz-adv-x="1060" 
d="M246 1325h594v-168h-594v168zM524 766q-231 0 -231 -299t231 -299q135 0 205 88v422q-72 88 -205 88zM739 934h197v-934h-197v82q-98 -102 -277 -102t-279 128q-99 128 -99 359t98 359t278 128t279 -102v82z" />
    <glyph glyph-name="abreve.alt" horiz-adv-x="1060" 
d="M842 1405q0 -131 -80 -215t-219 -84t-218 84t-79 215h135q8 -66 51 -107t110 -41q68 0 110 41t50 107h140zM524 766q-231 0 -231 -299t231 -299q135 0 205 88v422q-72 88 -205 88zM739 934h197v-934h-197v82q-98 -102 -277 -102t-279 128q-99 128 -99 359t98 359t278 128
t279 -102v82z" />
    <glyph glyph-name="aring.alt" horiz-adv-x="1060" 
d="M524 766q-231 0 -231 -299t231 -299q135 0 205 88v422q-72 88 -205 88zM739 934h197v-934h-197v82q-98 -102 -277 -102t-279 128q-99 128 -99 359t98 359t278 128t279 -102v82zM446 1272q0 -39 26 -65q26 -25 70 -25t70 26t25 64q0 38 -26 64q-25 26 -69 26t-70 -26
t-26 -64zM326 1274q0 84 57 141t159 57t161 -56q59 -58 59 -142t-58 -142t-161 -58q-101 0 -159 58t-58 142z" />
    <glyph glyph-name="aringacute.alt" horiz-adv-x="1060" 
d="M524 766q-231 0 -231 -299t231 -299q135 0 205 88v422q-72 88 -205 88zM739 934h197v-934h-197v82q-98 -102 -277 -102t-279 128q-99 128 -99 359t98 359t278 128t279 -102v82zM449 1250q1 -38 25 -62t68 -25q44 0 70 25q26 24 27 62q0 38 -27 65q-26 27 -70 27t-69 -27
q-24 -27 -24 -65zM326 1245q0 78 44 132t124 69l86 153h206l-131 -176q109 -51 109 -174q0 -82 -59 -139t-161 -57t-161 57q-57 57 -57 135z" />
    <glyph glyph-name="g.alt" horiz-adv-x="1007" 
d="M246 -137q0 -139 221 -139q260 0 260 149q0 117 -147 117h-258q-76 -45 -76 -127zM489 434q106 0 153 43q46 43 46 129q0 174 -204 174t-203 -174q-1 -172 208 -172zM952 780h-149q74 -68 74 -182q-1 -152 -101 -232t-280 -81q-82 0 -140 12q-25 -39 -24 -70
q0 -66 94 -65h164q344 0 344 -266q0 -148 -124 -240t-336 -92t-316 68t-105 175q0 75 48 135t108 76q-31 14 -50 52t-20 75q0 100 99 187q-154 84 -154 278q0 160 105 252t307 92q119 0 206 -34l250 24v-164z" />
    <glyph glyph-name="gcircumflex.alt" horiz-adv-x="1007" 
d="M401 1425h205l207 -327h-186l-123 194l-125 -194h-186zM246 -137q0 -139 221 -139q260 0 260 149q0 117 -147 117h-258q-76 -45 -76 -127zM489 434q106 0 153 43q46 43 46 129q0 174 -204 174t-203 -174q-1 -172 208 -172zM952 780h-149q74 -68 74 -182
q-1 -152 -101 -232t-280 -81q-82 0 -140 12q-25 -39 -24 -70q0 -66 94 -65h164q344 0 344 -266q0 -148 -124 -240t-336 -92t-316 68t-105 175q0 75 48 135t108 76q-31 14 -50 52t-20 75q0 100 99 187q-154 84 -154 278q0 160 105 252t307 92q119 0 206 -34l250 24v-164z" />
    <glyph glyph-name="gbreve.alt" horiz-adv-x="1007" 
d="M246 -137q0 -139 221 -139q260 0 260 149q0 117 -147 117h-258q-76 -45 -76 -127zM489 434q106 0 153 43q46 43 46 129q0 174 -204 174t-203 -174q-1 -172 208 -172zM952 780h-149q74 -68 74 -182q-1 -152 -101 -232t-280 -81q-82 0 -140 12q-25 -39 -24 -70
q0 -66 94 -65h164q344 0 344 -266q0 -148 -124 -240t-336 -92t-316 68t-105 175q0 75 48 135t108 76q-31 14 -50 52t-20 75q0 100 99 187q-154 84 -154 278q0 160 105 252t307 92q119 0 206 -34l250 24v-164zM788 1405q0 -131 -80 -215t-218 -84q-140 0 -219 84t-78 215h135
q8 -66 51 -107t109 -41t110 41q43 41 51 107h139z" />
    <glyph glyph-name="gdotaccent.alt" horiz-adv-x="1007" 
d="M246 -137q0 -139 221 -139q260 0 260 149q0 117 -147 117h-258q-76 -45 -76 -127zM489 434q106 0 153 43q46 43 46 129q0 174 -204 174t-203 -174q-1 -172 208 -172zM952 780h-149q74 -68 74 -182q-1 -152 -101 -232t-280 -81q-82 0 -140 12q-25 -39 -24 -70
q0 -66 94 -65h164q344 0 344 -266q0 -148 -124 -240t-336 -92t-316 68t-105 175q0 75 48 135t108 76q-31 14 -50 52t-20 75q0 100 99 187q-154 84 -154 278q0 160 105 252t307 92q119 0 206 -34l250 24v-164zM489 1114q-133 0 -133 129q0 67 37 99t94 32t95 -34t39 -98
q-1 -64 -39 -96t-93 -32z" />
    <glyph glyph-name="brokenbar.sc" horiz-adv-x="407" 
d="M143 385h121v-594h-121v594zM264 594h-121v598h121v-598z" />
    <glyph glyph-name="gcommaaccent.alt" horiz-adv-x="1007" 
d="M381 1133l121 364h162l-52 -364h-231zM246 -137q0 -139 221 -139q260 0 260 149q0 117 -147 117h-258q-76 -45 -76 -127zM489 434q106 0 153 43q46 43 46 129q0 174 -204 174t-203 -174q-1 -172 208 -172zM952 780h-149q74 -68 74 -182q-1 -152 -101 -232t-280 -81
q-82 0 -140 12q-25 -39 -24 -70q0 -66 94 -65h164q344 0 344 -266q0 -148 -124 -240t-336 -92t-316 68t-105 175q0 75 48 135t108 76q-31 14 -50 52t-20 75q0 100 99 187q-154 84 -154 278q0 160 105 252t307 92q119 0 206 -34l250 24v-164z" />
    <glyph glyph-name="aogonek.alt" horiz-adv-x="1060" 
d="M524 766q-231 0 -231 -299t231 -299q135 0 205 88v422q-72 88 -205 88zM739 934h197v-934l-145 -111q-66 -53 -66 -91q0 -75 78 -77q59 0 133 54v-170q-86 -47 -192 -47t-167 51q-63 51 -63 149t121 197l104 84v43q-98 -102 -277 -102t-279 128q-99 128 -99 359t98 359
t278 128t279 -102v82z" />
    </font>
</defs>
</svg>
