<?xml version="1.0" standalone="no"?>
<!DOCTYPE svg PUBLIC "-//W3C//DTD SVG 1.1//EN" "http://www.w3.org/Graphics/SVG/1.1/DTD/svg11.dtd" >
<svg xmlns="http://www.w3.org/2000/svg">
<metadata>
Created by FontPrep 20130207 at Wed Sep  7 02:10:32 2016
 By Georgi Chelev
Copyright (c) 2014 by Hannes von Doehren, Livius Dietzel. All rights reserved.
</metadata>
<defs>
<font id="b355001f9bf2f7d18292883c95dea9ef" horiz-adv-x='1024' >
  <font-face 
    font-family="BrixSansRegular"
    font-weight="400"
    font-stretch="normal"
    units-per-em="2048"
    panose-1="2 0 0 0 0 0 0 0 0 0"
    ascent="1475"
    descent="-573"
    x-height="934"
    cap-height="1384"
    bbox="-307 -463.011 2220 2009"
    underline-thickness="102"
    underline-position="-102"
    unicode-range="U+0020-FB02"
  />
<missing-glyph horiz-adv-x="1050" 
d="M180 80h690v1184h-690v-1184zM102 0v1343h846v-1343h-846z" />
    <glyph glyph-name="fi" unicode="fi" horiz-adv-x="1153" 
d="M932 1161q-115 0 -115 111q0 57 32 86q32 28 82 28t83 -28t33 -85q0 -56 -33 -84t-82 -28zM852 0v791h-483v-791h-164v791h-160v122l160 21v149q0 330 299 330h106v-143h-100q-78 0 -110 -47t-31 -140v-149h647v-934h-164z" />
    <glyph glyph-name="fl" unicode="fl" horiz-adv-x="1155" 
d="M807 1413h164v-1149q0 -61 20 -89t74 -28h51v-151h-96q-117 0 -165 63t-48 187v1167zM610 1413v-143h-100q-78 0 -110 -47t-31 -140v-149h272v-143h-272v-791h-164v791h-160v122l160 21v149q0 330 299 330h106z" />
    <glyph glyph-name="f_f" unicode="ff" horiz-adv-x="1290" 
d="M1227 1413v-143h-101q-78 0 -110 -47t-31 -140v-149h272v-143h-272v-791h-164v791h-452v-791h-164v791h-160v122l160 21v149q0 330 299 330h106v-143h-100q-78 0 -110 -47t-31 -140v-149h452v149q0 330 299 330h107z" />
    <glyph glyph-name=".notdef" horiz-adv-x="1050" 
d="M180 80h690v1184h-690v-1184zM102 0v1343h846v-1343h-846z" />
    <glyph glyph-name=".null" horiz-adv-x="0" 
 />
    <glyph glyph-name=".null" horiz-adv-x="0" 
 />
    <glyph glyph-name="nonmarkingreturn" horiz-adv-x="681" 
 />
    <glyph glyph-name="space" unicode=" " horiz-adv-x="438" 
 />
    <glyph glyph-name="exclam" unicode="!" horiz-adv-x="475" 
d="M238 -14q-53 0 -90 34q-36 35 -35 86q0 51 35 87q36 35 90 35t89 -36q35 -34 35 -86t-35 -86q-36 -34 -89 -34zM303 434h-135l-31 950h201z" />
    <glyph glyph-name="quotedbl" unicode="&#x22;" horiz-adv-x="731" 
d="M141 885l-22 499h172l-25 -499h-125zM465 885l-19 499h166l-22 -499h-125z" />
    <glyph glyph-name="numbersign" unicode="#" horiz-adv-x="1273" 
d="M516 870l-47 -315h274l48 315h-275zM289 408h-205l16 147h213l45 315h-202l16 146h209l57 368h158l-57 -368h276l55 368h160l-57 -368h217l-16 -146h-224l-47 -315h215l-16 -147h-223l-62 -408h-162l66 408h-275l-63 -408h-160z" />
    <glyph glyph-name="dollar" unicode="$" horiz-adv-x="1124" 
d="M311 1015q0 -87 47 -135t150 -79l2 -2v446q-96 -19 -148 -81t-51 -149zM848 366q0 92 -55 142q-55 51 -168 84v-457q111 15 167 77t56 154zM625 -211h-115v191q-317 14 -428 260l131 92q39 -86 105 -138t192 -61v492l-59 18q-317 98 -318 361q0 154 96 266t281 131v153
h115v-151q139 -9 236 -65t149 -136l-131 -96q-80 129 -254 143v-483l71 -21q164 -49 248 -136t84 -241t-108 -262q-108 -109 -295 -124v-193z" />
    <glyph glyph-name="percent" unicode="%" horiz-adv-x="1646" 
d="M375 1393q293 0 293 -370t-293 -370t-293 369q0 176 72 274t221 97zM375 758q86 0 124 66t38 199q0 134 -38 200t-124 65q-162 0 -162 -265t162 -265zM973 360q0 370 293 369q293 0 293 -370t-293 -369q-293 0 -293 370zM1266 94q86 0 124 66t38 200t-38 199
q-38 66 -124 66q-162 1 -162 -265t162 -266zM1309 1384l-834 -1384h-141l829 1384h146z" />
    <glyph glyph-name="ampersand" unicode="&#x26;" horiz-adv-x="1329" 
d="M334 1084q0 -68 33 -119t98 -117l53 -55l78 57q72 51 102 76q30 24 57 66q28 42 27 87q0 74 -59 128q-59 55 -161 55t-166 -54q-62 -56 -62 -124zM459 123q178 0 327 178l-284 297l-39 -29q-82 -61 -112 -86q-31 -25 -67 -79t-36 -118t62 -113q62 -50 149 -50zM1270 0
h-195l-182 188q-188 -211 -434 -211q-171 -1 -271 89t-100 223q0 88 48 168t98 123t135 104l30 23l-51 53q-53 55 -81 86q-27 32 -61 100t-34 133q0 139 106 233t280 93q174 0 278 -94t104 -232q0 -98 -60 -174t-188 -168l-71 -53l258 -266l223 315l121 -94l-236 -332
l283 -293v-14z" />
    <glyph glyph-name="quotesingle" unicode="'" horiz-adv-x="405" 
d="M139 885l-18 499h166l-23 -499h-125z" />
    <glyph glyph-name="parenleft" unicode="(" horiz-adv-x="555" 
d="M96 498q0 288 73 502t212 440l129 -45q-117 -227 -178 -437q-62 -210 -62 -464q0 -252 58 -459t178 -443l-125 -47q-141 221 -213 443t-72 510z" />
    <glyph glyph-name="parenright" unicode=")" horiz-adv-x="555" 
d="M457 496q0 -288 -71 -507q-71 -220 -212 -444l-125 47q121 236 178 443t57 460t-60 463q-62 210 -179 437l129 45q139 -228 211 -442t72 -502z" />
    <glyph glyph-name="asterisk" unicode="*" horiz-adv-x="958" 
d="M279 668l-105 96l201 235l-283 66l45 147l283 -98l-12 311h157l-14 -309l283 88l34 -151l-278 -58l186 -239l-129 -88l-172 258z" />
    <glyph glyph-name="plus" unicode="+" 
d="M98 481v142h394v409h157v-409h400v-142h-400v-407h-157v407h-394z" />
    <glyph glyph-name="comma" unicode="," horiz-adv-x="450" 
d="M330 229l-111 -458h-127l51 458h187z" />
    <glyph glyph-name="hyphen" unicode="-" horiz-adv-x="790" 
d="M129 625h533v-144h-533v144z" />
    <glyph glyph-name="period" unicode="." horiz-adv-x="477" 
d="M239 -14q-56 0 -94 37q-37 37 -37 91t37 90t93 36t94 -36q37 -36 37 -90t-37 -91t-93 -37z" />
    <glyph glyph-name="slash" unicode="/" horiz-adv-x="720" 
d="M659 1384l-430 -1384h-166l422 1384h174z" />
    <glyph glyph-name="zero" unicode="0" horiz-adv-x="1220" 
d="M610 1405q254 0 377 -187q123 -188 123 -526t-123 -525t-377 -187t-377 187t-122 525q0 338 122 526q123 187 377 187zM610 129q322 0 322 563t-322 563t-322 -563t322 -563z" />
    <glyph glyph-name="one" unicode="1" horiz-adv-x="796" 
d="M627 0h-172v1219l-381 -158l-45 139l444 184h154v-1384z" />
    <glyph glyph-name="two" unicode="2" horiz-adv-x="1064" 
d="M102 989q0 188 108 302t305 114q195 0 309 -112t114 -289q0 -135 -68 -247t-202 -257l-330 -353h629v-147h-861v129l443 475q109 117 161 209t52 198q0 105 -65 175t-181 70t-177 -74q-62 -72 -63 -193h-174z" />
    <glyph glyph-name="three" unicode="3" horiz-adv-x="1124" 
d="M1012 369q0 -174 -126 -283t-341 -109q-215 1 -330 103t-115 260h174q0 -94 74 -152t205 -59q131 0 207 67q76 68 76 184t-87 186t-235 71h-125v147h125q135 0 217 62t82 170q0 110 -70 175q-71 65 -193 65t-190 -61q-68 -60 -67 -153h-174q0 154 109 258
q110 104 317 104t327 -106t119 -270q0 -125 -73 -208q-74 -82 -183 -107q113 -23 195 -114t82 -230z" />
    <glyph glyph-name="four" unicode="4" horiz-adv-x="1179" 
d="M731 449v694l-479 -694h479zM1100 449v-148h-197v-301h-172v301h-663v131l655 952h180v-935h197z" />
    <glyph glyph-name="five" unicode="5" horiz-adv-x="1085" 
d="M989 448q0 -206 -121 -338t-342 -132q-222 0 -332 110q-110 111 -110 281h174q0 -106 69 -173t205 -67t207 87q72 87 72 224t-72 213q-73 76 -203 76t-247 -84l-142 17l86 722h709v-147h-567l-53 -428q127 72 245 72q188 0 305 -113t117 -320z" />
    <glyph glyph-name="six" unicode="6" horiz-adv-x="1159" 
d="M854 1042q0 98 -67 156t-183 57q-156 0 -236 -144t-79 -394q45 61 137 111t203 51q201 0 315 -120t115 -319q0 -198 -121 -330q-120 -132 -354 -132t-354 180q-120 182 -120 512t124 533q124 202 370 202q205 0 314 -102t108 -261h-172zM588 129q143 0 218 84t75 223
t-74 217t-215 78q-96 0 -177 -55t-120 -133q0 -176 75 -295t218 -119z" />
    <glyph glyph-name="seven" unicode="7" horiz-adv-x="970" 
d="M66 1237v147h852v-129l-510 -1255h-189l506 1237h-659z" />
    <glyph glyph-name="eight" unicode="8" horiz-adv-x="1175" 
d="M287 384q0 -120 82 -188t220 -67q138 0 219 68q81 69 81 189t-85 188t-216 67q-131 0 -216 -68q-85 -69 -85 -189zM860 1020q0 111 -72 173t-199 62q-126 0 -200 -62t-74 -173t76 -172q76 -62 196 -62q121 0 197 62t76 172zM589 -23q-218 1 -348 105t-130 291
q0 139 78 227q79 88 192 115q-109 31 -177 109t-67 200q0 176 122 278t330 103q208 0 329 -103t120 -278q0 -123 -68 -201t-175 -108q115 -27 193 -114t79 -228q0 -186 -130 -291t-348 -105z" />
    <glyph glyph-name="nine" unicode="9" horiz-adv-x="1159" 
d="M133 342h174q0 -98 66 -156t180 -57q156 0 237 145t80 396q-47 -60 -139 -112t-201 -52q-202 0 -316 120t-114 318t122 331q122 132 354 132t353 -181q120 -181 120 -512t-125 -533t-371 -201q-205 0 -313 102t-107 260zM567 653q96 1 176 55t121 132q0 178 -74 297
t-218 119t-219 -85q-75 -84 -75 -223t76 -217q74 -78 213 -78z" />
    <glyph glyph-name="colon" unicode=":" horiz-adv-x="501" 
d="M250 711q-53 1 -88 35t-35 88t35 87t88 33t89 -34t36 -87q0 -52 -36 -87t-89 -35zM250 -14q-53 0 -88 34t-35 87t35 87t88 34t89 -36q36 -34 36 -86t-36 -86t-89 -34z" />
    <glyph glyph-name="semicolon" unicode=";" horiz-adv-x="491" 
d="M350 229l-108 -458h-129l51 458h186zM250 711q-53 1 -89 35t-36 86t36 88q36 34 89 34t89 -34t36 -87q0 -52 -36 -87t-89 -35z" />
    <glyph glyph-name="less" unicode="&#x3c;" 
d="M152 471v164l809 340v-156l-662 -266l662 -264v-158z" />
    <glyph glyph-name="equal" unicode="=" 
d="M170 387h807v-143h-807v143zM170 862h807v-141h-807v141z" />
    <glyph glyph-name="greater" unicode="&#x3e;" 
d="M993 635v-164l-807 -340v158l662 264l-662 266v156z" />
    <glyph glyph-name="question" unicode="?" horiz-adv-x="919" 
d="M443 1405q181 0 289 -99t108 -248t-113 -266l-94 -100q-113 -121 -113 -258h-168q0 164 113 294q47 54 93 103q112 119 112 211q0 91 -58 149t-157 58t-157 -49t-58 -131l-164 12q0 141 93 233t274 91zM309 106q0 50 36 86t90 36t90 -34t36 -86t-36 -88q-36 -34 -90 -34
t-90 34t-36 86z" />
    <glyph glyph-name="at" unicode="@" horiz-adv-x="1841" 
d="M806 35q-310 0 -308 340q0 219 117 380q118 161 309 160q152 0 235 -102l15 84h141l-103 -578q-16 -85 -2 -127t70 -42q125 0 219 146t94 421q0 217 -137 355t-432 138q-248 0 -429 -118t-268 -304q-87 -188 -87 -417q0 -287 139 -445t432 -157q219 0 397 86l33 -123
q-203 -94 -430 -94q-358 0 -535 195q-176 196 -176 540q0 268 108 486t320 350q213 132 496 132q182 0 322 -50t222 -139q165 -177 165 -435q1 -319 -139 -507t-330 -187q-161 0 -181 135q-119 -123 -277 -123zM934 784q-121 0 -205 -118t-84 -281q0 -109 47 -162t127 -53
q145 0 242 109l78 409q-84 96 -205 96z" />
    <glyph glyph-name="A" unicode="A" horiz-adv-x="1249" 
d="M627 1204l-242 -692h479zM1036 0l-125 365h-573l-125 -365h-188l495 1384h209l500 -1384h-193z" />
    <glyph glyph-name="B" unicode="B" horiz-adv-x="1193" 
d="M344 791h231q270 0 271 231q0 213 -271 213h-231v-444zM344 150h254q166 0 242 58t75 185q0 248 -315 248h-256v-491zM168 0v1384h434q214 0 320 -92t106 -258q0 -125 -57 -204t-158 -103q123 -23 204 -109t81 -235q0 -383 -482 -383h-448z" />
    <glyph glyph-name="C" unicode="C" horiz-adv-x="1198" 
d="M682 1251q-205 1 -299 -149t-94 -410t95 -410t298 -149q100 0 183 47t124 129l137 -88q-59 -111 -176 -177t-272 -64q-285 0 -427 186t-142 525t142 527t427 187q156 0 272 -66t176 -176l-137 -88q-41 82 -124 129t-183 47z" />
    <glyph glyph-name="D" unicode="D" horiz-adv-x="1329" 
d="M344 150h207q279 0 383 120t104 420q0 301 -105 423t-382 122h-207v-1085zM168 0v1384h391q356 0 509 -162t153 -529q0 -369 -154 -531t-508 -162h-391z" />
    <glyph glyph-name="E" unicode="E" horiz-adv-x="1101" 
d="M344 150h664v-150h-840v1384h831v-149h-655v-453h582v-149h-582v-483z" />
    <glyph glyph-name="F" unicode="F" horiz-adv-x="1062" 
d="M168 0v1384h817v-149h-641v-492h547v-149h-547v-594h-176z" />
    <glyph glyph-name="G" unicode="G" horiz-adv-x="1310" 
d="M700 588v151h514q8 -61 9 -100q0 -297 -128 -478t-412 -181t-429 181t-145 531q0 713 604 713q309 0 438 -234l-133 -90q-106 170 -321 170t-311 -145t-97 -420q0 -275 94 -415q95 -140 293 -140t283 124t85 333h-344z" />
    <glyph glyph-name="H" unicode="H" horiz-adv-x="1382" 
d="M1038 801v583h176v-1384h-176v651h-694v-651h-176v1384h176v-583h694z" />
    <glyph glyph-name="I" unicode="I" horiz-adv-x="509" 
d="M168 0v1384h176v-1384h-176z" />
    <glyph glyph-name="J" unicode="J" horiz-adv-x="997" 
d="M408 133q130 0 196 82t66 270v899h170v-903q0 -256 -114 -379t-318 -122q-257 -1 -363 210l131 84q76 -141 232 -141z" />
    <glyph glyph-name="K" unicode="K" horiz-adv-x="1239" 
d="M344 0h-176v1384h176v-688l641 688h219l-526 -573l524 -811h-211l-438 686l-209 -217v-469z" />
    <glyph glyph-name="L" unicode="L" horiz-adv-x="974" 
d="M344 150h590v-150h-766v1384h176v-1234z" />
    <glyph glyph-name="M" unicode="M" horiz-adv-x="1759" 
d="M881 223l370 1161h234l178 -1384h-170l-145 1176l-375 -1176h-191l-368 1176l-150 -1176h-172l187 1384h241z" />
    <glyph glyph-name="N" unicode="N" horiz-adv-x="1392" 
d="M1225 1384v-1384h-185l-696 1106v-1106h-178l2 1384h188l693 -1099l2 1099h174z" />
    <glyph glyph-name="O" unicode="O" horiz-adv-x="1343" 
d="M1237 691q0 -329 -138 -520t-429 -191t-426 190t-135 521t135 522t428 191t429 -192t136 -521zM289 690q0 -268 86 -412t297 -144t298 144t87 412t-87 414t-298 147q-383 0 -383 -561z" />
    <glyph glyph-name="P" unicode="P" horiz-adv-x="1153" 
d="M344 1235v-541h254q295 0 295 270t-295 271h-254zM608 545h-264v-545h-176v1384h440q233 0 349 -110t116 -308q0 -200 -117 -310t-348 -111z" />
    <glyph glyph-name="Q" unicode="Q" horiz-adv-x="1343" 
d="M289 690q0 -268 86 -412q85 -144 281 -144t288 110l-340 331l96 105l316 -303q41 123 41 313q0 268 -87 414t-298 147q-383 0 -383 -561zM1237 690q0 -270 -88 -440l168 -162l-98 -111l-156 152q-143 -150 -393 -149q-291 0 -426 190t-135 521t135 522t428 191t429 -192
t136 -522z" />
    <glyph glyph-name="R" unicode="R" horiz-adv-x="1218" 
d="M633 758q165 0 237 61t72 179t-72 178t-237 59h-289v-477h289zM168 0v1384h479q235 0 355 -100t120 -270t-93 -269q-93 -98 -263 -122l393 -623h-203l-372 608h-240l-2 -608h-174z" />
    <glyph glyph-name="S" unicode="S" horiz-adv-x="1116" 
d="M573 1251q-127 1 -197 -67t-69 -162q0 -94 47 -142t150 -79l184 -56q164 -51 249 -136t85 -226q0 -182 -127 -293t-346 -110q-350 0 -475 262l133 90q43 -94 117 -146t220 -53q146 0 221 65t75 175q0 154 -211 215l-185 55q-317 98 -317 361q0 170 115 286t331 115
q159 1 267 -57t161 -146l-129 -96q-90 145 -299 145z" />
    <glyph glyph-name="T" unicode="T" horiz-adv-x="1101" 
d="M66 1384h972v-149h-399v-1235h-176v1235h-397v149z" />
    <glyph glyph-name="U" unicode="U" horiz-adv-x="1333" 
d="M666 -20q-238 0 -374 130t-136 406v868h176v-870q0 -201 83 -291t250 -90t251 91t83 290v870h177v-868q0 -280 -136 -408t-374 -128z" />
    <glyph glyph-name="V" unicode="V" horiz-adv-x="1220" 
d="M1001 1384h189l-467 -1384h-225l-465 1384h186l391 -1200z" />
    <glyph glyph-name="W" unicode="W" horiz-adv-x="1982" 
d="M889 1384h205l333 -1179l326 1179h186l-397 -1384h-219l-332 1143l-332 -1143h-219l-397 1384h186l326 -1179z" />
    <glyph glyph-name="X" unicode="X" horiz-adv-x="1175" 
d="M55 1384h201l332 -548l332 548h202l-417 -669l438 -715h-203l-352 584l-350 -584h-205l438 715z" />
    <glyph glyph-name="Y" unicode="Y" horiz-adv-x="1175" 
d="M676 0h-176v553l-473 831h196l367 -667l362 667h199l-475 -831v-553z" />
    <glyph glyph-name="Z" unicode="Z" horiz-adv-x="1054" 
d="M958 1384v-133l-675 -1101h690v-150h-901v131l680 1104h-641v149h847z" />
    <glyph glyph-name="bracketleft" unicode="[" horiz-adv-x="614" 
d="M139 1413h418v-141h-248v-1573h248v-141h-418v1855z" />
    <glyph glyph-name="backslash" unicode="\" horiz-adv-x="720" 
d="M492 0l-431 1384h172l424 -1384h-165z" />
    <glyph glyph-name="bracketright" unicode="]" horiz-adv-x="614" 
d="M57 1413h418v-1855h-418v141h248v1573h-248v141z" />
    <glyph glyph-name="asciicircum" unicode="^" 
d="M82 940l491 492l492 -492l-113 -113l-379 381l-378 -379z" />
    <glyph glyph-name="underscore" unicode="_" horiz-adv-x="1024" 
d="M102 -63h820v-119h-820v119z" />
    <glyph glyph-name="grave" unicode="`" horiz-adv-x="1228" 
d="M449 1425h176l155 -319h-153z" />
    <glyph glyph-name="a" unicode="a" horiz-adv-x="962" 
d="M246 252q0 -141 158 -141t264 114v224l-154 -19q-268 -37 -268 -178zM831 0h-155v115q-115 -135 -314 -135q-134 0 -208 70t-74 194q0 256 428 301l160 16v92q0 84 -43 125t-145 41t-150 -31q-49 -31 -49 -83v-54h-146q-6 33 -6 68q0 106 92 171t260 64q350 0 350 -299
v-655z" />
    <glyph glyph-name="b" unicode="b" horiz-adv-x="1054" 
d="M532 131q265 0 265 336t-265 336q-156 0 -229 -113v-440q76 -119 229 -119zM303 1413v-567q92 109 258 108q203 0 302 -128t99 -357t-100 -359t-292 -130t-291 110l-48 -90h-92v1413h164z" />
    <glyph glyph-name="c" unicode="c" horiz-adv-x="915" 
d="M522 807q-262 0 -263 -341t264 -341q140 0 212 127l119 -84q-100 -188 -348 -188q-210 0 -312 133t-102 352t102 354t312 135q250 0 348 -190l-119 -82q-74 125 -213 125z" />
    <glyph glyph-name="d" unicode="d" horiz-adv-x="1056" 
d="M522 803q-262 0 -262 -336t262 -336q162 0 234 113v446q-84 113 -234 113zM756 1413h162v-1413h-158v88q-94 -108 -282 -108t-287 129t-99 359t99 358t286 128t279 -108v567z" />
    <glyph glyph-name="e" unicode="e" horiz-adv-x="964" 
d="M721 582q0 106 -58 171t-161 64q-226 0 -244 -276h459q4 25 4 41zM520 121q152 0 254 100l82 -110q-49 -53 -141 -93t-195 -38q-221 0 -324 131q-104 131 -104 351t104 356t298 136q192 0 287 -114t96 -279q0 -68 -13 -145h-608q6 -295 264 -295z" />
    <glyph glyph-name="f" unicode="f" horiz-adv-x="673" 
d="M610 1413v-143h-100q-78 0 -110 -47t-31 -140v-149h272v-143h-272v-791h-164v791h-160v122l160 21v149q0 330 299 330h106z" />
    <glyph glyph-name="g" unicode="g" horiz-adv-x="1048" 
d="M260 467q0 -336 260 -336q147 0 228 113v446q-80 113 -224 113t-204 -88t-60 -248zM754 934h157v-1006q0 -150 -106 -248q-107 -98 -283 -98t-272 82t-96 201h147q0 -57 60 -103q61 -46 163 -45q102 -1 162 57t62 148v174q-96 -117 -256 -116q-201 0 -301 129
q-99 129 -99 358t100 358t283 129q182 0 279 -110v90z" />
    <glyph glyph-name="h" unicode="h" horiz-adv-x="1062" 
d="M770 582q0 221 -196 221q-181 0 -271 -109v-694h-164v1413h164v-582q43 53 124 89t177 34q170 0 249 -90t79 -268v-596h-162v582z" />
    <glyph glyph-name="i" unicode="i" horiz-adv-x="442" 
d="M219 1161q-115 0 -115 111q0 57 32 86q32 28 82 28t83 -28t33 -85q0 -56 -33 -84t-82 -28zM139 0v934h164v-934h-164z" />
    <glyph glyph-name="j" unicode="j" horiz-adv-x="444" 
d="M221 1161q-117 0 -117 111q0 57 33 86q33 28 82 28t82 -30t33 -84q0 -55 -33 -83t-80 -28zM139 -55v989h164v-965q1 -173 -59 -275t-189 -157l-86 115q96 44 133 110t37 183z" />
    <glyph glyph-name="k" unicode="k" horiz-adv-x="968" 
d="M303 0h-164v1413h164v-899l432 420h209l-377 -361l367 -573h-189l-292 461l-150 -144v-317z" />
    <glyph glyph-name="l" unicode="l" horiz-adv-x="479" 
d="M131 1413h164v-1149q0 -61 20 -89t74 -28h51v-151h-96q-117 0 -165 63t-48 187v1167z" />
    <glyph glyph-name="m" unicode="m" horiz-adv-x="1654" 
d="M137 0v934h160v-109q117 129 276 129q197 0 297 -143q120 143 308 143t268 -87t80 -261v-606h-164v596q0 106 -47 156t-156 51q-147 0 -241 -109v-694h-162v684q-61 119 -217 119q-127 0 -238 -107v-696h-164z" />
    <glyph glyph-name="n" unicode="n" horiz-adv-x="1060" 
d="M137 0v934h160v-113q43 59 125 97t182 36q170 0 249 -90t79 -268v-596h-164v582q0 113 -48 167t-165 54q-164 0 -254 -109v-694h-164z" />
    <glyph glyph-name="o" unicode="o" horiz-adv-x="1024" 
d="M766 467q0 338 -254 338t-254 -338t254 -338t254 338zM513 954q212 0 316 -132q105 -132 105 -355t-104 -355t-316 -132q-211 0 -316 133t-106 354q0 221 104 354t317 133z" />
    <glyph glyph-name="p" unicode="p" horiz-adv-x="1058" 
d="M799 463q0 340 -262 340q-164 0 -236 -115v-446q85 -111 231 -111t206 86t61 246zM301 -442h-164v1376h158v-90q95 110 283 110t288 -130t100 -359t-100 -357t-286 -128t-279 106v-528z" />
    <glyph glyph-name="q" unicode="q" horiz-adv-x="1048" 
d="M260 463q0 -158 59 -245t208 -87t221 111v440q-76 121 -226 121q-262 0 -262 -340zM748 -442v528q-92 -106 -256 -106q-201 0 -301 126q-99 126 -99 356t100 361t290 131t290 -112l47 92h92v-1376h-163z" />
    <glyph glyph-name="r" unicode="r" horiz-adv-x="700" 
d="M297 780h2q88 174 260 174q70 0 113 -14l-19 -172q-66 18 -125 18q-147 0 -227 -176v-610h-164v934h160v-154z" />
    <glyph glyph-name="s" unicode="s" horiz-adv-x="880" 
d="M446 823q-90 0 -135 -40t-45 -101q0 -94 115 -123l160 -37q260 -61 260 -262q0 -123 -96 -202t-279 -78q-236 0 -356 155l100 101q34 -39 60 -63t79 -44t134 -20t136 35q54 36 54 104q0 94 -139 129l-164 39q-227 55 -228 254q0 116 87 200t264 84q216 0 327 -131
l-96 -100q-92 100 -238 100z" />
    <glyph glyph-name="t" unicode="t" horiz-adv-x="694" 
d="M379 793v-523q0 -139 127 -139q59 0 127 29l16 -142q-82 -39 -190 -38q-242 0 -242 272v541h-178v120l178 21v233l162 31v-264h250v-141h-250z" />
    <glyph glyph-name="u" unicode="u" horiz-adv-x="1060" 
d="M924 934v-934h-160v113q-43 -59 -125 -97t-182 -36q-170 0 -249 90t-79 268v596h164v-582q0 -113 48 -167t165 -54q164 0 254 109v694h164z" />
    <glyph glyph-name="v" unicode="v" horiz-adv-x="976" 
d="M758 934h176l-346 -934h-199l-350 934h178l272 -776z" />
    <glyph glyph-name="w" unicode="w" horiz-adv-x="1550" 
d="M694 934h162l242 -756l233 756h174l-305 -934h-182l-242 725l-244 -725h-182l-303 934h172l234 -756z" />
    <glyph glyph-name="x" unicode="x" horiz-adv-x="927" 
d="M567 467l314 -467h-191l-225 352l-229 -352h-189l313 469l-313 465h191l225 -352l229 352h189z" />
    <glyph glyph-name="y" unicode="y" horiz-adv-x="983" 
d="M215 934l293 -682l262 682h180l-567 -1376h-172l213 501l-393 875h184z" />
    <glyph glyph-name="z" unicode="z" horiz-adv-x="841" 
d="M750 934v-115l-467 -676h473v-143h-678v115l469 676h-447v143h650z" />
    <glyph glyph-name="braceleft" unicode="{" horiz-adv-x="602" 
d="M387 1133v-428q0 -197 -145 -220q145 -18 145 -221v-424q0 -86 33 -119t110 -32v-131q-166 0 -238 60t-73 220v414q0 94 -43 131t-141 37v131q100 0 142 37t42 131v414q0 154 74 217t237 63v-131q-78 0 -110 -32t-33 -117z" />
    <glyph glyph-name="bar" unicode="|" horiz-adv-x="399" 
d="M258 -442h-119v1855h119v-1855z" />
    <glyph glyph-name="braceright" unicode="}" horiz-adv-x="602" 
d="M215 705v428q0 85 -33 117t-110 32v131q164 0 238 -63t73 -217v-414q0 -94 42 -131t142 -37v-131q-98 0 -141 -37t-43 -131v-414q0 -160 -73 -220t-238 -60v131q78 1 110 33t33 118v424q0 203 145 221q-145 23 -145 220z" />
    <glyph glyph-name="asciitilde" unicode="~" 
d="M762 549q-64 0 -183 -75q-118 -75 -204 -75t-166 70l12 158q87 -72 153 -72t179 75t201 75t182 -72l-18 -156q-92 72 -156 72z" />
    <glyph glyph-name="uni00A0" unicode="&#xa0;" horiz-adv-x="438" 
 />
    <glyph glyph-name="exclamdown" unicode="&#xa1;" horiz-adv-x="454" 
d="M226 713q-54 -1 -89 33t-35 88t35 86q35 34 89 34t90 -34t36 -86q0 -51 -36 -86t-90 -35zM162 506h135l29 -950h-199z" />
    <glyph glyph-name="cent" unicode="&#xa2;" horiz-adv-x="976" 
d="M274 465q0 -227 119 -305l156 647h-19q-256 0 -256 -342zM106 465q0 219 104 354t310 135q23 0 64 -4l37 156l100 -23l-39 -155q123 -47 188 -164l-120 -82q-39 70 -103 100l-160 -655q14 -2 43 -2q150 0 222 127l118 -84q-100 -188 -350 -188q-23 0 -67 4l-29 -125
l-98 22l30 127q-126 47 -188 168t-62 289z" />
    <glyph glyph-name="sterling" unicode="&#xa3;" 
d="M78 672h137v239q0 219 104 357t326 137q264 0 426 -193l-113 -110q-121 145 -307 145q-266 0 -266 -340v-235h391v-121h-391v-408h604v-143h-774v551h-137v121z" />
    <glyph glyph-name="currency" unicode="&#xa4;" horiz-adv-x="1103" 
d="M549 379q164 0 164 182t-164 182t-164 -182t164 -182zM860 563q0 -92 -31 -164l164 -170l-112 -112l-164 157q-67 -43 -173 -43t-169 43l-150 -151l-110 110l155 158q-32 72 -32 168t28 162l-157 164l114 114l152 -153q73 47 179 47t175 -49l154 151l106 -108l-158 -164
q29 -68 29 -160z" />
    <glyph glyph-name="yen" unicode="&#xa5;" horiz-adv-x="1204" 
d="M154 606h333l-86 160h-247v121h182l-275 497h193l346 -659l350 659h195l-283 -497h185v-121h-252l-90 -160h342v-119h-365v-487h-172v487h-356v119z" />
    <glyph glyph-name="brokenbar" unicode="&#xa6;" horiz-adv-x="413" 
d="M147 348h119v-790h-119v790zM266 627h-119v786h119v-786z" />
    <glyph glyph-name="section" unicode="&#xa7;" horiz-adv-x="1138" 
d="M303 626q0 -109 211 -184l223 -86q115 72 115 170q0 72 -55 116t-164 83l-219 78q-49 -27 -80 -74t-31 -103zM1026 549q0 -152 -152 -252q146 -86 146 -221t-120 -223t-339 -89q-328 0 -469 201l103 107q131 -168 374 -168q123 0 198 37t75 112q0 41 -36 75t-72 51
t-103 42l-217 84q-283 102 -283 303q0 72 39 141t106 113q-139 90 -139 220t116 227q116 96 325 96q301 0 440 -193l-109 -102q-129 154 -344 154q-109 0 -181 -43t-71 -107t57 -103q56 -38 177 -83l164 -58q159 -56 237 -130t78 -191z" />
    <glyph glyph-name="dieresis" unicode="&#xa8;" horiz-adv-x="1228" 
d="M801 1141q-113 0 -113 110q0 115 113 115q49 0 82 -29t33 -85t-33 -84q-33 -27 -82 -27zM426 1141q-115 0 -115 110q0 57 32 86t82 29t83 -29t33 -85t-33 -84t-82 -27z" />
    <glyph glyph-name="copyright" unicode="&#xa9;" horiz-adv-x="1667" 
d="M600 686q0 -289 229 -289q131 0 209 109l103 -92q-123 -150 -305 -150t-283 114q-102 114 -102 306t105 306t276 114t301 -137l-99 -90q-94 94 -206 94t-170 -76t-58 -209zM240 690q0 -276 166 -442t429 -166t429 166t166 442t-166 442t-429 164q-263 0 -429 -165
t-166 -441zM104 690q0 326 207 530t523 204t523 -204q206 -204 206 -530t-206 -532t-521 -205q-316 -1 -524 205t-208 532z" />
    <glyph glyph-name="ordfeminine" unicode="&#xaa;" horiz-adv-x="731" 
d="M227 872q0 -74 91 -74t157 76v113l-84 -10q-164 -23 -164 -105zM600 717h-119v67q-78 -82 -181 -82q-200 0 -200 166t285 193l90 10v49q-1 90 -113 90t-112 -57v-33h-115q-2 16 -2 41q-1 66 61 107t174 41t172 -48t60 -139v-405z" />
    <glyph glyph-name="guillemotleft" unicode="&#xab;" horiz-adv-x="1019" 
d="M451 553l366 440l109 -78l-277 -362l277 -365l-109 -77zM59 553l367 440l109 -78l-277 -362l277 -365l-109 -77z" />
    <glyph glyph-name="logicalnot" unicode="&#xac;" 
d="M88 639v141h948v-534h-157v393h-791z" />
    <glyph glyph-name="uni00AD" unicode="&#xad;" horiz-adv-x="790" 
d="M129 625h533v-144h-533v144z" />
    <glyph glyph-name="registered" unicode="&#xae;" horiz-adv-x="1667" 
d="M240 690q0 -276 166 -442t429 -166t429 166t166 442t-166 442t-429 164q-263 0 -429 -165t-166 -441zM104 690q0 326 207 530t523 204t523 -204q206 -204 206 -530t-206 -532t-521 -205q-316 -1 -524 205t-208 532zM537 272v824h299q307 0 307 -234q1 -90 -59 -151
t-164 -78l245 -361h-149l-230 349h-120v-349h-129zM1014 860q0 55 -41 93t-131 38h-176v-268h168q92 0 136 41t44 96z" />
    <glyph glyph-name="macron" unicode="&#xaf;" horiz-adv-x="1228" 
d="M326 1313h575v-135h-575v135z" />
    <glyph glyph-name="degree" unicode="&#xb0;" horiz-adv-x="735" 
d="M197 1118q0 -78 46 -128t124 -50t125 50t47 128t-47 130t-125 52t-124 -52t-46 -130zM367 1405q127 0 203 -82t77 -203q0 -120 -77 -202q-78 -82 -204 -82t-202 82t-76 202q0 121 76 203t203 82z" />
    <glyph glyph-name="plusminus" unicode="&#xb1;" 
d="M98 68v143h949v-143h-949zM98 756v143h394v406h155v-406h400v-143h-400v-355h-155v355h-394z" />
    <glyph glyph-name="twosuperior" unicode="&#xb2;" horiz-adv-x="634" 
d="M63 1395q1 105 63 167t179 62t185 -60t69 -142q0 -82 -41 -143q-41 -60 -119 -134l-157 -148h327v-102h-499v88l245 236q111 104 111 190q0 49 -31 80t-86 31q-119 0 -119 -125h-127z" />
    <glyph glyph-name="threesuperior" unicode="&#xb3;" horiz-adv-x="661" 
d="M592 1074q0 -81 -74 -137t-200 -56t-192 55q-67 55 -67 143h129q0 -43 36 -67t98 -25q62 0 101 28q38 28 38 79t-43 83t-121 31h-72v103h72q70 -1 111 27t41 76t-35 76t-92 28q-56 0 -90 -26t-33 -67h-129q0 85 63 141t185 56t192 -56t70 -131t-40 -118t-98 -57
q62 -12 106 -58t44 -128z" />
    <glyph glyph-name="acute" unicode="&#xb4;" horiz-adv-x="1228" 
d="M604 1425h176l-178 -319h-153z" />
    <glyph glyph-name="mu" unicode="&#xb5;" horiz-adv-x="1062" 
d="M297 -442h-162v1376h162v-582q0 -113 49 -167t166 -54q164 0 254 109v694h162v-934h-158v113q-45 -59 -127 -97t-179 -36q-97 0 -167 28v-450z" />
    <glyph glyph-name="paragraph" unicode="&#xb6;" horiz-adv-x="1026" 
d="M748 -68v1002h149v-977q0 -102 -16 -175q-15 -74 -69 -140t-148 -105l-82 111q92 45 129 106t37 178zM408 934h219v-1020h-152v418q-215 0 -311 70t-96 220t85 231t255 81z" />
    <glyph glyph-name="periodcentered" unicode="&#xb7;" horiz-adv-x="499" 
d="M249 428q-56 0 -93 37t-37 91t37 90t93 36t93 -36t37 -90t-37 -91t-93 -37z" />
    <glyph glyph-name="cedilla" unicode="&#xb8;" horiz-adv-x="1228" 
d="M827 -276q0 -70 -56 -118q-55 -48 -149 -48t-184 45v118q78 -57 168 -57q39 0 62 16t22 44q0 70 -110 69h-74l-8 12l71 207l113 -12l-43 -111q188 0 188 -165z" />
    <glyph glyph-name="onesuperior" unicode="&#xb9;" horiz-adv-x="483" 
d="M379 893h-129v600l-207 -76l-31 99l254 94h113v-717z" />
    <glyph glyph-name="ordmasculine" unicode="&#xba;" horiz-adv-x="749" 
d="M375 809q152 0 151 197q0 197 -151 196q-152 0 -152 -196t152 -197zM375 1309q139 0 209 -84t70 -220t-70 -220q-70 -83 -209 -83t-209 83t-70 221t70 220q70 83 209 83z" />
    <glyph glyph-name="guillemotright" unicode="&#xbb;" horiz-adv-x="1019" 
d="M203 993l366 -440l-366 -442l-109 77l277 365l-277 362zM594 993l367 -440l-367 -442l-109 77l277 365l-277 362z" />
    <glyph glyph-name="onequarter" unicode="&#xbc;" horiz-adv-x="1452" 
d="M432 664h-129v600l-207 -76l-30 98l253 94h113v-716zM1212 1384l-833 -1384h-141l829 1384h145zM1141 246v307l-234 -307h234zM1368 246v-103h-100v-143h-127v143h-369v93l363 481h133v-471h100z" />
    <glyph glyph-name="onehalf" unicode="&#xbd;" horiz-adv-x="1511" 
d="M432 664h-129v600l-207 -76l-30 98l253 94h113v-716zM911 500q1 104 63 166t179 63q117 0 185 -60q68 -61 69 -143q0 -82 -41 -142t-119 -134l-157 -148h327v-102h-499v88l245 236q111 104 111 190q0 49 -31 80t-86 31q-119 0 -119 -125h-127zM1212 1384l-833 -1384h-141
l829 1384h145z" />
    <glyph glyph-name="threequarters" unicode="&#xbe;" horiz-adv-x="1531" 
d="M1225 246v307l-234 -307h234zM1452 246v-103h-100v-143h-127v143h-369v93l363 481h133v-471h100zM1294 1384l-833 -1384h-142l830 1384h145zM623 845q0 -81 -74 -137t-200 -56q-127 0 -193 54q-66 56 -66 144h129q0 -43 36 -68q36 -24 98 -24t101 27q38 28 38 79t-43 83
t-121 32h-72v102h72q70 0 110 28t41 76q0 48 -35 76q-35 27 -92 27t-90 -26t-33 -66h-129q0 86 64 141t185 55q122 0 192 -56t69 -144q0 -60 -39 -104t-98 -58q61 -12 105 -58t45 -127z" />
    <glyph glyph-name="questiondown" unicode="&#xbf;" horiz-adv-x="903" 
d="M468 -463q-181 0 -289 99q-107 99 -107 247t112 268q46 50 94 100q112 118 113 257h168q0 -163 -112 -294q-46 -54 -93 -103q-114 -119 -113 -210q1 -92 58 -150t157 -58t158 49q57 49 58 131l164 -12q0 -141 -94 -233t-274 -91zM350 835q0 53 36 87t90 34t90 -34t36 -86
q0 -51 -36 -86t-90 -35t-90 34t-36 86z" />
    <glyph glyph-name="Agrave" unicode="&#xc0;" horiz-adv-x="1249" 
d="M375 1843h176l156 -319h-154zM627 1204l-242 -692h479zM1036 0l-125 365h-573l-125 -365h-188l495 1384h209l500 -1384h-193z" />
    <glyph glyph-name="Aacute" unicode="&#xc1;" horiz-adv-x="1249" 
d="M700 1843h177l-179 -319h-153zM627 1204l-242 -692h479zM1036 0l-125 365h-573l-125 -365h-188l495 1384h209l500 -1384h-193z" />
    <glyph glyph-name="Acircumflex" unicode="&#xc2;" horiz-adv-x="1249" 
d="M543 1843h166l209 -319h-152l-141 207l-138 -207h-151zM627 1204l-242 -692h479zM1036 0l-125 365h-573l-125 -365h-188l495 1384h209l500 -1384h-193z" />
    <glyph glyph-name="Atilde" unicode="&#xc3;" horiz-adv-x="1249" 
d="M777 1642q-54 0 -146 -40t-166 -39q-74 0 -125 51l12 125q48 -49 110 -49t150 39t158 39t141 -50l-12 -129q-68 53 -122 53zM627 1204l-242 -692h479zM1036 0l-125 365h-573l-125 -365h-188l495 1384h209l500 -1384h-193z" />
    <glyph glyph-name="Adieresis" unicode="&#xc4;" horiz-adv-x="1249" 
d="M813 1559q-113 0 -113 110q0 115 113 115q49 0 82 -29t33 -85t-33 -84t-82 -27zM438 1559q-115 0 -114 110q0 57 31 86q32 29 82 29t83 -29t33 -85t-33 -84t-82 -27zM627 1204l-242 -692h479zM1036 0l-125 365h-573l-125 -365h-188l495 1384h209l500 -1384h-193z" />
    <glyph glyph-name="Aring" unicode="&#xc5;" horiz-adv-x="1249" 
d="M522 1660q0 -44 28 -72t77 -28t78 28t29 72t-29 72t-78 28t-77 -28t-28 -72zM414 1660q0 83 57 138t155 55t157 -55t59 -138t-58 -139q-58 -57 -157 -57q-97 0 -155 56t-58 140zM627 1204l-242 -692h479zM1036 0l-125 365h-573l-125 -365h-188l495 1384h209l500 -1384
h-193z" />
    <glyph glyph-name="AE" unicode="&#xc6;" horiz-adv-x="1925" 
d="M1823 1384v-149h-656v-453h584v-149h-584v-490h664v-143h-840v365h-555l-246 -365h-192l930 1384h895zM991 510v707l-465 -707h465z" />
    <glyph glyph-name="Ccedilla" unicode="&#xc7;" horiz-adv-x="1198" 
d="M682 1251q-205 1 -299 -149t-94 -410t95 -410t298 -149q100 0 183 47t124 129l137 -88q-55 -102 -160 -167t-247 -72l-35 -93q188 0 188 -165q0 -70 -56 -118t-149 -48t-184 45v118q78 -57 168 -57q39 0 62 16t22 44q0 70 -110 69h-74l-8 12l61 179q-248 22 -372 206
t-124 512t143 516q142 188 427 187q156 0 272 -66t176 -176l-137 -88q-41 82 -124 129t-183 47z" />
    <glyph glyph-name="Egrave" unicode="&#xc8;" horiz-adv-x="1103" 
d="M344 1843h176l156 -319h-154zM344 150h664v-150h-840v1384h831v-149h-655v-453h582v-149h-582v-483z" />
    <glyph glyph-name="Eacute" unicode="&#xc9;" horiz-adv-x="1103" 
d="M659 1843h177l-179 -319h-153zM344 150h664v-150h-840v1384h831v-149h-655v-453h582v-149h-582v-483z" />
    <glyph glyph-name="Ecircumflex" unicode="&#xca;" horiz-adv-x="1103" 
d="M502 1843h166l209 -319h-152l-141 207l-138 -207h-151zM344 150h664v-150h-840v1384h831v-149h-655v-453h582v-149h-582v-483z" />
    <glyph glyph-name="Edieresis" unicode="&#xcb;" horiz-adv-x="1103" 
d="M772 1559q-113 0 -113 110q0 115 113 115q49 0 82 -29t33 -85t-33 -84t-82 -27zM397 1559q-115 0 -114 110q0 57 31 86q32 29 82 29t83 -29t33 -85t-33 -84t-82 -27zM344 150h664v-150h-840v1384h831v-149h-655v-453h582v-149h-582v-483z" />
    <glyph glyph-name="Igrave" unicode="&#xcc;" horiz-adv-x="509" 
d="M2 1843h176l156 -319h-154zM168 0v1384h176v-1384h-176z" />
    <glyph glyph-name="Iacute" unicode="&#xcd;" horiz-adv-x="509" 
d="M336 1843h176l-178 -319h-154zM168 0v1384h176v-1384h-176z" />
    <glyph glyph-name="Icircumflex" unicode="&#xce;" horiz-adv-x="509" 
d="M172 1843h166l209 -319h-152l-141 207l-137 -207h-152zM168 0v1384h176v-1384h-176z" />
    <glyph glyph-name="Idieresis" unicode="&#xcf;" horiz-adv-x="509" 
d="M442 1559q-112 1 -112 113t112 112q49 0 82 -29t33 -85t-33 -84t-82 -27zM68 1559q-115 0 -115 110q0 57 32 86t82 29t83 -29q32 -29 32 -85t-32 -84q-33 -27 -82 -27zM168 0v1384h176v-1384h-176z" />
    <glyph glyph-name="Eth" unicode="&#xd0;" horiz-adv-x="1343" 
d="M358 150h207q279 0 383 120t104 420q0 301 -104 423q-106 122 -383 122h-207v-463h236v-129h-236v-493zM45 772h137v612h391q356 0 509 -162t153 -529q0 -369 -154 -531t-508 -162h-391v643h-137v129z" />
    <glyph glyph-name="Ntilde" unicode="&#xd1;" horiz-adv-x="1392" 
d="M847 1642q-55 0 -147 -40t-166 -39q-74 0 -124 51l12 125q48 -49 110 -49t150 39t158 39t141 -50l-12 -129q-68 53 -122 53zM1225 1384v-1384h-185l-696 1106v-1106h-178l2 1384h188l693 -1099l2 1099h174z" />
    <glyph glyph-name="Ograve" unicode="&#xd2;" horiz-adv-x="1343" 
d="M430 1843h176l156 -319h-154zM1237 691q0 -329 -138 -520t-429 -191t-426 190t-135 521t135 522t428 191t429 -192t136 -521zM289 690q0 -268 86 -412t297 -144t298 144t87 412t-87 414t-298 147q-383 0 -383 -561z" />
    <glyph glyph-name="Oacute" unicode="&#xd3;" horiz-adv-x="1343" 
d="M748 1843h176l-179 -319h-153zM1237 691q0 -329 -138 -520t-429 -191t-426 190t-135 521t135 522t428 191t429 -192t136 -521zM289 690q0 -268 86 -412t297 -144t298 144t87 412t-87 414t-298 147q-383 0 -383 -561z" />
    <glyph glyph-name="Ocircumflex" unicode="&#xd4;" horiz-adv-x="1343" 
d="M588 1843h166l209 -319h-152l-141 207l-138 -207h-151zM1237 691q0 -329 -138 -520t-429 -191t-426 190t-135 521t135 522t428 191t429 -192t136 -521zM289 690q0 -268 86 -412t297 -144t298 144t87 412t-87 414t-298 147q-383 0 -383 -561z" />
    <glyph glyph-name="Otilde" unicode="&#xd5;" horiz-adv-x="1343" 
d="M822 1642q-54 0 -146 -40t-166 -39q-74 0 -125 51l12 125q49 -49 111 -49t150 39t158 39t140 -50l-12 -129q-68 53 -122 53zM1237 691q0 -329 -138 -520t-429 -191t-426 190t-135 521t135 522t428 191t429 -192t136 -521zM289 690q0 -268 86 -412t297 -144t298 144
t87 412t-87 414t-298 147q-383 0 -383 -561z" />
    <glyph glyph-name="Odieresis" unicode="&#xd6;" horiz-adv-x="1343" 
d="M858 1559q-113 0 -113 110q0 115 113 115q49 0 82 -29t33 -85t-33 -84t-82 -27zM483 1559q-115 0 -114 110q0 57 31 86q32 29 82 29t83 -29t33 -85t-33 -84t-82 -27zM1237 691q0 -329 -138 -520t-429 -191t-426 190t-135 521t135 522t428 191t429 -192t136 -521zM289 690
q0 -268 86 -412t297 -144t298 144t87 412t-87 414t-298 147q-383 0 -383 -561z" />
    <glyph glyph-name="multiply" unicode="&#xd7;" 
d="M248 121l-105 106l320 322l-328 328l111 112l329 -330l326 326l105 -106l-326 -326l330 -328l-113 -112l-328 329z" />
    <glyph glyph-name="Oslash" unicode="&#xd8;" horiz-adv-x="1349" 
d="M672 133q213 1 300 145t87 380t-49 364l-600 -789q90 -100 262 -100zM291 690q0 -211 49 -342l602 795q-92 109 -268 108q-383 0 -383 -561zM1239 678q0 -316 -138 -507t-429 -191q-229 0 -363 120l-78 -100h-155l149 199q-115 179 -115 501t136 513q135 191 428 192
q229 0 368 -129l82 108h162l-160 -208q113 -182 113 -498z" />
    <glyph glyph-name="Ugrave" unicode="&#xd9;" horiz-adv-x="1333" 
d="M414 1843h176l155 -319h-153zM666 -20q-238 0 -374 130t-136 406v868h176v-870q0 -201 83 -291t250 -90t251 91t83 290v870h177v-868q0 -280 -136 -408t-374 -128z" />
    <glyph glyph-name="Uacute" unicode="&#xda;" horiz-adv-x="1333" 
d="M743 1843h177l-179 -319h-153zM666 -20q-238 0 -374 130t-136 406v868h176v-870q0 -201 83 -291t250 -90t251 91t83 290v870h177v-868q0 -280 -136 -408t-374 -128z" />
    <glyph glyph-name="Ucircumflex" unicode="&#xdb;" horiz-adv-x="1333" 
d="M582 1843h166l208 -319h-151l-141 207l-138 -207h-151zM666 -20q-238 0 -374 130t-136 406v868h176v-870q0 -201 83 -291t250 -90t251 91t83 290v870h177v-868q0 -280 -136 -408t-374 -128z" />
    <glyph glyph-name="Udieresis" unicode="&#xdc;" horiz-adv-x="1333" 
d="M852 1559q-113 0 -113 110q0 115 113 115q49 0 82 -29t33 -85t-33 -84t-82 -27zM477 1559q-115 0 -115 110q0 57 32 86t82 29t83 -29t33 -85t-33 -84t-82 -27zM666 -20q-238 0 -374 130t-136 406v868h176v-870q0 -201 83 -291t250 -90t251 91t83 290v870h177v-868
q0 -280 -136 -408t-374 -128z" />
    <glyph glyph-name="Yacute" unicode="&#xdd;" horiz-adv-x="1179" 
d="M664 1843h176l-178 -319h-154zM676 0h-176v553l-473 831h196l367 -667l362 667h199l-475 -831v-553z" />
    <glyph glyph-name="Thorn" unicode="&#xde;" horiz-adv-x="1150" 
d="M344 969v-541h254q295 0 295 270t-295 271h-254zM608 279h-264v-279h-176v1386h174v-268h266q233 0 349 -110t116 -309q0 -200 -117 -310t-348 -110z" />
    <glyph glyph-name="germandbls" unicode="&#xdf;" horiz-adv-x="1122" 
d="M137 0v1008q0 194 89 310q90 116 280 116t282 -96t93 -240q0 -116 -136 -279q-45 -55 -45 -86q0 -61 105 -123l78 -51q178 -117 178 -289q0 -127 -91 -210q-90 -83 -230 -83t-255 60l54 133q90 -53 173 -53t133 43t50 110q0 102 -117 179l-88 59q-84 55 -121 98
q-37 42 -37 98t28 104t62 86t61 90q28 52 28 101q-1 99 -55 151t-164 52t-151 -70q-42 -70 -42 -206v-1012h-162z" />
    <glyph glyph-name="agrave" unicode="&#xe0;" horiz-adv-x="962" 
d="M258 1425h176l156 -319h-154zM246 252q0 -141 158 -141t264 114v224l-154 -19q-268 -37 -268 -178zM831 0h-155v115q-115 -135 -314 -135q-134 0 -208 70t-74 194q0 256 428 301l160 16v92q0 84 -43 125t-145 41t-150 -31q-49 -31 -49 -83v-54h-146q-6 33 -6 68
q0 106 92 171t260 64q350 0 350 -299v-655z" />
    <glyph glyph-name="aacute" unicode="&#xe1;" horiz-adv-x="962" 
d="M569 1425h176l-178 -319h-153zM246 252q0 -141 158 -141t264 114v224l-154 -19q-268 -37 -268 -178zM831 0h-155v115q-115 -135 -314 -135q-134 0 -208 70t-74 194q0 256 428 301l160 16v92q0 84 -43 125t-145 41t-150 -31q-49 -31 -49 -83v-54h-146q-6 33 -6 68
q0 106 92 171t260 64q350 0 350 -299v-655z" />
    <glyph glyph-name="acircumflex" unicode="&#xe2;" horiz-adv-x="960" 
d="M412 1425h166l208 -319h-151l-141 207l-138 -207h-151zM246 252q0 -141 158 -141t264 114v224l-154 -19q-268 -37 -268 -178zM831 0h-155v115q-115 -135 -314 -135q-134 0 -208 70t-74 194q0 256 428 301l160 16v92q0 84 -43 125t-145 41t-150 -31q-49 -31 -49 -83v-54
h-146q-6 33 -6 68q0 106 92 171t260 64q350 0 350 -299v-655z" />
    <glyph glyph-name="atilde" unicode="&#xe3;" horiz-adv-x="962" 
d="M336 1145q-74 0 -125 51l12 125q49 -49 111 -49t151 39q87 39 157 39t140 -50l-12 -129q-68 53 -122 53t-146 -39q-92 -40 -166 -40zM246 252q0 -141 158 -141t264 114v224l-154 -19q-268 -37 -268 -178zM831 0h-155v115q-115 -135 -314 -135q-134 0 -208 70t-74 194
q0 256 428 301l160 16v92q0 84 -43 125t-145 41t-150 -31q-49 -31 -49 -83v-54h-146q-6 33 -6 68q0 106 92 171t260 64q350 0 350 -299v-655z" />
    <glyph glyph-name="adieresis" unicode="&#xe4;" horiz-adv-x="962" 
d="M682 1141q-113 0 -113 110q0 115 113 115q49 0 82 -29t33 -85t-33 -84t-82 -27zM307 1141q-115 0 -114 110q0 57 31 86q32 29 82 29t83 -29t33 -85t-33 -84t-82 -27zM246 252q0 -141 158 -141t264 114v224l-154 -19q-268 -37 -268 -178zM831 0h-155v115
q-115 -135 -314 -135q-134 0 -208 70t-74 194q0 256 428 301l160 16v92q0 84 -43 125t-145 41t-150 -31q-49 -31 -49 -83v-54h-146q-6 33 -6 68q0 106 92 171t260 64q350 0 350 -299v-655z" />
    <glyph glyph-name="aring" unicode="&#xe5;" horiz-adv-x="962" 
d="M391 1275q0 -44 28 -72q28 -27 77 -27q50 0 78 28t28 71q0 44 -29 72q-29 27 -77 27t-77 -28q-28 -28 -28 -71zM283 1275q0 83 57 138q58 55 156 55t156 -55t58 -138t-58 -139t-156 -56t-156 56t-57 139zM246 252q0 -141 158 -141t264 114v224l-154 -19
q-268 -37 -268 -178zM831 0h-155v115q-115 -135 -314 -135q-134 0 -208 70t-74 194q0 256 428 301l160 16v92q0 84 -43 125t-145 41t-150 -31q-49 -31 -49 -83v-54h-146q-6 33 -6 68q0 106 92 171t260 64q350 0 350 -299v-655z" />
    <glyph glyph-name="ae" unicode="&#xe6;" horiz-adv-x="1542" 
d="M1298 582q0 106 -58 171t-161 64q-229 0 -243 -276h458q4 25 4 41zM246 252q0 -141 158 -141t264 114v224l-156 -19q-266 -37 -266 -178zM1096 121q150 0 256 100l82 -110q-50 -55 -142 -93t-196 -38q-242 0 -342 165q-139 -166 -373 -165q-145 0 -224 70t-79 194
q0 256 430 301l160 16v92q0 84 -44 125t-146 41t-150 -31q-49 -31 -49 -83v-54h-146q-4 45 -4 68q0 106 91 171t261 64q227 0 301 -143q100 143 290 143t287 -114q95 -115 95 -279q0 -78 -14 -145h-606q6 -295 262 -295z" />
    <glyph glyph-name="ccedilla" unicode="&#xe7;" horiz-adv-x="917" 
d="M522 807q-262 0 -263 -341t264 -341q140 0 212 127l119 -84q-90 -170 -307 -186l-35 -93q188 0 188 -165q0 -70 -56 -118t-150 -48t-183 45v118q78 -57 168 -57q39 0 62 16t22 44q0 70 -110 69h-74l-8 12l61 181q-170 24 -255 152t-85 337t102 344t312 135
q250 0 348 -190l-119 -82q-74 125 -213 125z" />
    <glyph glyph-name="egrave" unicode="&#xe8;" horiz-adv-x="964" 
d="M270 1425h176l156 -319h-153zM721 582q0 106 -58 171t-161 64q-226 0 -244 -276h459q4 25 4 41zM520 121q152 0 254 100l82 -110q-49 -53 -141 -93t-195 -38q-221 0 -324 131q-104 131 -104 351t104 356t298 136q192 0 287 -114t96 -279q0 -68 -13 -145h-608
q6 -295 264 -295z" />
    <glyph glyph-name="eacute" unicode="&#xe9;" horiz-adv-x="964" 
d="M571 1425h177l-179 -319h-153zM721 582q0 106 -58 171t-161 64q-226 0 -244 -276h459q4 25 4 41zM520 121q152 0 254 100l82 -110q-49 -53 -141 -93t-195 -38q-221 0 -324 131q-104 131 -104 351t104 356t298 136q192 0 287 -114t96 -279q0 -68 -13 -145h-608
q6 -295 264 -295z" />
    <glyph glyph-name="ecircumflex" unicode="&#xea;" horiz-adv-x="964" 
d="M420 1425h166l209 -319h-152l-141 207l-137 -207h-152zM721 582q0 106 -58 171t-161 64q-226 0 -244 -276h459q4 25 4 41zM520 121q152 0 254 100l82 -110q-49 -53 -141 -93t-195 -38q-221 0 -324 131q-104 131 -104 351t104 356t298 136q192 0 287 -114t96 -279
q0 -68 -13 -145h-608q6 -295 264 -295z" />
    <glyph glyph-name="edieresis" unicode="&#xeb;" horiz-adv-x="964" 
d="M694 1141q-112 1 -112 113t112 112q49 0 82 -29t33 -85t-33 -84t-82 -27zM319 1141q-115 0 -114 110q0 57 32 86q31 29 81 29t83 -29t33 -85t-33 -84t-82 -27zM721 582q0 106 -58 171t-161 64q-226 0 -244 -276h459q4 25 4 41zM520 121q152 0 254 100l82 -110
q-49 -53 -141 -93t-195 -38q-221 0 -324 131q-104 131 -104 351t104 356t298 136q192 0 287 -114t96 -279q0 -68 -13 -145h-608q6 -295 264 -295z" />
    <glyph glyph-name="igrave" unicode="&#xec;" horiz-adv-x="442" 
d="M-23 1425h177l155 -319h-153zM139 0v934h164v-934h-164z" />
    <glyph glyph-name="iacute" unicode="&#xed;" horiz-adv-x="442" 
d="M289 1425h176l-178 -319h-154zM139 0v934h164v-934h-164z" />
    <glyph glyph-name="icircumflex" unicode="&#xee;" horiz-adv-x="442" 
d="M139 1425h166l209 -319h-152l-141 207l-137 -207h-152zM139 0v934h164v-934h-164z" />
    <glyph glyph-name="idieresis" unicode="&#xef;" horiz-adv-x="442" 
d="M408 1141q-113 0 -113 110q0 115 113 115q50 0 82 -29t32 -85t-32 -84t-82 -27zM33 1141q-115 0 -115 110q0 57 32 86t82 29t83 -29t33 -85t-33 -84q-33 -27 -82 -27zM139 0v934h164v-934h-164z" />
    <glyph glyph-name="eth" unicode="&#xf0;" horiz-adv-x="1075" 
d="M520 125q262 0 279 410q-94 227 -287 227q-129 0 -194 -86q-64 -86 -64 -230t64 -232q64 -89 202 -89zM92 448q0 212 104 340t291 127q225 0 322 -198q-2 197 -98 375l-166 -76l-47 110l151 68q-85 123 -200 219h208q80 -70 138 -153l125 57l47 -107l-113 -53
q117 -229 117 -510t-101 -474t-350 -193q-212 0 -320 128t-108 340z" />
    <glyph glyph-name="ntilde" unicode="&#xf1;" horiz-adv-x="1060" 
d="M379 1145q-74 0 -125 51l12 125q48 -49 110 -49t150 39t158 39t141 -50l-12 -129q-68 53 -122 53t-146 -39q-92 -40 -166 -40zM137 0v934h160v-113q43 59 125 97t182 36q170 0 249 -90t79 -268v-596h-164v582q0 113 -48 167t-165 54q-164 0 -254 -109v-694h-164z" />
    <glyph glyph-name="ograve" unicode="&#xf2;" horiz-adv-x="1024" 
d="M279 1425h176l155 -319h-153zM766 467q0 338 -254 338t-254 -338t254 -338t254 338zM513 954q212 0 316 -132q105 -132 105 -355t-104 -355t-316 -132q-211 0 -316 133t-106 354q0 221 104 354t317 133z" />
    <glyph glyph-name="oacute" unicode="&#xf3;" horiz-adv-x="1024" 
d="M580 1425h176l-178 -319h-154zM766 467q0 338 -254 338t-254 -338t254 -338t254 338zM513 954q212 0 316 -132q105 -132 105 -355t-104 -355t-316 -132q-211 0 -316 133t-106 354q0 221 104 354t317 133z" />
    <glyph glyph-name="ocircumflex" unicode="&#xf4;" horiz-adv-x="1024" 
d="M430 1425h166l209 -319h-152l-141 207l-137 -207h-152zM766 467q0 338 -254 338t-254 -338t254 -338t254 338zM513 954q212 0 316 -132q105 -132 105 -355t-104 -355t-316 -132q-211 0 -316 133t-106 354q0 221 104 354t317 133z" />
    <glyph glyph-name="otilde" unicode="&#xf5;" horiz-adv-x="1024" 
d="M356 1145q-74 0 -125 51l13 125q50 -49 112 -49t150 39t158 39t139 -50l-12 -129q-69 53 -123 53t-146 -39q-92 -40 -166 -40zM766 467q0 338 -254 338t-254 -338t254 -338t254 338zM513 954q212 0 316 -132q105 -132 105 -355t-104 -355t-316 -132q-211 0 -316 133
t-106 354q0 221 104 354t317 133z" />
    <glyph glyph-name="odieresis" unicode="&#xf6;" horiz-adv-x="1024" 
d="M702 1141q-112 1 -112 113t112 112q49 0 82 -29t33 -85t-33 -84t-82 -27zM328 1141q-115 0 -115 110q0 57 32 86t82 29t83 -29q32 -29 32 -85t-32 -84q-33 -27 -82 -27zM766 467q0 338 -254 338t-254 -338t254 -338t254 338zM513 954q212 0 316 -132q105 -132 105 -355
t-104 -355t-316 -132q-211 0 -316 133t-106 354q0 221 104 354t317 133z" />
    <glyph glyph-name="divide" unicode="&#xf7;" 
d="M578 799q-53 0 -90 35q-36 35 -35 88q0 53 35 87q36 33 90 33t89 -34t35 -86q0 -53 -36 -88t-88 -35zM578 61q-53 0 -90 34q-36 34 -35 85q0 51 35 86q36 35 90 35t89 -35t35 -86t-36 -85t-88 -34zM98 481v144h949v-144h-949z" />
    <glyph glyph-name="oslash" unicode="&#xf8;" horiz-adv-x="1024" 
d="M510 129q256 0 256 338q0 119 -33 197l-375 -490q62 -45 152 -45zM258 469q0 -123 33 -203l375 492q-59 47 -156 47q-252 0 -252 -336zM514 954q147 0 248 -71l39 51h141l-100 -129q92 -125 92 -343t-104 -350t-322 -132q-150 0 -244 69l-39 -49h-137l96 127
q-92 125 -92 343t104 351t318 133z" />
    <glyph glyph-name="ugrave" unicode="&#xf9;" horiz-adv-x="1060" 
d="M924 934v-934h-160v113q-43 -59 -125 -97t-182 -36q-170 0 -249 90t-79 268v596h164v-582q0 -113 48 -167t165 -54q164 0 254 109v694h164zM289 1425h176l156 -319h-154z" />
    <glyph glyph-name="uacute" unicode="&#xfa;" horiz-adv-x="1060" 
d="M924 934v-934h-160v113q-43 -59 -125 -97t-182 -36q-170 0 -249 90t-79 268v596h164v-582q0 -113 48 -167t165 -54q164 0 254 109v694h164zM602 1425h176l-178 -319h-154z" />
    <glyph glyph-name="ucircumflex" unicode="&#xfb;" horiz-adv-x="1060" 
d="M924 934v-934h-160v113q-43 -59 -125 -97t-182 -36q-170 0 -249 90t-79 268v596h164v-582q0 -113 48 -167t165 -54q164 0 254 109v694h164zM440 1425h166l209 -319h-151l-142 207l-137 -207h-152z" />
    <glyph glyph-name="udieresis" unicode="&#xfc;" horiz-adv-x="1060" 
d="M924 934v-934h-160v113q-43 -59 -125 -97t-182 -36q-170 0 -249 90t-79 268v596h164v-582q0 -113 48 -167t165 -54q164 0 254 109v694h164zM717 1141q-113 0 -113 110q0 115 113 115q49 0 82 -29t33 -85t-33 -84q-33 -27 -82 -27zM342 1141q-115 0 -115 110q0 57 32 86
t82 29t83 -29t33 -85t-33 -84t-82 -27z" />
    <glyph glyph-name="yacute" unicode="&#xfd;" horiz-adv-x="983" 
d="M584 1425h176l-178 -319h-154zM215 934l293 -682l262 682h180l-567 -1376h-172l213 501l-393 875h184z" />
    <glyph glyph-name="thorn" unicode="&#xfe;" horiz-adv-x="1060" 
d="M801 463q0 340 -264 340q-162 0 -234 -115v-446q77 -111 227 -111t210 86t61 246zM303 -442h-164v1826h164v-536q93 106 279 106t285 -130t99 -360t-98 -358q-100 -128 -288 -126q-188 0 -277 106v-528z" />
    <glyph glyph-name="ydieresis" unicode="&#xff;" horiz-adv-x="983" 
d="M690 1141q-112 1 -112 113t112 112q49 0 82 -29t33 -85t-33 -84t-82 -27zM315 1141q-115 0 -114 110q0 57 31 86q32 29 82 29t83 -29t33 -85t-33 -84t-82 -27zM215 934l293 -682l262 682h180l-567 -1376h-172l213 501l-393 875h184z" />
    <glyph glyph-name="Amacron" unicode="&#x100;" horiz-adv-x="1249" 
d="M338 1731h575v-136h-575v136zM627 1204l-242 -692h479zM1036 0l-125 365h-573l-125 -365h-188l495 1384h209l500 -1384h-193z" />
    <glyph glyph-name="amacron" unicode="&#x101;" horiz-adv-x="962" 
d="M205 1313h575v-135h-575v135zM246 252q0 -141 158 -141t264 114v224l-154 -19q-268 -37 -268 -178zM831 0h-155v115q-115 -135 -314 -135q-134 0 -208 70t-74 194q0 256 428 301l160 16v92q0 84 -43 125t-145 41t-150 -31q-49 -31 -49 -83v-54h-146q-6 33 -6 68
q0 106 92 171t260 64q350 0 350 -299v-655z" />
    <glyph glyph-name="Abreve" unicode="&#x102;" horiz-adv-x="1249" 
d="M909 1817q-1 -125 -77 -204t-205 -79t-205 79t-76 204h115q4 -70 48 -114t117 -44t117 44t48 114h118zM627 1204l-242 -692h479zM1036 0l-125 365h-573l-125 -365h-188l495 1384h209l500 -1384h-193z" />
    <glyph glyph-name="abreve" unicode="&#x103;" horiz-adv-x="962" 
d="M776 1399q0 -125 -77 -204t-205 -79t-205 79q-76 79 -76 204h115q4 -70 48 -114t117 -44t117 44t47 114h119zM246 252q0 -141 158 -141t264 114v224l-154 -19q-268 -37 -268 -178zM831 0h-155v115q-115 -135 -314 -135q-134 0 -208 70t-74 194q0 256 428 301l160 16v92
q0 84 -43 125t-145 41t-150 -31q-49 -31 -49 -83v-54h-146q-6 33 -6 68q0 106 92 171t260 64q350 0 350 -299v-655z" />
    <glyph glyph-name="Aogonek" unicode="&#x104;" horiz-adv-x="1249" 
d="M627 1204l-242 -692h479zM1053 -442q-94 0 -153 50q-58 50 -58 134q0 109 110 197l82 65l-123 361h-573l-125 -365h-188l495 1384h209l500 -1384l-154 -119q-68 -55 -67 -110q0 -33 24 -57t75 -24q50 0 122 54v-141q-82 -45 -176 -45z" />
    <glyph glyph-name="aogonek" unicode="&#x105;" horiz-adv-x="960" 
d="M246 252q0 -141 158 -141t264 114v224l-154 -19q-268 -37 -268 -178zM831 0h-2l-143 -109q-59 -45 -59 -106q0 -65 87 -65q47 0 105 34l15 -116q-72 -33 -112 -35q-253 -13 -253 157q0 106 104 181l103 73v101q-115 -135 -314 -135q-134 0 -208 70t-74 194q0 256 428 301
l160 16v92q0 84 -43 125t-145 41t-150 -31q-49 -31 -49 -83v-54h-146q-6 33 -6 68q0 106 92 171t260 64q350 0 350 -299v-655z" />
    <glyph glyph-name="Cacute" unicode="&#x106;" horiz-adv-x="1198" 
d="M745 1843h177l-179 -319h-153zM682 1251q-205 1 -299 -149t-94 -410t95 -410t298 -149q100 0 183 47t124 129l137 -88q-59 -111 -176 -177t-272 -64q-285 0 -427 186t-142 525t142 527t427 187q156 0 272 -66t176 -176l-137 -88q-41 82 -124 129t-183 47z" />
    <glyph glyph-name="cacute" unicode="&#x107;" horiz-adv-x="915" 
d="M584 1425h176l-178 -319h-154zM522 807q-262 0 -263 -341t264 -341q140 0 212 127l119 -84q-100 -188 -348 -188q-210 0 -312 133t-102 352t102 354t312 135q250 0 348 -190l-119 -82q-74 125 -213 125z" />
    <glyph glyph-name="Ccircumflex" unicode="&#x108;" horiz-adv-x="1198" 
d="M590 1843h166l209 -319h-152l-141 207l-137 -207h-152zM682 1251q-205 1 -299 -149t-94 -410t95 -410t298 -149q100 0 183 47t124 129l137 -88q-59 -111 -176 -177t-272 -64q-285 0 -427 186t-142 525t142 527t427 187q156 0 272 -66t176 -176l-137 -88q-41 82 -124 129
t-183 47z" />
    <glyph glyph-name="ccircumflex" unicode="&#x109;" horiz-adv-x="915" 
d="M432 1425h166l209 -319h-152l-141 207l-137 -207h-152zM522 807q-262 0 -263 -341t264 -341q140 0 212 127l119 -84q-100 -188 -348 -188q-210 0 -312 133t-102 352t102 354t312 135q250 0 348 -190l-119 -82q-74 125 -213 125z" />
    <glyph glyph-name="Cdotaccent" unicode="&#x10a;" horiz-adv-x="1198" 
d="M674 1559q-115 0 -115 110q0 57 32 86t81 29t83 -30q33 -30 33 -85t-33 -83q-34 -27 -81 -27zM682 1251q-205 1 -299 -149t-94 -410t95 -410t298 -149q100 0 183 47t124 129l137 -88q-59 -111 -176 -177t-272 -64q-285 0 -427 186t-142 525t142 527t427 187
q156 0 272 -66t176 -176l-137 -88q-41 82 -124 129t-183 47z" />
    <glyph glyph-name="cdotaccent" unicode="&#x10b;" horiz-adv-x="915" 
d="M520 1141q-115 0 -114 110q0 57 31 86q32 29 81 29t83 -30t34 -85t-34 -83t-81 -27zM522 807q-262 0 -263 -341t264 -341q140 0 212 127l119 -84q-100 -188 -348 -188q-210 0 -312 133t-102 352t102 354t312 135q250 0 348 -190l-119 -82q-74 125 -213 125z" />
    <glyph glyph-name="Ccaron" unicode="&#x10c;" horiz-adv-x="1198" 
d="M754 1524h-166l-207 319h151l140 -207l139 207h152zM682 1251q-205 1 -299 -149t-94 -410t95 -410t298 -149q100 0 183 47t124 129l137 -88q-59 -111 -176 -177t-272 -64q-285 0 -427 186t-142 525t142 527t427 187q156 0 272 -66t176 -176l-137 -88q-41 82 -124 129
t-183 47z" />
    <glyph glyph-name="ccaron" unicode="&#x10d;" horiz-adv-x="915" 
d="M598 1106h-166l-207 319h152l139 -206l139 206h152zM522 807q-262 0 -263 -341t264 -341q140 0 212 127l119 -84q-100 -188 -348 -188q-210 0 -312 133t-102 352t102 354t312 135q250 0 348 -190l-119 -82q-74 125 -213 125z" />
    <glyph glyph-name="Dcaron" unicode="&#x10e;" horiz-adv-x="1329" 
d="M692 1524h-166l-207 319h152l139 -207l140 207h151zM344 150h207q279 0 383 120t104 420q0 301 -105 423t-382 122h-207v-1085zM168 0v1384h391q356 0 509 -162t153 -529q0 -369 -154 -531t-508 -162h-391z" />
    <glyph glyph-name="dcaron" unicode="&#x10f;" horiz-adv-x="1058" 
d="M1253 1413l-110 -303h-127l51 303h186zM522 803q-262 0 -262 -336t262 -336q162 0 234 113v446q-84 113 -234 113zM756 1413h162v-1413h-158v88q-94 -108 -282 -108t-287 129t-99 359t99 358t286 128t279 -108v567z" />
    <glyph glyph-name="Dcroat" unicode="&#x110;" horiz-adv-x="1343" 
d="M358 150h207q279 0 383 120t104 420q0 301 -104 423q-106 122 -383 122h-207v-463h236v-129h-236v-493zM45 772h137v612h391q356 0 509 -162t153 -529q0 -369 -154 -531t-508 -162h-391v643h-137v129z" />
    <glyph glyph-name="dcroat" unicode="&#x111;" horiz-adv-x="1058" 
d="M522 803q-262 0 -262 -336t262 -336q162 0 234 113v446q-84 113 -234 113zM543 1214h213v199h162v-199h139v-129h-139v-1085h-158v88q-94 -108 -282 -108t-287 129t-99 359t99 358t285 128t280 -108v239h-213v129z" />
    <glyph glyph-name="Emacron" unicode="&#x112;" horiz-adv-x="1103" 
d="M297 1731h575v-136h-575v136zM344 150h664v-150h-840v1384h831v-149h-655v-453h582v-149h-582v-483z" />
    <glyph glyph-name="emacron" unicode="&#x113;" horiz-adv-x="964" 
d="M221 1313h576v-135h-576v135zM721 582q0 106 -58 171t-161 64q-226 0 -244 -276h459q4 25 4 41zM520 121q152 0 254 100l82 -110q-49 -53 -141 -93t-195 -38q-221 0 -324 131q-104 131 -104 351t104 356t298 136q192 0 287 -114t96 -279q0 -68 -13 -145h-608
q6 -295 264 -295z" />
    <glyph glyph-name="Ebreve" unicode="&#x114;" horiz-adv-x="1103" 
d="M868 1817q0 -125 -76 -204t-206 -79q-129 0 -205 79t-76 204h115q4 -70 48 -114t117 -44t117 44t48 114h118zM344 150h664v-150h-840v1384h831v-149h-655v-453h582v-149h-582v-483z" />
    <glyph glyph-name="ebreve" unicode="&#x115;" horiz-adv-x="964" 
d="M784 1399q0 -125 -76 -204t-206 -79q-129 0 -205 79t-76 204h115q4 -70 48 -114t117 -44t117 44t48 114h118zM721 582q0 106 -58 171t-161 64q-226 0 -244 -276h459q4 25 4 41zM520 121q152 0 254 100l82 -110q-49 -53 -141 -93t-195 -38q-221 0 -324 131
q-104 131 -104 351t104 356t298 136q192 0 287 -114t96 -279q0 -68 -13 -145h-608q6 -295 264 -295z" />
    <glyph glyph-name="Edotaccent" unicode="&#x116;" horiz-adv-x="1103" 
d="M586 1559q-115 0 -115 110q0 57 32 86t81 29t83 -30q33 -30 33 -85t-33 -83q-34 -27 -81 -27zM344 150h664v-150h-840v1384h831v-149h-655v-453h582v-149h-582v-483z" />
    <glyph glyph-name="edotaccent" unicode="&#x117;" horiz-adv-x="964" 
d="M516 1141q-115 0 -115 110q0 57 32 86t81 29t83 -30t34 -85t-34 -83t-81 -27zM721 582q0 106 -58 171t-161 64q-226 0 -244 -276h459q4 25 4 41zM520 121q152 0 254 100l82 -110q-49 -53 -141 -93t-195 -38q-221 0 -324 131q-104 131 -104 351t104 356t298 136
q192 0 287 -114t96 -279q0 -68 -13 -145h-608q6 -295 264 -295z" />
    <glyph glyph-name="Eogonek" unicode="&#x118;" horiz-adv-x="1101" 
d="M344 150h664v-150h-2l-154 -119q-68 -55 -68 -110q0 -33 24 -57t74 -24t124 54v-141q-82 -45 -176 -45t-153 50t-59 146t111 185l76 61h-637v1384h831v-149h-655v-453h582v-149h-582v-483z" />
    <glyph glyph-name="eogonek" unicode="&#x119;" horiz-adv-x="964" 
d="M721 582q0 106 -58 171t-161 64q-226 0 -244 -276h459q4 25 4 41zM520 121q152 0 254 100l82 -110l-176 -193q-82 -84 -82 -147q0 -33 24 -57t74 -24t121 54v-141q-82 -45 -176 -45t-153 50q-58 50 -58 141t129 218l14 17q-37 -4 -53 -4q-221 0 -324 131
q-104 131 -104 351t104 356t298 136q192 0 287 -114t96 -279q0 -68 -13 -145h-608q6 -295 264 -295z" />
    <glyph glyph-name="Ecaron" unicode="&#x11a;" horiz-adv-x="1103" 
d="M668 1524h-166l-207 319h151l140 -207l139 207h152zM344 150h664v-150h-840v1384h831v-149h-655v-453h582v-149h-582v-483z" />
    <glyph glyph-name="ecaron" unicode="&#x11b;" horiz-adv-x="964" 
d="M590 1106h-166l-207 319h152l139 -206l139 206h152zM721 582q0 106 -58 171t-161 64q-226 0 -244 -276h459q4 25 4 41zM520 121q152 0 254 100l82 -110q-49 -53 -141 -93t-195 -38q-221 0 -324 131q-104 131 -104 351t104 356t298 136q192 0 287 -114t96 -279
q0 -68 -13 -145h-608q6 -295 264 -295z" />
    <glyph glyph-name="Gcircumflex" unicode="&#x11c;" horiz-adv-x="1310" 
d="M621 1843h165l209 -319h-151l-142 207l-137 -207h-151zM700 588v151h514q8 -61 9 -100q0 -297 -128 -478t-412 -181t-429 181t-145 531q0 713 604 713q309 0 438 -234l-133 -90q-106 170 -321 170t-311 -145t-97 -420q0 -275 94 -415q95 -140 293 -140t283 124t85 333
h-344z" />
    <glyph glyph-name="gcircumflex" unicode="&#x11d;" horiz-adv-x="1048" 
d="M453 1425h165l209 -319h-151l-141 207l-138 -207h-151zM260 467q0 -336 260 -336q147 0 228 113v446q-80 113 -224 113t-204 -88t-60 -248zM754 934h157v-1006q0 -150 -106 -248q-107 -98 -283 -98t-272 82t-96 201h147q0 -57 60 -103q61 -46 163 -45q102 -1 162 57
t62 148v174q-96 -117 -256 -116q-201 0 -301 129q-99 129 -99 358t100 358t283 129q182 0 279 -110v90z" />
    <glyph glyph-name="Gbreve" unicode="&#x11e;" horiz-adv-x="1310" 
d="M985 1817q0 -125 -77 -204t-206 -79q-128 0 -204 79t-76 204h115q4 -70 48 -114q45 -44 117 -44t116 44t48 114h119zM700 588v151h514q8 -61 9 -100q0 -297 -128 -478t-412 -181t-429 181t-145 531q0 713 604 713q309 0 438 -234l-133 -90q-106 170 -321 170t-311 -145
t-97 -420q0 -275 94 -415q95 -140 293 -140t283 124t85 333h-344z" />
    <glyph glyph-name="gbreve" unicode="&#x11f;" horiz-adv-x="1048" 
d="M811 1399q0 -125 -77 -204t-206 -79q-128 0 -204 79t-76 204h114q4 -70 48 -114t118 -44q72 0 116 44t48 114h119zM260 467q0 -336 260 -336q147 0 228 113v446q-80 113 -224 113t-204 -88t-60 -248zM754 934h157v-1006q0 -150 -106 -248q-107 -98 -283 -98t-272 82
t-96 201h147q0 -57 60 -103q61 -46 163 -45q102 -1 162 57t62 148v174q-96 -117 -256 -116q-201 0 -301 129q-99 129 -99 358t100 358t283 129q182 0 279 -110v90z" />
    <glyph glyph-name="Gdotaccent" unicode="&#x120;" horiz-adv-x="1310" 
d="M702 1559q-115 0 -114 110q0 57 32 86t80 29t83 -30q34 -30 34 -85t-34 -83t-81 -27zM700 588v151h514q8 -61 9 -100q0 -297 -128 -478t-412 -181t-429 181t-145 531q0 713 604 713q309 0 438 -234l-133 -90q-106 170 -321 170t-311 -145t-97 -420q0 -275 94 -415
q95 -140 293 -140t283 124t85 333h-344z" />
    <glyph glyph-name="gdotaccent" unicode="&#x121;" horiz-adv-x="1048" 
d="M535 1141q-115 0 -115 110q0 57 32 86t81 29t83 -30t33 -85q1 -55 -33 -83t-81 -27zM260 467q0 -336 260 -336q147 0 228 113v446q-80 113 -224 113t-204 -88t-60 -248zM754 934h157v-1006q0 -150 -106 -248q-107 -98 -283 -98t-272 82t-96 201h147q0 -57 60 -103
q61 -46 163 -45q102 -1 162 57t62 148v174q-96 -117 -256 -116q-201 0 -301 129q-99 129 -99 358t100 358t283 129q182 0 279 -110v90z" />
    <glyph glyph-name="Gcommaaccent" unicode="&#x122;" horiz-adv-x="1310" 
d="M805 -139l-111 -303h-127l51 303h187zM700 588v151h514q8 -61 9 -100q0 -297 -128 -478t-412 -181t-429 181t-145 531q0 713 604 713q309 0 438 -234l-133 -90q-106 170 -321 170t-311 -145t-97 -420q0 -275 94 -415q95 -140 293 -140t283 124t85 333h-344z" />
    <glyph glyph-name="gcommaaccent" unicode="&#x123;" horiz-adv-x="1048" 
d="M442 1130l111 361h129l-51 -361h-189zM260 467q0 -336 260 -336q147 0 228 113v446q-80 113 -224 113t-204 -88t-60 -248zM754 934h157v-1006q0 -150 -106 -248q-107 -98 -283 -98t-272 82t-96 201h147q0 -57 60 -103q61 -46 163 -45q102 -1 162 57t62 148v174
q-96 -117 -256 -116q-201 0 -301 129q-99 129 -99 358t100 358t283 129q182 0 279 -110v90z" />
    <glyph glyph-name="Hcircumflex" unicode="&#x124;" horiz-adv-x="1382" 
d="M608 1843h166l209 -319h-152l-141 207l-137 -207h-152zM1038 801v583h176v-1384h-176v651h-694v-651h-176v1384h176v-583h694z" />
    <glyph glyph-name="hcircumflex" unicode="&#x125;" horiz-adv-x="1062" 
d="M467 1821h166l209 -320h-152l-141 207l-137 -207h-152zM770 582q0 221 -196 221q-181 0 -271 -109v-694h-164v1413h164v-582q43 53 124 89t177 34q170 0 249 -90t79 -268v-596h-162v582z" />
    <glyph glyph-name="Hbar" unicode="&#x126;" horiz-adv-x="1384" 
d="M1038 801v237h-694v-237h694zM70 1163h98v221h176v-221h694v221h176v-221h109v-125h-109v-1038h-176v651h-694v-651h-176v1038h-98v125z" />
    <glyph glyph-name="hbar" unicode="&#x127;" horiz-adv-x="1062" 
d="M770 582q0 221 -196 221q-181 0 -271 -109v-694h-164v1085h-125v129h125v199h164v-199h225v-129h-225v-254q43 53 124 89t177 34q170 0 249 -90t79 -268v-596h-162v582z" />
    <glyph glyph-name="Itilde" unicode="&#x128;" horiz-adv-x="509" 
d="M406 1642q-54 0 -146 -40t-166 -39q-74 0 -125 51l13 125q49 -49 111 -49q63 0 151 39t158 39t139 -50l-13 -129q-68 53 -122 53zM168 0v1384h176v-1384h-176z" />
    <glyph glyph-name="itilde" unicode="&#x129;" horiz-adv-x="442" 
d="M58 1145q-74 0 -126 51l13 125q49 -49 111 -49t151 39q87 39 157 39t140 -50l-12 -129q-68 53 -122 53t-147 -39q-91 -40 -165 -40zM139 0v934h164v-934h-164z" />
    <glyph glyph-name="Imacron" unicode="&#x12a;" horiz-adv-x="509" 
d="M-35 1731h576v-136h-576v136zM168 0v1384h176v-1384h-176z" />
    <glyph glyph-name="imacron" unicode="&#x12b;" horiz-adv-x="442" 
d="M-70 1313h576v-135h-576v135zM139 0v934h164v-934h-164z" />
    <glyph glyph-name="Ibreve" unicode="&#x12c;" horiz-adv-x="509" 
d="M537 1817q0 -125 -77 -204t-206 -79t-205 79t-76 204h115q4 -70 48 -114t117 -44t117 44t48 114h119zM168 0v1384h176v-1384h-176z" />
    <glyph glyph-name="ibreve" unicode="&#x12d;" horiz-adv-x="442" 
d="M502 1399q0 -125 -77 -204t-206 -79t-205 79t-75 204h114q4 -70 48 -114t117 -44t117 44t48 114h119zM139 0v934h164v-934h-164z" />
    <glyph glyph-name="Iogonek" unicode="&#x12e;" horiz-adv-x="509" 
d="M168 -442q-94 0 -153 50q-58 50 -58 134q0 109 111 197l100 79v1366h176v-1384l-154 -119q-68 -55 -67 -110q1 -33 25 -57t74 -24t122 54v-141q-82 -45 -176 -45z" />
    <glyph glyph-name="iogonek" unicode="&#x12f;" horiz-adv-x="442" 
d="M219 1161q-115 0 -115 111q0 57 32 86q32 28 82 28t83 -28t33 -85q0 -56 -33 -84t-82 -28zM84 -229q0 -33 24 -57t74 -24t123 54v-141q-82 -45 -176 -45t-153 50q-58 50 -58 134q0 109 111 197l110 88v907h164v-934h2l-153 -119q-68 -55 -68 -110z" />
    <glyph glyph-name="Idotaccent" unicode="&#x130;" horiz-adv-x="509" 
d="M254 1559q-115 0 -115 110q0 57 32 86t81 29t83 -30t34 -85t-34 -83t-81 -27zM168 0v1384h176v-1384h-176z" />
    <glyph glyph-name="dotlessi" unicode="&#x131;" horiz-adv-x="442" 
d="M139 0v934h164v-934h-164z" />
    <glyph glyph-name="IJ" unicode="&#x132;" horiz-adv-x="1513" 
d="M924 133q130 0 196 82t66 270v899h170v-903q0 -256 -114 -379t-318 -122q-257 -1 -363 210l131 84q76 -141 232 -141zM168 0v1384h176v-1384h-176z" />
    <glyph glyph-name="ij" unicode="&#x133;" horiz-adv-x="882" 
d="M659 1161q-117 0 -116 111q0 57 32 86q33 28 82 28t82 -30t33 -84q0 -55 -33 -83t-80 -28zM578 -55v989h163v-965q0 -173 -59 -275t-188 -157l-86 115q96 44 133 110t37 183zM217 1161q-115 0 -115 111q0 57 32 86q32 28 82 28t83 -28t33 -85q0 -56 -33 -84t-82 -28z
M137 0v934h164v-934h-164z" />
    <glyph glyph-name="Jcircumflex" unicode="&#x134;" horiz-adv-x="997" 
d="M676 1843h166l209 -319h-152l-141 207l-137 -207h-152zM408 133q130 0 196 82t66 270v899h170v-903q0 -256 -114 -379t-318 -122q-257 -1 -363 210l131 84q76 -141 232 -141z" />
    <glyph glyph-name="jcircumflex" unicode="&#x135;" horiz-adv-x="444" 
d="M139 -55v989h164v-965q1 -173 -59 -275t-189 -157l-88 115q98 44 135 110t37 183zM139 1425h166l209 -319h-152l-141 207l-137 -207h-152z" />
    <glyph glyph-name="Kcommaaccent" unicode="&#x136;" horiz-adv-x="1239" 
d="M684 -139l-111 -303h-127l52 303h186zM344 0h-176v1384h176v-688l641 688h219l-526 -573l524 -811h-211l-438 686l-209 -217v-469z" />
    <glyph glyph-name="kcommaaccent" unicode="&#x137;" horiz-adv-x="964" 
d="M604 -139l-110 -303h-127l51 303h186zM303 0h-164v1413h164v-899l432 420h209l-377 -361l367 -573h-189l-292 461l-150 -144v-317z" />
    <glyph glyph-name="kgreenlandic" unicode="&#x138;" horiz-adv-x="966" 
d="M301 0h-164v934h164v-420l434 420h207l-375 -361l365 -573h-187l-294 461l-150 -144v-317z" />
    <glyph glyph-name="Lacute" unicode="&#x139;" horiz-adv-x="974" 
d="M336 1843h176l-178 -319h-154zM344 150h590v-150h-766v1384h176v-1234z" />
    <glyph glyph-name="lacute" unicode="&#x13a;" horiz-adv-x="477" 
d="M293 1821h176l-178 -320h-154zM131 1413h164v-1149q0 -61 20 -89t74 -28h51v-151h-96q-117 0 -165 63t-48 187v1167z" />
    <glyph glyph-name="Lcommaaccent" unicode="&#x13b;" horiz-adv-x="974" 
d="M645 -139l-110 -303h-127l51 303h186zM344 150h590v-150h-766v1384h176v-1234z" />
    <glyph glyph-name="lcommaaccent" unicode="&#x13c;" horiz-adv-x="477" 
d="M389 -139l-110 -303h-127l51 303h186zM131 1413h164v-1149q0 -61 20 -89t74 -28h51v-151h-96q-117 0 -165 63t-48 187v1167z" />
    <glyph glyph-name="Lcaron" unicode="&#x13d;" horiz-adv-x="1073" 
d="M1036 1384l-110 -303h-127l51 303h186zM344 150h590v-150h-766v1384h176v-1234z" />
    <glyph glyph-name="lcaron" unicode="&#x13e;" horiz-adv-x="479" 
d="M651 1413l-110 -303h-127l51 303h186zM131 1413h164v-1149q0 -61 20 -89t74 -28h51v-151h-96q-117 0 -165 63t-48 187v1167z" />
    <glyph glyph-name="Ldot" unicode="&#x13f;" horiz-adv-x="1040" 
d="M785 891q55 0 93 -36t38 -90t-38 -91q-37 -37 -93 -37t-93 37t-37 91t37 90t93 36zM344 150h590v-150h-766v1384h176v-1234z" />
    <glyph glyph-name="ldot" unicode="&#x140;" horiz-adv-x="749" 
d="M719 751q0 -54 -37 -91t-93 -37q-56 1 -93 37t-37 90t37 91q37 36 93 36t93 -36t37 -90zM131 1413h164v-1149q0 -61 20 -89t74 -28h51v-151h-96q-117 0 -165 63t-48 187v1167z" />
    <glyph glyph-name="Lslash" unicode="&#x141;" horiz-adv-x="1017" 
d="M387 150h590v-150h-766v530l-166 -69v135l166 70v718h176v-643l184 80v-135l-184 -80v-456z" />
    <glyph glyph-name="lslash" unicode="&#x142;" horiz-adv-x="534" 
d="M340 264q0 -61 20 -89t74 -28h51v-151h-96q-117 0 -165 63t-48 187v385l-127 -56v138l127 55v645h164v-573l147 65v-137l-147 -66v-438z" />
    <glyph glyph-name="Nacute" unicode="&#x143;" horiz-adv-x="1392" 
d="M770 1843h176l-178 -319h-154zM1225 1384v-1384h-185l-696 1106v-1106h-178l2 1384h188l693 -1099l2 1099h174z" />
    <glyph glyph-name="nacute" unicode="&#x144;" horiz-adv-x="1060" 
d="M629 1425h176l-178 -319h-154zM137 0v934h160v-113q43 59 125 97t182 36q170 0 249 -90t79 -268v-596h-164v582q0 113 -48 167t-165 54q-164 0 -254 -109v-694h-164z" />
    <glyph glyph-name="Ncommaaccent" unicode="&#x145;" horiz-adv-x="1392" 
d="M803 -139l-111 -303h-127l51 303h187zM1225 1384v-1384h-185l-696 1106v-1106h-178l2 1384h188l693 -1099l2 1099h174z" />
    <glyph glyph-name="ncommaaccent" unicode="&#x146;" horiz-adv-x="1060" 
d="M629 -139l-111 -303h-127l51 303h187zM137 0v934h160v-113q43 59 125 97t182 36q170 0 249 -90t79 -268v-596h-164v582q0 113 -48 167t-165 54q-164 0 -254 -109v-694h-164z" />
    <glyph glyph-name="Ncaron" unicode="&#x147;" horiz-adv-x="1392" 
d="M778 1524h-166l-206 319h151l139 -207l140 207h151zM1225 1384v-1384h-185l-696 1106v-1106h-178l2 1384h188l693 -1099l2 1099h174z" />
    <glyph glyph-name="ncaron" unicode="&#x148;" horiz-adv-x="1060" 
d="M621 1106h-166l-207 319h151l140 -206l139 206h151zM137 0v934h160v-113q43 59 125 97t182 36q170 0 249 -90t79 -268v-596h-164v582q0 113 -48 167t-165 54q-164 0 -254 -109v-694h-164z" />
    <glyph glyph-name="napostrophe" unicode="&#x149;" horiz-adv-x="1062" 
d="M197 1425l-111 -303h-127l51 303h187zM139 0v934h160v-113q43 59 125 97t182 36q170 0 249 -90t79 -268v-596h-164v582q0 113 -48 167t-165 54q-164 0 -254 -109v-694h-164z" />
    <glyph glyph-name="Eng" unicode="&#x14a;" horiz-adv-x="1390" 
d="M1047 -55v39l-705 1122v-1106h-178l2 1384h188l693 -1099v1099h176v-1415q1 -173 -59 -275t-191 -157l-92 121q94 43 130 106t36 181z" />
    <glyph glyph-name="eng" unicode="&#x14b;" horiz-adv-x="1060" 
d="M768 582q0 221 -196 221q-181 0 -271 -109v-694h-164v934h160v-113q43 59 125 97t180 36q170 0 249 -90t79 -268v-627q0 -172 -58 -274t-188 -158l-88 115q98 44 135 110t37 183v637z" />
    <glyph glyph-name="Omacron" unicode="&#x14c;" horiz-adv-x="1343" 
d="M385 1731h576v-136h-576v136zM1237 691q0 -329 -138 -520t-429 -191t-426 190t-135 521t135 522t428 191t429 -192t136 -521zM289 690q0 -268 86 -412t297 -144t298 144t87 412t-87 414t-298 147q-383 0 -383 -561z" />
    <glyph glyph-name="omacron" unicode="&#x14d;" horiz-adv-x="1024" 
d="M225 1313h576v-135h-576v135zM766 467q0 338 -254 338t-254 -338t254 -338t254 338zM513 954q212 0 316 -132q105 -132 105 -355t-104 -355t-316 -132q-211 0 -316 133t-106 354q0 221 104 354t317 133z" />
    <glyph glyph-name="Obreve" unicode="&#x14e;" horiz-adv-x="1343" 
d="M954 1817q0 -125 -76 -204t-206 -79q-129 0 -205 79t-76 204h115q4 -70 48 -114t117 -44t117 44t48 114h118zM1237 691q0 -329 -138 -520t-429 -191t-426 190t-135 521t135 522t428 191t429 -192t136 -521zM289 690q0 -268 86 -412t297 -144t298 144t87 412t-87 414
t-298 147q-383 0 -383 -561z" />
    <glyph glyph-name="obreve" unicode="&#x14f;" horiz-adv-x="1024" 
d="M795 1399q0 -125 -77 -204t-206 -79t-205 79t-76 204h115q4 -70 48 -114t117 -44t117 44t48 114h119zM766 467q0 338 -254 338t-254 -338t254 -338t254 338zM513 954q212 0 316 -132q105 -132 105 -355t-104 -355t-316 -132q-211 0 -316 133t-106 354q0 221 104 354
t317 133z" />
    <glyph glyph-name="Ohungarumlaut" unicode="&#x150;" horiz-adv-x="1343" 
d="M903 1843h176l-178 -319h-153zM584 1843h176l-178 -319h-154zM1237 691q0 -329 -138 -520t-429 -191t-426 190t-135 521t135 522t428 191t429 -192t136 -521zM289 690q0 -268 86 -412t297 -144t298 144t87 412t-87 414t-298 147q-383 0 -383 -561z" />
    <glyph glyph-name="ohungarumlaut" unicode="&#x151;" horiz-adv-x="1024" 
d="M741 1425h177l-179 -319h-153zM422 1425h176l-178 -319h-154zM766 467q0 338 -254 338t-254 -338t254 -338t254 338zM513 954q212 0 316 -132q105 -132 105 -355t-104 -355t-316 -132q-211 0 -316 133t-106 354q0 221 104 354t317 133z" />
    <glyph glyph-name="OE" unicode="&#x152;" horiz-adv-x="1796" 
d="M670 133q104 0 190 29v1057q-88 33 -188 32q-207 0 -294 -147q-87 -148 -87 -416t85 -412t294 -143zM1036 150h664v-150h-838q-88 -20 -192 -20q-291 0 -426 190t-135 521t135 522t428 192q96 0 192 -21h828v-149h-656v-453h582v-149h-582v-483z" />
    <glyph glyph-name="oe" unicode="&#x153;" horiz-adv-x="1646" 
d="M1403 582q0 106 -58 171t-159 64q-228 0 -246 -276h459q4 25 4 41zM766 467q0 338 -254 338t-254 -338t254 -338t254 338zM1212 121q142 0 244 100l82 -110q-47 -53 -140 -93t-196 -38q-252 0 -350 190q-94 -190 -344 -190q-205 0 -310 133t-106 354q0 221 104 354
t318 133q242 0 342 -194q94 195 330 194q184 0 278 -114t95 -279q0 -86 -13 -145h-608q4 -139 68 -217t206 -78z" />
    <glyph glyph-name="Racute" unicode="&#x154;" horiz-adv-x="1218" 
d="M643 1843h176l-178 -319h-154zM633 758q165 0 237 61t72 179t-72 178t-237 59h-289v-477h289zM168 0v1384h479q235 0 355 -100t120 -270t-93 -269q-93 -98 -263 -122l393 -623h-203l-372 608h-240l-2 -608h-174z" />
    <glyph glyph-name="racute" unicode="&#x155;" horiz-adv-x="700" 
d="M436 1425h176l-178 -319h-153zM297 780h2q88 174 260 174q70 0 113 -14l-19 -172q-66 18 -125 18q-147 0 -227 -176v-610h-164v934h160v-154z" />
    <glyph glyph-name="Rcommaaccent" unicode="&#x156;" horiz-adv-x="1218" 
d="M684 -139l-111 -303h-127l52 303h186zM633 758q165 0 237 61t72 179t-72 178t-237 59h-289v-477h289zM168 0v1384h479q235 0 355 -100t120 -270t-93 -269q-93 -98 -263 -122l393 -623h-203l-372 608h-240l-2 -608h-174z" />
    <glyph glyph-name="rcommaaccent" unicode="&#x157;" horiz-adv-x="700" 
d="M313 -139l-110 -303h-127l51 303h186zM297 780h2q88 174 260 174q70 0 113 -14l-19 -172q-66 18 -125 18q-147 0 -227 -176v-610h-164v934h160v-154z" />
    <glyph glyph-name="Rcaron" unicode="&#x158;" horiz-adv-x="1218" 
d="M653 1524h-166l-206 319h151l139 -207l140 207h151zM633 758q165 0 237 61t72 179t-72 178t-237 59h-289v-477h289zM168 0v1384h479q235 0 355 -100t120 -270t-93 -269q-93 -98 -263 -122l393 -623h-203l-372 608h-240l-2 -608h-174z" />
    <glyph glyph-name="rcaron" unicode="&#x159;" horiz-adv-x="702" 
d="M471 1106h-166l-207 319h152l139 -206l139 206h152zM297 780h2q88 174 260 174q70 0 113 -14l-19 -172q-66 18 -125 18q-147 0 -227 -176v-610h-164v934h160v-154z" />
    <glyph glyph-name="Sacute" unicode="&#x15a;" horiz-adv-x="1116" 
d="M633 1843h176l-178 -319h-154zM573 1251q-127 1 -197 -67t-69 -162q0 -94 47 -142t150 -79l184 -56q164 -51 249 -136t85 -226q0 -182 -127 -293t-346 -110q-350 0 -475 262l133 90q43 -94 117 -146t220 -53q146 0 221 65t75 175q0 154 -211 215l-185 55
q-317 98 -317 361q0 170 115 286t331 115q159 1 267 -57t161 -146l-129 -96q-90 145 -299 145z" />
    <glyph glyph-name="sacute" unicode="&#x15b;" horiz-adv-x="880" 
d="M535 1425h176l-179 -319h-153zM446 823q-90 0 -135 -40t-45 -101q0 -94 115 -123l160 -37q260 -61 260 -262q0 -123 -96 -202t-279 -78q-236 0 -356 155l100 101q34 -39 60 -63t79 -44t134 -20t136 35q54 36 54 104q0 94 -139 129l-164 39q-227 55 -228 254q0 116 87 200
t264 84q216 0 327 -131l-96 -100q-92 100 -238 100z" />
    <glyph glyph-name="Scircumflex" unicode="&#x15c;" horiz-adv-x="1116" 
d="M477 1843h166l209 -319h-152l-141 207l-137 -207h-152zM573 1251q-127 1 -197 -67t-69 -162q0 -94 47 -142t150 -79l184 -56q164 -51 249 -136t85 -226q0 -182 -127 -293t-346 -110q-350 0 -475 262l133 90q43 -94 117 -146t220 -53q146 0 221 65t75 175q0 154 -211 215
l-185 55q-317 98 -317 361q0 170 115 286t331 115q159 1 267 -57t161 -146l-129 -96q-90 145 -299 145z" />
    <glyph glyph-name="scircumflex" unicode="&#x15d;" horiz-adv-x="880" 
d="M367 1425h165l209 -319h-151l-141 207l-138 -207h-151zM446 823q-90 0 -135 -40t-45 -101q0 -94 115 -123l160 -37q260 -61 260 -262q0 -123 -96 -202t-279 -78q-236 0 -356 155l100 101q34 -39 60 -63t79 -44t134 -20t136 35q54 36 54 104q0 94 -139 129l-164 39
q-227 55 -228 254q0 116 87 200t264 84q216 0 327 -131l-96 -100q-92 100 -238 100z" />
    <glyph glyph-name="Scedilla" unicode="&#x15e;" horiz-adv-x="1116" 
d="M573 1251q-127 1 -197 -67t-69 -162q0 -94 47 -142t150 -79l184 -56q164 -51 249 -136t85 -241t-114 -266q-114 -109 -312 -120l-35 -93q188 0 189 -165q0 -70 -56 -118t-150 -48q-93 0 -184 45v118q78 -57 168 -57q39 0 62 16t22 44q0 70 -110 69h-74l-8 12l61 177
q-297 23 -407 260l133 90q43 -94 117 -146t220 -53q146 0 221 65t75 175q0 154 -211 215l-185 55q-317 98 -317 361q0 170 115 286t331 115q159 1 267 -57t161 -146l-129 -96q-90 145 -299 145z" />
    <glyph glyph-name="scedilla" unicode="&#x15f;" horiz-adv-x="880" 
d="M446 823q-90 0 -135 -40t-45 -101q0 -94 115 -123l160 -37q260 -61 260 -262q0 -112 -79 -188t-233 -88l-34 -95q188 0 188 -165q0 -70 -56 -118q-55 -48 -149 -48t-184 45v118q78 -57 168 -57q40 0 62 16t22 44q0 70 -111 69h-73l-9 12l60 177q-201 18 -303 153l100 101
q34 -39 60 -63t79 -44t134 -20t136 35q54 36 54 104q0 94 -139 129l-164 39q-227 55 -228 254q0 116 87 200t264 84q216 0 327 -131l-96 -100q-92 100 -238 100z" />
    <glyph glyph-name="Scaron" unicode="&#x160;" horiz-adv-x="1116" 
d="M643 1524h-166l-207 319h152l139 -207l139 207h152zM573 1251q-127 1 -197 -67t-69 -162q0 -94 47 -142t150 -79l184 -56q164 -51 249 -136t85 -226q0 -182 -127 -293t-346 -110q-350 0 -475 262l133 90q43 -94 117 -146t220 -53q146 0 221 65t75 175q0 154 -211 215
l-185 55q-317 98 -317 361q0 170 115 286t331 115q159 1 267 -57t161 -146l-129 -96q-90 145 -299 145z" />
    <glyph glyph-name="scaron" unicode="&#x161;" horiz-adv-x="880" 
d="M537 1106h-166l-207 319h151l140 -206l139 206h151zM446 823q-90 0 -135 -40t-45 -101q0 -94 115 -123l160 -37q260 -61 260 -262q0 -123 -96 -202t-279 -78q-236 0 -356 155l100 101q34 -39 60 -63t79 -44t134 -20t136 35q54 36 54 104q0 94 -139 129l-164 39
q-227 55 -228 254q0 116 87 200t264 84q216 0 327 -131l-96 -100q-92 100 -238 100z" />
    <glyph glyph-name="Tcommaaccent" unicode="&#x162;" horiz-adv-x="1101" 
d="M66 1384h972v-149h-399v-1235h-29l-43 -111q188 0 189 -165q0 -70 -56 -118t-150 -48q-93 0 -183 45v118q78 -57 168 -57q39 0 61 16t22 44q0 70 -110 69h-74l-8 12l68 195h-31v1235h-397v149z" />
    <glyph glyph-name="tcommaaccent" unicode="&#x163;" horiz-adv-x="694" 
d="M379 793v-523q0 -139 127 -139q59 0 127 29l16 -142q-80 -37 -178 -38l-35 -91q188 0 189 -165q-1 -70 -57 -118t-149 -48t-183 45v118q78 -57 167 -57q39 0 62 16t22 44q0 70 -110 69h-74l-8 12l65 191q-143 49 -143 256v541h-178v120l178 21v233l162 31v-264h250v-141
h-250z" />
    <glyph glyph-name="Tcaron" unicode="&#x164;" horiz-adv-x="1101" 
d="M643 1524h-166l-207 319h152l139 -207l139 207h152zM66 1384h972v-149h-399v-1235h-176v1235h-397v149z" />
    <glyph glyph-name="tcaron" unicode="&#x165;" horiz-adv-x="694" 
d="M844 1413l-111 -303h-127l51 303h187zM379 793v-523q0 -139 127 -139q59 0 127 29l16 -142q-82 -39 -190 -38q-242 0 -242 272v541h-178v120l178 21v233l162 31v-264h250v-141h-250z" />
    <glyph glyph-name="Tbar" unicode="&#x166;" horiz-adv-x="1112" 
d="M281 752h186v483h-397v149h972v-149h-399v-483h186v-129h-186v-623h-176v623h-186v129z" />
    <glyph glyph-name="tbar" unicode="&#x167;" horiz-adv-x="702" 
d="M78 571h147v222h-178v120l178 21v233l162 31v-264h250v-141h-250v-222h205v-129h-205v-172q0 -139 127 -139q59 0 127 29l16 -142q-82 -39 -190 -38q-242 0 -242 272v190h-147v129z" />
    <glyph glyph-name="Utilde" unicode="&#x168;" horiz-adv-x="1333" 
d="M816 1642q-54 0 -146 -40t-166 -39q-74 0 -125 51l12 125q49 -49 111 -49t151 39q87 39 157 39t140 -50l-12 -129q-68 53 -122 53zM666 -20q-238 0 -374 130t-136 406v868h176v-870q0 -201 83 -291t250 -90t251 91t83 290v870h177v-868q0 -280 -136 -408t-374 -128z" />
    <glyph glyph-name="utilde" unicode="&#x169;" horiz-adv-x="1060" 
d="M924 934v-934h-160v113q-43 -59 -125 -97t-182 -36q-170 0 -249 90t-79 268v596h164v-582q0 -113 48 -167t165 -54q164 0 254 109v694h164zM369 1145q-74 0 -125 51l12 125q50 -49 112 -49t149 39t157 39t141 -50l-12 -129q-68 53 -122 53t-146 -39q-92 -40 -166 -40z
" />
    <glyph glyph-name="Umacron" unicode="&#x16a;" horiz-adv-x="1333" 
d="M377 1731h575v-136h-575v136zM666 -20q-238 0 -374 130t-136 406v868h176v-870q0 -201 83 -291t250 -90t251 91t83 290v870h177v-868q0 -280 -136 -408t-374 -128z" />
    <glyph glyph-name="umacron" unicode="&#x16b;" horiz-adv-x="1060" 
d="M924 934v-934h-160v113q-43 -59 -125 -97t-182 -36q-170 0 -249 90t-79 268v596h164v-582q0 -113 48 -167t165 -54q164 0 254 109v694h164zM244 1313h575v-135h-575v135z" />
    <glyph glyph-name="Ubreve" unicode="&#x16c;" horiz-adv-x="1333" 
d="M946 1817q0 -125 -77 -204t-205 -79t-205 79q-76 79 -76 204h115q4 -70 48 -114t117 -44t117 44t47 114h119zM666 -20q-238 0 -374 130t-136 406v868h176v-870q0 -201 83 -291t250 -90t251 91t83 290v870h177v-868q0 -280 -136 -408t-374 -128z" />
    <glyph glyph-name="ubreve" unicode="&#x16d;" horiz-adv-x="1060" 
d="M924 934v-934h-160v113q-43 -59 -125 -97t-182 -36q-170 0 -249 90t-79 268v596h164v-582q0 -113 48 -167t165 -54q164 0 254 109v694h164zM815 1399q0 -125 -77 -204t-206 -79q-128 0 -204 79t-76 204h115q4 -70 48 -114q45 -44 117 -44t116 44t48 114h119z" />
    <glyph glyph-name="Uring" unicode="&#x16e;" horiz-adv-x="1333" 
d="M664 1593q50 0 78 28t28 72q0 43 -29 71t-77 28t-77 -28q-28 -28 -28 -71q0 -44 28 -72t77 -28zM451 1693q0 83 57 138q58 55 156 55t156 -55t58 -138t-58 -139t-156 -57q-98 0 -156 56q-57 57 -57 140zM666 -20q-238 0 -374 130t-136 406v868h176v-870q0 -201 83 -291
t250 -90t251 91t83 290v870h177v-868q0 -280 -136 -408t-374 -128z" />
    <glyph glyph-name="uring" unicode="&#x16f;" horiz-adv-x="1060" 
d="M924 934v-934h-160v113q-43 -59 -125 -97t-182 -36q-170 0 -249 90t-79 268v596h164v-582q0 -113 48 -167t165 -54q164 0 254 109v694h164zM420 1275q0 -44 28 -72q28 -27 76 -27q49 0 78 28t29 71q0 44 -29 72q-29 27 -78 27t-77 -27q-27 -28 -27 -72zM311 1275
q-1 83 57 138t156 55t156 -55t59 -138q0 -83 -58 -139q-59 -56 -157 -56t-156 56t-57 139z" />
    <glyph glyph-name="Uhungarumlaut" unicode="&#x170;" horiz-adv-x="1333" 
d="M899 1843h176l-178 -319h-154zM580 1843h176l-178 -319h-154zM666 -20q-238 0 -374 130t-136 406v868h176v-870q0 -201 83 -291t250 -90t251 91t83 290v870h177v-868q0 -280 -136 -408t-374 -128z" />
    <glyph glyph-name="uhungarumlaut" unicode="&#x171;" horiz-adv-x="1062" 
d="M756 1425h176l-178 -319h-154zM436 1425h176l-178 -319h-153zM924 934v-934h-160v113q-43 -59 -125 -97t-182 -36q-170 0 -249 90t-79 268v596h164v-582q0 -113 48 -167t165 -54q164 0 254 109v694h164z" />
    <glyph glyph-name="Uogonek" unicode="&#x172;" horiz-adv-x="1333" 
d="M1176 516q0 -477 -406 -528l-135 -107q-68 -55 -68 -110q0 -33 24 -57q25 -24 75 -24t122 54v-141q-82 -45 -176 -45t-152 50t-58 146t110 185l57 47q-195 22 -305 152t-108 378v868h176v-870q0 -201 83 -291t250 -90t251 91t83 290v870h177v-868z" />
    <glyph glyph-name="uogonek" unicode="&#x173;" horiz-adv-x="1060" 
d="M924 934v-934l-154 -119q-68 -55 -68 -110q0 -33 24 -57t75 -24t123 54v-141q-82 -45 -176 -45t-153 50q-58 50 -58 134q0 109 110 197l117 92v82q-43 -59 -125 -97t-182 -36q-170 0 -249 90t-79 268v596h164v-582q0 -113 48 -167t165 -54q164 0 254 109v694h164z" />
    <glyph glyph-name="Wcircumflex" unicode="&#x174;" horiz-adv-x="1982" 
d="M909 1843h166l209 -319h-151l-142 207l-137 -207h-152zM889 1384h205l333 -1179l326 1179h186l-397 -1384h-219l-332 1143l-332 -1143h-219l-397 1384h186l326 -1179z" />
    <glyph glyph-name="wcircumflex" unicode="&#x175;" horiz-adv-x="1550" 
d="M692 1425h166l209 -319h-152l-141 207l-137 -207h-152zM694 934h162l242 -756l233 756h174l-305 -934h-182l-242 725l-244 -725h-182l-303 934h172l234 -756z" />
    <glyph glyph-name="Ycircumflex" unicode="&#x176;" horiz-adv-x="1179" 
d="M506 1843h166l209 -319h-152l-141 207l-137 -207h-152zM676 0h-176v553l-473 831h196l367 -667l362 667h199l-475 -831v-553z" />
    <glyph glyph-name="ycircumflex" unicode="&#x177;" horiz-adv-x="983" 
d="M420 1425h166l209 -319h-152l-141 207l-137 -207h-152zM215 934l293 -682l262 682h180l-567 -1376h-172l213 501l-393 875h184z" />
    <glyph glyph-name="Ydieresis" unicode="&#x178;" horiz-adv-x="1179" 
d="M776 1559q-112 1 -112 113t112 112q49 0 82 -29t33 -85t-33 -84t-82 -27zM401 1559q-115 0 -114 110q0 57 31 86q32 29 82 29t83 -29t33 -85t-33 -84t-82 -27zM676 0h-176v553l-473 831h196l367 -667l362 667h199l-475 -831v-553z" />
    <glyph glyph-name="Zacute" unicode="&#x179;" horiz-adv-x="1054" 
d="M610 1843h176l-178 -319h-153zM958 1384v-133l-675 -1101h690v-150h-901v131l680 1104h-641v149h847z" />
    <glyph glyph-name="zacute" unicode="&#x17a;" horiz-adv-x="841" 
d="M510 1425h176l-178 -319h-154zM750 934v-115l-467 -676h473v-143h-678v115l469 676h-447v143h650z" />
    <glyph glyph-name="Zdotaccent" unicode="&#x17b;" horiz-adv-x="1054" 
d="M532 1559q-115 0 -114 110q0 57 32 86t80 29t83 -30q34 -30 34 -85t-34 -83t-81 -27zM958 1384v-133l-675 -1101h690v-150h-901v131l680 1104h-641v149h847z" />
    <glyph glyph-name="zdotaccent" unicode="&#x17c;" horiz-adv-x="841" 
d="M446 1141q-115 0 -114 110q0 57 32 86t80 29t83 -30q34 -30 34 -85t-34 -83t-81 -27zM750 934v-115l-467 -676h473v-143h-678v115l469 676h-447v143h650z" />
    <glyph glyph-name="Zcaron" unicode="&#x17d;" horiz-adv-x="1054" 
d="M616 1524h-165l-207 319h151l140 -207l139 207h151zM958 1384v-133l-675 -1101h690v-150h-901v131l680 1104h-641v149h847z" />
    <glyph glyph-name="zcaron" unicode="&#x17e;" horiz-adv-x="841" 
d="M514 1106h-166l-207 319h152l139 -206l139 206h152zM750 934v-115l-467 -676h473v-143h-678v115l469 676h-447v143h650z" />
    <glyph glyph-name="florin" unicode="&#x192;" horiz-adv-x="710" 
d="M424 788v-935q0 -137 -69 -227t-210 -89q-78 0 -133 19v147q49 -14 118 -14q132 0 132 188v911h-199v144h199v186q0 140 69 228t214 88q68 0 127 -19v-147q-63 14 -107 14q-77 0 -109 -46t-32 -140v-164h215v-144h-215z" />
    <glyph glyph-name="Aringacute" unicode="&#x1fa;" horiz-adv-x="1249" 
d="M627 1204l-242 -692h479zM1036 0l-125 365h-573l-125 -365h-188l495 1384h209l500 -1384h-193zM520 1659q0 -45 29 -73t78 -28t78 28t28 73q0 45 -28 74q-29 29 -79 29t-78 -30q-28 -28 -28 -73zM840 1659q0 -82 -58 -137q-58 -56 -156 -56t-154 56t-56 133q0 78 44 128
t118 62l114 164h168l-139 -176q119 -49 119 -174z" />
    <glyph glyph-name="aringacute" unicode="&#x1fb;" horiz-adv-x="962" 
d="M246 252q0 -141 158 -141t264 114v224l-154 -19q-268 -37 -268 -178zM831 0h-155v115q-115 -135 -314 -135q-134 0 -208 70t-74 194q0 256 428 301l160 16v92q0 84 -43 125t-145 41t-150 -31q-49 -31 -49 -83v-54h-146q-6 33 -6 68q0 106 92 171t260 64q350 0 350 -299
v-655zM389 1253q0 -45 29 -73t78 -27q50 0 78 28q28 29 28 73t-29 73t-79 29t-77 -29q-28 -29 -28 -74zM590 1427q119 -43 119 -184q-1 -72 -59 -127t-155 -55t-154 55q-56 55 -56 133t46 131t126 64l100 149h164z" />
    <glyph glyph-name="AEacute" unicode="&#x1fc;" horiz-adv-x="1925" 
d="M1823 1384v-149h-656v-453h584v-149h-584v-490h664v-143h-840v365h-555l-246 -365h-192l930 1384h895zM991 510v707l-465 -707h465zM1374 1843h176l-178 -319h-153z" />
    <glyph glyph-name="aeacute" unicode="&#x1fd;" horiz-adv-x="1542" 
d="M1298 582q0 106 -58 171t-161 64q-229 0 -243 -276h458q4 25 4 41zM246 252q0 -141 158 -141t264 114v224l-156 -19q-266 -37 -266 -178zM1096 121q150 0 256 100l82 -110q-50 -55 -142 -93t-196 -38q-242 0 -342 165q-139 -166 -373 -165q-145 0 -224 70t-79 194
q0 256 430 301l160 16v92q0 84 -44 125t-146 41t-150 -31q-49 -31 -49 -83v-54h-146q-4 45 -4 68q0 106 91 171t261 64q227 0 301 -143q100 143 290 143t287 -114q95 -115 95 -279q0 -78 -14 -145h-606q6 -295 262 -295zM872 1425h177l-179 -319h-153z" />
    <glyph glyph-name="Oslashacute" unicode="&#x1fe;" horiz-adv-x="1349" 
d="M672 133q213 1 300 145t87 380t-49 364l-600 -789q90 -100 262 -100zM291 690q0 -211 49 -342l602 795q-92 109 -268 108q-383 0 -383 -561zM1239 678q0 -316 -138 -507t-429 -191q-229 0 -363 120l-78 -100h-155l149 199q-115 179 -115 501t136 513q135 191 428 192
q229 0 368 -129l82 108h162l-160 -208q113 -182 113 -498zM741 1843h168l-172 -317h-145z" />
    <glyph glyph-name="oslashacute" unicode="&#x1ff;" horiz-adv-x="1024" 
d="M580 1425h176l-178 -319h-154zM510 129q256 0 256 338q0 119 -33 197l-375 -490q62 -45 152 -45zM258 469q0 -123 33 -203l375 492q-59 47 -156 47q-252 0 -252 -336zM514 954q147 0 248 -71l39 51h141l-100 -129q92 -125 92 -343t-104 -350t-322 -132q-150 0 -244 69
l-39 -49h-137l96 127q-92 125 -92 343t104 351t318 133z" />
    <glyph glyph-name="Scommaaccent" unicode="&#x218;" horiz-adv-x="1116" 
d="M664 -139l-111 -303h-127l51 303h187zM573 1251q-127 1 -197 -67t-69 -162q0 -94 47 -142t150 -79l184 -56q164 -51 249 -136t85 -226q0 -182 -127 -293t-346 -110q-350 0 -475 262l133 90q43 -94 117 -146t220 -53q146 0 221 65t75 175q0 154 -211 215l-185 55
q-317 98 -317 361q0 170 115 286t331 115q159 1 267 -57t161 -146l-129 -96q-90 145 -299 145z" />
    <glyph glyph-name="scommaaccent" unicode="&#x219;" horiz-adv-x="880" 
d="M551 -139l-111 -303h-127l52 303h186zM446 823q-90 0 -135 -40t-45 -101q0 -94 115 -123l160 -37q260 -61 260 -262q0 -123 -96 -202t-279 -78q-236 0 -356 155l100 101q34 -39 60 -63t79 -44t134 -20t136 35q54 36 54 104q0 94 -139 129l-164 39q-227 55 -228 254
q0 116 87 200t264 84q216 0 327 -131l-96 -100q-92 100 -238 100z" />
    <glyph glyph-name="uni021A" unicode="&#x21a;" horiz-adv-x="1101" 
d="M643 -139l-111 -303h-126l51 303h186zM63 1384h973v-149h-399v-1235h-176v1235h-398v149z" />
    <glyph glyph-name="uni021B" unicode="&#x21b;" horiz-adv-x="694" 
d="M506 -139l-111 -303h-127l51 303h187zM379 793v-523q0 -139 127 -139q59 0 127 29l16 -142q-82 -39 -190 -38q-242 0 -242 272v541h-178v120l178 21v233l162 31v-264h250v-141h-250z" />
    <glyph glyph-name="dotlessj" unicode="&#x237;" horiz-adv-x="442" 
d="M139 -55v989h164v-965q1 -173 -59 -275t-189 -157l-88 115q98 44 135 110t37 183z" />
    <glyph glyph-name="circumflex" unicode="&#x2c6;" horiz-adv-x="1228" 
d="M530 1425h166l209 -319h-151l-142 207l-137 -207h-151z" />
    <glyph glyph-name="caron" unicode="&#x2c7;" horiz-adv-x="1228" 
d="M696 1106h-166l-206 319h151l139 -206l140 206h151z" />
    <glyph glyph-name="breve" unicode="&#x2d8;" horiz-adv-x="1228" 
d="M895 1399q0 -125 -77 -204t-206 -79q-128 0 -204 79t-76 204h114q4 -70 48 -114t118 -44q72 0 116 44t48 114h119z" />
    <glyph glyph-name="dotaccent" unicode="&#x2d9;" horiz-adv-x="1228" 
d="M614 1141q-115 0 -114 110q0 57 31 86q32 29 81 29t83 -30t34 -85t-34 -83t-81 -27z" />
    <glyph glyph-name="ring" unicode="&#x2da;" horiz-adv-x="1228" 
d="M508 1275q0 -44 28 -72q28 -27 76 -27t78 28q29 28 29 71q0 44 -29 72q-29 27 -78 27q-48 0 -76 -28t-28 -71zM399 1275q-1 83 57 138t156 55t156 -55t59 -138q0 -83 -58 -139q-59 -56 -157 -56t-156 56t-57 139z" />
    <glyph glyph-name="ogonek" unicode="&#x2db;" horiz-adv-x="1228" 
d="M631 -442q-94 0 -153 50q-58 50 -58 134q0 109 110 197l123 98l154 -37l-154 -119q-68 -55 -67 -110q0 -33 24 -57t75 -24q50 0 122 54v-141q-82 -45 -176 -45z" />
    <glyph glyph-name="tilde" unicode="&#x2dc;" horiz-adv-x="1228" 
d="M452 1145q-74 0 -124 51l12 125q50 -49 112 -49t149 39t157 39t141 -50l-12 -129q-68 53 -122 53q-55 0 -147 -39q-92 -40 -166 -40z" />
    <glyph glyph-name="hungarumlaut" unicode="&#x2dd;" horiz-adv-x="1228" 
d="M764 1425h176l-178 -319h-154zM444 1425h177l-179 -319h-153z" />
    <glyph glyph-name="uni0394" unicode="&#x394;" horiz-adv-x="1368" 
d="M1106 143l-420 1069l-426 -1069h846zM16 0l566 1384h209l563 -1384h-1338z" />
    <glyph glyph-name="uni03A9" unicode="&#x3a9;" horiz-adv-x="1429" 
d="M104 143h324q-127 96 -217 257t-90 345q0 285 147 473t445 187q153 0 271 -53q118 -52 186 -146q138 -189 139 -461q0 -184 -90 -344t-220 -258h326v-143h-516v143q137 98 228 253q91 154 91 364t-102 350t-311 141q-209 0 -311 -140t-103 -350q0 -210 91 -365t229 -253
v-143h-517v143z" />
    <glyph glyph-name="uni03BC" unicode="&#x3bc;" horiz-adv-x="1071" 
d="M301 -442h-162v1376h162v-582q0 -113 49 -167t166 -54q164 0 254 109v694h162v-934h-158v113q-45 -59 -127 -97t-179 -36q-97 0 -167 28v-450z" />
    <glyph glyph-name="pi" unicode="&#x3c0;" horiz-adv-x="1181" 
d="M233 0v793h-188v141h1059v-141h-203v-523q0 -141 123 -141q37 0 59 4v-143q-49 -12 -100 -13q-242 0 -242 275v541h-348v-793h-160z" />
    <glyph glyph-name="Wgrave" unicode="&#x1e80;" horiz-adv-x="1982" 
d="M741 1843h177l155 -319h-153zM889 1384h205l333 -1179l326 1179h186l-397 -1384h-219l-332 1143l-332 -1143h-219l-397 1384h186l326 -1179z" />
    <glyph glyph-name="wgrave" unicode="&#x1e81;" horiz-adv-x="1550" 
d="M528 1425h177l155 -319h-153zM694 934h162l242 -756l233 756h174l-305 -934h-182l-242 725l-244 -725h-182l-303 934h172l234 -756z" />
    <glyph glyph-name="Wacute" unicode="&#x1e82;" horiz-adv-x="1982" 
d="M1069 1843h176l-178 -319h-154zM889 1384h205l333 -1179l326 1179h186l-397 -1384h-219l-332 1143l-332 -1143h-219l-397 1384h186l326 -1179z" />
    <glyph glyph-name="wacute" unicode="&#x1e83;" horiz-adv-x="1550" 
d="M848 1425h176l-178 -319h-154zM694 934h162l242 -756l233 756h174l-305 -934h-182l-242 725l-244 -725h-182l-303 934h172l234 -756z" />
    <glyph glyph-name="Wdieresis" unicode="&#x1e84;" horiz-adv-x="1982" 
d="M1180 1559q-113 0 -113 110q0 115 113 115q49 0 82 -29q32 -29 32 -85t-32 -84q-33 -27 -82 -27zM805 1559q-115 0 -115 110q0 57 32 86t82 29t83 -29t33 -85t-33 -84t-82 -27zM889 1384h205l333 -1179l326 1179h186l-397 -1384h-219l-332 1143l-332 -1143h-219
l-397 1384h186l326 -1179z" />
    <glyph glyph-name="wdieresis" unicode="&#x1e85;" horiz-adv-x="1550" 
d="M963 1141q-113 0 -113 110q0 115 113 115q49 0 81 -29t33 -85q-1 -56 -33 -84t-81 -27zM588 1141q-115 0 -115 110q0 57 32 86t82 29t83 -29q32 -29 32 -85t-32 -84q-33 -27 -82 -27zM694 934h162l242 -756l233 756h174l-305 -934h-182l-242 725l-244 -725h-182l-303 934
h172l234 -756z" />
    <glyph glyph-name="Ygrave" unicode="&#x1ef2;" horiz-adv-x="1179" 
d="M344 1843h176l156 -319h-154zM676 0h-176v553l-473 831h196l367 -667l362 667h199l-475 -831v-553z" />
    <glyph glyph-name="ygrave" unicode="&#x1ef3;" horiz-adv-x="983" 
d="M266 1425h176l156 -319h-154zM215 934l293 -682l262 682h180l-567 -1376h-172l213 501l-393 875h184z" />
    <glyph glyph-name="endash" unicode="&#x2013;" horiz-adv-x="1200" 
d="M129 625h942v-144h-942v144z" />
    <glyph glyph-name="emdash" unicode="&#x2014;" horiz-adv-x="1486" 
d="M129 625h1229v-144h-1229v144z" />
    <glyph glyph-name="quoteleft" unicode="&#x2018;" horiz-adv-x="436" 
d="M98 926l111 458h127l-51 -458h-187z" />
    <glyph glyph-name="quoteright" unicode="&#x2019;" horiz-adv-x="425" 
d="M350 1384l-108 -458h-129l51 458h186z" />
    <glyph glyph-name="quotesinglbase" unicode="&#x201a;" horiz-adv-x="450" 
d="M330 229l-111 -458h-127l51 458h187z" />
    <glyph glyph-name="quotedblleft" unicode="&#x201c;" horiz-adv-x="720" 
d="M98 926l111 458h127l-51 -458h-187zM383 926l111 458h127l-52 -458h-186z" />
    <glyph glyph-name="quotedblright" unicode="&#x201d;" horiz-adv-x="710" 
d="M635 1384l-109 -458h-127l52 458h184zM350 1384l-108 -458h-129l51 458h186z" />
    <glyph glyph-name="quotedblbase" unicode="&#x201e;" horiz-adv-x="735" 
d="M614 229l-110 -458h-127l51 458h186zM330 229l-111 -458h-127l51 458h187z" />
    <glyph glyph-name="dagger" unicode="&#x2020;" horiz-adv-x="864" 
d="M61 608h312v805h121v-805h309v-114h-309v-936h-121v936h-312v114z" />
    <glyph glyph-name="daggerdbl" unicode="&#x2021;" horiz-adv-x="970" 
d="M115 920h311v493h121v-493h309v-115h-309v-631h309v-115h-309v-501h-121v501h-311v115h311v631h-311v115z" />
    <glyph glyph-name="bullet" unicode="&#x2022;" horiz-adv-x="784" 
d="M393 328q-100 0 -167 63q-66 63 -66 159t66 161q67 63 167 63t166 -63t66 -159t-66 -160t-166 -64z" />
    <glyph glyph-name="ellipsis" unicode="&#x2026;" horiz-adv-x="1263" 
d="M635 -14q-53 0 -89 34t-36 86q0 50 36 86t89 36t89 -36q36 -34 36 -86t-36 -86t-89 -34zM1030 -14q-53 0 -89 34t-36 86q0 50 36 86t89 36t89 -36q36 -34 36 -86t-36 -86t-89 -34zM233 -14q-53 0 -89 34t-35 86q0 51 35 87q36 35 89 35t90 -35q35 -35 35 -87t-35 -86
q-37 -34 -90 -34z" />
    <glyph glyph-name="perthousand" unicode="&#x2030;" horiz-adv-x="2304" 
d="M1927 729q293 0 293 -370t-293 -369q-293 0 -293 368q0 176 72 274t221 97zM1927 94q86 0 124 66t38 200t-38 199q-38 66 -124 66q-162 1 -162 -265t162 -266zM375 1393q293 0 293 -370t-293 -370t-293 369q0 176 72 274t221 97zM375 758q86 0 124 66t38 199
q0 134 -38 200t-124 65q-162 0 -162 -265t162 -265zM973 360q0 370 293 369q293 0 293 -370t-293 -369q-293 0 -293 370zM1266 94q86 0 124 66t38 200t-38 199q-38 66 -124 66q-162 1 -162 -265t162 -266zM1309 1384l-834 -1384h-141l829 1384h146z" />
    <glyph glyph-name="guilsinglleft" unicode="&#x2039;" horiz-adv-x="628" 
d="M59 553l367 440l109 -78l-277 -362l277 -365l-109 -77z" />
    <glyph glyph-name="guilsinglright" unicode="&#x203a;" horiz-adv-x="628" 
d="M203 993l366 -440l-366 -442l-109 77l277 365l-277 362z" />
    <glyph glyph-name="fraction" unicode="&#x2044;" horiz-adv-x="360" 
d="M668 1384l-834 -1384h-141l829 1384h146z" />
    <glyph glyph-name="zerosuperior" unicode="&#x2070;" horiz-adv-x="724" 
d="M360 1622q292 0 293 -370q0 -370 -293 -369q-292 -1 -292 369t292 370zM360 987q86 0 124 66q38 65 38 199t-38 200t-124 66q-162 0 -162 -266t162 -265z" />
    <glyph glyph-name="foursuperior" unicode="&#x2074;" horiz-adv-x="684" 
d="M406 1139v307l-234 -307h234zM633 1139v-103h-101v-143h-126v143h-369v92l362 482h133v-471h101z" />
    <glyph glyph-name="fivesuperior" unicode="&#x2075;" horiz-adv-x="645" 
d="M340 1356q104 0 173 -58t69 -170q0 -110 -71 -179t-201 -69t-194 58q-64 57 -65 149h129q0 -45 34 -73t100 -27q66 0 101 38q36 38 36 96t-36 93t-103 35t-122 -37l-102 13l49 385h416v-103h-311l-25 -182q61 31 123 31z" />
    <glyph glyph-name="sixsuperior" unicode="&#x2076;" horiz-adv-x="688" 
d="M362 1516q-82 0 -122 -62t-39 -170q65 66 179 66t178 -62t65 -166q0 -104 -71 -174t-208 -70t-207 95q-69 94 -69 264t72 276q73 107 208 107q134 0 196 -55t62 -142h-129q0 93 -115 93zM348 985q70 0 107 36t37 97t-37 97t-105 36q-96 0 -147 -82q0 -82 37 -133
q38 -51 108 -51z" />
    <glyph glyph-name="sevensuperior" unicode="&#x2077;" horiz-adv-x="573" 
d="M39 1507v103h500v-88l-289 -629h-139l284 614h-356z" />
    <glyph glyph-name="eightsuperior" unicode="&#x2078;" horiz-adv-x="696" 
d="M348 1518q-61 0 -97 -28t-36 -76t37 -75t95 -27t96 28q38 26 38 74t-36 76t-97 28zM496 1098q0 52 -40 82t-107 30t-109 -30t-41 -82q0 -51 42 -81t107 -30t107 30q41 30 41 81zM348 881q-127 0 -204 55t-76 151q0 137 141 175q-127 41 -127 157q0 95 72 149t194 54
t194 -54q71 -54 70 -149q0 -117 -125 -157q141 -37 142 -175q0 -96 -77 -151t-204 -55z" />
    <glyph glyph-name="ninesuperior" unicode="&#x2079;" horiz-adv-x="688" 
d="M80 1075h129q0 -43 32 -67t83 -23q162 0 161 232q-69 -68 -181 -68t-176 62q-64 63 -65 167q0 104 71 173t208 69t207 -94q69 -94 69 -264t-72 -277q-73 -106 -207 -106t-197 55q-62 55 -62 141zM338 1249q98 0 145 82q0 80 -37 132q-38 53 -108 53t-106 -37t-36 -99
t36 -96q36 -35 106 -35z" />
    <glyph glyph-name="zeroinferior" unicode="&#x2080;" horiz-adv-x="724" 
d="M360 -215q-292 -1 -292 369t292 370t293 -370q0 -370 -293 -369zM360 -111q86 0 124 66t38 200q0 133 -38 199t-124 66q-162 0 -162 -266t162 -265z" />
    <glyph glyph-name="oneinferior" unicode="&#x2081;" horiz-adv-x="483" 
d="M379 -205h-129v600l-207 -76l-31 99l254 94h113v-717z" />
    <glyph glyph-name="twoinferior" unicode="&#x2082;" horiz-adv-x="634" 
d="M63 295q1 105 63 167t179 62t185 -60t69 -142q0 -82 -41 -143q-41 -60 -119 -134l-157 -147h327v-103h-499v88l245 236q111 104 111 190q0 49 -31 80t-86 31q-119 0 -119 -125h-127z" />
    <glyph glyph-name="threeinferior" unicode="&#x2083;" horiz-adv-x="661" 
d="M592 -24q0 -80 -74 -136t-200 -57q-126 0 -192 55q-67 55 -67 144h129q0 -43 36 -68t98 -25t101 28q38 28 38 79t-43 83t-121 32h-72v102h72q70 0 111 28q41 27 41 75t-35 76t-92 28q-56 0 -90 -26t-33 -66h-129q0 86 63 141t185 55t192 -56t70 -130t-39 -119
q-40 -43 -99 -57q62 -12 106 -58q44 -48 44 -128z" />
    <glyph glyph-name="fourinferior" unicode="&#x2084;" horiz-adv-x="684" 
d="M406 41v307l-234 -307h234zM633 41v-102h-101v-144h-126v144h-369v92l362 481h133v-471h101z" />
    <glyph glyph-name="fiveinferior" unicode="&#x2085;" horiz-adv-x="643" 
d="M582 32q0 -110 -71 -180q-71 -69 -201 -69t-194 57t-65 150h129q0 -45 34 -73t100 -28t101 38q36 39 36 97t-36 93t-103 35t-122 -37l-102 12l49 385h416v-102h-311l-25 -183q61 31 123 31q104 0 173 -58t69 -168z" />
    <glyph glyph-name="sixinferior" unicode="&#x2086;" horiz-adv-x="686" 
d="M362 420q-82 0 -122 -62t-39 -170q65 66 179 66t178 -62t65 -166q0 -103 -71 -173t-208 -70t-207 94q-69 94 -69 264t72 277q73 106 208 106q134 0 196 -55t62 -141h-129q0 92 -115 92zM492 22q0 62 -37 98t-105 36q-96 0 -147 -82q0 -82 37 -133q38 -51 108 -51t107 35
t37 97z" />
    <glyph glyph-name="seveninferior" unicode="&#x2087;" horiz-adv-x="573" 
d="M39 410v102h500v-88l-289 -629h-139l284 615h-356z" />
    <glyph glyph-name="eightinferior" unicode="&#x2088;" horiz-adv-x="696" 
d="M348 420q-61 0 -97 -28t-36 -76t37 -74t95 -27q58 0 96 27q38 26 38 74t-36 76t-97 28zM349 113q-67 0 -109 -31t-41 -82q0 -51 42 -81t107 -30t107 30q41 30 41 81t-40 82t-107 31zM348 -217q-127 0 -204 55t-76 152q0 137 141 174q-127 41 -127 158q0 94 72 148t194 54
t194 -54q71 -54 70 -148q0 -117 -125 -158q141 -37 142 -174q0 -96 -77 -152t-204 -55z" />
    <glyph glyph-name="nineinferior" unicode="&#x2089;" horiz-adv-x="686" 
d="M80 -20h129q0 -43 32 -67t83 -24q162 0 161 232q-69 -68 -181 -68q-112 1 -176 63t-65 166q0 104 71 174q71 68 208 68t207 -94q69 -94 69 -264t-72 -277q-73 -106 -207 -106t-197 55q-62 56 -62 142zM338 420q-70 0 -106 -37t-36 -98t36 -97q36 -35 106 -34q98 0 145 82
q0 80 -37 132q-38 52 -108 52z" />
    <glyph glyph-name="rupee" unicode="&#x20a8;" horiz-adv-x="1095" 
d="M117 1384h887v-118h-259q90 -76 105 -224h154v-120h-154q-16 -129 -106 -216t-236 -108l377 -598h-203l-360 580h-205v143h219q295 0 332 199h-549v120h551q-20 100 -91 150t-219 49h-243v143z" />
    <glyph glyph-name="Euro" unicode="&#x20ac;" horiz-adv-x="1179" 
d="M88 885h113q33 246 163 383t361 137q180 0 356 -88l-59 -148q-145 80 -301 80q-291 0 -342 -364h534l-49 -119h-495q-2 -25 -2 -64t4 -96h436l-45 -121h-377q68 -352 346 -352q162 0 313 96l43 -153q-176 -98 -362 -99q-446 0 -522 508h-115v121h102q-2 29 -2 82t2 78
h-102v119z" />
    <glyph glyph-name="afii61289" unicode="&#x2113;" horiz-adv-x="784" 
d="M586 1165q0 76 -27 116t-74 40t-77 -52t-29 -145v-385q207 221 207 426zM258 240v252q-55 -51 -154 -119l-59 96q111 76 213 170v461q0 174 66 260t172 86t159 -71t53 -211t-82 -281q-83 -141 -247 -297v-328q0 -160 108 -160q98 0 191 76l51 -102q-111 -94 -252 -95
q-219 0 -219 263z" />
    <glyph glyph-name="uni2117" unicode="&#x2117;" horiz-adv-x="1667" 
d="M1044 840q0 145 -167 145h-177v-291h177q167 1 167 146zM571 1094h303q154 0 231 -70t77 -186t-78 -186q-78 -69 -230 -68h-174v-310h-129v820zM240 690q0 -276 166 -442t429 -166t429 166t166 442t-166 442t-429 164q-263 0 -429 -165t-166 -441zM104 690q0 326 207 530
t523 204t523 -204q206 -204 206 -530t-206 -532t-521 -205q-316 -1 -524 205t-208 532z" />
    <glyph glyph-name="trademark" unicode="&#x2122;" horiz-adv-x="1312" 
d="M887 862l108 381h127l58 -485h-93l-36 385l-115 -385h-102l-105 381l-43 -381h-90l57 485h131zM109 1243h409v-76h-162v-409h-92v409h-155v76z" />
    <glyph glyph-name="Omega" unicode="&#x2126;" horiz-adv-x="1441" 
d="M111 143h323q-127 96 -217 257t-90 345q0 285 147 473t445 187q153 0 271 -53q213 -96 290 -356q35 -116 35 -276t-90 -319q-90 -160 -219 -258h325v-143h-516v143q137 98 228 253q91 154 91 364t-102 350t-311 141q-209 0 -311 -140t-102 -350t90 -365q91 -155 229 -253
v-143h-516v143z" />
    <glyph glyph-name="estimated" unicode="&#x212e;" horiz-adv-x="1531" 
d="M401 786h756v377q-166 154 -384 154t-372 -154v-377zM401 692v-471q152 -152 375 -151q164 0 285 74t217 237l92 -55q-121 -188 -256 -270t-338 -81q-299 0 -484 205q-186 205 -186 513t184 512t485 204q299 0 485 -201t188 -516h-1047z" />
    <glyph glyph-name="onethird" unicode="&#x2153;" horiz-adv-x="1536" 
d="M432 664h-129v600l-207 -76l-30 98l253 94h113v-716zM1212 1384l-833 -1384h-141l829 1384h145zM1442 182q0 -80 -74 -138q-74 -56 -200 -56t-192 55t-67 143h129q0 -44 36 -68t98 -24t101 28q38 28 38 79t-43 83t-121 31h-72v103h72q71 0 111 28t40 75q0 48 -34 76
t-92 28t-91 -26t-32 -67h-129q0 86 63 142t185 55q122 0 192 -56t70 -131t-40 -118t-98 -57q62 -13 106 -59t44 -126z" />
    <glyph glyph-name="twothirds" unicode="&#x2154;" horiz-adv-x="1634" 
d="M1317 1384l-834 -1384h-141l829 1384h146zM1544 182q0 -80 -74 -138q-74 -56 -200 -56t-192 55q-67 55 -66 143h129q0 -44 36 -68t98 -24t100 28t38 79t-43 83t-121 31h-71v103h71q70 0 111 28t41 75q0 48 -35 76t-92 28t-90 -26t-33 -67h-129q0 86 63 142t185 55
q122 0 192 -56t70 -131t-39 -118t-98 -57q61 -13 105 -59t44 -126zM98 1163q0 104 62 167t180 63q118 -1 186 -61t68 -142t-41 -142t-119 -135l-158 -147h328v-102h-500v88l246 235q111 104 111 191q0 50 -31 80t-86 30q-119 0 -119 -125h-127z" />
    <glyph glyph-name="oneeighth" unicode="&#x215b;" horiz-adv-x="1548" 
d="M432 664h-129v600l-207 -76l-30 98l253 94h113v-716zM1212 1384l-833 -1384h-141l829 1384h145zM1178 625q-62 0 -98 -28t-36 -76t37 -75q37 -26 95 -26t97 26q38 26 38 75q0 48 -36 76t-97 28zM1325 205q1 51 -39 81t-107 31q-67 -1 -109 -31t-42 -81t42 -81t108 -30
t106 30q41 30 41 81zM1178 -12q-127 0 -204 55t-77 152q0 137 141 174q-127 41 -127 157q0 94 72 148t195 55q124 0 194 -54t70 -149q0 -117 -125 -157q141 -37 141 -174q0 -95 -76 -151t-204 -56z" />
    <glyph glyph-name="threeeighths" unicode="&#x215c;" horiz-adv-x="1628" 
d="M1260 625q-62 0 -98 -28t-36 -76t37 -75q37 -26 95 -26t97 26q38 26 38 75q0 48 -36 76t-97 28zM1407 205q1 51 -39 81t-107 31q-67 -1 -109 -31t-42 -81t42 -81t108 -30t106 30q41 30 41 81zM1260 -12q-127 0 -204 55t-77 152q0 137 141 174q-127 41 -127 157
q0 94 72 148t195 55q124 0 194 -54t70 -149q0 -117 -125 -157q141 -37 141 -174q0 -95 -76 -151t-204 -56zM1296 1384l-833 -1384h-141l829 1384h145zM623 845q0 -81 -74 -137t-200 -56q-127 0 -193 54q-66 56 -66 144h129q0 -43 36 -68q36 -24 98 -24t101 27q38 28 38 79
t-43 83t-121 32h-72v102h72q70 0 110 28t41 76q0 48 -35 76q-35 27 -92 27t-90 -26t-33 -66h-129q0 86 64 141t185 55q122 0 192 -56t69 -144q0 -60 -39 -104t-98 -58q61 -12 105 -58t45 -127z" />
    <glyph glyph-name="fiveeighths" unicode="&#x215d;" horiz-adv-x="1605" 
d="M1235 625q-61 0 -97 -28t-36 -76t37 -75q37 -26 95 -26t96 26t38 75q0 48 -36 76t-97 28zM1382 205q0 51 -40 81t-106 31q-67 -1 -109 -31t-42 -81t42 -81q41 -30 107 -30t107 30t41 81zM1235 -12q-127 0 -204 55t-77 152q0 137 142 174q-127 41 -127 157q0 94 71 149
q72 54 195 54t193 -54t71 -149q0 -117 -125 -157q141 -37 142 -174q0 -95 -77 -151t-204 -56zM1272 1384l-834 -1384h-141l829 1384h146zM608 900q0 -110 -70 -180q-70 -69 -201 -69q-130 -1 -195 57t-64 150h129q0 -45 34 -73q33 -27 99 -27t102 38t35 96q0 58 -36 93
q-37 35 -103 35t-121 -37l-102 12l49 385h416v-102h-312l-24 -182q61 31 123 30q105 0 173 -58t68 -168z" />
    <glyph glyph-name="seveneighths" unicode="&#x215e;" horiz-adv-x="1456" 
d="M1124 1384l-833 -1384h-141l829 1384h145zM1090 625q-62 0 -98 -28t-36 -76t37 -75q37 -26 95 -26t97 26q38 26 38 75q0 48 -36 76t-97 28zM1237 205q1 51 -39 81t-107 31q-67 -1 -109 -31t-42 -81t42 -81t108 -30t106 30q41 30 41 81zM1090 -12q-127 0 -204 55t-77 152
q0 137 141 174q-127 41 -127 157q0 94 72 148t195 55q124 0 194 -54t70 -149q0 -117 -125 -157q141 -37 141 -174q0 -95 -76 -151t-204 -56zM88 1278v102h500v-88l-289 -628h-139l284 614h-356z" />
    <glyph glyph-name="arrowleft" unicode="&#x2190;" horiz-adv-x="1536" 
d="M1382 643v-143h-1001l379 -379l-96 -98l-549 548l549 553l98 -100l-381 -381h1001z" />
    <glyph glyph-name="arrowup" unicode="&#x2191;" horiz-adv-x="1536" 
d="M838 -25h-142v1000l-381 -379l-98 96l549 549l553 -549l-98 -96l-383 379v-1000z" />
    <glyph glyph-name="arrowright" unicode="&#x2192;" horiz-adv-x="1536" 
d="M154 514v143h1001l-379 379l96 99l549 -549l-549 -553l-98 100l381 381h-1001z" />
    <glyph glyph-name="arrowdown" unicode="&#x2193;" horiz-adv-x="1536" 
d="M698 1180h142v-1000l381 379l98 -96l-549 -551l-553 551l98 96l383 -379v1000z" />
    <glyph glyph-name="uni2196" unicode="&#x2196;" horiz-adv-x="1536" 
d="M328 1047h780v-140h-539l709 -708l-102 -101l-709 707v-537h-139v779z" />
    <glyph glyph-name="uni2197" unicode="&#x2197;" horiz-adv-x="1536" 
d="M1206 1047v-781h-137v539l-709 -707l-102 101l709 708h-539v140h778z" />
    <glyph glyph-name="uni2198" unicode="&#x2198;" horiz-adv-x="1536" 
d="M1200 111h-780v139h538l-708 708l102 101l709 -707v537h139v-778z" />
    <glyph glyph-name="uni2199" unicode="&#x2199;" horiz-adv-x="1536" 
d="M336 111v780h139v-539l707 707l102 -101l-709 -708h539v-139h-778z" />
    <glyph glyph-name="partialdiff" unicode="&#x2202;" horiz-adv-x="1075" 
d="M520 125q262 0 279 410q-94 227 -287 227q-129 0 -194 -86q-64 -86 -64 -230t64 -232q64 -89 202 -89zM92 448q0 212 104 340t291 127q225 0 322 -198q-2 199 -99 379t-261 317h208q141 -119 227 -319t87 -465q0 -264 -101 -456q-101 -193 -350 -193q-212 0 -320 128
t-108 340z" />
    <glyph glyph-name="Delta" unicode="&#x2206;" horiz-adv-x="1435" 
d="M1139 143l-420 1069l-426 -1069h846zM49 0l565 1384h209l563 -1384h-1337z" />
    <glyph glyph-name="product" unicode="&#x220f;" horiz-adv-x="1523" 
d="M84 1384h1356v-143h-137v-1683h-168v1683h-746v-1683h-168v1683h-137v143z" />
    <glyph glyph-name="summation" unicode="&#x2211;" horiz-adv-x="1200" 
d="M1114 -299v-143h-1028v180l530 751l-528 713v182h1022v-143h-858l557 -752l-557 -788h862z" />
    <glyph glyph-name="minus" unicode="&#x2212;" 
d="M98 483v142h949v-142h-949z" />
    <glyph glyph-name="uni2215" unicode="&#x2215;" horiz-adv-x="950" 
d="M963 1384l-834 -1384h-141l829 1384h146z" />
    <glyph glyph-name="uni2219" unicode="&#x2219;" horiz-adv-x="499" 
d="M249 428q-56 0 -93 37t-37 91t37 90t93 36t93 -36t37 -90t-37 -91t-93 -37z" />
    <glyph glyph-name="radical" unicode="&#x221a;" horiz-adv-x="1257" 
d="M1231 1425l-500 -1867h-184l-309 700l-150 -70l-57 125l303 138l291 -699l436 1673h170z" />
    <glyph glyph-name="infinity" unicode="&#x221e;" horiz-adv-x="1511" 
d="M244 537q0 -83 53 -135t135 -52q119 1 244 187q-137 193 -246 192q-82 0 -134 -54t-52 -138zM1270 541q0 84 -52 136t-139 52q-47 0 -96 -35q-49 -36 -73 -66t-68 -91q61 -91 115 -139t131 -48t130 53q52 54 52 138zM1405 543q0 -141 -88 -231t-223 -91q-188 0 -336 215
q-152 -213 -336 -213q-135 0 -225 87q-91 88 -91 228t88 230t224 90q182 0 340 -225q152 229 334 229q133 0 223 -89t90 -230z" />
    <glyph glyph-name="integral" unicode="&#x222b;" horiz-adv-x="749" 
d="M455 1118v-1265q0 -139 -71 -227t-224 -89q-55 0 -115 19v143q57 -10 123 -10q127 0 127 176v1265q0 140 71 228t224 88q55 0 115 -19v-143q-57 10 -124 10t-97 -44t-29 -132z" />
    <glyph glyph-name="approxequal" unicode="&#x2248;" 
d="M782 199q-82 -1 -222 69t-187 70t-83 -17t-67 -43t-35 -28l-32 129q88 102 217 102q72 1 213 -69t201 -70t110 41t59 49l33 -129q-86 -104 -207 -104zM370 764q-90 0 -177 -88l-35 131q94 104 217 104q70 1 211 -69t200 -70t107 38q17 14 39 32t26 20l33 -129
q-86 -104 -207 -104q-82 -1 -224 67t-190 68z" />
    <glyph glyph-name="notequal" unicode="&#x2260;" 
d="M170 862h432l60 242l96 -21l-56 -221h275v-141h-309l-84 -334h393v-143h-428l-64 -254l-94 20l58 234h-279v143h313l84 334h-397v141z" />
    <glyph glyph-name="lessequal" unicode="&#x2264;" 
d="M162 63v140h805v-140h-805zM158 723v164l809 340v-156l-662 -266l662 -264v-158z" />
    <glyph glyph-name="greaterequal" unicode="&#x2265;" 
d="M995 887v-164l-807 -340v158l662 264l-662 266v156zM164 63v140h805v-140h-805z" />
    <glyph glyph-name="lozenge" unicode="&#x25ca;" horiz-adv-x="1232" 
d="M1176 719l-484 -719h-153l-482 719l482 706h153zM987 719l-371 547l-374 -547l374 -561z" />
    <glyph glyph-name="circle" unicode="&#x25cb;" horiz-adv-x="1599" 
d="M231 692q0 -274 155 -433t413 -159q259 0 413 159t154 433t-155 432t-413 158t-412 -158q-155 -158 -155 -432zM104 693q0 316 196 514t500 198t498 -197t195 -515q0 -318 -195 -517q-194 -199 -498 -199t-500 200t-196 516z" />
    <glyph glyph-name="commaaccent" unicode="&#xf6c3;" horiz-adv-x="1228" 
d="M733 -139l-110 -303h-127l51 303h186z" />
    <glyph glyph-name="uniF8FF" unicode="&#xf8ff;" horiz-adv-x="1226" 
d="M268 80h690v1184h-690v-1184zM190 0v1343h846v-1343h-846z" />
    <glyph glyph-name="exclam.sc" horiz-adv-x="456" 
d="M340 91q0 -45 -32 -73t-80 -28t-78 28t-31 73q0 44 31 74q30 30 78 30t80 -30t32 -74zM291 334h-127l-27 704h185z" />
    <glyph glyph-name="numbersign.sc" horiz-adv-x="1085" 
d="M453 639l-35 -217h207l34 217h-206zM248 287h-164l18 135h168l37 217h-164l17 135h168l45 264h147l-45 -264h207l45 264h147l-43 -264h173l-19 -135h-176l-37 -217h172l-16 -135h-178l-48 -287h-149l49 287h-205l-49 -287h-149z" />
    <glyph glyph-name="dollar.sc" horiz-adv-x="954" 
d="M291 757q0 -58 35 -91t110 -54v299q-72 -12 -108 -54t-37 -100zM537 428l-13 2v-305q84 8 127 50t43 108q1 102 -157 145zM524 -158h-88v144q-256 10 -356 190l121 88q63 -129 235 -141v332l-51 14q-260 76 -260 276q0 119 79 206t232 102v112h88v-112q223 -10 322 -152
l-119 -88q-72 92 -203 100v-325l64 -17q272 -78 272 -278q0 -131 -90 -213t-246 -94v-144z" />
    <glyph glyph-name="percent.sc" horiz-adv-x="1390" 
d="M80 764q0 283 245 283t245 -283t-246 -283q-244 0 -244 283zM203 764q-1 -98 27 -144t95 -47q67 1 95 47t26 144q0 98 -27 144q-28 46 -95 46q-121 0 -121 -190zM1065 557q246 0 246 -283t-246 -282q-246 0 -246 282t246 283zM1065 84q65 0 93 47t28 144t-28 143t-94 47
q-66 0 -92 -46q-28 -46 -28 -145q0 -190 121 -190zM1096 1038l-674 -1038h-129l670 1038h133z" />
    <glyph glyph-name="ampersand.sc" horiz-adv-x="1124" 
d="M315 794q0 -60 103 -153l35 -35l51 35q76 51 108 85t33 82q0 48 -42 84t-119 36t-123 -37t-46 -97zM406 111q125 0 241 120l-209 207l-30 -20q-113 -76 -139 -112q-25 -36 -25 -81t45 -79t117 -35zM1065 0h-178l-139 135q-152 -152 -349 -151q-141 0 -223 68t-82 173
q0 66 39 126t83 96t124 85l-31 33q-99 95 -121 145t-22 93q0 106 88 179t228 73t226 -74t87 -178q-1 -74 -51 -131t-152 -131l-43 -29l186 -180l174 221l111 -82l-184 -238l229 -221v-12z" />
    <glyph glyph-name="section.sc" horiz-adv-x="968" 
d="M698 388q0 58 -44 89t-128 55l-168 54q-76 -39 -75 -109q0 -47 41 -78t127 -57l165 -55q82 43 82 101zM858 409q0 -97 -117 -176q113 -69 113 -169t-97 -170t-282 -70q-266 0 -379 147l88 99q104 -123 303 -123t199 98q0 39 -40 64t-120 49l-170 57q-233 80 -233 234
q0 117 110 190q-109 66 -109 165t96 175q95 76 269 76q238 0 355 -140l-94 -94q-102 109 -273 109q-80 0 -133 -28t-53 -71t43 -69t133 -53l133 -43q130 -44 194 -102t64 -155z" />
    <glyph glyph-name="paragraph.sc" horiz-adv-x="919" 
d="M647 -47v747h141v-720q0 -76 -13 -132t-57 -109q-44 -54 -122 -87l-80 96q72 37 102 82t29 123zM373 700h182v-741h-139v281q-170 0 -248 55t-78 169t70 175t213 61z" />
    <glyph glyph-name="parenleft.sc" horiz-adv-x="526" 
d="M100 369q0 215 60 377t176 333l119 -41q-190 -356 -190 -678t188 -657l-117 -45q-236 332 -236 711z" />
    <glyph glyph-name="slash.sc" horiz-adv-x="624" 
d="M559 1038v-18l-342 -1020h-151v20l337 1018h156z" />
    <glyph glyph-name="parenright.sc" horiz-adv-x="524" 
d="M262 362q0 324 -192 676l118 41q116 -172 176 -334t60 -376q0 -379 -236 -711l-114 45q188 335 188 659z" />
    <glyph glyph-name="bracketleft.sc" horiz-adv-x="581" 
d="M135 1069h361v-129h-201v-1143h201v-129h-361v1401z" />
    <glyph glyph-name="backslash.sc" horiz-adv-x="630" 
d="M63 1038h156l346 -1018v-20h-151l-351 1020v18z" />
    <glyph glyph-name="bracketright.sc" horiz-adv-x="579" 
d="M84 1069h360v-1401h-360v129h201v1143h-201v129z" />
    <glyph glyph-name="braceleft.sc" horiz-adv-x="573" 
d="M373 838v-301q0 -154 -127 -172q127 -18 127 -172v-302q1 -61 25 -84t83 -22v-117q-141 0 -203 47t-63 168v297q0 68 -37 96t-115 29v117q80 0 116 29t36 100v295q1 117 63 166t203 49v-119q-59 0 -84 -21q-24 -22 -24 -83z" />
    <glyph glyph-name="bar.sc" horiz-adv-x="374" 
d="M240 -332h-105v1401h105v-1401z" />
    <glyph glyph-name="braceright.sc" horiz-adv-x="573" 
d="M203 537v301q0 61 -26 83t-83 21v119q138 0 202 -49t64 -166v-295q0 -73 36 -101t116 -28v-117q-80 1 -116 -27t-36 -98v-297q0 -121 -62 -168t-204 -47v117q59 1 84 23t25 83v302q0 156 125 172q-125 16 -125 172z" />
    <glyph glyph-name="zero.sc" horiz-adv-x="1038" 
d="M520 1055q209 -1 309 -141q101 -140 101 -394t-100 -395t-311 -141q-210 0 -310 141t-100 394t101 395t310 141zM520 121q129 0 187 100q57 100 57 299t-57 298t-187 100q-246 0 -246 -398q0 -199 58 -299t188 -100z" />
    <glyph glyph-name="one.sc" horiz-adv-x="698" 
d="M543 0h-162v887l-301 -113l-43 125l362 139h144v-1038z" />
    <glyph glyph-name="two.sc" horiz-adv-x="915" 
d="M102 731q0 147 88 235t251 89q163 0 258 -86t96 -224q-1 -98 -57 -184t-167 -194l-245 -236h487v-131h-702v115l352 348q164 158 164 282q0 78 -47 125q-46 48 -134 48t-134 -50t-46 -137h-164z" />
    <glyph glyph-name="three.sc" horiz-adv-x="958" 
d="M852 276q0 -128 -104 -210t-282 -82t-270 78q-93 78 -94 200h162q0 -63 55 -102t153 -39t155 44t57 124t-66 128t-178 48h-104v133h104q104 0 165 42t61 117t-52 117t-142 44q-91 0 -141 -40t-50 -102h-164q0 121 90 200t260 79t268 -81t99 -206q0 -90 -58 -153t-143 -83
q91 -16 155 -86t64 -170z" />
    <glyph glyph-name="four.sc" horiz-adv-x="997" 
d="M600 348v475l-358 -475h358zM913 348v-131h-149v-217h-164v217h-530v117l524 704h170v-690h149z" />
    <glyph glyph-name="five.sc" horiz-adv-x="925" 
d="M831 339q0 -157 -100 -256t-281 -99t-274 82q-92 82 -92 213h162q0 -72 52 -115t154 -43t156 57q54 58 54 152t-54 146t-152 52q-99 0 -190 -59l-131 18l72 551h581v-131h-450l-39 -289q90 45 186 46q152 0 249 -84t97 -241z" />
    <glyph glyph-name="six.sc" horiz-adv-x="985" 
d="M698 776q0 66 -49 104t-135 38q-121 0 -181 -98t-61 -265q37 41 110 74t159 33q162 0 253 -90t91 -240q-1 -150 -99 -249t-290 -99t-291 136t-99 382t102 400q102 153 306 153q170 0 258 -78t88 -201h-162zM498 121q108 0 165 56q56 55 56 151t-55 149q-56 53 -146 53
t-149 -37t-90 -90q0 -123 55 -203q56 -80 164 -79z" />
    <glyph glyph-name="seven.sc" horiz-adv-x="829" 
d="M72 907v131h700v-114l-412 -924h-178l408 907h-518z" />
    <glyph glyph-name="eight.sc" horiz-adv-x="999" 
d="M500 121q104 0 165 45q60 45 60 128t-62 128q-63 45 -163 45t-162 -45t-64 -128q0 -83 61 -128t165 -45zM501 918q-95 0 -151 -42t-55 -117q0 -75 57 -117q58 -42 148 -42t147 41t57 118t-54 118t-149 41zM501 -16q-179 0 -287 78t-108 219q0 103 62 167t154 87
q-86 25 -140 82q-53 58 -53 149q0 133 99 211q100 78 272 78t271 -78t99 -211q0 -90 -53 -148t-139 -83q92 -23 153 -88t62 -166q-1 -141 -107 -219t-285 -78z" />
    <glyph glyph-name="nine.sc" horiz-adv-x="987" 
d="M125 264h162q0 -68 49 -106t135 -37q121 0 181 97t61 267q-37 -41 -110 -75t-157 -33q-162 0 -254 90t-92 240q0 151 100 249t292 98t289 -135q97 -136 97 -383t-100 -400q-102 -153 -307 -152q-170 0 -258 78t-88 202zM488 918q-108 0 -165 -56t-57 -152q0 -94 56 -148
t147 -54q89 0 149 37t91 88q-1 125 -57 205t-164 80z" />
    <glyph glyph-name="question.sc" horiz-adv-x="784" 
d="M380 1055q150 0 238 -77t88 -188t-91 -200q-39 -37 -75 -74q-91 -92 -89 -182h-158q0 80 40 148t88 107q128 107 128 189q0 58 -43 98t-118 40t-118 -36q-43 -34 -43 -87l-151 16q0 106 77 176t227 70zM371 -10q-47 0 -79 28t-32 73q0 44 32 74t79 30t80 -30t33 -74
t-33 -73q-33 -28 -80 -28z" />
    <glyph glyph-name="a.sc" horiz-adv-x="1058" 
d="M530 870l-180 -479h361zM848 0l-94 256h-447l-96 -256h-176l397 1038h195l401 -1038h-180z" />
    <glyph glyph-name="b.sc" horiz-adv-x="1019" 
d="M319 602h175q205 0 204 158q0 143 -204 143h-175v-301zM319 135h197q125 0 182 40t58 126q0 168 -240 168h-197v-334zM156 0v1038h360q180 0 267 -70t87 -198q0 -178 -170 -223q96 -18 162 -83t66 -173q0 -291 -402 -291h-370z" />
    <glyph glyph-name="c.sc" horiz-adv-x="1019" 
d="M272 519q0 -396 303 -396q77 0 141 36t95 93l129 -82q-112 -186 -358 -186t-363 140t-117 395t117 395t363 140t358 -188l-129 -80q-31 58 -94 94t-142 35q-303 0 -303 -396z" />
    <glyph glyph-name="d.sc" horiz-adv-x="1126" 
d="M319 135h154q213 0 297 85t84 297t-85 299t-296 87h-154v-768zM156 0v1038h325q285 0 414 -123t129 -395t-129 -396t-414 -124h-325z" />
    <glyph glyph-name="e.sc" horiz-adv-x="954" 
d="M322 135h528v-135h-694v1038h688v-135h-522v-309h460v-135h-460v-324z" />
    <glyph glyph-name="f.sc" horiz-adv-x="915" 
d="M156 0v1038h671v-135h-505v-336h432v-135h-432v-432h-166z" />
    <glyph glyph-name="g.sc" horiz-adv-x="1105" 
d="M272 515q0 -392 300 -392q152 0 216 83t64 218h-264v135h426q6 -43 6 -86q0 -217 -106 -353t-338 -136t-354 137t-122 399q0 535 500 535q256 0 361 -183l-125 -79q-84 123 -249 123t-240 -102q-75 -101 -75 -299z" />
    <glyph glyph-name="h.sc" horiz-adv-x="1177" 
d="M856 608v430h166v-1038h-166v473h-537v-473h-163v1038h163v-430h537z" />
    <glyph glyph-name="i.sc" horiz-adv-x="475" 
d="M156 0v1038h166v-1038h-166z" />
    <glyph glyph-name="j.sc" horiz-adv-x="847" 
d="M348 123q199 0 199 235v680h158v-688q-1 -182 -95 -274t-262 -92q-209 -1 -297 163l121 76q57 -100 176 -100z" />
    <glyph glyph-name="k.sc" horiz-adv-x="1058" 
d="M322 0h-166v1038h166v-489l491 489h201l-418 -430l418 -608h-197l-334 494l-161 -152v-342z" />
    <glyph glyph-name="l.sc" horiz-adv-x="837" 
d="M322 135h469v-135h-635v1038h166v-903z" />
    <glyph glyph-name="m.sc" horiz-adv-x="1466" 
d="M735 201l281 837h219l135 -1038h-158l-106 848l-285 -848h-180l-276 844l-113 -844h-160l146 1038h223z" />
    <glyph glyph-name="n.sc" horiz-adv-x="1179" 
d="M860 1038h166v-1038h-172l-532 782v-782h-168l2 1038h176l528 -774v774z" />
    <glyph glyph-name="o.sc" horiz-adv-x="1130" 
d="M1028 518q0 -246 -113 -390t-351 -144t-350 144t-112 390t112 391t352 145t350 -144q112 -146 112 -392zM272 518q0 -190 66 -292t226 -103q160 0 228 102q66 103 66 293t-66 294q-67 103 -227 103q-293 0 -293 -397z" />
    <glyph glyph-name="p.sc" horiz-adv-x="987" 
d="M322 903v-373h190q225 0 225 186t-225 187h-190zM522 397h-200v-397h-166v1038h366q193 0 289 -83t96 -237t-96 -238q-96 -83 -289 -83z" />
    <glyph glyph-name="q.sc" horiz-adv-x="1130" 
d="M565 915q-293 0 -293 -396t276 -396q144 0 214 70l-262 235l88 96l243 -215q27 86 27 209q0 190 -66 294q-67 103 -227 103zM1028 518q0 -190 -67 -321l129 -113l-93 -100l-118 104q-115 -104 -316 -104q-237 0 -349 144t-112 390t112 391t352 145t350 -144
q112 -146 112 -392z" />
    <glyph glyph-name="r.sc" horiz-adv-x="1042" 
d="M774 741q0 162 -235 162h-217v-325h217q127 0 181 40t54 123zM156 0v1038h397q393 0 393 -297q0 -119 -73 -193t-207 -91l307 -457h-189l-288 442h-174v-442h-166z" />
    <glyph glyph-name="s.sc" horiz-adv-x="946" 
d="M487 915q-94 0 -145 -45t-51 -108t35 -96t110 -54l148 -41q270 -78 270 -278q0 -141 -105 -225t-284 -84q-289 0 -389 192l119 88q35 -68 94 -104t171 -37q112 0 167 43t55 117q0 102 -156 145l-147 41q-260 76 -260 276q0 131 94 221t274 89q251 0 353 -154l-119 -88
q-72 102 -234 102z" />
    <glyph glyph-name="t.sc" horiz-adv-x="931" 
d="M66 1038h798v-135h-315v-903h-166v903h-317v135z" />
    <glyph glyph-name="u.sc" horiz-adv-x="1126" 
d="M983 391q-1 -211 -113 -309t-308 -98t-308 99t-111 308v647h166v-647q1 -139 63 -203t190 -63q128 0 192 63q63 63 63 203v647h166v-647z" />
    <glyph glyph-name="v.sc" horiz-adv-x="1036" 
d="M819 1038h174l-368 -1038h-213l-369 1038h174l303 -870z" />
    <glyph glyph-name="w.sc" horiz-adv-x="1654" 
d="M731 1038h191l258 -854l247 854h172l-311 -1038h-207l-254 817l-256 -817h-202l-314 1038h172l248 -854z" />
    <glyph glyph-name="x.sc" horiz-adv-x="1009" 
d="M59 1038h189l256 -395l256 395h188l-336 -501l351 -537h-191l-268 418l-268 -418h-191l348 537z" />
    <glyph glyph-name="y.sc" horiz-adv-x="999" 
d="M582 0h-166v410l-381 628h182l283 -481l280 481h187l-385 -628v-410z" />
    <glyph glyph-name="z.sc" horiz-adv-x="905" 
d="M805 1038v-120l-531 -783h545v-135h-741v117l532 786h-504v135h699z" />
    <glyph glyph-name="agrave.sc" horiz-adv-x="1058" 
d="M281 1487h168l155 -318h-145zM530 870l-180 -479h361zM848 0l-94 256h-447l-96 -256h-176l397 1038h195l401 -1038h-180z" />
    <glyph glyph-name="aacute.sc" horiz-adv-x="1058" 
d="M614 1487h168l-178 -318h-145zM530 870l-180 -479h361zM848 0l-94 256h-447l-96 -256h-176l397 1038h195l401 -1038h-180z" />
    <glyph glyph-name="acircumflex.sc" horiz-adv-x="1058" 
d="M449 1487h165l209 -320h-151l-142 207l-137 -207h-151zM530 870l-180 -479h361zM848 0l-94 256h-447l-96 -256h-176l397 1038h195l401 -1038h-180z" />
    <glyph glyph-name="atilde.sc" horiz-adv-x="1058" 
d="M683 1286q-54 0 -146 -40t-166 -40t-125 51l12 125q48 -49 110 -49t150 39t158 39t141 -49l-12 -129q-68 53 -122 53zM530 870l-180 -479h361zM848 0l-94 256h-447l-96 -256h-176l397 1038h195l401 -1038h-180z" />
    <glyph glyph-name="adieresis.sc" horiz-adv-x="1058" 
d="M719 1206q-113 0 -113 110t113 109q47 1 79 -27t32 -83t-32 -82t-79 -27zM346 1206q-113 0 -113 110t113 109q47 1 79 -27t32 -83t-32 -82t-79 -27zM530 870l-180 -479h361zM848 0l-94 256h-447l-96 -256h-176l397 1038h195l401 -1038h-180z" />
    <glyph glyph-name="amacron.sc" horiz-adv-x="1058" 
d="M246 1364h571v-135h-571v135zM530 870l-180 -479h361zM848 0l-94 256h-447l-96 -256h-176l397 1038h195l401 -1038h-180z" />
    <glyph glyph-name="abreve.sc" horiz-adv-x="1058" 
d="M813 1440q0 -125 -77 -204t-206 -79q-128 0 -204 79t-76 204h115q4 -70 48 -114q45 -44 117 -44t116 44t48 114h119zM530 870l-180 -479h361zM848 0l-94 256h-447l-96 -256h-176l397 1038h195l401 -1038h-180z" />
    <glyph glyph-name="aring.sc" horiz-adv-x="1058" 
d="M426 1331q0 -45 27 -71t77 -27q50 0 78 27q29 28 29 72t-29 72t-78 28q-48 0 -76 -28t-28 -73zM530 1137q-98 0 -156 56t-57 139q-1 83 57 138q58 56 156 56t156 -56t59 -138q0 -83 -58 -139q-59 -56 -157 -56zM530 870l-180 -479h361zM848 0l-94 256h-447l-96 -256h-176
l397 1038h195l401 -1038h-180z" />
    <glyph glyph-name="aringacute.sc" horiz-adv-x="1058" 
d="M530 870l-180 -479h361zM848 0l-94 256h-447l-96 -256h-176l397 1038h195l401 -1038h-180zM422 1331q0 -45 29 -73t77 -28t78 28q29 28 29 73t-29 74t-79 29q-49 0 -77 -29t-28 -74zM528 1139q-98 0 -154 55t-57 132q0 77 42 126t114 64l119 163h168l-139 -172
q123 -43 121 -187q0 -71 -59 -126q-57 -55 -155 -55z" />
    <glyph glyph-name="aogonek.sc" horiz-adv-x="1056" 
d="M528 870l-180 -479h361zM850 -442q-94 0 -153 50q-58 50 -58 134q0 109 111 197l92 73l-90 244h-447l-96 -256h-176l397 1038h195l401 -1038l-154 -119q-68 -55 -67 -110q-1 -33 23 -57t75 -24t123 54v-141q-82 -45 -176 -45z" />
    <glyph glyph-name="ae.sc" horiz-adv-x="1634" 
d="M834 391v440l-330 -440h330zM1001 135h529v-135h-696v256h-433l-190 -256h-203l793 1038h723v-135h-523v-309h459v-135h-459v-324z" />
    <glyph glyph-name="aeacute.sc" horiz-adv-x="1634" 
d="M834 391v440l-330 -440h330zM1001 135h529v-135h-696v256h-433l-190 -256h-203l793 1038h723v-135h-523v-309h459v-135h-459v-324zM1192 1487h168l-178 -318h-146z" />
    <glyph glyph-name="cacute.sc" horiz-adv-x="1019" 
d="M631 1487h168l-178 -318h-146zM272 519q0 -396 303 -396q77 0 141 36t95 93l129 -82q-112 -186 -358 -186t-363 140t-117 395t117 395t363 140t358 -188l-129 -80q-31 58 -94 94t-142 35q-303 0 -303 -396z" />
    <glyph glyph-name="ccircumflex.sc" horiz-adv-x="1019" 
d="M473 1487h166l209 -320h-152l-141 207l-137 -207h-152zM272 519q0 -396 303 -396q77 0 141 36t95 93l129 -82q-112 -186 -358 -186t-363 140t-117 395t117 395t363 140t358 -188l-129 -80q-31 58 -94 94t-142 35q-303 0 -303 -396z" />
    <glyph glyph-name="ccaron.sc" horiz-adv-x="1019" 
d="M639 1167h-166l-207 320h152l139 -207l139 207h152zM272 519q0 -396 303 -396q77 0 141 36t95 93l129 -82q-112 -186 -358 -186t-363 140t-117 395t117 395t363 140t358 -188l-129 -80q-31 58 -94 94t-142 35q-303 0 -303 -396z" />
    <glyph glyph-name="cdotaccent.sc" horiz-adv-x="1019" 
d="M557 1206q-113 0 -113 110t113 109q47 1 79 -27t32 -83t-32 -82t-79 -27zM272 519q0 -396 303 -396q77 0 141 36t95 93l129 -82q-112 -186 -358 -186t-363 140t-117 395t117 395t363 140t358 -188l-129 -80q-31 58 -94 94t-142 35q-303 0 -303 -396z" />
    <glyph glyph-name="ccedilla.sc" horiz-adv-x="1019" 
d="M272 519q0 -396 303 -396q77 0 141 36t95 93l129 -82q-98 -162 -311 -182l-37 -99q188 0 188 -165q0 -70 -56 -118t-150 -48t-183 45v118q78 -57 168 -57q39 0 62 16t22 44q0 70 -111 69h-73l-8 12l61 181q-408 32 -410 540q0 248 117 388t363 140t358 -188l-129 -80
q-31 58 -94 94t-142 35q-303 0 -303 -396z" />
    <glyph glyph-name="dcaron.sc" horiz-adv-x="1126" 
d="M608 1167h-166l-206 320h151l139 -207l140 207h151zM319 135h154q213 0 297 85t84 297t-85 299t-296 87h-154v-768zM156 0v1038h325q285 0 414 -123t129 -395t-129 -396t-414 -124h-325z" />
    <glyph glyph-name="dcroat.sc" horiz-adv-x="1144" 
d="M338 135h154q212 0 296 85t84 297t-85 299t-295 87h-154v-309h223v-129h-223v-330zM47 594h127v444h326q286 0 414 -123t128 -395t-129 -396t-413 -124h-326v465h-127v129z" />
    <glyph glyph-name="eth.sc" horiz-adv-x="1144" 
d="M338 135h154q212 0 296 85t84 297t-85 299t-295 87h-154v-309h223v-129h-223v-330zM47 594h127v444h326q286 0 414 -123t128 -395t-129 -396t-413 -124h-326v465h-127v129z" />
    <glyph glyph-name="egrave.sc" horiz-adv-x="952" 
d="M254 1487h168l156 -318h-146zM322 135h528v-135h-694v1038h688v-135h-522v-309h460v-135h-460v-324z" />
    <glyph glyph-name="eacute.sc" horiz-adv-x="952" 
d="M573 1487h168l-178 -318h-145zM322 135h528v-135h-694v1038h688v-135h-522v-309h460v-135h-460v-324z" />
    <glyph glyph-name="ecircumflex.sc" horiz-adv-x="952" 
d="M412 1487h166l208 -320h-151l-141 207l-138 -207h-151zM322 135h528v-135h-694v1038h688v-135h-522v-309h460v-135h-460v-324z" />
    <glyph glyph-name="ecaron.sc" horiz-adv-x="952" 
d="M578 1167h-166l-207 320h151l140 -207l139 207h151zM322 135h528v-135h-694v1038h688v-135h-522v-309h460v-135h-460v-324z" />
    <glyph glyph-name="edieresis.sc" horiz-adv-x="952" 
d="M682 1206q-113 0 -113 110t113 109q47 1 79 -27t32 -83t-32 -82t-79 -27zM309 1206q-113 0 -112 109q0 111 112 110q47 1 79 -27t32 -83t-32 -82t-79 -27zM322 135h528v-135h-694v1038h688v-135h-522v-309h460v-135h-460v-324z" />
    <glyph glyph-name="emacron.sc" horiz-adv-x="952" 
d="M209 1364h571v-135h-571v135zM322 135h528v-135h-694v1038h688v-135h-522v-309h460v-135h-460v-324z" />
    <glyph glyph-name="ebreve.sc" horiz-adv-x="952" 
d="M778 1440q0 -125 -77 -204t-205 -79t-205 79q-76 79 -76 204h115q4 -70 48 -114t117 -44t117 44t47 114h119zM322 135h528v-135h-694v1038h688v-135h-522v-309h460v-135h-460v-324z" />
    <glyph glyph-name="edotaccent.sc" horiz-adv-x="952" 
d="M496 1206q-113 0 -113 110t113 109q46 1 78 -27t32 -83t-32 -82t-78 -27zM322 135h528v-135h-694v1038h688v-135h-522v-309h460v-135h-460v-324z" />
    <glyph glyph-name="eogonek.sc" horiz-adv-x="952" 
d="M674 -442q-94 0 -153 50q-58 50 -58 134q0 109 110 197l76 61h-495v1038h688v-135h-523v-309h461v-135h-461v-324h529v-135h2l-154 -119q-68 -55 -67 -110q-1 -33 23 -57t75 -24t123 54v-141q-82 -45 -176 -45z" />
    <glyph glyph-name="gcircumflex.sc" horiz-adv-x="1105" 
d="M487 1487h166l209 -320h-151l-142 207l-137 -207h-151zM272 515q0 -392 300 -392q152 0 216 83t64 218h-264v135h426q6 -43 6 -86q0 -217 -106 -353t-338 -136t-354 137t-122 399q0 535 500 535q256 0 361 -183l-125 -79q-84 123 -249 123t-240 -102q-75 -101 -75 -299z
" />
    <glyph glyph-name="gbreve.sc" horiz-adv-x="1105" 
d="M852 1440q0 -125 -77 -204t-206 -79t-205 79t-75 204h114q5 -70 49 -114t116 -44t117 44q44 44 48 114h119zM272 515q0 -392 300 -392q152 0 216 83t64 218h-264v135h426q6 -43 6 -86q0 -217 -106 -353t-338 -136t-354 137t-122 399q0 535 500 535q256 0 361 -183
l-125 -79q-84 123 -249 123t-240 -102q-75 -101 -75 -299z" />
    <glyph glyph-name="gdotaccent.sc" horiz-adv-x="1105" 
d="M571 1206q-113 0 -112 109q0 111 112 110q47 1 79 -27t32 -83t-32 -82t-79 -27zM272 515q0 -392 300 -392q152 0 216 83t64 218h-264v135h426q6 -43 6 -86q0 -217 -106 -353t-338 -136t-354 137t-122 399q0 535 500 535q256 0 361 -183l-125 -79q-84 123 -249 123
t-240 -102q-75 -101 -75 -299z" />
    <glyph glyph-name="gcommaaccent.sc" horiz-adv-x="1105" 
d="M674 -139l-111 -303h-127l51 303h187zM272 515q0 -392 300 -392q152 0 216 83t64 218h-264v135h426q6 -43 6 -86q0 -217 -106 -353t-338 -136t-354 137t-122 399q0 535 500 535q256 0 361 -183l-125 -79q-84 123 -249 123t-240 -102q-75 -101 -75 -299z" />
    <glyph glyph-name="hcircumflex.sc" horiz-adv-x="1177" 
d="M504 1487h166l209 -320h-152l-141 207l-137 -207h-152zM856 608v430h166v-1038h-166v473h-537v-473h-163v1038h163v-430h537z" />
    <glyph glyph-name="hbar.sc" horiz-adv-x="1179" 
d="M858 608v152h-536v-152h536zM74 877h82v161h166v-161h536v161h166v-161h80v-117h-80v-760h-166v473h-536v-473h-166v760h-82v117z" />
    <glyph glyph-name="igrave.sc" horiz-adv-x="475" 
d="M-12 1487h168l155 -318h-145zM156 0v1038h166v-1038h-166z" />
    <glyph glyph-name="iacute.sc" horiz-adv-x="475" 
d="M322 1487h167l-178 -318h-145zM156 0v1038h166v-1038h-166z" />
    <glyph glyph-name="ibreve.sc" horiz-adv-x="475" 
d="M520 1440q0 -125 -77 -204t-205 -79t-205 79q-76 79 -76 204h115q4 -70 48 -114t117 -44t117 44t47 114h119zM156 0v1038h166v-1038h-166z" />
    <glyph glyph-name="icircumflex.sc" horiz-adv-x="475" 
d="M156 1487h166l208 -320h-151l-141 207l-138 -207h-151zM156 0v1038h166v-1038h-166z" />
    <glyph glyph-name="itilde.sc" horiz-adv-x="475" 
d="M390 1286q-54 0 -146 -40t-166 -40t-125 51l12 125q49 -49 111 -49t151 39q87 39 157 39t140 -49l-12 -129q-68 53 -122 53zM156 0v1038h166v-1038h-166z" />
    <glyph glyph-name="idieresis.sc" horiz-adv-x="475" 
d="M424 1206q-113 0 -113 110t113 109q47 1 79 -27t32 -83t-32 -82t-79 -27zM51 1206q-113 0 -112 109q0 111 112 110q47 1 79 -27t32 -83t-32 -82t-79 -27zM156 0v1038h166v-1038h-166z" />
    <glyph glyph-name="imacron.sc" horiz-adv-x="475" 
d="M-49 1364h571v-135h-571v135zM156 0v1038h166v-1038h-166z" />
    <glyph glyph-name="idotaccent.sc" horiz-adv-x="475" 
d="M238 1206q-113 0 -113 110t113 109q46 1 78 -27t32 -83t-32 -82t-78 -27zM156 0v1038h166v-1038h-166z" />
    <glyph glyph-name="iogonek.sc" horiz-adv-x="475" 
d="M100 -229q0 -33 24 -57t74 -24t124 54v-141q-82 -45 -176 -45t-153 50t-59 146t111 185l111 88v1011h166v-1038l-154 -119q-68 -55 -68 -110z" />
    <glyph glyph-name="jcircumflex.sc" horiz-adv-x="849" 
d="M541 1487h166l208 -320h-151l-141 207l-138 -207h-151zM350 123q199 0 199 235v680h158v-688q-1 -182 -95 -274t-262 -92q-209 -1 -297 163l121 76q57 -100 176 -100z" />
    <glyph glyph-name="kcommaaccent.sc" horiz-adv-x="1058" 
d="M612 -139l-110 -303h-127l51 303h186zM322 0h-166v1038h166v-489l491 489h201l-418 -430l418 -608h-197l-334 494l-161 -152v-342z" />
    <glyph glyph-name="lacute.sc" horiz-adv-x="837" 
d="M324 1487h168l-179 -318h-145zM322 135h469v-135h-635v1038h166v-903z" />
    <glyph glyph-name="lcaron.sc" horiz-adv-x="909" 
d="M856 1038l-106 -319h-123l51 319h178zM322 135h469v-135h-635v1038h166v-903z" />
    <glyph glyph-name="lcommaaccent.sc" horiz-adv-x="837" 
d="M549 -139l-111 -303h-127l51 303h187zM322 135h469v-135h-635v1038h166v-903z" />
    <glyph glyph-name="lslash.sc" horiz-adv-x="856" 
d="M338 135h469v-135h-635v401l-121 -51v135l121 52v501h166v-430l151 66v-137l-151 -66v-336z" />
    <glyph glyph-name="ldot.sc" horiz-adv-x="907" 
d="M680 473q-113 0 -113 110t113 109q47 0 79 -28t32 -82q0 -55 -32 -82t-79 -27zM322 135h469v-135h-635v1038h166v-903z" />
    <glyph glyph-name="nacute.sc" horiz-adv-x="1179" 
d="M674 1487h168l-178 -318h-146zM860 1038h166v-1038h-172l-532 782v-782h-168l2 1038h176l528 -774v774z" />
    <glyph glyph-name="ncaron.sc" horiz-adv-x="1179" 
d="M674 1167h-166l-207 320h152l139 -207l139 207h152zM860 1038h166v-1038h-172l-532 782v-782h-168l2 1038h176l528 -774v774z" />
    <glyph glyph-name="ntilde.sc" horiz-adv-x="1179" 
d="M742 1286q-54 0 -146 -40t-166 -40t-125 51l12 125q49 -49 111 -49t150 39t158 39t141 -49l-13 -129q-68 53 -122 53zM860 1038h166v-1038h-172l-532 782v-782h-168l2 1038h176l528 -774v774z" />
    <glyph glyph-name="ncommaaccent.sc" horiz-adv-x="1179" 
d="M690 -139l-110 -303h-127l51 303h186zM860 1038h166v-1038h-172l-532 782v-782h-168l2 1038h176l528 -774v774z" />
    <glyph glyph-name="ograve.sc" horiz-adv-x="1130" 
d="M324 1487h168l155 -318h-145zM1028 518q0 -246 -113 -390t-351 -144t-350 144t-112 390t112 391t352 145t350 -144q112 -146 112 -392zM272 518q0 -190 66 -292t226 -103q160 0 228 102q66 103 66 293t-66 294q-67 103 -227 103q-293 0 -293 -397z" />
    <glyph glyph-name="oacute.sc" horiz-adv-x="1130" 
d="M645 1487h168l-178 -318h-146zM1028 518q0 -246 -113 -390t-351 -144t-350 144t-112 390t112 391t352 145t350 -144q112 -146 112 -392zM272 518q0 -190 66 -292t226 -103q160 0 228 102q66 103 66 293t-66 294q-67 103 -227 103q-293 0 -293 -397z" />
    <glyph glyph-name="ocircumflex.sc" horiz-adv-x="1130" 
d="M481 1487h166l209 -320h-151l-142 207l-137 -207h-152zM1028 518q0 -246 -113 -390t-351 -144t-350 144t-112 390t112 391t352 145t350 -144q112 -146 112 -392zM272 518q0 -190 66 -292t226 -103q160 0 228 102q66 103 66 293t-66 294q-67 103 -227 103
q-293 0 -293 -397z" />
    <glyph glyph-name="otilde.sc" horiz-adv-x="1130" 
d="M716 1286q-54 0 -146 -40t-166 -40t-125 51l12 125q49 -49 111 -49t149 39q89 39 159 39t140 -49l-12 -129q-68 53 -122 53zM1028 518q0 -246 -113 -390t-351 -144t-350 144t-112 390t112 391t352 145t350 -144q112 -146 112 -392zM272 518q0 -190 66 -292t226 -103
q160 0 228 102q66 103 66 293t-66 294q-67 103 -227 103q-293 0 -293 -397z" />
    <glyph glyph-name="odieresis.sc" horiz-adv-x="1130" 
d="M752 1206q-113 0 -113 110t113 109q46 1 78 -27t32 -83t-32 -82t-78 -27zM379 1206q-113 0 -113 110t113 109q47 1 79 -27t32 -83t-32 -82t-79 -27zM1028 518q0 -246 -113 -390t-351 -144t-350 144t-112 390t112 391t352 145t350 -144q112 -146 112 -392zM272 518
q0 -190 66 -292t226 -103q160 0 228 102q66 103 66 293t-66 294q-67 103 -227 103q-293 0 -293 -397z" />
    <glyph glyph-name="omacron.sc" horiz-adv-x="1130" 
d="M279 1364h571v-135h-571v135zM1028 518q0 -246 -113 -390t-351 -144t-350 144t-112 390t112 391t352 145t350 -144q112 -146 112 -392zM272 518q0 -190 66 -292t226 -103q160 0 228 102q66 103 66 293t-66 294q-67 103 -227 103q-293 0 -293 -397z" />
    <glyph glyph-name="obreve.sc" horiz-adv-x="1130" 
d="M848 1440q0 -125 -77 -204t-206 -79t-205 79t-75 204h114q4 -70 48 -114t117 -44t117 44t48 114h119zM1028 518q0 -246 -113 -390t-351 -144t-350 144t-112 390t112 391t352 145t350 -144q112 -146 112 -392zM272 518q0 -190 66 -292t226 -103q160 0 228 102
q66 103 66 293t-66 294q-67 103 -227 103q-293 0 -293 -397z" />
    <glyph glyph-name="ohungarumlaut.sc" horiz-adv-x="1130" 
d="M799 1487h168l-179 -318h-145zM483 1487h168l-178 -318h-145zM1028 518q0 -246 -113 -390t-351 -144t-350 144t-112 390t112 391t352 145t350 -144q112 -146 112 -392zM272 518q0 -190 66 -292t226 -103q160 0 228 102q66 103 66 293t-66 294q-67 103 -227 103
q-293 0 -293 -397z" />
    <glyph glyph-name="oslash.sc" horiz-adv-x="1130" 
d="M272 518q0 -145 35 -235l438 577q-68 55 -180 55q-293 0 -293 -397zM858 499q0 171 -41 265l-444 -580q68 -61 190 -61q162 0 229 102q66 103 66 274zM1028 517q0 -245 -113 -389t-352 -144q-174 0 -282 79l-48 -63h-141l109 143q-99 133 -99 377t112 389t351 146
q166 0 273 -74l45 57h145l-104 -137q104 -139 104 -384z" />
    <glyph glyph-name="oslashacute.sc" horiz-adv-x="1130" 
d="M272 518q0 -145 35 -235l438 577q-68 55 -180 55q-293 0 -293 -397zM858 499q0 171 -41 265l-444 -580q68 -61 190 -61q162 0 229 102q66 103 66 274zM1028 517q0 -245 -113 -389t-352 -144q-174 0 -282 79l-48 -63h-141l109 143q-99 133 -99 377t112 389t351 146
q166 0 273 -74l45 57h145l-104 -137q104 -139 104 -384zM639 1487h168l-178 -318h-146z" />
    <glyph glyph-name="oe.sc" horiz-adv-x="1499" 
d="M563 123q82 0 137 18v752q-57 23 -135 22q-293 0 -293 -397q0 -190 66 -292t225 -103zM866 135h531v-135h-676q-72 -16 -158 -16q-237 0 -349 144t-112 390t112 391t351 146q82 0 158 -17h668v-135h-525v-309h461v-135h-461v-324z" />
    <glyph glyph-name="racute.sc" horiz-adv-x="1040" 
d="M561 1487h168l-178 -318h-145zM774 741q0 162 -235 162h-217v-325h217q127 0 181 40t54 123zM156 0v1038h397q393 0 393 -297q0 -119 -73 -193t-207 -91l307 -457h-189l-288 442h-174v-442h-166z" />
    <glyph glyph-name="rcaron.sc" horiz-adv-x="1040" 
d="M563 1167h-166l-207 320h152l139 -207l140 207h151zM774 741q0 162 -235 162h-217v-325h217q127 0 181 40t54 123zM156 0v1038h397q393 0 393 -297q0 -119 -73 -193t-207 -91l307 -457h-189l-288 442h-174v-442h-166z" />
    <glyph glyph-name="rcommaaccent.sc" horiz-adv-x="1042" 
d="M596 -139l-111 -303h-127l52 303h186zM774 741q0 162 -235 162h-217v-325h217q127 0 181 40t54 123zM156 0v1038h397q393 0 393 -297q0 -119 -73 -193t-207 -91l307 -457h-189l-288 442h-174v-442h-166z" />
    <glyph glyph-name="sacute.sc" horiz-adv-x="946" 
d="M561 1487h168l-178 -318h-145zM487 915q-94 0 -145 -45t-51 -108t35 -96t110 -54l148 -41q270 -78 270 -278q0 -141 -105 -225t-284 -84q-289 0 -389 192l119 88q35 -68 94 -104t171 -37q112 0 167 43t55 117q0 102 -156 145l-147 41q-260 76 -260 276q0 131 94 221
t274 89q251 0 353 -154l-119 -88q-72 102 -234 102z" />
    <glyph glyph-name="scircumflex.sc" horiz-adv-x="946" 
d="M393 1487h166l209 -320h-152l-141 207l-137 -207h-152zM487 915q-94 0 -145 -45t-51 -108t35 -96t110 -54l148 -41q270 -78 270 -278q0 -141 -105 -225t-284 -84q-289 0 -389 192l119 88q35 -68 94 -104t171 -37q112 0 167 43t55 117q0 102 -156 145l-147 41
q-260 76 -260 276q0 131 94 221t274 89q251 0 353 -154l-119 -88q-72 102 -234 102z" />
    <glyph glyph-name="scaron.sc" horiz-adv-x="946" 
d="M559 1167h-166l-207 320h152l139 -207l139 207h152zM487 915q-94 0 -145 -45t-51 -108t35 -96t110 -54l148 -41q270 -78 270 -278q0 -141 -105 -225t-284 -84q-289 0 -389 192l119 88q35 -68 94 -104t171 -37q112 0 167 43t55 117q0 102 -156 145l-147 41
q-260 76 -260 276q0 131 94 221t274 89q251 0 353 -154l-119 -88q-72 102 -234 102z" />
    <glyph glyph-name="scedilla.sc" horiz-adv-x="946" 
d="M487 915q-94 0 -145 -45t-51 -108t35 -96t110 -54l148 -41q270 -78 270 -278q0 -129 -86 -209t-233 -96l-37 -99q188 0 188 -165q0 -70 -56 -118t-150 -48t-183 45v118q78 -57 168 -57q39 0 61 16t23 44q0 70 -111 69h-73l-9 12l62 181q-256 16 -342 190l119 88
q35 -68 94 -104t171 -37q112 0 167 43t55 117q0 102 -156 145l-147 41q-260 76 -260 276q0 131 94 221t274 89q251 0 353 -154l-119 -88q-72 102 -234 102z" />
    <glyph glyph-name="scommaaccent.sc" horiz-adv-x="946" 
d="M582 -139l-111 -303h-127l51 303h187zM487 915q-94 0 -145 -45t-51 -108t35 -96t110 -54l148 -41q270 -78 270 -278q0 -141 -105 -225t-284 -84q-289 0 -389 192l119 88q35 -68 94 -104t171 -37q112 0 167 43t55 117q0 102 -156 145l-147 41q-260 76 -260 276
q0 131 94 221t274 89q251 0 353 -154l-119 -88q-72 102 -234 102z" />
    <glyph glyph-name="tcaron.sc" horiz-adv-x="931" 
d="M549 1167h-166l-207 320h152l139 -207l139 207h152zM66 1038h798v-135h-315v-903h-166v903h-317v135z" />
    <glyph glyph-name="tcommaaccent.sc" horiz-adv-x="931" 
d="M66 1038h798v-135h-315v-903h-25l-43 -111q188 0 189 -165q0 -70 -56 -118t-150 -48q-93 0 -183 45v118q78 -57 168 -57q39 0 61 16t22 44q0 70 -110 69h-74l-8 12l68 195h-25v903h-317v135z" />
    <glyph glyph-name="uni021A.sc" horiz-adv-x="937" 
d="M70 1038h798v-135h-315v-903h-166v903h-317v135zM559 -139l-110 -303h-127l51 303h186z" />
    <glyph glyph-name="tbar.sc" horiz-adv-x="944" 
d="M215 567h174v336h-317v135h798v-135h-315v-336h174v-129h-174v-438h-166v438h-174v129z" />
    <glyph glyph-name="thorn.sc" horiz-adv-x="985" 
d="M322 705v-373h190q225 0 225 186t-225 187h-190zM522 199h-200v-199h-166v1038h166v-198h200q193 0 289 -83t96 -238t-96 -237t-289 -83z" />
    <glyph glyph-name="ugrave.sc" horiz-adv-x="1126" 
d="M317 1487h168l156 -318h-145zM983 391q-1 -211 -113 -309t-308 -98t-308 99t-111 308v647h166v-647q1 -139 63 -203t190 -63q128 0 192 63q63 63 63 203v647h166v-647z" />
    <glyph glyph-name="uacute.sc" horiz-adv-x="1126" 
d="M641 1487h168l-178 -318h-146zM983 391q-1 -211 -113 -309t-308 -98t-308 99t-111 308v647h166v-647q1 -139 63 -203t190 -63q128 0 192 63q63 63 63 203v647h166v-647z" />
    <glyph glyph-name="ucircumflex.sc" horiz-adv-x="1126" 
d="M479 1487h166l209 -320h-152l-141 207l-137 -207h-152zM983 391q-1 -211 -113 -309t-308 -98t-308 99t-111 308v647h166v-647q1 -139 63 -203t190 -63q128 0 192 63q63 63 63 203v647h166v-647z" />
    <glyph glyph-name="utilde.sc" horiz-adv-x="1126" 
d="M714 1286q-54 0 -146 -40t-166 -40t-126 51l13 125q49 -49 111 -49t151 39q87 39 157 39t140 -49l-12 -129q-68 53 -122 53zM983 391q-1 -211 -113 -309t-308 -98t-308 99t-111 308v647h166v-647q1 -139 63 -203t190 -63q128 0 192 63q63 63 63 203v647h166v-647z" />
    <glyph glyph-name="udieresis.sc" horiz-adv-x="1126" 
d="M750 1206q-113 0 -113 110t113 109q46 1 78 -27t32 -83t-32 -82t-78 -27zM377 1206q-113 0 -113 110t113 109q47 1 79 -27t32 -83t-32 -82t-79 -27zM983 391q-1 -211 -113 -309t-308 -98t-308 99t-111 308v647h166v-647q1 -139 63 -203t190 -63q128 0 192 63
q63 63 63 203v647h166v-647z" />
    <glyph glyph-name="umacron.sc" horiz-adv-x="1126" 
d="M276 1364h572v-135h-572v135zM983 391q-1 -211 -113 -309t-308 -98t-308 99t-111 308v647h166v-647q1 -139 63 -203t190 -63q128 0 192 63q63 63 63 203v647h166v-647z" />
    <glyph glyph-name="ubreve.sc" horiz-adv-x="1126" 
d="M846 1440q0 -125 -77 -204t-206 -79t-205 79t-75 204h114q4 -70 48 -114t117 -44t117 44t48 114h119zM983 391q-1 -211 -113 -309t-308 -98t-308 99t-111 308v647h166v-647q1 -139 63 -203t190 -63q128 0 192 63q63 63 63 203v647h166v-647z" />
    <glyph glyph-name="uring.sc" horiz-adv-x="1126" 
d="M459 1331q1 -45 27 -71t76 -27q50 0 79 27q29 28 29 72t-29 72t-78 28t-77 -28t-27 -73zM564 1137q-98 0 -156 56t-58 139t58 138q58 56 155 56q99 0 157 -56t58 -138q0 -83 -58 -139t-156 -56zM983 391q-1 -211 -113 -309t-308 -98t-308 99t-111 308v647h166v-647
q1 -139 63 -203t190 -63q128 0 192 63q63 63 63 203v647h166v-647z" />
    <glyph glyph-name="uhungarumlaut.sc" horiz-adv-x="1126" 
d="M799 1487h168l-179 -318h-145zM483 1487h168l-178 -318h-145zM983 391q-1 -211 -113 -309t-308 -98t-308 99t-111 308v647h166v-647q1 -139 63 -203t190 -63q128 0 192 63q63 63 63 203v647h166v-647z" />
    <glyph glyph-name="uogonek.sc" horiz-adv-x="1126" 
d="M983 391q0 -317 -262 -389l-139 -106q-68 -55 -68 -111q0 -31 24 -55t74 -25q50 0 123 53v-141q-82 -45 -176 -45t-152 50q-59 50 -59 146t111 185l41 33q-168 14 -262 113t-95 292v647h166v-647q1 -139 63 -203t190 -63q128 0 192 63q63 63 63 203v647h166v-647z" />
    <glyph glyph-name="wacute.sc" horiz-adv-x="1654" 
d="M911 1487h168l-178 -318h-145zM731 1038h191l258 -854l247 854h172l-311 -1038h-207l-254 817l-256 -817h-202l-314 1038h172l248 -854z" />
    <glyph glyph-name="wcircumflex.sc" horiz-adv-x="1654" 
d="M745 1487h166l209 -320h-151l-142 207l-137 -207h-151zM731 1038h191l258 -854l247 854h172l-311 -1038h-207l-254 817l-256 -817h-202l-314 1038h172l248 -854z" />
    <glyph glyph-name="wdieresis.sc" horiz-adv-x="1654" 
d="M1016 1206q-113 0 -113 110t113 109q47 1 79 -27q31 -28 31 -83t-32 -82t-78 -27zM643 1206q-113 0 -113 110t113 109q47 1 79 -27t32 -83t-32 -82t-79 -27zM731 1038h191l258 -854l247 854h172l-311 -1038h-207l-254 817l-256 -817h-202l-314 1038h172l248 -854z" />
    <glyph glyph-name="wgrave.sc" horiz-adv-x="1654" 
d="M575 1487h168l156 -318h-145zM731 1038h191l258 -854l247 854h172l-311 -1038h-207l-254 817l-256 -817h-202l-314 1038h172l248 -854z" />
    <glyph glyph-name="yacute.sc" horiz-adv-x="999" 
d="M582 1487h168l-179 -318h-145zM582 0h-166v410l-381 628h182l283 -481l280 481h187l-385 -628v-410z" />
    <glyph glyph-name="ycircumflex.sc" horiz-adv-x="999" 
d="M418 1487h166l209 -320h-152l-141 207l-138 -207h-151zM582 0h-166v410l-381 628h182l283 -481l280 481h187l-385 -628v-410z" />
    <glyph glyph-name="ydieresis.sc" horiz-adv-x="999" 
d="M688 1206q-113 0 -113 110t113 109q47 1 79 -27t32 -83t-32 -82t-79 -27zM315 1206q-113 0 -112 109q0 111 112 110q47 1 79 -27t32 -83t-32 -82t-79 -27zM582 0h-166v410l-381 628h182l283 -481l280 481h187l-385 -628v-410z" />
    <glyph glyph-name="ygrave.sc" horiz-adv-x="999" 
d="M260 1487h168l156 -318h-146zM582 0h-166v410l-381 628h182l283 -481l280 481h187l-385 -628v-410z" />
    <glyph glyph-name="zacute.sc" horiz-adv-x="905" 
d="M528 1487h168l-178 -318h-145zM805 1038v-120l-531 -783h545v-135h-741v117l532 786h-504v135h699z" />
    <glyph glyph-name="zcaron.sc" horiz-adv-x="905" 
d="M532 1167h-165l-207 320h151l140 -207l139 207h151zM805 1038v-120l-531 -783h545v-135h-741v117l532 786h-504v135h699z" />
    <glyph glyph-name="zdotaccent.sc" horiz-adv-x="905" 
d="M451 1206q-113 0 -113 110t113 109q47 1 79 -27t31 -83q1 -55 -31 -82t-79 -27zM805 1038v-120l-531 -783h545v-135h-741v117l532 786h-504v135h699z" />
    <glyph glyph-name="ij.sc" horiz-adv-x="1310" 
d="M809 123q199 0 199 235v680h157v-688q0 -182 -94 -274t-262 -92q-209 -1 -297 163l121 76q57 -100 176 -100zM154 0v1038h165v-1038h-165z" />
    <glyph glyph-name="germandbls.sc" horiz-adv-x="1873" 
d="M487 915q-94 0 -145 -45t-51 -108t35 -96t110 -54l148 -41q270 -78 270 -278q0 -141 -105 -225t-284 -84q-289 0 -389 192l119 88q35 -68 94 -104t171 -37q112 0 167 43t55 117q0 102 -156 145l-147 41q-260 76 -260 276q0 131 94 221t274 89q251 0 353 -154l-119 -88
q-72 102 -234 102zM1413 915q-94 0 -145 -45t-51 -108q1 -63 35 -96t110 -54l147 -41q270 -78 271 -278q0 -141 -106 -225t-283 -84q-289 0 -390 192l119 88q35 -68 94 -104t171 -37q112 0 167 43t56 117q0 102 -156 145l-147 41q-260 76 -261 276q0 131 94 221t275 89
q250 0 352 -154l-118 -88q-72 102 -234 102z" />
    <glyph glyph-name="fi.sc" horiz-adv-x="1411" 
d="M1092 0v1038h165v-1038h-165zM156 0v1038h671v-135h-505v-336h432v-135h-432v-432h-166z" />
    <glyph glyph-name="fl.sc" horiz-adv-x="1771" 
d="M1255 135h469v-135h-634v1038h165v-903zM156 0v1038h671v-135h-505v-336h432v-135h-432v-432h-166z" />
    <glyph glyph-name="eng.sc" horiz-adv-x="1177" 
d="M858 1038h166v-1061q0 -240 -201 -329l-100 112q75 31 103 82t32 152l-539 788v-782h-167l2 1038h176l528 -774v774z" />
    <glyph glyph-name="grave.sc" horiz-adv-x="1228" 
d="M453 1487h168l155 -318h-145z" />
    <glyph glyph-name="acute.sc" horiz-adv-x="1228" 
d="M608 1487h168l-178 -318h-145z" />
    <glyph glyph-name="circumflex.sc" horiz-adv-x="1228" 
d="M530 1487h166l209 -320h-151l-142 207l-137 -207h-151z" />
    <glyph glyph-name="caron.sc" horiz-adv-x="1228" 
d="M696 1167h-166l-206 320h151l139 -207l140 207h151z" />
    <glyph glyph-name="caronalt.sc" horiz-adv-x="1228" 
d="M729 1038l-106 -319h-123l51 319h178z" />
    <glyph glyph-name="tilde.sc" horiz-adv-x="1228" 
d="M765 1286q-55 0 -147 -40t-166 -40t-124 51l12 125q50 -49 112 -49t149 39t157 39t141 -49l-12 -129q-68 53 -122 53z" />
    <glyph glyph-name="dieresis.sc" horiz-adv-x="1228" 
d="M801 1206q-113 0 -113 110t113 109q47 1 79 -27t32 -83t-32 -82t-79 -27zM428 1206q-113 0 -113 110t113 109q47 1 79 -27t32 -83t-32 -82t-79 -27z" />
    <glyph glyph-name="macron.sc" horiz-adv-x="1228" 
d="M328 1364h571v-135h-571v135z" />
    <glyph glyph-name="breve.sc" horiz-adv-x="1228" 
d="M895 1440q0 -125 -77 -204t-206 -79q-128 0 -204 79t-76 204h114q4 -70 48 -114t118 -44q72 0 116 44t48 114h119z" />
    <glyph glyph-name="ring.sc" horiz-adv-x="1228" 
d="M508 1331q0 -45 27 -71t77 -27q50 0 78 27q29 28 29 72t-29 72t-78 28q-48 0 -76 -28t-28 -73zM612 1137q-98 0 -156 56t-57 139q-1 83 57 138q58 56 156 56t156 -56t59 -138q0 -83 -58 -139q-59 -56 -157 -56z" />
    <glyph glyph-name="hungarumlaut.sc" horiz-adv-x="1228" 
d="M766 1487h168l-178 -318h-146zM451 1487h167l-178 -318h-145z" />
    <glyph glyph-name="dotaccent.sc" horiz-adv-x="1228" 
d="M614 1206q-113 0 -112 109q0 111 112 110q47 1 79 -27t32 -83t-32 -82t-79 -27z" />
    <glyph glyph-name="exclamdown.sc" horiz-adv-x="456" 
d="M228 1049q48 0 80 -29t32 -73t-32 -74q-32 -29 -80 -29t-80 30t-32 73q0 44 32 73t80 29zM166 705h129l27 -705h-187z" />
    <glyph glyph-name="questiondown.sc" horiz-adv-x="784" 
d="M404 -16q-150 0 -238 76t-88 187q0 110 90 202q37 37 75 73q91 87 91 183h158q0 -80 -40 -148q-40 -67 -88 -107q-130 -107 -128 -190q0 -57 43 -97t117 -40t118 35q43 35 43 88l152 -17q0 -105 -77 -175q-78 -70 -228 -70zM414 1049q47 0 79 -29q31 -29 31 -73t-32 -74
q-32 -29 -78 -29q-47 0 -79 30t-32 73q0 44 32 73t79 29z" />
    <glyph glyph-name="Euro.sc" horiz-adv-x="999" 
d="M90 670h92q57 385 428 385q147 0 291 -64l-53 -135q-119 55 -240 55q-219 0 -260 -241h422l-41 -103h-391q-2 -14 -2 -51t2 -55h350l-39 -103h-295q49 -233 264 -233q129 0 244 68l41 -140q-135 -70 -293 -69q-365 0 -426 374h-94v103h82q-2 20 -2 56t2 50h-82v103z" />
    <glyph glyph-name="cent.sc" horiz-adv-x="835" 
d="M252 348q0 -154 88 -209l117 447h-6q-199 0 -199 -238zM100 348q0 164 85 266t255 103q33 0 49 -2l31 114l88 -18l-30 -117q100 -37 153 -127l-104 -73q-31 49 -82 71l-119 -452h25q119 0 178 94l102 -76q-82 -147 -291 -147l-47 2l-24 -95l-88 19l24 94
q-205 74 -205 344z" />
    <glyph glyph-name="sterling.sc" horiz-adv-x="978" 
d="M86 510h109v172q0 164 86 268q87 104 283 104t331 -149l-100 -102q-100 109 -240 108q-201 0 -201 -231v-170h305v-102h-305v-279h473v-129h-632v408h-109v102z" />
    <glyph glyph-name="florin.sc" horiz-adv-x="653" 
d="M375 569v-682q1 -102 -57 -169t-173 -66q-59 0 -118 16v133q47 -12 88 -12q111 0 110 127v653h-157v129h157v142q-1 102 57 169t177 66q59 0 112 -14v-133q-51 10 -99 10q-99 0 -97 -125v-115h170v-129h-170z" />
    <glyph glyph-name="yen.sc" horiz-adv-x="1024" 
d="M135 463h266l-61 104h-205v103h148l-215 368h180l260 -471l266 471h182l-221 -368h150v-103h-209l-66 -104h275v-105h-299v-358h-160v358h-291v105z" />
    <glyph glyph-name="rupee.sc" horiz-adv-x="950" 
d="M115 1038h741v-110h-205q63 -57 76 -150h129v-94h-131q-11 -94 -73 -159t-167 -85l291 -440h-192l-275 420h-194v133h172q133 0 192 31t70 100h-434v94h434q-11 66 -59 98t-154 31h-221v131z" />
    <glyph glyph-name="perthousand.sc" horiz-adv-x="1935" 
d="M1612 557q246 0 246 -283t-246 -282q-246 0 -246 282t246 283zM1491 274q0 -190 122 -190t122 190q0 98 -29 144q-28 46 -94 47q-66 0 -94 -46t-27 -145zM80 764q0 283 245 283t245 -283t-246 -283q-244 0 -244 283zM203 764q-1 -98 27 -144t95 -47q67 1 95 47t26 144
q0 98 -27 144q-28 46 -95 46q-121 0 -121 -190zM1065 557q246 0 246 -283t-246 -282q-246 0 -246 282t246 283zM1065 84q65 0 93 47t28 144t-28 143t-94 47q-66 0 -92 -46q-28 -46 -28 -145q0 -190 121 -190zM1096 1038l-674 -1038h-129l670 1038h133z" />
    <glyph glyph-name="zero.tf" 
d="M573 1405q250 0 369 -187q119 -188 119 -526t-119 -525t-369 -187q-487 0 -487 712q0 338 118 526t369 187zM573 129q162 0 236 142t74 421t-74 421t-236 142q-311 0 -311 -563t311 -563z" />
    <glyph glyph-name="one.tf" 
d="M174 0v150h365v1062l-349 -143l-47 139l414 176h158v-1234h311v-150h-852z" />
    <glyph glyph-name="two.tf" 
d="M143 989q1 188 109 302t304 114t310 -112t113 -289q0 -135 -68 -247t-202 -257l-330 -353h629v-147h-861v129l443 475q109 117 161 209t52 198q0 105 -65 175q-64 70 -180 70t-178 -74q-62 -72 -63 -193h-174z" />
    <glyph glyph-name="three.tf" 
d="M1022 369q0 -174 -126 -283t-341 -109q-215 1 -330 103t-114 260h174q0 -94 73 -153q74 -58 205 -58t207 67q76 68 76 184t-87 186t-235 71h-125v147h125q135 0 217 62t82 170q0 110 -69 175q-70 65 -193 65t-191 -61q-68 -60 -67 -153h-174q0 154 110 258
q111 104 317 104t326 -106t119 -270q0 -125 -73 -208q-74 -82 -183 -107q113 -23 195 -114t82 -230z" />
    <glyph glyph-name="four.tf" 
d="M715 449v694l-479 -694h479zM1083 449v-148h-196v-301h-172v301h-664v131l656 952h180v-935h196z" />
    <glyph glyph-name="five.tf" 
d="M1020 448q0 -206 -121 -338t-342 -132t-332 110q-111 111 -110 281h174q1 -106 69 -173t204 -67t208 87t72 224t-72 213t-203 76t-248 -84l-141 17l86 722h709v-147h-567l-54 -428q127 72 246 72q188 0 305 -113t117 -320z" />
    <glyph glyph-name="six.tf" 
d="M848 1042q0 98 -67 156t-183 57q-156 0 -236 -144t-79 -394q45 61 137 111t203 51q201 0 315 -120t115 -319q0 -198 -121 -330q-120 -132 -354 -132t-354 180q-120 182 -120 512t124 533q124 202 370 202q206 0 314 -102t108 -261h-172zM582 129q143 0 218 84
q74 84 74 223t-73 217q-74 78 -215 78q-96 0 -177 -55t-120 -133q0 -176 75 -295t218 -119z" />
    <glyph glyph-name="seven.tf" 
d="M154 1237v147h852v-129l-510 -1255h-189l506 1237h-659z" />
    <glyph glyph-name="eight.tf" 
d="M272 384q0 -120 82 -188t220 -67q138 0 220 68q80 69 80 189t-84 188t-216 67q-132 0 -217 -68q-85 -69 -85 -189zM574 1255q-126 0 -200 -62t-73 -173q0 -111 76 -172q75 -62 195 -62t197 62t77 172q0 111 -73 173t-199 62zM1053 373q-1 -186 -131 -291t-348 -105
q-218 1 -348 105t-130 291q0 139 79 227t192 115q-109 31 -177 109t-67 200q0 176 122 278q121 102 329 103q208 0 329 -103t121 -278q0 -123 -68 -201t-176 -108q115 -27 194 -114t79 -228z" />
    <glyph glyph-name="nine.tf" 
d="M127 342h174q0 -98 66 -156t180 -57q157 0 237 145t80 396q-47 -60 -139 -112t-201 -52q-202 0 -316 120t-114 318t122 331q122 132 354 132t353 -181q119 -181 119 -512t-124 -533t-371 -201q-205 0 -313 102q-107 102 -107 260zM272 948q0 -139 75 -217t214 -78
q96 1 176 55t121 132q0 178 -75 297t-218 119t-218 -85q-75 -84 -75 -223z" />
    <glyph glyph-name="zero.tosf" 
d="M84 589q0 287 122 449t368 162q245 0 367 -162t122 -450t-123 -448t-368 -160q-244 0 -366 160t-122 449zM573 133q313 0 313 456t-313 455q-313 0 -313 -456t313 -455z" />
    <glyph glyph-name="one.tosf" 
d="M207 0v152h344v849l-336 -122l-49 135l403 164h152v-1026h293v-152h-807z" />
    <glyph glyph-name="two.tosf" 
d="M985 0h-817v119l457 393q98 84 141 151t43 157q-1 90 -63 161q-62 70 -186 70t-183 -71t-60 -192h-165q0 182 109 297t309 115t306 -113t107 -251q0 -138 -62 -231t-180 -187l-323 -279h567v-139z" />
    <glyph glyph-name="three.tosf" 
d="M1022 164q0 -174 -126 -283t-341 -109t-330 103q-115 102 -114 260h174q-1 -94 73 -152q74 -59 205 -59t207 67t76 183t-87 188q-87 70 -235 70h-125v148h125q135 0 217 61t82 171t-69 174q-70 65 -193 65q-123 -1 -191 -61t-67 -152h-174q0 154 110 258q111 104 317 104
t326 -106t119 -271q0 -125 -73 -208q-74 -82 -183 -107q113 -23 195 -114t82 -230z" />
    <glyph glyph-name="four.tosf" 
d="M711 244v694l-480 -694h480zM1079 244v-148h-196v-301h-172v301h-664v131l655 953h181v-936h196z" />
    <glyph glyph-name="five.tosf" 
d="M594 674q188 0 305 -112t117 -320q0 -207 -121 -339t-342 -132q-221 1 -332 111t-110 280h174q1 -106 69 -173t204 -67t208 87t72 225t-72 212q-72 76 -203 76t-248 -84l-141 17l86 723h709v-148h-568l-53 -428q127 72 246 72z" />
    <glyph glyph-name="six.tosf" 
d="M848 1042q0 98 -67 156t-183 57q-156 0 -236 -144t-79 -394q45 61 137 111t203 51q201 0 315 -120t115 -319q0 -198 -121 -330q-120 -132 -354 -132t-354 180q-120 182 -120 512t124 533q124 202 370 202q206 0 314 -102t108 -261h-172zM582 129q143 0 218 84
q74 84 74 223t-73 217q-74 78 -215 78q-96 0 -177 -55t-120 -133q0 -176 75 -295t218 -119z" />
    <glyph glyph-name="seven.tosf" 
d="M156 1032v148h852v-129l-510 -1256h-189l506 1237h-659z" />
    <glyph glyph-name="eight.tosf" 
d="M272 384q0 -120 82 -188t220 -67q138 0 220 68q80 69 80 189t-84 188t-216 67q-132 0 -217 -68q-85 -69 -85 -189zM574 1255q-126 0 -200 -62t-73 -173q0 -111 76 -172q75 -62 195 -62t197 62t77 172q0 111 -73 173t-199 62zM1053 373q-1 -186 -131 -291t-348 -105
q-218 1 -348 105t-130 291q0 139 79 227t192 115q-109 31 -177 109t-67 200q0 176 122 278q121 102 329 103q208 0 329 -103t121 -278q0 -123 -68 -201t-176 -108q115 -27 194 -114t79 -228z" />
    <glyph glyph-name="nine.tosf" 
d="M125 137h174q0 -98 66 -155t180 -58q157 0 237 146t80 395q-47 -59 -139 -111t-201 -53q-202 0 -316 120q-114 121 -114 319t122 330t354 132t353 -181q119 -181 119 -512t-125 -533t-370 -201q-205 0 -313 102q-107 102 -107 260zM563 1051q-143 0 -218 -84
q-75 -83 -75 -223t75 -218t214 -77q96 0 176 54t121 132q0 178 -75 297t-218 119z" />
    <glyph glyph-name="Euro.tf" 
d="M72 885h112q33 246 163 383t362 137q180 0 356 -88l-59 -148q-145 80 -301 80q-291 0 -343 -364h535l-49 -119h-496q-2 -25 -2 -64t4 -96h437l-46 -121h-376q68 -352 346 -352q162 0 313 96l43 -153q-176 -98 -362 -99q-446 0 -523 508h-114v121h102q-2 29 -2 82t2 78
h-102v119z" />
    <glyph glyph-name="cent.tf" 
d="M360 465q0 -227 119 -305l156 647h-19q-256 0 -256 -342zM193 465q0 219 103 354t310 135q23 0 64 -4l37 156l100 -23l-39 -155q123 -47 188 -164l-120 -82q-39 70 -103 100l-160 -655q14 -2 43 -2q150 0 222 127l118 -84q-100 -188 -350 -188q-23 0 -67 4l-29 -125
l-98 22l30 127q-125 47 -187 168t-62 289z" />
    <glyph glyph-name="sterling.tf" 
d="M78 672h137v239q0 219 104 357t326 137q264 0 426 -193l-113 -110q-121 145 -307 145q-266 0 -266 -340v-235h391v-121h-391v-408h604v-143h-774v551h-137v121z" />
    <glyph glyph-name="florin.tf" 
d="M647 788v-935q0 -137 -68 -227q-69 -89 -210 -89q-78 0 -133 19v147q50 -14 118 -14q134 0 131 188v911h-198v144h198v186q0 140 69 228t214 88q68 0 127 -19v-147q-66 14 -107 14q-78 0 -110 -46t-31 -140v-164h215v-144h-215z" />
    <glyph glyph-name="yen.tf" 
d="M125 606h334l-86 160h-248v121h182l-274 497h192l346 -659l351 659h194l-282 -497h184v-121h-252l-90 -160h342v-119h-365v-487h-172v487h-356v119z" />
    <glyph glyph-name="rupee.tf" 
d="M141 1384h887v-118h-258q90 -76 104 -224h154v-120h-154q-16 -129 -106 -216t-236 -108l377 -598h-202l-361 580h-205v143h219q295 0 332 199h-549v120h551q-20 100 -91 150t-218 49h-244v143z" />
    <glyph glyph-name="dollar.tf" 
d="M324 1015q0 -87 47 -135t149 -79l2 -2v446q-96 -19 -147 -81t-51 -149zM860 366q0 92 -55 142q-55 51 -168 84v-457q111 15 167 77t56 154zM637 -211h-115v191q-317 14 -428 260l131 92q39 -86 105 -138t192 -61v492l-59 18q-317 98 -318 361q1 154 97 266t280 131v153
h115v-151q139 -9 236 -65t149 -136l-131 -96q-80 129 -254 143v-483l72 -21q163 -49 247 -136t84 -241t-108 -262q-108 -109 -295 -124v-193z" />
    <glyph glyph-name="zero.osf" horiz-adv-x="1222" 
d="M612 1200q248 0 373 -162t125 -450t-125 -448t-375 -160t-374 160t-123 449q-1 287 125 449t374 162zM288 588q0 -456 323 -455q323 0 323 456t-322 455q-324 0 -324 -456z" />
    <glyph glyph-name="one.osf" horiz-adv-x="770" 
d="M598 0h-168v1014l-340 -140l-45 136l401 168h152v-1178z" />
    <glyph glyph-name="two.osf" horiz-adv-x="1054" 
d="M940 0h-817v119l457 393q98 84 141 151t43 157t-62 161q-62 70 -187 70q-124 0 -183 -71t-60 -192h-166q0 182 110 297t310 115t305 -113q107 -113 107 -251t-62 -231t-180 -187l-323 -279h567v-139z" />
    <glyph glyph-name="three.osf" horiz-adv-x="1120" 
d="M1010 164q0 -174 -126 -283t-341 -109t-330 103q-115 102 -115 260h174q0 -94 74 -152q74 -59 205 -59t207 67t76 183t-88 188q-88 70 -234 70h-125v148h125q135 0 217 61t82 171t-70 174q-71 65 -193 65q-122 -1 -190 -61t-67 -152h-174q0 154 109 258q110 104 317 104
t327 -106t119 -271q1 -125 -73 -207t-183 -108q113 -23 195 -114t82 -230z" />
    <glyph glyph-name="four.osf" horiz-adv-x="1187" 
d="M733 244v694l-479 -694h479zM1102 244v-148h-197v-301h-172v301h-663v131l655 953h180v-936h197z" />
    <glyph glyph-name="five.osf" horiz-adv-x="1093" 
d="M567 676q188 0 305 -112t117 -320q0 -207 -121 -339t-342 -132q-222 1 -332 111t-110 280h174q0 -106 69 -173t205 -67t207 87q72 87 72 225t-72 213q-73 75 -203 75t-247 -84l-142 17l86 723h709v-148h-567l-53 -428q127 72 245 72z" />
    <glyph glyph-name="six.osf" horiz-adv-x="1159" 
d="M854 1042q0 98 -67 156t-183 57q-156 0 -236 -144t-79 -394q45 61 137 111t203 51q201 0 315 -120t115 -319q0 -198 -121 -330q-120 -132 -354 -132t-354 180q-120 182 -120 512t124 533q124 202 370 202q205 0 314 -102t108 -261h-172zM588 129q143 0 218 84t75 223
t-74 217t-215 78q-96 0 -177 -55t-120 -133q0 -176 75 -295t218 -119z" />
    <glyph glyph-name="seven.osf" horiz-adv-x="1001" 
d="M82 1032v148h852v-129l-510 -1256h-188l505 1237h-659z" />
    <glyph glyph-name="eight.osf" horiz-adv-x="1175" 
d="M287 384q0 -120 82 -188t220 -67q138 0 219 68q81 69 81 189t-85 188t-216 67q-131 0 -216 -68q-85 -69 -85 -189zM860 1020q0 111 -72 173t-199 62q-126 0 -200 -62t-74 -173t76 -172q76 -62 196 -62q121 0 197 62t76 172zM589 -23q-218 1 -348 105t-130 291
q0 139 78 227q79 88 192 115q-109 31 -177 109t-67 200q0 176 122 278t330 103q208 0 329 -103t120 -278q0 -123 -68 -201t-175 -108q115 -27 193 -114t79 -228q0 -186 -130 -291t-348 -105z" />
    <glyph glyph-name="nine.osf" horiz-adv-x="1157" 
d="M131 137h174q0 -98 66 -155t180 -58q157 0 237 146t80 395q-47 -59 -139 -111t-201 -53q-202 0 -316 120q-114 121 -114 319t122 330t354 132t353 -181q120 -181 120 -512t-125 -533t-371 -201q-205 0 -313 102t-107 260zM569 1051q-143 0 -218 -84q-75 -83 -75 -223
t75 -218t214 -77q96 0 176 54t121 132q0 178 -75 297t-218 119z" />
    <glyph glyph-name="zero.denom" horiz-adv-x="716" 
d="M358 729q292 0 293 -370q0 -370 -293 -369q-292 0 -292 370t292 369zM358 94q86 0 124 66t38 200t-38 199q-38 66 -124 66q-162 1 -162 -265t162 -266z" />
    <glyph glyph-name="one.denom" horiz-adv-x="473" 
d="M375 0h-129v600l-207 -76l-31 99l254 94h113v-717z" />
    <glyph glyph-name="two.denom" horiz-adv-x="626" 
d="M59 500q1 104 63 166t179 63q117 0 185 -60q68 -61 69 -143q0 -82 -41 -142t-119 -134l-157 -148h327v-102h-499v88l245 236q111 104 111 190q0 49 -31 80t-86 31q-119 0 -119 -125h-127z" />
    <glyph glyph-name="three.denom" horiz-adv-x="651" 
d="M588 182q0 -80 -74 -138q-74 -56 -200 -56t-192 55t-67 143h129q0 -44 36 -68t98 -24t101 28q38 28 38 79t-43 83t-121 31h-72v103h72q71 0 111 28t40 75q0 48 -34 76t-92 28t-91 -26t-32 -67h-129q0 86 63 142t185 55q122 0 192 -56t69 -145q0 -61 -39 -104t-98 -57
q62 -13 106 -59t44 -126z" />
    <glyph glyph-name="four.denom" horiz-adv-x="673" 
d="M401 246v307l-233 -307h233zM629 246v-103h-101v-143h-127v143h-368v93l362 481h133v-471h101z" />
    <glyph glyph-name="five.denom" horiz-adv-x="632" 
d="M336 463q104 -1 173 -59t69 -168t-71 -180q-71 -68 -201 -68t-194 57t-65 150h129q0 -45 34 -73t100 -28t101 38t35 96t-35 94q-36 34 -103 34t-122 -37l-102 13l49 385h416v-103h-311l-25 -182q61 31 123 31z" />
    <glyph glyph-name="six.denom" horiz-adv-x="677" 
d="M358 625q-82 -1 -122 -63t-39 -169q65 66 179 66q114 -1 178 -63t64 -166t-70 -173t-208 -69q-137 0 -207 94t-70 264t73 276t208 107q134 0 196 -55t62 -142h-129q0 93 -115 93zM344 94q70 0 107 36t37 97t-37 98q-37 36 -105 35q-96 1 -147 -81q0 -81 37 -133
q38 -52 108 -52z" />
    <glyph glyph-name="seven.denom" horiz-adv-x="563" 
d="M35 614v103h500v-88l-289 -629h-140l285 614h-356z" />
    <glyph glyph-name="eight.denom" horiz-adv-x="688" 
d="M344 625q-61 0 -97 -28t-36 -76t37 -75q37 -26 95 -26t96 26t38 75q0 48 -36 76t-97 28zM492 205q0 51 -40 81t-107 31q-67 -1 -109 -31t-41 -81q0 -51 42 -81t107 -30t107 30q41 30 41 81zM344 -12q-127 0 -204 55t-77 152q0 137 142 174q-127 41 -127 157q0 94 72 148
t194 55q122 0 194 -54q71 -54 70 -149q0 -117 -125 -157q141 -37 142 -174q0 -95 -77 -151t-204 -56z" />
    <glyph glyph-name="nine.denom" horiz-adv-x="677" 
d="M76 184h129q0 -42 32 -66t82 -24q162 0 162 232q-69 -68 -181 -68t-176 62t-65 167q0 104 71 173t208 69t207 -94q69 -94 69 -264t-72 -277q-73 -106 -223 -106q-119 0 -181 55t-62 141zM334 358q98 0 145 82q0 80 -37 132q-38 52 -108 52t-106 -36t-36 -98t36 -97
t106 -35z" />
    <glyph glyph-name="zero.num" horiz-adv-x="724" 
d="M653 1023q0 -370 -293 -370q-292 0 -292 370t292 370t293 -370zM360 758q86 0 124 66t38 199q0 134 -38 200t-124 65q-162 0 -162 -265t162 -265z" />
    <glyph glyph-name="one.num" horiz-adv-x="483" 
d="M379 664h-129v600l-207 -76l-31 98l254 94h113v-716z" />
    <glyph glyph-name="two.num" horiz-adv-x="636" 
d="M63 1163q1 104 63 167t179 63q117 -1 185 -61t69 -142q0 -82 -41 -142t-119 -135l-157 -147h327v-102h-499v88l245 235q111 104 111 191q0 50 -31 80t-86 30q-119 0 -119 -125h-127z" />
    <glyph glyph-name="three.num" horiz-adv-x="661" 
d="M592 845q0 -81 -74 -137t-200 -56t-192 54q-67 56 -67 144h129q0 -43 36 -68q36 -24 98 -24t101 28q38 28 38 78q0 51 -43 83t-121 32h-72v102h72q70 0 111 28t41 76t-35 76q-35 27 -92 27t-91 -25q-33 -26 -32 -67h-129q0 86 63 141t185 55t192 -56t70 -130t-39 -119
q-40 -43 -99 -57q62 -12 106 -58t44 -127z" />
    <glyph glyph-name="four.num" horiz-adv-x="684" 
d="M406 909v308l-234 -308h234zM633 909v-102h-101v-143h-126v143h-369v92l362 481h133v-471h101z" />
    <glyph glyph-name="five.num" horiz-adv-x="645" 
d="M582 900q0 -110 -71 -180q-71 -69 -201 -69q-130 -1 -194 57t-65 150h129q0 -45 34 -73q34 -27 100 -27t101 38q36 38 36 96t-36 93t-103 35t-122 -37l-102 12l49 385h416v-102h-311l-25 -182q61 31 123 30q104 0 173 -58t69 -168z" />
    <glyph glyph-name="six.num" horiz-adv-x="688" 
d="M362 1288q-82 0 -122 -62t-39 -169q65 65 179 65t178 -62t65 -166q0 -104 -71 -173q-71 -70 -208 -70t-207 94q-69 94 -69 264t72 277q73 106 208 106q134 0 196 -54q62 -56 62 -142h-129q0 92 -115 92zM348 758q70 0 107 36t37 97t-37 97t-105 36q-96 0 -147 -82
q0 -82 37 -133q38 -51 108 -51z" />
    <glyph glyph-name="seven.num" horiz-adv-x="573" 
d="M39 1278v102h500v-88l-289 -628h-139l284 614h-356z" />
    <glyph glyph-name="eight.num" horiz-adv-x="698" 
d="M348 1288q-61 0 -97 -28t-36 -75q0 -48 37 -75t95 -27t96 27t38 75q0 47 -36 75t-97 28zM349 981q-67 0 -109 -31t-41 -82q0 -51 42 -81q42 -29 107 -29t107 29q41 30 41 81t-40 82t-107 31zM348 651q-127 -1 -204 55t-76 152q0 137 141 174q-127 41 -127 158
q0 94 72 148t194 54t194 -54q71 -54 70 -148q0 -117 -125 -158q141 -37 142 -174q0 -96 -77 -152t-204 -55z" />
    <glyph glyph-name="nine.num" horiz-adv-x="688" 
d="M80 848h129q0 -43 32 -67t83 -23q162 0 161 231q-69 -67 -181 -67t-176 62t-65 166q0 104 71 174q71 69 208 69q137 -1 207 -95q69 -94 69 -264t-72 -276q-73 -106 -207 -106q-135 0 -197 54q-62 56 -62 142zM338 1288q-70 0 -106 -37t-36 -98t36 -96t106 -35
q98 0 145 82q0 80 -37 132q-38 52 -108 52z" />
    <glyph glyph-name="parenleft.case" horiz-adv-x="583" 
d="M106 702q0 288 73 503q73 214 212 440l129 -46q-117 -227 -178 -437t-61 -463t57 -459t178 -443l-125 -47q-141 220 -213 442t-72 510z" />
    <glyph glyph-name="parenright.case" horiz-adv-x="583" 
d="M303 700q0 252 -61 462t-179 437l130 46q139 -227 211 -441t71 -503q0 -287 -71 -507t-211 -444l-125 47q121 236 178 443q57 208 57 460z" />
    <glyph glyph-name="hyphen.case" horiz-adv-x="802" 
d="M135 748h533v-144h-533v144z" />
    <glyph glyph-name="bracketleft.case" horiz-adv-x="647" 
d="M145 1618h418v-141h-248v-1573h248v-142h-418v1856z" />
    <glyph glyph-name="bracketright.case" horiz-adv-x="647" 
d="M84 1618h418v-1856h-418v142h248v1573h-248v141z" />
    <glyph glyph-name="braceleft.case" horiz-adv-x="641" 
d="M408 1337v-428q0 -197 -146 -219q145 -18 146 -221v-424q0 -86 32 -119t111 -32v-132q-166 0 -239 60t-72 221v414q0 94 -43 131t-142 37v131q100 0 143 37q42 37 42 131v413q0 154 73 217q74 63 238 64v-131q-79 0 -111 -33t-32 -117z" />
    <glyph glyph-name="bar.case" horiz-adv-x="411" 
d="M264 -238h-119v1856h119v-1856z" />
    <glyph glyph-name="braceright.case" horiz-adv-x="641" 
d="M236 909v428q0 84 -33 117t-111 33v131q164 0 238 -64t73 -217v-413q0 -94 42 -131t143 -37v-131q-98 0 -142 -37t-43 -131v-414q-1 -160 -73 -220t-238 -61v132q78 0 111 32t33 119v424q0 203 145 221q-145 22 -145 219z" />
    <glyph glyph-name="guilsinglleft.case" horiz-adv-x="688" 
d="M86 676l367 440l108 -78l-276 -362l276 -365l-108 -78z" />
    <glyph glyph-name="guilsinglright.case" horiz-adv-x="686" 
d="M233 1116l367 -440l-367 -443l-108 78l276 365l-276 362z" />
    <glyph glyph-name="guillemotleft.case" horiz-adv-x="1079" 
d="M477 676l367 440l108 -78l-276 -362l276 -365l-108 -78zM86 676l367 440l108 -78l-276 -362l276 -365l-108 -78z" />
    <glyph glyph-name="guillemotright.case" horiz-adv-x="1079" 
d="M233 1116l367 -440l-367 -443l-108 78l276 365l-276 362zM625 1116l366 -440l-366 -443l-109 78l277 365l-277 362z" />
    <glyph glyph-name="endash.case" horiz-adv-x="1214" 
d="M135 748h942v-144h-942v144z" />
    <glyph glyph-name="emdash.case" horiz-adv-x="1501" 
d="M135 748h1229v-144h-1229v144z" />
    <glyph glyph-name="bullet.case" horiz-adv-x="778" 
d="M389 451q-100 0 -167 63q-66 64 -66 160t66 160q67 63 167 63t166 -63q66 -64 66 -160t-66 -160t-166 -63z" />
    <glyph glyph-name="periodcentered.case" horiz-adv-x="516" 
d="M257 633q-56 0 -93 37t-37 91t37 90t93 36t93 -36t37 -90t-37 -91t-93 -37z" />
    <glyph glyph-name="a.alt" horiz-adv-x="1056" 
d="M522 803q-262 0 -262 -336t262 -336q162 0 234 113v446q-82 113 -234 113zM760 934h158v-934h-158v88q-94 -108 -282 -108t-287 129t-99 359t99 358t286 128t283 -110v90z" />
    <glyph glyph-name="agrave.alt" horiz-adv-x="1056" 
d="M299 1425h176l156 -319h-154zM522 803q-262 0 -262 -336t262 -336q162 0 234 113v446q-82 113 -234 113zM760 934h158v-934h-158v88q-94 -108 -282 -108t-287 129t-99 359t99 358t286 128t283 -110v90z" />
    <glyph glyph-name="aacute.alt" horiz-adv-x="1056" 
d="M610 1425h176l-178 -319h-153zM522 803q-262 0 -262 -336t262 -336q162 0 234 113v446q-82 113 -234 113zM760 934h158v-934h-158v88q-94 -108 -282 -108t-287 129t-99 359t99 358t286 128t283 -110v90z" />
    <glyph glyph-name="acircumflex.alt" horiz-adv-x="1056" 
d="M457 1425h166l208 -319h-151l-141 207l-138 -207h-151zM522 803q-262 0 -262 -336t262 -336q162 0 234 113v446q-82 113 -234 113zM760 934h158v-934h-158v88q-94 -108 -282 -108t-287 129t-99 359t99 358t286 128t283 -110v90z" />
    <glyph glyph-name="atilde.alt" horiz-adv-x="1056" 
d="M379 1145q-74 0 -125 51l12 125q48 -49 110 -49t150 39t158 39t141 -50l-12 -129q-68 53 -122 53t-146 -39q-92 -40 -166 -40zM522 803q-262 0 -262 -336t262 -336q162 0 234 113v446q-82 113 -234 113zM760 934h158v-934h-158v88q-94 -108 -282 -108t-287 129t-99 359
t99 358t286 128t283 -110v90z" />
    <glyph glyph-name="adieresis.alt" horiz-adv-x="1056" 
d="M727 1141q-113 0 -113 110q0 115 113 115q49 0 82 -29t33 -85t-33 -84t-82 -27zM352 1141q-115 0 -114 110q0 57 31 86q32 29 82 29t83 -29t33 -85t-33 -84t-82 -27zM522 803q-262 0 -262 -336t262 -336q162 0 234 113v446q-82 113 -234 113zM760 934h158v-934h-158v88
q-94 -108 -282 -108t-287 129t-99 359t99 358t286 128t283 -110v90z" />
    <glyph glyph-name="amacron.alt" horiz-adv-x="1056" 
d="M252 1313h575v-135h-575v135zM522 803q-262 0 -262 -336t262 -336q162 0 234 113v446q-82 113 -234 113zM760 934h158v-934h-158v88q-94 -108 -282 -108t-287 129t-99 359t99 358t286 128t283 -110v90z" />
    <glyph glyph-name="abreve.alt" horiz-adv-x="1056" 
d="M821 1399q0 -125 -77 -204q-78 -79 -206 -79t-204 79t-76 204h115q4 -70 48 -114t117 -44q72 0 116 44t48 114h119zM522 803q-262 0 -262 -336t262 -336q162 0 234 113v446q-82 113 -234 113zM760 934h158v-934h-158v88q-94 -108 -282 -108t-287 129t-99 359t99 358
t286 128t283 -110v90z" />
    <glyph glyph-name="aring.alt" horiz-adv-x="1056" 
d="M522 803q-262 0 -262 -336t262 -336q162 0 234 113v446q-82 113 -234 113zM760 934h158v-934h-158v88q-94 -108 -282 -108t-287 129t-99 359t99 358t286 128t283 -110v90zM434 1275q0 -44 28 -72q28 -27 77 -27t77 28t29 71q0 44 -29 72q-30 27 -78 27t-76 -28t-28 -71z
M326 1275q0 83 57 138t155 55t157 -55t59 -138t-58 -139t-157 -56q-97 0 -155 56t-58 139z" />
    <glyph glyph-name="aringacute.alt" horiz-adv-x="1056" 
d="M522 803q-262 0 -262 -336t262 -336q162 0 234 113v446q-82 113 -234 113zM760 934h158v-934h-158v88q-94 -108 -282 -108t-287 129t-99 359t99 358t286 128t283 -110v90zM434 1254q0 -44 28 -72t78 -27q50 0 78 27q28 28 27 72q0 44 -28 72q-29 28 -77 28t-77 -28
t-29 -72zM328 1249q0 78 46 131t126 64l98 149h170l-131 -166q117 -45 117 -174q0 -82 -58 -138t-156 -56q-97 0 -155 56q-57 56 -57 134z" />
    <glyph glyph-name="g.alt" horiz-adv-x="1001" 
d="M219 -143q0 -156 246 -156q285 0 285 172q0 135 -172 135h-263q-96 -57 -96 -151zM487 418q221 0 222 194q-1 199 -227 199t-226 -197q0 -96 53 -146t178 -50zM938 807h-154q82 -77 82 -215t-98 -220t-279 -81q-90 0 -143 14q-35 -49 -35 -84q0 -74 97 -74h176
q336 0 336 -256q0 -145 -122 -233t-328 -88t-307 70t-102 178q-1 76 49 136t111 79q-31 14 -49 50t-18 75q0 92 94 178q-152 84 -152 278q0 160 100 250t291 90q119 0 207 -34l244 28v-141z" />
    <glyph glyph-name="gcircumflex.alt" horiz-adv-x="1001" 
d="M420 1425h166l209 -319h-152l-141 207l-137 -207h-152zM219 -143q0 -156 246 -156q285 0 285 172q0 135 -172 135h-263q-96 -57 -96 -151zM487 418q221 0 222 194q-1 199 -227 199t-226 -197q0 -96 53 -146t178 -50zM938 807h-154q82 -77 82 -215t-98 -220t-279 -81
q-90 0 -143 14q-35 -49 -35 -84q0 -74 97 -74h176q336 0 336 -256q0 -145 -122 -233t-328 -88t-307 70t-102 178q-1 76 49 136t111 79q-31 14 -49 50t-18 75q0 92 94 178q-152 84 -152 278q0 160 100 250t291 90q119 0 207 -34l244 28v-141z" />
    <glyph glyph-name="gbreve.alt" horiz-adv-x="1001" 
d="M219 -143q0 -156 246 -156q285 0 285 172q0 135 -172 135h-263q-96 -57 -96 -151zM487 418q221 0 222 194q-1 199 -227 199t-226 -197q0 -96 53 -146t178 -50zM938 807h-154q82 -77 82 -215t-98 -220t-279 -81q-90 0 -143 14q-35 -49 -35 -84q0 -74 97 -74h176
q336 0 336 -256q0 -145 -122 -233t-328 -88t-307 70t-102 178q-1 76 49 136t111 79q-31 14 -49 50t-18 75q0 92 94 178q-152 84 -152 278q0 160 100 250t291 90q119 0 207 -34l244 28v-141zM768 1399q0 -125 -77 -204t-206 -79t-205 79t-75 204h114q5 -70 49 -114t116 -44
t117 44q44 44 48 114h119z" />
    <glyph glyph-name="gdotaccent.alt" horiz-adv-x="1001" 
d="M219 -143q0 -156 246 -156q285 0 285 172q0 135 -172 135h-263q-96 -57 -96 -151zM487 418q221 0 222 194q-1 199 -227 199t-226 -197q0 -96 53 -146t178 -50zM938 807h-154q82 -77 82 -215t-98 -220t-279 -81q-90 0 -143 14q-35 -49 -35 -84q0 -74 97 -74h176
q336 0 336 -256q0 -145 -122 -233t-328 -88t-307 70t-102 178q-1 76 49 136t111 79q-31 14 -49 50t-18 75q0 92 94 178q-152 84 -152 278q0 160 100 250t291 90q119 0 207 -34l244 28v-141zM481 1141q-115 0 -114 110q0 57 31 86q32 29 81 29t83 -30t34 -85t-34 -83t-81 -27
z" />
    <glyph glyph-name="brokenbar.sc" horiz-adv-x="413" 
d="M156 385h102v-594h-102v594zM258 594h-102v598h102v-598z" />
    <glyph glyph-name="gcommaaccent.alt" horiz-adv-x="1001" 
d="M397 1135l113 358h129l-53 -358h-189zM219 -143q0 -156 246 -156q285 0 285 172q0 135 -172 135h-263q-96 -57 -96 -151zM487 418q221 0 222 194q-1 199 -227 199t-226 -197q0 -96 53 -146t178 -50zM938 807h-154q82 -77 82 -215t-98 -220t-279 -81q-90 0 -143 14
q-35 -49 -35 -84q0 -74 97 -74h176q336 0 336 -256q0 -145 -122 -233t-328 -88t-307 70t-102 178q-1 76 49 136t111 79q-31 14 -49 50t-18 75q0 92 94 178q-152 84 -152 278q0 160 100 250t291 90q119 0 207 -34l244 28v-141z" />
    <glyph glyph-name="aogonek.alt" horiz-adv-x="1056" 
d="M524 803q-262 0 -262 -336t262 -336q162 0 234 113v446q-82 113 -234 113zM762 934h158v-934l-154 -119q-68 -55 -68 -110q0 -33 24 -57t74 -24t124 54v-141q-82 -45 -176 -45t-153 50t-59 146t111 185l119 94v55q-94 -108 -282 -108t-286 129t-100 359q0 230 100 358
t286 128t282 -110v90z" />
    </font>
</defs>
</svg>
